<svg xmlns="http://www.w3.org/2000/svg" xmlns:xlink="http://www.w3.org/1999/xlink" width="42" height="42" viewBox="0 0 42 42">
  <defs>
    <clipPath id="clip-path">
      <rect width="42" height="42" fill="none"/>
    </clipPath>
  </defs>
  <g id="Camera" clip-path="url(#clip-path)">
    <rect id="Rectangle_252" data-name="Rectangle 252" width="42" height="42" fill="none"/>
    <path id="Path_110" data-name="Path 110" d="M21,27.333A5.471,5.471,0,0,0,21,16.4a5.471,5.471,0,0,0,0,10.933Zm0-16.4A10.755,10.755,0,0,1,31.5,21.866,10.755,10.755,0,0,1,21,32.8,10.755,10.755,0,0,1,10.5,21.866,10.755,10.755,0,0,1,21,10.933ZM36.75,41H5.25a5.084,5.084,0,0,1-3.675-1.64A5.508,5.508,0,0,1,0,35.533v-24.6A5.377,5.377,0,0,1,5.25,5.467h4.2l3.937-4.1A4.265,4.265,0,0,1,16.537,0h9.187a4.143,4.143,0,0,1,2.887,1.367l3.937,4.1h4.2A5.377,5.377,0,0,1,42,10.933v24.6A5.377,5.377,0,0,1,36.75,41Z" transform="translate(0 1)" fill="#464545" fill-rule="evenodd"/>
  </g>
</svg>
