<svg xmlns="http://www.w3.org/2000/svg" width="109.104" height="23" viewBox="0 0 109.104 23">
  <g id="Group_242" data-name="Group 242" transform="translate(-15.896 -770)">
    <text id="FEATURED" transform="translate(45 787)" fill="#fff" font-size="16" font-family="Roboto-Regular, Roboto"><tspan x="0" y="0">FEATURED</tspan></text>
    <g id="Group_222" data-name="Group 222" transform="translate(-229.104 69.896)">
      <g id="Path_209" data-name="Path 209" transform="translate(245 701)" fill="#fff">
        <path d="M 11.0517578125 21.60351753234863 C 5.233497619628906 21.60351753234863 0.4999978244304657 16.87001800537109 0.4999978244304657 11.0517578125 C 0.4999978244304657 5.233497619628906 5.233497619628906 0.4999978244304657 11.0517578125 0.4999978244304657 C 16.87001800537109 0.4999978244304657 21.60351753234863 5.233497619628906 21.60351753234863 11.0517578125 C 21.60351753234863 16.87001800537109 16.87001800537109 21.60351753234863 11.0517578125 21.60351753234863 Z" stroke="none"/>
        <path d="M 11.0517578125 0.9999980926513672 C 5.509197235107422 0.9999980926513672 0.9999980926513672 5.509197235107422 0.9999980926513672 11.0517578125 C 0.9999980926513672 16.59431838989258 5.509197235107422 21.10351753234863 11.0517578125 21.10351753234863 C 16.59431838989258 21.10351753234863 21.10351753234863 16.59431838989258 21.10351753234863 11.0517578125 C 21.10351753234863 5.509197235107422 16.59431838989258 0.9999980926513672 11.0517578125 0.9999980926513672 M 11.0517578125 -1.9073486328125e-06 C 17.15546798706055 -1.9073486328125e-06 22.10351753234863 4.948038101196289 22.10351753234863 11.0517578125 C 22.10351753234863 17.15546798706055 17.15546798706055 22.10351753234863 11.0517578125 22.10351753234863 C 4.948038101196289 22.10351753234863 -1.9073486328125e-06 17.15546798706055 -1.9073486328125e-06 11.0517578125 C -1.9073486328125e-06 4.948038101196289 4.948038101196289 -1.9073486328125e-06 11.0517578125 -1.9073486328125e-06 Z" stroke="none" fill="#fff"/>
      </g>
      <path id="Path_208" data-name="Path 208" d="M244.685,154.479l6.012-1.528-6.012-1.528,1.969-3.31-3.31,1.969-1.528-6.012-1.528,6.012-3.311-1.969,1.969,3.31-6.012,1.528,6.012,1.528-1.969,3.31,3.311-1.969,1.528,6.012,1.528-6.012,3.31,1.969Z" transform="translate(14.024 559.067)" fill="#464545"/>
    </g>
  </g>
</svg>
