<svg xmlns="http://www.w3.org/2000/svg" width="72.9" height="9.156" viewBox="0 0 72.9 9.156">
  <g id="Group_2691" data-name="Group 2691" transform="translate(-159.596 -561.844)">
    <g id="Path_931" data-name="Path 931" transform="translate(159.596 561.844)" fill="#9d9b9d">
      <path d="M 4.445037841796875 8.390077590942383 C 2.269737958908081 8.390077590942383 0.4999978542327881 6.620337963104248 0.4999978542327881 4.445037841796875 C 0.4999978542327881 2.269737958908081 2.269737958908081 0.4999978542327881 4.445037841796875 0.4999978542327881 C 6.620337963104248 0.4999978542327881 8.390077590942383 2.269737958908081 8.390077590942383 4.445037841796875 C 8.390077590942383 6.620337963104248 6.620337963104248 8.390077590942383 4.445037841796875 8.390077590942383 Z" stroke="none"/>
      <path d="M 4.445037841796875 0.999997615814209 C 2.545437812805176 0.999997615814209 0.999997615814209 2.545437812805176 0.999997615814209 4.445037841796875 C 0.999997615814209 6.344637870788574 2.545437812805176 7.890077590942383 4.445037841796875 7.890077590942383 C 6.344637870788574 7.890077590942383 7.890077590942383 6.344637870788574 7.890077590942383 4.445037841796875 C 7.890077590942383 2.545437812805176 6.344637870788574 0.999997615814209 4.445037841796875 0.999997615814209 M 4.445037841796875 -1.9073486328125e-06 C 6.899967670440674 -1.9073486328125e-06 8.890077590942383 1.990108013153076 8.890077590942383 4.445037841796875 C 8.890077590942383 6.899967670440674 6.899967670440674 8.890077590942383 4.445037841796875 8.890077590942383 C 1.990108013153076 8.890077590942383 -1.9073486328125e-06 6.899967670440674 -1.9073486328125e-06 4.445037841796875 C -1.9073486328125e-06 1.990108013153076 1.990108013153076 -1.9073486328125e-06 4.445037841796875 -1.9073486328125e-06 Z" stroke="none" fill="#9d9b9d"/>
    </g>
    <g id="Ellipse_228" data-name="Ellipse 228" transform="translate(175.598 561.844)" fill="none" stroke="#9d9b9d" stroke-width="1">
      <circle cx="4.445" cy="4.445" r="4.445" stroke="none"/>
      <circle cx="4.445" cy="4.445" r="3.945" fill="none"/>
    </g>
    <g id="Ellipse_315" data-name="Ellipse 315" transform="translate(191.601 562.11)" fill="none" stroke="#9d9b9d" stroke-width="1">
      <circle cx="4.445" cy="4.445" r="4.445" stroke="none"/>
      <circle cx="4.445" cy="4.445" r="3.945" fill="none"/>
    </g>
    <g id="Ellipse_316" data-name="Ellipse 316" transform="translate(207.603 562.11)" fill="none" stroke="#9d9b9d" stroke-width="1">
      <circle cx="4.445" cy="4.445" r="4.445" stroke="none"/>
      <circle cx="4.445" cy="4.445" r="3.945" fill="none"/>
    </g>
    <g id="Ellipse_317" data-name="Ellipse 317" transform="translate(223.605 562)" fill="none" stroke="#9d9b9d" stroke-width="1">
      <circle cx="4.445" cy="4.445" r="4.445" stroke="none"/>
      <circle cx="4.445" cy="4.445" r="3.945" fill="none"/>
    </g>
  </g>
</svg>
