<svg xmlns="http://www.w3.org/2000/svg" width="148" height="148" viewBox="0 0 148 148">
  <g id="Group_758" data-name="Group 758" transform="translate(-98 -450)">
    <g id="Ellipse_274" data-name="Ellipse 274" transform="translate(98 450)" fill="#464545" stroke="#707070" stroke-width="1">
      <circle cx="74" cy="74" r="74" stroke="none"/>
      <circle cx="74" cy="74" r="73.5" fill="none"/>
    </g>
    <g id="Group_757" data-name="Group 757" transform="translate(-434.506 516.38)">
      <path id="Path_223" data-name="Path 223" d="M621,15.648a9.364,9.364,0,0,0-7.4,3.618l-17.65-8.789a9.42,9.42,0,0,0,.024-4.8L613.643-3.14A9.365,9.365,0,0,0,621,.422a9.383,9.383,0,0,0,9.383-9.384A9.383,9.383,0,0,0,621-18.345a9.384,9.384,0,0,0-9.384,9.384,9.386,9.386,0,0,0,.345,2.519L594.352,2.35a9.383,9.383,0,1,0-.056,11.444l17.647,8.787A9.383,9.383,0,1,0,621,15.648Zm0-30.334a5.731,5.731,0,0,1,5.724,5.724A5.731,5.731,0,0,1,621-3.237a5.731,5.731,0,0,1-5.724-5.725A5.731,5.731,0,0,1,621-14.686ZM586.889,13.76a5.725,5.725,0,1,1,5.726-5.724A5.731,5.731,0,0,1,586.889,13.76Zm34.112,17a5.724,5.724,0,1,1,5.724-5.724A5.731,5.731,0,0,1,621,30.756Z" transform="translate(0 0)" fill="#fff"/>
      <path id="Path_224" data-name="Path 224" d="M661.2-5.994A6.374,6.374,0,0,1,654.822.381a6.374,6.374,0,0,1-6.374-6.374,6.373,6.373,0,0,1,6.374-6.373A6.374,6.374,0,0,1,661.2-5.994Z" transform="translate(-33.821 -2.85)" fill="#fff"/>
      <path id="Path_225" data-name="Path 225" d="M661.2,58.746a6.374,6.374,0,1,1-6.374-6.374A6.374,6.374,0,0,1,661.2,58.746Z" transform="translate(-33.821 -33.714)" fill="#fff"/>
      <path id="Path_226" data-name="Path 226" d="M596,26.264a6.373,6.373,0,1,1-6.374-6.374A6.374,6.374,0,0,1,596,26.264Z" transform="translate(-2.742 -18.228)" fill="#fff"/>
    </g>
  </g>
</svg>
