<svg id="Group_2449" data-name="Group 2449" xmlns="http://www.w3.org/2000/svg" width="20.877" height="20.831" viewBox="0 0 20.877 20.831">
  <path id="Path_223" data-name="Path 223" d="M594.679-4.924A3.7,3.7,0,0,0,591.757-3.5l-6.969-3.47a3.722,3.722,0,0,0,.127-.964,3.705,3.705,0,0,0-.118-.93l6.976-3.483a3.7,3.7,0,0,0,2.9,1.406,3.7,3.7,0,0,0,3.7-3.7,3.7,3.7,0,0,0-3.7-3.7,3.7,3.7,0,0,0-3.7,3.7,3.707,3.707,0,0,0,.136.995l-6.953,3.471a3.7,3.7,0,0,0-2.947-1.46,3.7,3.7,0,0,0-3.7,3.7,3.7,3.7,0,0,0,3.7,3.7,3.7,3.7,0,0,0,2.925-1.431L591.1-2.187a3.712,3.712,0,0,0-.129.968,3.7,3.7,0,0,0,3.7,3.7,3.7,3.7,0,0,0,3.7-3.7A3.7,3.7,0,0,0,594.679-4.924Zm0-11.977a2.263,2.263,0,0,1,2.26,2.26,2.263,2.263,0,0,1-2.26,2.26,2.263,2.263,0,0,1-2.26-2.26A2.263,2.263,0,0,1,594.679-16.9ZM581.211-5.669a2.263,2.263,0,0,1-2.26-2.26,2.263,2.263,0,0,1,2.26-2.26,2.263,2.263,0,0,1,2.261,2.26A2.263,2.263,0,0,1,581.211-5.669Zm13.468,6.711a2.263,2.263,0,0,1-2.26-2.26,2.263,2.263,0,0,1,2.26-2.26,2.263,2.263,0,0,1,2.26,2.26A2.263,2.263,0,0,1,594.679,1.041Z" transform="translate(-577.506 18.345)" fill="#fff"/>
  <path id="Path_224" data-name="Path 224" d="M653.481-9.851a2.517,2.517,0,0,1-2.517,2.517,2.517,2.517,0,0,1-2.517-2.517,2.516,2.516,0,0,1,2.517-2.516A2.516,2.516,0,0,1,653.481-9.851Z" transform="translate(-633.792 13.602)" fill="#fff"/>
  <path id="Path_225" data-name="Path 225" d="M653.481,54.889a2.517,2.517,0,1,1-2.517-2.517A2.517,2.517,0,0,1,653.481,54.889Z" transform="translate(-633.792 -37.762)" fill="#fff"/>
  <path id="Path_226" data-name="Path 226" d="M588.291,22.407a2.516,2.516,0,1,1-2.516-2.517A2.516,2.516,0,0,1,588.291,22.407Z" transform="translate(-582.07 -11.991)" fill="#fff"/>
</svg>
