<svg xmlns="http://www.w3.org/2000/svg" width="93.756" height="81.195" viewBox="0 0 93.756 81.195">
  <g id="Group_2598" data-name="Group 2598" transform="translate(385.411 -246.179)">
    <path id="Path_243" data-name="Path 243" d="M-338.533,327.374l46.878-81.2h-93.756Z" transform="translate(0 0)"/>
    <g id="Group_450" data-name="Group 450" transform="translate(-345.852 264.291)">
      <path id="Path_244" data-name="Path 244" d="M-315.457,287.572a2.21,2.21,0,0,0-.779-1.765,7.87,7.87,0,0,0-2.727-1.256,15.532,15.532,0,0,1-5.14-2.329,4.411,4.411,0,0,1-1.74-3.689,4.569,4.569,0,0,1,1.994-3.826,8.311,8.311,0,0,1,5.1-1.484,7.658,7.658,0,0,1,5.114,1.668A4.994,4.994,0,0,1-311.73,279l-.026.079h-3.7a2.78,2.78,0,0,0-.883-2.139,3.513,3.513,0,0,0-2.479-.817,3.664,3.664,0,0,0-2.367.68,2.144,2.144,0,0,0-.837,1.74,1.866,1.866,0,0,0,.9,1.589,12.37,12.37,0,0,0,3.093,1.315,12.007,12.007,0,0,1,4.774,2.315,4.812,4.812,0,0,1,1.622,3.78,4.528,4.528,0,0,1-1.929,3.859,8.429,8.429,0,0,1-5.094,1.412,9.3,9.3,0,0,1-5.429-1.6,5,5,0,0,1-2.25-4.493l.026-.078h3.715a2.929,2.929,0,0,0,1.039,2.491,4.689,4.689,0,0,0,2.9.792,3.812,3.812,0,0,0,2.38-.641A2.06,2.06,0,0,0-315.457,287.572Z" transform="translate(326.342 -273.224)" fill="#fff"/>
    </g>
  </g>
</svg>
