<svg xmlns="http://www.w3.org/2000/svg" width="93.756" height="81.195" viewBox="0 0 93.756 81.195">
  <g id="Group_2603" data-name="Group 2603" transform="translate(219.117 -264.539)">
    <path id="Path_245" data-name="Path 245" d="M-172.239,345.735l46.878-81.2h-93.756Z" transform="translate(0 0)"/>
    <g id="Group_454" data-name="Group 454" transform="translate(-181.691 275.232)">
      <g id="Group_452" data-name="Group 452" transform="translate(0 7.42)">
        <path id="Path_246" data-name="Path 246" d="M-152.348,305.933a2.212,2.212,0,0,0-.778-1.765,7.88,7.88,0,0,0-2.728-1.256,15.534,15.534,0,0,1-5.14-2.329,4.411,4.411,0,0,1-1.74-3.689,4.571,4.571,0,0,1,1.994-3.826,8.311,8.311,0,0,1,5.1-1.484,7.657,7.657,0,0,1,5.114,1.668,4.994,4.994,0,0,1,1.909,4.113l-.026.079h-3.7a2.78,2.78,0,0,0-.883-2.139,3.513,3.513,0,0,0-2.479-.818,3.664,3.664,0,0,0-2.367.68,2.144,2.144,0,0,0-.837,1.74,1.866,1.866,0,0,0,.9,1.589,12.407,12.407,0,0,0,3.093,1.315,12.007,12.007,0,0,1,4.774,2.315,4.811,4.811,0,0,1,1.622,3.78,4.528,4.528,0,0,1-1.929,3.859,8.429,8.429,0,0,1-5.094,1.412,9.3,9.3,0,0,1-5.429-1.6,5,5,0,0,1-2.25-4.493l.026-.078h3.715a2.929,2.929,0,0,0,1.039,2.491,4.69,4.69,0,0,0,2.9.792,3.812,3.812,0,0,0,2.38-.641A2.06,2.06,0,0,0-152.348,305.933Z" transform="translate(163.233 -291.585)" fill="#fff"/>
      </g>
      <g id="Group_453" data-name="Group 453" transform="translate(15.424 0)">
        <path id="Path_247" data-name="Path 247" d="M-133.8,293.895a1.3,1.3,0,0,0-.458-1.039,4.621,4.621,0,0,0-1.6-.738,9.12,9.12,0,0,1-3.023-1.37,2.591,2.591,0,0,1-1.024-2.169,2.687,2.687,0,0,1,1.173-2.25,4.885,4.885,0,0,1,3-.874,4.5,4.5,0,0,1,3.008.981,2.938,2.938,0,0,1,1.124,2.42l-.015.046H-133.8a1.635,1.635,0,0,0-.519-1.258,2.065,2.065,0,0,0-1.458-.481,2.153,2.153,0,0,0-1.392.4,1.26,1.26,0,0,0-.492,1.023,1.1,1.1,0,0,0,.526.934,7.255,7.255,0,0,0,1.819.774,7.058,7.058,0,0,1,2.808,1.361,2.829,2.829,0,0,1,.953,2.223,2.66,2.66,0,0,1-1.135,2.269,4.95,4.95,0,0,1-3,.831,5.468,5.468,0,0,1-3.192-.942,2.943,2.943,0,0,1-1.324-2.643l.016-.046H-138a1.723,1.723,0,0,0,.611,1.466,2.758,2.758,0,0,0,1.7.465,2.245,2.245,0,0,0,1.4-.377A1.213,1.213,0,0,0-133.8,293.895Z" transform="translate(140.201 -285.456)" fill="#fff"/>
      </g>
    </g>
  </g>
</svg>
