<svg xmlns="http://www.w3.org/2000/svg" width="336.309" height="321.979" viewBox="0 0 336.309 321.979">
  <g id="Group_2805" data-name="Group 2805" transform="translate(-19 -247)">
    <g id="Group_2690" data-name="Group 2690" transform="translate(-720 230)">
      <path id="Path_1656" data-name="Path 1656" d="M1046.409,172.915V104.5h-4.32V80.682H999.436V104.5h-4.315v68.414h49.668" transform="translate(-65.555 -16.3)" fill="#fff"/>
      <path id="Path_1657" data-name="Path 1657" d="M1046.318,173.089a.266.266,0,0,1-.265-.266V104.675H1042a.265.265,0,0,1-.265-.266V80.856H999.609v23.553a.265.265,0,0,1-.265.266h-4.05v67.884h49.4a.265.265,0,0,1,0,.531H995.03a.266.266,0,0,1-.265-.266V104.409a.265.265,0,0,1,.265-.265h4.051V80.591a.265.265,0,0,1,.264-.266H1042a.265.265,0,0,1,.264.266v23.554h4.056a.265.265,0,0,1,.265.265v68.414A.265.265,0,0,1,1046.318,173.089Z" transform="translate(-65.464 -16.208)" fill="#b3b3b3"/>
      <path id="Path_1658" data-name="Path 1658" d="M1061.875,164.535V92.851h2.806l8.423-27.068h1.4l1.482-17.841,1.324,17.841h1.4l8.423,27.068h2.806v71.684h-26.451" transform="translate(-82.641 -7.92)" fill="#fff"/>
      <path id="Path_1659" data-name="Path 1659" d="M1089.855,164.709H1063.4a.265.265,0,0,1,0-.531h26.187V93.025h-2.542a.266.266,0,0,1-.253-.187l-8.365-26.881h-1.208a.265.265,0,0,1-.264-.246l-1.074-14.484-1.2,14.487a.264.264,0,0,1-.263.243h-1.208l-8.366,26.881a.265.265,0,0,1-.253.187h-2.542v71.419a.265.265,0,1,1-.53,0V92.76a.266.266,0,0,1,.265-.266h2.612l8.366-26.881a.265.265,0,0,1,.253-.187h1.159l1.462-17.6a.264.264,0,0,1,.263-.243h0a.266.266,0,0,1,.263.246l1.3,17.6h1.158a.266.266,0,0,1,.253.187l8.366,26.881h2.611a.265.265,0,0,1,.265.266v71.684a.267.267,0,0,1-.266.266Z" transform="translate(-82.55 -7.828)" fill="#b3b3b3"/>
      <path id="Path_1660" data-name="Path 1660" d="M891.075,60.717V164.341H833.307V47.186h38.872V60.717Z" transform="translate(-24.138 -7.726)" fill="#fff"/>
      <path id="Path_1661" data-name="Path 1661" d="M890.984,164.515H833.216a.265.265,0,0,1-.265-.266V47.095a.265.265,0,0,1,.265-.266h38.872a.265.265,0,0,1,.265.266V60.36h18.632a.266.266,0,0,1,.265.266V164.25A.266.266,0,0,1,890.984,164.515Zm-57.5-.531h57.239V60.891H872.088a.264.264,0,0,1-.264-.265V47.36H833.481Z" transform="translate(-24.047 -7.635)" fill="#b3b3b3"/>
      <path id="Path_1662" data-name="Path 1662" d="M822.516,87.924v86.844H765.827V135.019h12.416v-16.78l37.792-25.878Z" transform="translate(-6.866 -18.153)" fill="#fff"/>
      <path id="Path_1663" data-name="Path 1663" d="M822.425,174.943H765.736a.265.265,0,0,1-.264-.266V134.928a.265.265,0,0,1,.264-.265h12.151V118.148a.268.268,0,0,1,.115-.219l44.273-30.316a.265.265,0,0,1,.414.219v86.844A.266.266,0,0,1,822.425,174.943ZM766,174.412H822.16V88.335l-43.743,29.953v16.64a.266.266,0,0,1-.265.266H766Z" transform="translate(-6.776 -18.062)" fill="#b3b3b3"/>
      <path id="Path_1664" data-name="Path 1664" d="M987.412,101.8v54.9H931.263V101.8H939.9V76.9h5.935V60.663H953.4l5.94-43.306,5.4,43.306h8.1V76.9h5.94v24.9Z" transform="translate(-49.211 -0.091)" fill="#fff"/>
      <path id="Path_1665" data-name="Path 1665" d="M987.321,156.881H931.172a.265.265,0,0,1-.264-.266v-54.9a.265.265,0,0,1,.264-.266h8.376V76.809a.265.265,0,0,1,.265-.266h5.67V60.571a.265.265,0,0,1,.264-.266h7.33l5.909-43.076a.265.265,0,0,1,.262-.229h0a.265.265,0,0,1,.261.232L964.878,60.3h7.867a.266.266,0,0,1,.265.266V76.544h5.676a.266.266,0,0,1,.265.266v24.635h8.37a.266.266,0,0,1,.265.266v54.9A.266.266,0,0,1,987.321,156.881Zm-55.884-.531h55.619V101.976h-8.37a.266.266,0,0,1-.265-.266V77.075h-5.676a.266.266,0,0,1-.265-.266V60.836h-7.836a.265.265,0,0,1-.263-.233l-5.145-41.3-5.666,41.3a.265.265,0,0,1-.262.229h-7.3V76.81a.264.264,0,0,1-.265.265h-5.67v24.636a.264.264,0,0,1-.264.265h-8.376Z" transform="translate(-49.12)" fill="#b3b3b3"/>
      <path id="Path_1666" data-name="Path 1666" d="M879.019,91.562h42.652V175.7H879.019Z" transform="translate(-35.838 -19.084)" fill="#fff"/>
      <path id="Path_1667" data-name="Path 1667" d="M921.58,175.874H878.928a.266.266,0,0,1-.265-.266V91.471a.266.266,0,0,1,.265-.266H921.58a.265.265,0,0,1,.265.266v84.137A.265.265,0,0,1,921.58,175.874Zm-42.388-.531h42.123V91.736H879.193Z" transform="translate(-35.747 -18.993)" fill="#b3b3b3"/>
      <path id="Path_1668" data-name="Path 1668" d="M807.291,135.946h4.856V187.06h-4.856Z" transform="translate(-17.479 -30.445)" fill="#fff"/>
      <path id="Path_1669" data-name="Path 1669" d="M812.056,187.234H807.2a.265.265,0,0,1-.264-.266V135.855a.265.265,0,0,1,.264-.266h4.856a.265.265,0,0,1,.264.266v51.114A.265.265,0,0,1,812.056,187.234Zm-4.591-.531h4.326V136.12h-4.326Z" transform="translate(-17.388 -30.353)" fill="#b3b3b3"/>
      <path id="Path_1670" data-name="Path 1670" d="M792.775,135.946h4.86V187.06h-4.86Z" transform="translate(-13.764 -30.445)" fill="#fff"/>
      <path id="Path_1671" data-name="Path 1671" d="M797.544,187.234h-4.86a.266.266,0,0,1-.265-.266V135.855a.266.266,0,0,1,.265-.266h4.86a.265.265,0,0,1,.265.266v51.114A.265.265,0,0,1,797.544,187.234Zm-4.6-.531h4.331V136.12h-4.331Z" transform="translate(-13.673 -30.353)" fill="#b3b3b3"/>
      <path id="Path_1672" data-name="Path 1672" d="M821.8,135.946h4.86V187.06H821.8Z" transform="translate(-21.193 -30.445)" fill="#fff"/>
      <path id="Path_1673" data-name="Path 1673" d="M826.57,187.234h-4.86a.265.265,0,0,1-.265-.266V135.855a.265.265,0,0,1,.265-.266h4.86a.266.266,0,0,1,.265.266v51.114A.265.265,0,0,1,826.57,187.234Zm-4.6-.531h4.331V136.12h-4.331Z" transform="translate(-21.102 -30.353)" fill="#b3b3b3"/>
      <path id="Path_1674" data-name="Path 1674" d="M1142.762,179.242h4.861v-57.08h-7.561v-9.205L1121.23,105.4l-18.42,7.554v9.205h-7.555v57.08h5.4" transform="translate(-91.185 -22.627)" fill="#fff"/>
      <path id="Path_1675" data-name="Path 1675" d="M1147.532,179.417h-4.861a.265.265,0,0,1,0-.531h4.6v-56.55h-7.3a.265.265,0,0,1-.264-.265v-9.025L1121.14,105.6l-18.155,7.446v9.026a.266.266,0,0,1-.265.266h-7.291v56.55h5.13a.265.265,0,0,1,0,.531h-5.4a.266.266,0,0,1-.265-.266v-57.08a.266.266,0,0,1,.265-.266h7.291v-8.94a.267.267,0,0,1,.164-.246l18.42-7.554a.262.262,0,0,1,.2,0l18.833,7.553a.266.266,0,0,1,.166.246v8.94h7.3a.266.266,0,0,1,.265.266v57.08A.266.266,0,0,1,1147.532,179.417Z" transform="translate(-91.094 -22.536)" fill="#b3b3b3"/>
      <path id="Path_1676" data-name="Path 1676" d="M1102.509,136.611h42.112v2.707h-42.112Z" transform="translate(-93.042 -30.615)" fill="#fff"/>
      <path id="Path_1677" data-name="Path 1677" d="M1144.529,139.492h-42.111a.266.266,0,0,1-.265-.266V136.52a.265.265,0,0,1,.265-.265h42.111a.265.265,0,0,1,.265.265v2.707A.265.265,0,0,1,1144.529,139.492Zm-41.847-.531h41.582v-2.176h-41.582Z" transform="translate(-92.951 -30.524)" fill="#b3b3b3"/>
      <path id="Path_1678" data-name="Path 1678" d="M1102.509,143.887h42.112v2.707h-42.112Z" transform="translate(-93.042 -32.477)" fill="#fff"/>
      <path id="Path_1679" data-name="Path 1679" d="M1144.529,146.767h-42.111a.266.266,0,0,1-.265-.266v-2.707a.265.265,0,0,1,.265-.265h42.111a.265.265,0,0,1,.265.265V146.5A.265.265,0,0,1,1144.529,146.767Zm-41.847-.531h41.582v-2.176h-41.582Z" transform="translate(-92.951 -32.386)" fill="#b3b3b3"/>
      <path id="Path_1680" data-name="Path 1680" d="M1102.509,151.162h42.112v2.707h-42.112Z" transform="translate(-93.042 -34.339)" fill="#fff"/>
      <path id="Path_1681" data-name="Path 1681" d="M1144.529,154.042h-42.111a.266.266,0,0,1-.265-.266V151.07a.265.265,0,0,1,.265-.265h42.111a.265.265,0,0,1,.265.265v2.707A.265.265,0,0,1,1144.529,154.042Zm-41.847-.531h41.582v-2.176h-41.582Z" transform="translate(-92.951 -34.248)" fill="#b3b3b3"/>
      <path id="Path_1682" data-name="Path 1682" d="M1102.509,158.437h42.112v2.707h-42.112Z" transform="translate(-93.042 -36.201)" fill="#fff"/>
      <path id="Path_1683" data-name="Path 1683" d="M1144.529,161.318h-42.111a.266.266,0,0,1-.265-.266v-2.707a.266.266,0,0,1,.265-.266h42.111a.266.266,0,0,1,.265.266v2.707A.265.265,0,0,1,1144.529,161.318Zm-41.847-.531h41.582v-2.176h-41.582Z" transform="translate(-92.951 -36.11)" fill="#b3b3b3"/>
      <path id="Path_1684" data-name="Path 1684" d="M1102.509,165.711h42.112v2.707h-42.112Z" transform="translate(-93.042 -38.063)" fill="#fff"/>
      <path id="Path_1685" data-name="Path 1685" d="M1144.529,168.592h-42.111a.266.266,0,0,1-.265-.266V165.62a.265.265,0,0,1,.265-.265h42.111a.265.265,0,0,1,.265.265v2.707A.265.265,0,0,1,1144.529,168.592Zm-41.847-.531h41.582v-2.176h-41.582Z" transform="translate(-92.951 -37.972)" fill="#b3b3b3"/>
      <path id="Path_1686" data-name="Path 1686" d="M1102.509,172.986h42.112v2.707h-42.112Z" transform="translate(-93.042 -39.925)" fill="#fff"/>
      <path id="Path_1687" data-name="Path 1687" d="M1144.529,175.867h-42.111a.266.266,0,0,1-.265-.266v-2.707a.265.265,0,0,1,.265-.265h42.111a.265.265,0,0,1,.265.265V175.6A.265.265,0,0,1,1144.529,175.867Zm-41.847-.531h41.582v-2.176h-41.582Z" transform="translate(-92.951 -39.834)" fill="#b3b3b3"/>
      <path id="Path_1688" data-name="Path 1688" d="M1102.509,180.261h42.112v2.707h-42.112Z" transform="translate(-93.042 -41.787)" fill="#fff"/>
      <path id="Path_1689" data-name="Path 1689" d="M1144.529,183.142h-42.111a.266.266,0,0,1-.265-.266V180.17a.265.265,0,0,1,.265-.265h42.111a.265.265,0,0,1,.265.265v2.707A.265.265,0,0,1,1144.529,183.142Zm-41.847-.531h41.582v-2.176h-41.582Z" transform="translate(-92.951 -41.696)" fill="#b3b3b3"/>
      <path id="Path_1690" data-name="Path 1690" d="M1102.509,187.537h42.112v2.707h-42.112Z" transform="translate(-93.042 -43.65)" fill="#fff"/>
      <path id="Path_1691" data-name="Path 1691" d="M1144.529,190.417h-42.111a.266.266,0,0,1-.265-.266v-2.707a.265.265,0,0,1,.265-.265h42.111a.265.265,0,0,1,.265.265v2.707A.265.265,0,0,1,1144.529,190.417Zm-41.847-.531h41.582V187.71h-41.582Z" transform="translate(-92.951 -43.558)" fill="#b3b3b3"/>
      <path id="Path_1692" data-name="Path 1692" d="M1102.509,194.812h42.112v2.707h-42.112Z" transform="translate(-93.042 -45.512)" fill="#fff"/>
      <path id="Path_1693" data-name="Path 1693" d="M1144.529,197.692h-42.111a.266.266,0,0,1-.265-.266V194.72a.265.265,0,0,1,.265-.265h42.111a.265.265,0,0,1,.265.265v2.707A.265.265,0,0,1,1144.529,197.692Zm-41.847-.531h41.582v-2.176h-41.582Z" transform="translate(-92.951 -45.42)" fill="#b3b3b3"/>
      <path id="Path_1694" data-name="Path 1694" d="M1144.618,203.989v-1.9h-42.112v1.9" transform="translate(-93.041 -47.374)" fill="#fff"/>
      <path id="Path_1695" data-name="Path 1695" d="M1144.527,204.164a.265.265,0,0,1-.264-.266v-1.635H1102.68V203.9a.265.265,0,1,1-.53,0V202a.266.266,0,0,1,.265-.266h42.112a.265.265,0,0,1,.265.266v1.9A.265.265,0,0,1,1144.527,204.164Z" transform="translate(-92.95 -47.283)" fill="#b3b3b3"/>
      <path id="Path_1696" data-name="Path 1696" d="M1063.495,204.643h-1.62" transform="translate(-82.641 -48.028)" fill="#fff"/>
      <path id="Path_1697" data-name="Path 1697" d="M1061.875,204.287h1.621v.531h-1.621Z" transform="translate(-82.641 -47.937)" fill="#b3b3b3"/>
      <path id="Path_1698" data-name="Path 1698" d="M739,204.643h336.309" transform="translate(0 -48.028)" fill="#fff"/>
      <path id="Path_1699" data-name="Path 1699" d="M739,204.287h336.309v.531H739Z" transform="translate(0 -47.937)" fill="#b3b3b3"/>
    </g>
    <g id="Group_2682" data-name="Group 2682" transform="translate(-35 220.308)">
      <g id="Group_2683" data-name="Group 2683" transform="translate(127.927 289.632)">
        <g id="Group_2682-2" data-name="Group 2682">
          <path id="Path_1504" data-name="Path 1504" d="M326.14,436.534c1.271.857,4.774,1.446,8.482,1.025" transform="translate(-235.161 -428.939)"/>
          <path id="Path_1505" data-name="Path 1505" d="M331.674,438.32c-2.832,0-5.451-.512-6.753-1.389l1.477-2.271c.889.6,4.024,1.213,7.595.807l.3,2.707A23.325,23.325,0,0,1,331.674,438.32Z" transform="translate(-234.681 -428.201)"/>
          <path id="Path_1506" data-name="Path 1506" d="M533.69,431.092c1.471-.4,4.223-2.69,6.364-5.8" transform="translate(-316.944 -424.508)"/>
          <path id="Path_1507" data-name="Path 1507" d="M533.811,431.9l-.7-2.63c1.03-.282,3.555-2.271,5.617-5.269l2.19,1.563C538.769,428.7,535.777,431.359,533.811,431.9Z" transform="translate(-316.718 -424)"/>
          <path id="Path_1508" data-name="Path 1508" d="M287.693,430.615c1.52-.109,4.651-1.815,7.339-4.45" transform="translate(-220.012 -424.853)"/>
          <path id="Path_1509" data-name="Path 1509" d="M287.727,431.336l-.188-2.717c1.063-.076,3.916-1.534,6.506-4.073l1.854,1.963C293.194,429.159,289.757,431.189,287.727,431.336Z" transform="translate(-219.951 -424.215)"/>
          <path id="Path_1510" data-name="Path 1510" d="M435.808,440.139l-2.582-3.622,3.976-1.108,2.163,2.1Z" transform="translate(-277.357 -428.496)"/>
          <path id="Path_1511" data-name="Path 1511" d="M435.373,440.369l-3.061-4.3,4.623-1.288,2.591,2.516Zm-1.952-3.9,2.1,2.949,2.962-2.189-1.737-1.686Z" transform="translate(-276.997 -428.249)"/>
          <path id="Path_1512" data-name="Path 1512" d="M498.735,440.139l-2.581-3.622,3.975-1.108,2.164,2.1Z" transform="translate(-302.153 -428.496)"/>
          <path id="Path_1513" data-name="Path 1513" d="M498.3,440.369l-3.061-4.3,4.623-1.288,2.591,2.516Zm-1.952-3.9,2.1,2.949,2.962-2.189-1.737-1.686Z" transform="translate(-301.793 -428.249)"/>
          <path id="Path_1514" data-name="Path 1514" d="M240.207,435.707l-2.582-3.624,3.976-1.107,2.163,2.1Z" transform="translate(-200.283 -426.749)"/>
          <path id="Path_1515" data-name="Path 1515" d="M239.772,435.936l-3.062-4.3,4.624-1.287,2.59,2.515Zm-1.952-3.9,2.1,2.95,2.963-2.19-1.737-1.686Z" transform="translate(-199.922 -426.503)"/>
          <path id="Path_1516" data-name="Path 1516" d="M398.53,425.5s1.395,3.356-2,2.457c-4.039-1.068-2.892,3.547-2.892,3.547" transform="translate(-261.697 -424.591)"/>
          <path id="Path_1517" data-name="Path 1517" d="M391.469,431.494c-.076-.3-.693-3,.8-4.515.6-.6,1.724-1.213,3.722-.684a3.085,3.085,0,0,0,.61.107,2.842,2.842,0,0,0-.177-.722l2.466-1.056c.159.382.9,2.355-.2,3.654-.71.837-1.843,1.055-3.367.653-.74-.2-1.079-.1-1.165-.021a2.852,2.852,0,0,0-.094,1.921Z" transform="translate(-260.829 -424.246)"/>
          <path id="Path_1518" data-name="Path 1518" d="M184.488,431.27s-2.6,2.5-2.96-1.054c-.428-4.228-4.273-1.52-4.273-1.52" transform="translate(-176.495 -425.514)"/>
          <path id="Path_1519" data-name="Path 1519" d="M182.293,432.6a2.289,2.289,0,0,1-.813-.147c-1.017-.384-1.615-1.388-1.777-2.985-.079-.777-.281-1.069-.388-1.119-.351-.164-1.312.24-1.795.579L176,426.692c.252-.178,2.521-1.709,4.434-.812.764.358,1.718,1.224,1.93,3.314a3.091,3.091,0,0,0,.115.619,2.736,2.736,0,0,0,.6-.421l1.832,1.984A4.242,4.242,0,0,1,182.293,432.6Z" transform="translate(-176 -424.63)"/>
        </g>
      </g>
      <g id="Group_2685" data-name="Group 2685" transform="translate(54 102.391)">
        <g id="Group_2684" data-name="Group 2684">
          <path id="Path_1520" data-name="Path 1520" d="M196.7,171.416a7.7,7.7,0,0,1-7.678-7.7h2.755a4.934,4.934,0,0,0,4.923,4.934Z" transform="translate(-107.202 -134.198)"/>
          <path id="Path_1521" data-name="Path 1521" d="M113.282,199.892l-.7-2.673A4.941,4.941,0,0,0,116.1,191.2l2.666-.7A7.708,7.708,0,0,1,113.282,199.892Z" transform="translate(-77.085 -144.749)"/>
          <path id="Path_1522" data-name="Path 1522" d="M61.117,335.312A7.689,7.689,0,0,1,54,330.529l2.55-1.046a4.924,4.924,0,0,0,6.419,2.7l1.043,2.558A7.631,7.631,0,0,1,61.117,335.312Z" transform="translate(-54 -199.515)"/>
          <path id="Path_1523" data-name="Path 1523" d="M381.855,379.209a7.689,7.689,0,0,1-7.116-4.783l2.55-1.046a4.924,4.924,0,0,0,6.418,2.7l1.043,2.557A7.62,7.62,0,0,1,381.855,379.209Z" transform="translate(-180.384 -216.812)"/>
          <path id="Path_1524" data-name="Path 1524" d="M595.392,361.561a7.6,7.6,0,0,1-3.2-.707l1.153-2.509a4.924,4.924,0,0,0,6.53-2.415l2.5,1.157a7.692,7.692,0,0,1-6.985,4.474Z" transform="translate(-266.069 -209.936)"/>
          <path id="Path_1525" data-name="Path 1525" d="M288.507,119.311a7.642,7.642,0,0,1-5.259-2.087l1.888-2.012a4.92,4.92,0,0,0,6.958-.212l2.007,1.894A7.651,7.651,0,0,1,288.507,119.311Z" transform="translate(-144.333 -115)"/>
          <path id="Path_1526" data-name="Path 1526" d="M540.408,207.015a7.7,7.7,0,0,1-5.144-9.586l2.638.8a4.937,4.937,0,0,0,3.3,6.146Z" transform="translate(-243.508 -147.48)"/>
          <path id="Path_1527" data-name="Path 1527" d="M337.133,290.837a7.614,7.614,0,0,1-3.376-.79l1.216-2.478a4.921,4.921,0,0,0,6.589-2.25l2.473,1.219a7.687,7.687,0,0,1-6.9,4.3Z" transform="translate(-164.235 -182.113)"/>
          <path id="Path_1528" data-name="Path 1528" d="M416.023,198.48a7.641,7.641,0,0,1-5.258-2.087l1.888-2.012a4.921,4.921,0,0,0,6.958-.212l2.006,1.893A7.645,7.645,0,0,1,416.023,198.48Z" transform="translate(-194.579 -146.196)"/>
          <path id="Path_1529" data-name="Path 1529" d="M524.831,140.257l-1.419-2.368a4.946,4.946,0,0,0,1.685-6.769l2.363-1.423a7.716,7.716,0,0,1-2.629,10.56Z" transform="translate(-238.967 -120.791)"/>
          <path id="Path_1530" data-name="Path 1530" d="M66.62,274.3a7.692,7.692,0,0,1-2.008-.267l.716-2.667a4.922,4.922,0,0,0,6.032-3.482l2.66.718a7.686,7.686,0,0,1-7.4,5.7Z" transform="translate(-58.182 -175.24)"/>
          <path id="Path_1531" data-name="Path 1531" d="M434.011,350.984a7.65,7.65,0,0,1-1.994-.265l.716-2.668a4.928,4.928,0,0,0,6.032-3.482l2.661.718a7.694,7.694,0,0,1-7.416,5.7Z" transform="translate(-202.954 -205.459)"/>
          <path id="Path_1532" data-name="Path 1532" d="M432.974,129.667a7.714,7.714,0,0,1-3.5-10.3l2.473,1.218a4.947,4.947,0,0,0,2.247,6.6Z" transform="translate(-201.641 -116.72)"/>
          <path id="Path_1533" data-name="Path 1533" d="M205.769,298.519l-2.007-1.893a4.943,4.943,0,0,0-.212-6.975l1.888-2.012a7.71,7.71,0,0,1,.331,10.879Z" transform="translate(-112.929 -183.027)"/>
          <path id="Path_1534" data-name="Path 1534" d="M328.864,360.137l-3.2-3.21,3.2-3.21,3.2,3.21Z" transform="translate(-161.046 -209.064)"/>
          <path id="Path_1535" data-name="Path 1535" d="M176.124,372.916l-3.2-3.21,3.2-3.21,3.2,3.21Z" transform="translate(-100.86 -214.099)"/>
          <path id="Path_1536" data-name="Path 1536" d="M406.244,265.677l-3.2-3.21,3.2-3.209,3.2,3.209Z" transform="translate(-191.536 -171.843)"/>
          <path id="Path_1537" data-name="Path 1537" d="M597.619,237.913l-3.2-3.21,3.2-3.21,3.2,3.21Z" transform="translate(-266.946 -160.903)"/>
          <path id="Path_1538" data-name="Path 1538" d="M165.082,218.754l-3.2-3.21,3.2-3.209,3.2,3.209Z" transform="translate(-96.509 -153.354)"/>
          <path id="Path_1539" data-name="Path 1539" d="M101.39,302.795l-3.2-3.209,3.2-3.21,3.2,3.21Z" transform="translate(-71.412 -186.469)"/>
          <path id="Path_1540" data-name="Path 1540" d="M250.053,159.7l-3.2-3.21,3.2-3.21,3.2,3.21Z" transform="translate(-129.991 -130.085)"/>
          <path id="Path_1541" data-name="Path 1541" d="M361.848,235.525l-3.2-3.209,3.2-3.21,3.2,3.21Z" transform="translate(-174.043 -159.962)"/>
          <path id="Path_1542" data-name="Path 1542" d="M244.544,356.637c-.976-1.007-2.408-3.529-.848-5.874.715-1.076-.4-2.276-.524-2.409l1.956-1.946c.991.994,2.447,3.5.861,5.888-.729,1.1.518,2.4.531,2.417Z" transform="translate(-128.476 -206.184)"/>
          <path id="Path_1543" data-name="Path 1543" d="M542.542,266.564c-.976-1.007-2.408-3.529-.847-5.874.743-1.117-.5-2.39-.517-2.4l1.948-1.953c.991.994,2.447,3.5.861,5.888-.714,1.073.487,2.369.538,2.424Z" transform="translate(-245.899 -170.691)"/>
          <path id="Path_1544" data-name="Path 1544" d="M475.438,224.376c-.975-1.006-2.407-3.529-.847-5.874.743-1.117-.5-2.39-.517-2.4l1.948-1.954c.991.994,2.448,3.5.862,5.888-.73,1.1.518,2.4.531,2.417Z" transform="translate(-219.457 -154.068)"/>
          <path id="Path_1545" data-name="Path 1545" d="M439.049,297.918c-.976-1.007-2.408-3.529-.847-5.875.715-1.076-.4-2.276-.525-2.41l1.956-1.946c.991.994,2.447,3.5.861,5.888-.714,1.073.487,2.369.538,2.424Z" transform="translate(-205.118 -183.046)"/>
          <path id="Path_1546" data-name="Path 1546" d="M357.357,139.266c-.976-1.007-2.407-3.529-.847-5.875.715-1.076-.4-2.277-.525-2.41l1.956-1.946c.991.994,2.447,3.5.862,5.888-.73,1.1.518,2.4.531,2.417Z" transform="translate(-172.929 -120.531)"/>
          <path id="Path_1547" data-name="Path 1547" d="M201.331,251.74c-.975-1.006-2.407-3.528-.847-5.874.715-1.076-.4-2.277-.524-2.411l1.955-1.946c.991.994,2.448,3.5.861,5.888-.713,1.073.487,2.369.538,2.424Z" transform="translate(-111.448 -164.85)"/>
          <path id="Path_1548" data-name="Path 1548" d="M161.523,303.049c-.976-1.006-2.408-3.529-.848-5.874.715-1.076-.4-2.277-.524-2.41l1.956-1.946c.991.994,2.447,3.5.861,5.888-.729,1.1.518,2.4.531,2.417Z" transform="translate(-95.762 -185.068)"/>
          <path id="Path_1549" data-name="Path 1549" d="M368.525,319.011c-.975-1.006-2.407-3.529-.847-5.874.743-1.117-.5-2.39-.517-2.4l1.948-1.954c.991.994,2.448,3.5.862,5.888-.714,1.073.486,2.37.537,2.424Z" transform="translate(-177.329 -191.357)"/>
          <path id="Path_1550" data-name="Path 1550" d="M333.266,216.395c-.976-1.006-2.407-3.529-.847-5.874.715-1.076-.4-2.277-.524-2.411l1.955-1.946c.991.994,2.447,3.5.861,5.888-.729,1.1.518,2.4.531,2.417Z" transform="translate(-163.436 -150.923)"/>
          <path id="Path_1551" data-name="Path 1551" d="M131.951,254.59c-.975-1.007-2.407-3.529-.847-5.874.715-1.076-.4-2.276-.524-2.41l1.955-1.946c.991.994,2.448,3.5.861,5.889-.713,1.073.487,2.369.538,2.424Z" transform="translate(-84.11 -165.973)"/>
        </g>
      </g>
      <g id="Group_2687" data-name="Group 2687" transform="translate(123.729 83)">
        <path id="Path_1552" data-name="Path 1552" d="M206.462,318.565l7.225-19.279-8.263-3.247-3.32-1.27L198.25,314.9a1.619,1.619,0,0,1-.734,1.023,5.814,5.814,0,0,0-1.32.768l-.047.027h.007a5.792,5.792,0,0,0-1.208,1.3l-.242.358a3.345,3.345,0,0,0-.424.931l-.037,0-2.681,6.87c-.245.639.45,1.13,1.116,1.41l.008,0a.374.374,0,0,0,.361-.068c-.162.634.646,1.6,1.326,1.932l.009.006c.193.122.539-.078.644-.243l.073-.109-.064.126c-.271.629.628,1.62,1.342,1.973l.009.006c.193.121.539-.078.643-.243l.187-.28-.418.843c-.271.629.208,1.265.921,1.618a1,1,0,0,0,1.314-.407l2.866-4.268a11.163,11.163,0,0,0-.887,3.273c.05.509.073.993.549,1.166a.342.342,0,0,0,.036.012,1.029,1.029,0,0,0,.243.045.95.95,0,0,0,.85-.42s1.18-2.15,1.9-3.53a5.816,5.816,0,0,1,.94-1.342,4.978,4.978,0,0,0,1.216-2.335l.448-2.426a4.6,4.6,0,0,0-.638-4.056Z" transform="translate(-177.914 -166.445)" fill="#fff"/>
        <path id="Path_1553" data-name="Path 1553" d="M197.964,333.365a1.286,1.286,0,0,1-.65-.168,1.644,1.644,0,0,1-1.082-1.842.566.566,0,0,1-.231-.082,3.081,3.081,0,0,1-1.5-1.688.66.66,0,0,1-.5-.065,3,3,0,0,1-1.484-1.8.516.516,0,0,1-.2-.063c-1.065-.448-1.537-1.113-1.267-1.813l2.681-6.872a.326.326,0,0,1,.071-.111,3.551,3.551,0,0,1,.424-.881l.242-.357a6.084,6.084,0,0,1,1.225-1.33.311.311,0,0,1,.082-.068,6.4,6.4,0,0,1,1.405-.814,1.289,1.289,0,0,0,.543-.8l3.851-20.122a.319.319,0,0,1,.161-.222.325.325,0,0,1,.274-.019l3.32,1.27,8.265,3.248a.324.324,0,0,1,.185.414l-7.187,19.176.046.148a4.867,4.867,0,0,1,.665,4.232l-.453,2.448a5.3,5.3,0,0,1-1.3,2.5,5.458,5.458,0,0,0-.888,1.268c-.713,1.371-1.89,3.519-1.9,3.541a1.277,1.277,0,0,1-1.079.59l-.074,0a1.37,1.37,0,0,1-.32-.059.749.749,0,0,1-.1-.041c-.593-.211-.654-.836-.7-1.339l-.007-.076a4.286,4.286,0,0,1,.17-1.175l-1.556,2.318A1.316,1.316,0,0,1,197.964,333.365Zm-.959-3.212a.325.325,0,0,1,.291.467l-.418.844c-.194.452.248.923.774,1.183a.738.738,0,0,0,.311.07.691.691,0,0,0,.587-.365l2.867-4.27a.325.325,0,0,1,.569.306,11.194,11.194,0,0,0-.862,3.116l.007.077c.05.514.094.731.33.817a.73.73,0,0,0,.185.039.588.588,0,0,0,.559-.274s1.173-2.141,1.88-3.5a6.152,6.152,0,0,1,.99-1.413,4.661,4.661,0,0,0,1.137-2.182l.447-2.418a4.267,4.267,0,0,0-.589-3.819.325.325,0,0,1-.04-.082l-.093-.3a.327.327,0,0,1,.006-.21l7.113-18.982L202.137,295l-3.78,19.751a1.967,1.967,0,0,1-.882,1.237,5.823,5.823,0,0,0-1.293.748l-.024.016-.013.012A5.441,5.441,0,0,0,195,317.989l-.242.357a2.973,2.973,0,0,0-.382.843.319.319,0,0,1-.1.148l-2.63,6.743c-.184.476.666.879.936.993a.442.442,0,0,0,.071-.038.325.325,0,0,1,.489.353c-.1.4.524,1.25,1.156,1.563a.325.325,0,0,0,.232-.119l.079-.118a.326.326,0,0,1,.434-.1.322.322,0,0,1,.125.425l-.064.127c-.157.367.564,1.223,1.2,1.537a.344.344,0,0,0,.233-.119l.193-.288a.329.329,0,0,1,.271-.144Z" transform="translate(-177.701 -166.234)"/>
        <path id="Path_1554" data-name="Path 1554" d="M323.795,90.427l-.01,0a.4.4,0,0,0-.5.259l-.513,1.277.612-4.542a1.516,1.516,0,0,0-.989-1.575l-.01,0a.4.4,0,0,0-.467.313l-.514,1.9-.144-3.133A1.532,1.532,0,0,0,320,83.533h-.01a.4.4,0,0,0-.4.387l-.2,2.348-.012-.252a1.531,1.531,0,0,0-1.255-1.382h-.01a.4.4,0,0,0-.4.387L316.8,95.636l-.977,1.224a4.511,4.511,0,0,0-.962,2.4l-.483,5.523-.041.5-6.34,8.045.279-.061-1.578,2-1.828,2.326,6.038,7.371,6.484-7.091,4.044-9.243a7.426,7.426,0,0,0,1.414-3.721l-.4-4.439.447-1.744.007-.011,0-.027,1.689-6.587A1.507,1.507,0,0,0,323.795,90.427Z" transform="translate(-222.58 -83.21)" fill="#fff"/>
        <path id="Path_1555" data-name="Path 1555" d="M310.69,125.079h-.009a.326.326,0,0,1-.243-.119l-6.038-7.372a.324.324,0,0,1,0-.4l3.092-3.928a.322.322,0,0,1,.037-.341l6.28-7.968.516-5.926a4.818,4.818,0,0,1,1.031-2.572l.916-1.147.9-10.517a.716.716,0,0,1,.724-.684,1.741,1.741,0,0,1,1.076.544l.082-.961a.716.716,0,0,1,.725-.684,1.847,1.847,0,0,1,1.591,1.666l.05,1.093a.728.728,0,0,1,.811-.446,1.831,1.831,0,0,1,1.265,1.912l-.366,2.722a.76.76,0,0,1,.538-.042,1.824,1.824,0,0,1,1.034,2.043l-1.695,6.612a.245.245,0,0,1-.022.085l-.421,1.642.393,4.384a7.763,7.763,0,0,1-1.454,3.912l-4.03,9.211a.308.308,0,0,1-.058.088l-6.484,7.091A.33.33,0,0,1,310.69,125.079Zm-5.621-7.7,5.635,6.88,6.194-6.775,4.022-9.194a.343.343,0,0,1,.036-.062,7.108,7.108,0,0,0,1.353-3.559l-.4-4.381a.316.316,0,0,1,.009-.109l.447-1.743a.209.209,0,0,1,.008-.025l0-.012,1.689-6.587a1.185,1.185,0,0,0-.611-1.3.093.093,0,0,0-.073.055l-.521,1.3a.325.325,0,0,1-.623-.164l.611-4.541a1.193,1.193,0,0,0-.76-1.222.088.088,0,0,0-.065.061l-.521,1.92a.319.319,0,0,1-.348.237.323.323,0,0,1-.289-.307l-.143-3.133a1.208,1.208,0,0,0-.97-1.076.078.078,0,0,0-.051.069l-.2,2.372a.325.325,0,0,1-.324.3h-.007a.323.323,0,0,1-.318-.308l-.013-.251a1.208,1.208,0,0,0-.97-1.076.076.076,0,0,0-.05.068l-.913,10.639a.328.328,0,0,1-.068.175l-.977,1.223a4.167,4.167,0,0,0-.893,2.226l-.525,6.02a.333.333,0,0,1-.068.173l-6.023,7.644a.323.323,0,0,1-.037.341Z" transform="translate(-222.368 -83)"/>
        <path id="Path_1556" data-name="Path 1556" d="M230.282,158.6c-1.743-3.37,1.25-8.365,6.684-11.156,4.636-2.381,9.551-2.391,11.978-.249a1.2,1.2,0,0,1-.268,1.957Z" transform="translate(-192.995 -107.675)"/>
        <path id="Path_1557" data-name="Path 1557" d="M227.491,151.358c-1.484-2.869,1.063-7.121,5.69-9.5,3.947-2.028,8.132-2.035,10.2-.213a1.02,1.02,0,0,1-.228,1.666Z" transform="translate(-191.924 -105.582)"/>
        <path id="Path_1558" data-name="Path 1558" d="M234.227,151.915l-.293.141a2.479,2.479,0,0,0-1.157,3.318l3.771,7.764,10.388-5.012-1.057-2.174A8.737,8.737,0,0,0,234.227,151.915Z" transform="translate(-194.075 -109.812)" fill="#c78982"/>
        <path id="Path_1559" data-name="Path 1559" d="M254.92,168.528l-6.512,3.142-4.008-8.25,6.512-3.142Z" transform="translate(-198.754 -113.451)" fill="#c78982"/>
        <path id="Path_1560" data-name="Path 1560" d="M246.8,168.22l-.593-1.131.053-.027-2-3.862,1.08-.588a1.2,1.2,0,0,0-.193-2.2l-2.818-.946-1.631-3.152a11.6,11.6,0,0,0-15.6-4.969l-3.044,1.563a6.741,6.741,0,0,0-2.918,9.1l7.761,15,.014-.007-1.432,7.407,9.692,14.328a.727.727,0,0,0,1.315-.268l5.048-26.106-.39-.075,3.752-.523A2.484,2.484,0,0,0,246.8,168.22Z" transform="translate(-188.502 -109.424)" fill="#fff"/>
        <path id="Path_1561" data-name="Path 1561" d="M235.559,199.166a1.032,1.032,0,0,1-.867-.462L225,184.375a.322.322,0,0,1-.05-.242l1.406-7.272-7.718-14.923a7.063,7.063,0,0,1,3.057-9.531l3.044-1.564a11.92,11.92,0,0,1,16.035,5.109l1.57,3.036,2.694.9a1.527,1.527,0,0,1,.245,2.792l-.8.436,1.853,3.581a.325.325,0,0,1,.033.192l.506.964a2.806,2.806,0,0,1-2.141,4.013l-3.107.433L236.6,198.317a1.045,1.045,0,0,1-1.038.849Zm-9.946-15.041,9.618,14.216a.385.385,0,0,0,.328.177.394.394,0,0,0,.4-.324l4.987-25.788-.07-.013a.324.324,0,0,1,.017-.639l3.752-.523a2.159,2.159,0,0,0,1.65-3.08l-.588-1.122a.321.321,0,0,1-.034-.2l-1.912-3.7a.324.324,0,0,1,.133-.432l1.08-.588a.872.872,0,0,0,.458-.851.86.86,0,0,0-.6-.758l-2.819-.946a.322.322,0,0,1-.185-.159L240.2,156.25a11.269,11.269,0,0,0-15.159-4.83l-3.044,1.563a6.425,6.425,0,0,0-2.778,8.659l7.727,14.939a.314.314,0,0,1,.078.269Z" transform="translate(-188.29 -109.213)"/>
        <path id="Path_1562" data-name="Path 1562" d="M243.292,172.838l1.176,2.273a5.927,5.927,0,0,0,5.675,3.184,3.343,3.343,0,0,1,1.446-4.511l1.96-1.007,2.144,4.144a2.411,2.411,0,0,1-1.905,3.5l-6.723.685a2.421,2.421,0,0,1-2.4-1.294l-4.05-7.83A1.988,1.988,0,0,1,243.292,172.838Z" transform="translate(-197.264 -117.978)"/>
        <path id="Path_1563" data-name="Path 1563" d="M260.444,178.853l1.657-.42a.7.7,0,0,0,.454-1.006l-.923-1.784-1.42.729a1.542,1.542,0,0,0-.667,2.079A.793.793,0,0,0,260.444,178.853Z" transform="translate(-204.654 -119.505)" fill="#fff"/>
        <g id="Group_2686" data-name="Group 2686" transform="translate(3.861 39.07)">
          <path id="Path_1564" data-name="Path 1564" d="M260.038,178.991a1.113,1.113,0,0,1-.992-.6,1.865,1.865,0,0,1,.807-2.516l1.42-.729a.325.325,0,0,1,.438.139l.923,1.785a1.027,1.027,0,0,1-.662,1.468l-1.659.421A1.1,1.1,0,0,1,260.038,178.991Zm1.243-3.123-1.131.581a1.219,1.219,0,0,0-.528,1.643.467.467,0,0,0,.529.237l1.658-.42a.382.382,0,0,0,.254-.213.376.376,0,0,0-.009-.33Z" transform="translate(-208.303 -158.364)"/>
          <path id="Path_1565" data-name="Path 1565" d="M225.283,176.485l5.876-.339-10.433-20.172a2.423,2.423,0,0,0-3.259-1.039l-.968.5a8.426,8.426,0,0,0-2.978,12.456l3.365,4.627A9.7,9.7,0,0,0,225.283,176.485Z" transform="translate(-189.812 -150.309)"/>
          <path id="Path_1566" data-name="Path 1566" d="M235.41,168.741l9.536-4.9-.6-1.683-9.75,5.009Z" transform="translate(-198.752 -153.262)"/>
          <path id="Path_1567" data-name="Path 1567" d="M219.651,158.981l7.528-3.867,8.031,15.529a4.814,4.814,0,0,1-2.084,6.5L229.9,178.8Z" transform="translate(-192.863 -150.486)"/>
          <path id="Path_1568" data-name="Path 1568" d="M226.6,152.029l8.863-4.553,2.606,5.037a4.815,4.815,0,0,1-2.085,6.5l-4.562,2.343Z" transform="translate(-195.602 -147.476)"/>
          <path id="Path_1569" data-name="Path 1569" d="M253.034,160.812a.078.078,0,0,1,.068.042l1.611,3.113a.075.075,0,0,1-.033.1l-2.085,1.071a.077.077,0,0,1-.1-.033l-1.611-3.113a.076.076,0,0,1,.033-.1L253,160.821a.07.07,0,0,1,.033-.008m0-.647a.736.736,0,0,0-.332.08l-2.085,1.071a.722.722,0,0,0-.313.974l1.611,3.113a.725.725,0,0,0,.978.311l2.085-1.071a.721.721,0,0,0,.313-.974l-1.611-3.113A.726.726,0,0,0,253.034,160.165Z" transform="translate(-204.91 -152.476)"/>
          <path id="Path_1570" data-name="Path 1570" d="M217.616,175.85c-1.743-3.37-7.562-3.839-13-1.047-4.636,2.381-7.495,6.367-7.152,9.578a1.206,1.206,0,0,0,1.755.918Z" transform="translate(-184.111 -157.526)"/>
          <path id="Path_1571" data-name="Path 1571" d="M228.231,179.956c-1.62-3.133-7.03-3.568-12.082-.973-4.31,2.215-6.969,5.92-6.65,8.905a1.121,1.121,0,0,0,1.632.853Z" transform="translate(-188.852 -159.223)"/>
          <path id="Path_1572" data-name="Path 1572" d="M230.966,184.546a2.768,2.768,0,0,0-1.343-5.228,11.552,11.552,0,0,0-5.022,1.317c-3.747,1.925-5.933,5.387-5.488,8.308a1.108,1.108,0,0,0,1.509.916Z" transform="translate(-192.629 -160.023)"/>
          <path id="Path_1573" data-name="Path 1573" d="M237.349,188.394a2.039,2.039,0,0,0-.99-3.851,8.52,8.52,0,0,0-3.7.971c-2.761,1.418-4.371,3.969-4.043,6.121a.816.816,0,0,0,1.111.674Z" transform="translate(-196.379 -162.082)"/>
          <path id="Path_1574" data-name="Path 1574" d="M217.118,164.465c-1.743-3.369-7.561-3.838-13-1.046-4.636,2.381-7.5,6.366-7.153,9.578a1.206,1.206,0,0,0,1.755.917Z" transform="translate(-183.915 -153.04)"/>
          <path id="Path_1575" data-name="Path 1575" d="M227.485,150.633c-1.743-3.369-7.561-3.838-13-1.047-4.636,2.381-7.5,6.367-7.153,9.578a1.206,1.206,0,0,0,1.755.917Z" transform="translate(-188 -147.59)"/>
          <path id="Path_1576" data-name="Path 1576" d="M199.152,445.684l-6.042,7.024-3.3,3.836-.977,1.135-3.157,3.669-1.557,1.811-2.366,2.753-.137.158-6.175-10.553,5.627-8.766,12.887-27.778a19.422,19.422,0,0,1,4.078-5.749l17.573-17.093,17.785,2.054-3.406,13.709c-.633,1.351-30.834,33.791-30.834,33.791Z" transform="translate(-175.443 -245.455)"/>
          <path id="Path_1577" data-name="Path 1577" d="M245.067,278.568,241.1,294.412a12.945,12.945,0,0,0-.387,3.156l.093,64.1,3.957,1.256a13.826,13.826,0,0,0,17.877-11.13l8.49-57.713Z" transform="translate(-201.16 -199.131)"/>
          <path id="Path_1578" data-name="Path 1578" d="M248.757,363.583h0a14.21,14.21,0,0,1-4.307-.672l-4.182-1.328v-.236l-.093-64.1a13.245,13.245,0,0,1,.4-3.236l4.076-16.266,26.622,15.851-.032.215-8.49,57.713a14.211,14.211,0,0,1-13.989,12.063Zm-7.842-2.474,3.731,1.185A13.493,13.493,0,0,0,262.1,351.425l8.459-57.5-25.5-15.183-3.864,15.42a12.546,12.546,0,0,0-.378,3.076Z" transform="translate(-200.949 -198.805)"/>
        </g>
        <path id="Path_1579" data-name="Path 1579" d="M197.228,515.613v0C197.21,515.616,197.212,515.613,197.228,515.613Z" transform="translate(-180.161 -253.467)" fill="#29abe2"/>
        <path id="Path_1580" data-name="Path 1580" d="M202.456,496.539a2.552,2.552,0,0,0-1.563-.849l-5.531-.788a12.219,12.219,0,0,1-4.877-1.814c-.248-.159-.482-.34-.717-.517l-.441-6.5-.4-.078a1.217,1.217,0,0,0-1.394.824L187,488.5l-3.136-1.133a5.887,5.887,0,0,1-3.865-4.91l-.37-3.458a.731.731,0,0,0-1.238-.442l-4.2,4.125-2.957,2.906-.255.25-1.189,2.219,7.485,7,1.309,1.225.662,2.653,2.976.749,3.864,3.613,4.366-.6-.064-.953.7.175,8.2.1h.019l.127-.082L201,500.924l.92-.6a2.529,2.529,0,0,0,.536-3.787Z" transform="translate(-169.355 -238.785)" fill="#fff"/>
        <path id="Path_1581" data-name="Path 1581" d="M185.878,503.416a.328.328,0,0,1-.222-.088l-3.8-3.556-2.894-.728a.323.323,0,0,1-.236-.236l-.638-2.56-8.725-8.162a.323.323,0,0,1-.065-.388l1.19-2.219a.328.328,0,0,1,.059-.078l7.411-7.28a1.056,1.056,0,0,1,1.789.639l.37,3.458a5.593,5.593,0,0,0,3.652,4.64l2.818,1.018.431-1.361a1.541,1.541,0,0,1,1.767-1.045l.4.078a.324.324,0,0,1,.261.3l.43,6.349c.19.143.38.285.581.414a11.946,11.946,0,0,0,4.746,1.766l5.531.789a2.863,2.863,0,0,1,2.464,2.83,2.847,2.847,0,0,1-1.306,2.4l-2.618,1.7a.323.323,0,0,1-.177.053l-8.221-.1a.316.316,0,0,1-.075-.01l-.261-.066.035.508a.324.324,0,0,1-.279.342l-4.366.606c-.016,0-.032,0-.045,0Zm-6.572-4.954,2.787.7a.32.32,0,0,1,.143.078l3.75,3.508,3.912-.542-.044-.652a.322.322,0,0,1,.116-.27.331.331,0,0,1,.287-.065l.658.166,8.08.1,2.537-1.645a2.207,2.207,0,0,0,.467-3.3,2.231,2.231,0,0,0-1.363-.74l-5.531-.788a12.6,12.6,0,0,1-5.006-1.862c-.223-.143-.434-.3-.645-.461l-.093-.07a.323.323,0,0,1-.128-.236l-.423-6.248-.153-.03a.9.9,0,0,0-1.022.6l-.533,1.682a.324.324,0,0,1-.421.207l-3.136-1.132a6.241,6.241,0,0,1-4.076-5.182l-.37-3.458a.4.4,0,0,0-.408-.361.394.394,0,0,0-.28.116l-7.377,7.245-1.049,1.956,8.613,8.057a.325.325,0,0,1,.093.158Z" transform="translate(-169.144 -238.574)"/>
        <path id="Path_1582" data-name="Path 1582" d="M193.259,515.6l-.6,2.763a.206.206,0,0,0,.2.249h11.68a2.45,2.45,0,0,0,1.2-.314l2.846-1.6.146-.082,1.815-1.018Z" transform="translate(-178.365 -253.462)"/>
        <path id="Path_1583" data-name="Path 1583" d="M170.788,496.844l7.149,6.516,5.468,4.986c1.008.029,4.106.055,4.586.07l-7.9-7.171a1.218,1.218,0,0,1-.394-.824,6.087,6.087,0,0,0-1.976-4.142l-2.01-1.833-4.763-4.34-.119-.11a.732.732,0,0,0-1.19.322l-.336,1.082a5.26,5.26,0,0,0,1.481,5.445Z" transform="translate(-169.071 -243.298)"/>
        <path id="Path_1584" data-name="Path 1584" d="M222.943,414.719l-4.168,22.725-1.421,7.742-.777,4.228-.23,1.252-.741,4.045-.367,1.995-.559,3.034-.032.173,4.529.43c1.071.1,2.208.211,3.254.315.593.056,1.154.112,1.663.162,1.306.127,2.248.225,2.367.243l.137-.371.39-1.051,3.067-8.269,3.439-9.274,10.623-27.137,6.958-15.344-14.653-13.944-11.986,24.876a14.512,14.512,0,0,0-1.493,4.17Z" transform="translate(-187.031 -202.265)"/>
        <path id="Path_1585" data-name="Path 1585" d="M278.143,291.621l-.064,14.93a12.9,12.9,0,0,1-.481,3.438l-14.126,50.263a6.691,6.691,0,0,1-9.162,4.4c-4.847-2.128-10.362-4.594-10.332-4.783l7.169-69.21Z" transform="translate(-198.587 -164.827)"/>
        <path id="Path_1586" data-name="Path 1586" d="M256.789,365.332a6.982,6.982,0,0,1-2.823-.6c-10.6-4.651-10.575-4.782-10.522-5.128l7.2-69.5,27.612.98-.064,15.244a13.217,13.217,0,0,1-.494,3.524l-14.124,50.263a7.016,7.016,0,0,1-6.783,5.209Zm-12.683-5.815c.43.258,2.321,1.2,10.121,4.626a6.361,6.361,0,0,0,8.718-4.19l14.126-50.267a12.584,12.584,0,0,0,.47-3.352l.062-14.617-26.377-.936Z" transform="translate(-198.374 -164.61)"/>
        <path id="Path_1587" data-name="Path 1587" d="M242.208,507.8l2.858-1.7a3.019,3.019,0,0,0,1.458-2.126,2.146,2.146,0,0,0-1.831-2.511l-5.42-.788a10.139,10.139,0,0,1-7.744-5.443l-1.788-3.543-2.378,1.333a1.357,1.357,0,0,0-.687,1.546l.52,1.6-3.26,1.276a5.559,5.559,0,0,1-6.033-1.025l-2.29-2.3a.8.8,0,0,0-1.283.508l-2,10.357.282,2.438Z" transform="translate(-186.117 -244.041)" fill="#fff"/>
        <path id="Path_1588" data-name="Path 1588" d="M242,507.913h0l-29.6-.377a.324.324,0,0,1-.318-.287l-.282-2.438a.313.313,0,0,1,0-.1l2-10.358a1.19,1.19,0,0,1,1.15-.953.957.957,0,0,1,.684.279l2.289,2.3a5.308,5.308,0,0,0,5.684.952l2.976-1.165-.426-1.311a1.686,1.686,0,0,1,.837-1.928l2.377-1.334a.33.33,0,0,1,.254-.027.325.325,0,0,1,.2.165l1.788,3.543a9.817,9.817,0,0,0,7.5,5.268l5.42.788a2.472,2.472,0,0,1,2.106,2.876,3.335,3.335,0,0,1-1.613,2.36l-2.858,1.7a.324.324,0,0,1-.167.046Zm-29.307-1.02,29.219.372,2.78-1.65a2.682,2.682,0,0,0,1.3-1.893,1.818,1.818,0,0,0-1.557-2.145l-5.42-.788a10.456,10.456,0,0,1-7.987-5.618l-1.635-3.24-2.081,1.167a1.045,1.045,0,0,0-.538,1.164l.521,1.6a.323.323,0,0,1-.19.4l-3.261,1.276a6.682,6.682,0,0,1-2.447.473,5.488,5.488,0,0,1-3.936-1.571l-2.289-2.3c-.191-.191-.661-.039-.734.341l-1.991,10.308Z" transform="translate(-185.905 -243.831)"/>
        <path id="Path_1589" data-name="Path 1589" d="M271.359,125.243l-13.967,16.772-4.093,6.166L239.106,159.01l-.044-.133-4.859,3.874-3.39,2.587a5.021,5.021,0,0,0-.7.674l-14.845,11.84a12.922,12.922,0,0,0-4.753,13.45l-2.5,29.545L205.573,227a9.481,9.481,0,0,0-.547,1.981l-2.412,18.09,9.181,2.635,6.313-14.275,3.706-13.258a3.542,3.542,0,0,0,.094-.474,2.3,2.3,0,0,0,.42-1.13l.8-9.385,6.326,8.142.005.461L226.7,231.776l35.108,7.089.038-11.963c-.081-6.737-7.471-43.319-10.745-59.215l9.369-7.124a8.04,8.04,0,0,0,3.68-3.01l9.563-14.4,5.571-12.585Z" transform="translate(-182.288 -99.645)" fill="#fff"/>
        <path id="Path_1590" data-name="Path 1590" d="M211.583,249.819a.314.314,0,0,1-.09-.013l-9.181-2.635a.324.324,0,0,1-.232-.353l2.412-18.091a9.906,9.906,0,0,1,.567-2.057l2.425-6.107,2.494-29.444a13.225,13.225,0,0,1,4.885-13.734L229.7,165.55a4.7,4.7,0,0,1,.7-.675l3.395-2.59,4.853-3.871a.326.326,0,0,1,.294-.058l13.9-10.609,4.064-6.121,13.988-16.8a.325.325,0,0,1,.431-.061l7.921,5.323a.323.323,0,0,1,.116.4l-5.571,12.585-9.589,14.451a8.359,8.359,0,0,1-3.788,3.114l-9.172,6.975c3.229,15.676,10.63,52.322,10.711,59.077l-.039,11.968a.325.325,0,0,1-.39.316l-35.108-7.089a.325.325,0,0,1-.208-.142.322.322,0,0,1-.044-.248l2.747-11.954,0-.314-5.748-7.4-.725,8.557a2.582,2.582,0,0,1-.432,1.222,3.563,3.563,0,0,1-.093.442l-3.706,13.258-6.327,14.319a.325.325,0,0,1-.3.195Zm-8.822-3.193,8.639,2.479,6.2-14.016,3.691-13.215a3.1,3.1,0,0,0,.085-.431.327.327,0,0,1,.056-.142,1.971,1.971,0,0,0,.362-.971l.8-9.385a.325.325,0,0,1,.581-.171l6.325,8.142a.322.322,0,0,1,.067.194l.006.461a.359.359,0,0,1-.008.076l-2.682,11.668,34.393,6.945.038-11.568c-.081-6.723-7.538-43.6-10.739-59.149a.323.323,0,0,1,.121-.322l9.369-7.124a.335.335,0,0,1,.075-.042,7.714,7.714,0,0,0,3.532-2.889l9.563-14.4,5.435-12.289-7.453-5.008-13.78,16.546-4.073,6.138a.324.324,0,0,1-.074.078l-14.191,10.829a.325.325,0,0,1-.281.056l-4.616,3.681-3.4,2.591a4.678,4.678,0,0,0-.648.627l-14.89,11.883a12.587,12.587,0,0,0-4.64,13.119.307.307,0,0,1,.008.105l-2.5,29.545a.344.344,0,0,1-.021.092l-2.443,6.151a9.166,9.166,0,0,0-.528,1.913Z" transform="translate(-182.077 -99.435)"/>
        <path id="Path_1591" data-name="Path 1591" d="M210.826,514.08l.34,1.025a4.449,4.449,0,0,0,4.353,3.02h22.4a2.71,2.71,0,0,0,1.238-.311l4.248-2.208a.261.261,0,0,0-.121-.492H225.793a1.058,1.058,0,0,1-.8-.344,5.311,5.311,0,0,0-4.021-1.727h-9.339A.839.839,0,0,0,210.826,514.08Z" transform="translate(-185.511 -252.454)"/>
        <path id="Path_1592" data-name="Path 1592" d="M267.994,204.17a.323.323,0,0,1-.272-.5l3.227-4.931a.337.337,0,0,1,.072-.078l6.358-4.978a.326.326,0,0,1,.456.055.323.323,0,0,1-.056.454l-6.315,4.946-3.2,4.886A.323.323,0,0,1,267.994,204.17Z" transform="translate(-207.923 -126.586)"/>
        <path id="Path_1593" data-name="Path 1593" d="M234.443,264.485a.323.323,0,0,1-.267-.14l-6.809-9.82a.325.325,0,0,1,.534-.368l6.808,9.82a.324.324,0,0,1-.267.508Z" transform="translate(-192.02 -150.388)"/>
        <path id="Path_1594" data-name="Path 1594" d="M332.746,96.472l-2.6,7.321-.451.385" transform="translate(-232.364 -88.309)" fill="#fff"/>
        <path id="Path_1595" data-name="Path 1595" d="M329.486,104.292a.324.324,0,0,1-.211-.57l.385-.328,2.569-7.239a.325.325,0,0,1,.613.215l-2.6,7.321a.327.327,0,0,1-.095.138l-.451.385A.334.334,0,0,1,329.486,104.292Z" transform="translate(-232.153 -88.098)"/>
        <path id="Path_1596" data-name="Path 1596" d="M329.048,99.512a.289.289,0,0,1-.06-.006.323.323,0,0,1-.259-.378l1.882-10a.325.325,0,0,1,.638.119l-1.882,10a.323.323,0,0,1-.319.264Z" transform="translate(-231.98 -85.312)"/>
        <path id="Path_1597" data-name="Path 1597" d="M326.24,98.275a.327.327,0,0,1-.048,0,.324.324,0,0,1-.273-.368l1.523-10.088a.325.325,0,0,1,.642.1L326.56,98A.324.324,0,0,1,326.24,98.275Z" transform="translate(-230.874 -84.789)"/>
        <path id="Path_1598" data-name="Path 1598" d="M191.79,344.484a1.182,1.182,0,0,1-.533-1.588l1.981-3.964a1.188,1.188,0,0,1,2.127,1.057l-1.981,3.964A1.19,1.19,0,0,1,191.79,344.484Z" transform="translate(-177.764 -183.589)" fill="#fff"/>
        <path id="Path_1599" data-name="Path 1599" d="M192.108,344.726a1.51,1.51,0,0,1-1.354-2.18l1.983-3.964a1.539,1.539,0,0,1,2.028-.676,1.506,1.506,0,0,1,.679,2.022l-1.981,3.963A1.5,1.5,0,0,1,192.108,344.726Zm1.983-6.332a.859.859,0,0,0-.773.477l-1.982,3.963a.86.86,0,0,0,.388,1.154.879.879,0,0,0,1.159-.387l1.981-3.962a.862.862,0,0,0-.773-1.245Z" transform="translate(-177.553 -183.383)"/>
        <path id="Path_1600" data-name="Path 1600" d="M208.163,348.646a.325.325,0,0,1-.284-.481l2.018-3.633a.325.325,0,0,1,.568.314l-2.018,3.633a.325.325,0,0,1-.284.167Z" transform="translate(-184.347 -185.988)"/>
        <path id="Path_1601" data-name="Path 1601" d="M194.692,346.986a1.376,1.376,0,0,1-.621-1.849l2.308-4.615a1.383,1.383,0,0,1,2.477,1.23l-2.308,4.616A1.386,1.386,0,0,1,194.692,346.986Z" transform="translate(-178.865 -184.173)" fill="#fff"/>
        <path id="Path_1602" data-name="Path 1602" d="M195.1,347.245a1.7,1.7,0,0,1-1.528-2.463l2.307-4.614a1.707,1.707,0,0,1,3.058,1.519l-2.307,4.616a1.7,1.7,0,0,1-1.531.943Zm2.309-7.375a1.054,1.054,0,0,0-.949.585l-2.308,4.616a1.053,1.053,0,0,0,.475,1.414,1.078,1.078,0,0,0,1.421-.474l2.307-4.614a1.056,1.056,0,0,0-.947-1.526Z" transform="translate(-178.654 -183.962)"/>
        <path id="Path_1603" data-name="Path 1603" d="M198.205,349.648a1.44,1.44,0,0,1-.65-1.934l2.414-4.826a1.446,1.446,0,0,1,2.59,1.286L200.146,349A1.45,1.45,0,0,1,198.205,349.648Z" transform="translate(-180.235 -185.091)" fill="#fff"/>
        <path id="Path_1604" data-name="Path 1604" d="M198.638,349.913a1.765,1.765,0,0,1-1.584-2.554l2.414-4.826a1.771,1.771,0,0,1,3.172,1.576l-2.414,4.826a1.765,1.765,0,0,1-1.588.979Zm2.416-7.712a1.118,1.118,0,0,0-1.005.62l-2.414,4.826a1.118,1.118,0,0,0,.5,1.5,1.143,1.143,0,0,0,1.506-.5l2.414-4.826a1.12,1.12,0,0,0-1-1.618Z" transform="translate(-180.024 -184.881)"/>
        <path id="Path_1605" data-name="Path 1605" d="M200.891,353.315a1.44,1.44,0,0,1-.65-1.934l2.414-4.826a1.446,1.446,0,0,1,2.59,1.286l-2.414,4.826A1.45,1.45,0,0,1,200.891,353.315Z" transform="translate(-181.293 -186.536)" fill="#fff"/>
        <path id="Path_1606" data-name="Path 1606" d="M201.323,353.579a1.765,1.765,0,0,1-1.584-2.554l2.414-4.826a1.771,1.771,0,0,1,3.172,1.576l-2.414,4.826A1.765,1.765,0,0,1,201.323,353.579Zm2.416-7.711a1.119,1.119,0,0,0-1.006.62l-2.414,4.826a1.117,1.117,0,0,0,.5,1.5,1.142,1.142,0,0,0,1.505-.5l2.414-4.826a1.12,1.12,0,0,0-1-1.618Z" transform="translate(-181.082 -186.325)"/>
      </g>
      <g id="Group_2689" data-name="Group 2689" transform="translate(240.03 84.212)">
        <path id="Path_1607" data-name="Path 1607" d="M376.539,92.264l-.556,1.989-.487,1.735-.834-4.526-.272-1.477a1.2,1.2,0,0,1,.7-1.275.006.006,0,0,1,.006-.006.314.314,0,0,1,.373.227Z" transform="translate(-366.274 -86.456)"/>
        <path id="Path_1608" data-name="Path 1608" d="M374.5,98.254l.31-1.111.487-1.735-1.32-2.79-.373-.789a.306.306,0,0,0-.4-.183c0,.006,0,.006-.006.006a1.2,1.2,0,0,0-.525,1.357l1.409,4.374.354,1.086Z" transform="translate(-365.584 -87.611)"/>
        <path id="Path_1609" data-name="Path 1609" d="M373.731,99.582l-.417-.871L371.659,95.2a.306.306,0,0,0-.4-.177l-.007.006a1.19,1.19,0,0,0-.524,1.357l2.085,6.458.853-3.043Z" transform="translate(-364.818 -88.939)"/>
        <path id="Path_1610" data-name="Path 1610" d="M398.912,146.628l-11.926-11.752.091-.068-6.224-11.876-7.011-9.428.081.024-4.178-5.548a3.656,3.656,0,0,1-.587-3.235l.324-1.1,1.642-4.711a2.322,2.322,0,0,0-.048-1.676l-.639-1.532.92-2.5a4.132,4.132,0,0,0,.248-1.788l-.46-5.631a.308.308,0,0,0-.331-.284h-.007l-.016,0a1.222,1.222,0,0,0-1.039,1.13l-.319,5.17L366.673,97.2l-.79.868a.344.344,0,0,1-.4.079.355.355,0,0,1-.205-.364c.1-.929.49-3.9.56-4.394a.9.9,0,0,0-.755-1.025l-.035,0a.937.937,0,0,0-.987.57s-.729,2.306-1.162,3.78a5.669,5.669,0,0,1-.653,1.479,4.883,4.883,0,0,0-.73,2.493l.029,2.438c.018,1.388-.035,2.771,1.329,4.154l1.371,2.3,9.938,21.828,4.722,8.131,0,0a2.707,2.707,0,0,0,.35.6l10.184,12.874,11.93,12.013,7.239-7.644v-3.188Z" transform="translate(-361.205 -85.205)" fill="#fff"/>
        <path id="Path_1611" data-name="Path 1611" d="M401.171,165.136a.313.313,0,0,1-.224-.093l-11.93-12.014-10.208-12.9a2.94,2.94,0,0,1-.392-.672h0l-4.71-8.1L363.758,109.5l-1.336-2.234a5.263,5.263,0,0,1-1.391-4.151L361,100.482a5.21,5.21,0,0,1,.777-2.661,5.356,5.356,0,0,0,.617-1.4c.436-1.48,1.166-3.79,1.166-3.79a1.253,1.253,0,0,1,1.33-.788,1.226,1.226,0,0,1,1.06,1.39c-.074.53-.458,3.466-.559,4.38l.288.25-.234-.212.761-.837,2.713-5.282.314-5.1a1.545,1.545,0,0,1,1.306-1.423c.015,0,.078-.007.095-.007a.627.627,0,0,1,.622.576l.459,5.629a4.462,4.462,0,0,1-.267,1.925l-.877,2.386.592,1.418a2.633,2.633,0,0,1,.055,1.9l-1.641,4.71-.319,1.083a3.354,3.354,0,0,0,.536,2.955l4.136,5.49a.313.313,0,0,1,.119.246l6.854,9.218,6.251,11.917a.312.312,0,0,1,.035.171L398.929,146.2l9.676,7.541a.316.316,0,0,1,.121.249v3.188a.315.315,0,0,1-.087.217l-7.24,7.644a.314.314,0,0,1-.225.1ZM364.152,92.848s-.72,2.286-1.151,3.749a5.949,5.949,0,0,1-.688,1.557,4.571,4.571,0,0,0-.681,2.329l.031,2.624a4.676,4.676,0,0,0,1.237,3.742.314.314,0,0,1,.046.06l1.371,2.3,9.954,21.859,4.707,8.1a2.563,2.563,0,0,0,.327.567l10.184,12.874,11.676,11.756,6.929-7.316v-2.908l-9.582-7.471L386.559,134.9a.312.312,0,0,1-.093-.245.344.344,0,0,1,.022-.1l-6.121-11.677-6.984-9.387a.312.312,0,0,1-.062-.167l-4.034-5.355a3.991,3.991,0,0,1-.637-3.513l.324-1.1,1.646-4.726a2,2,0,0,0-.041-1.449l-.639-1.534a.321.321,0,0,1-.005-.23l.921-2.5a3.816,3.816,0,0,0,.23-1.653l-.46-5.632a.921.921,0,0,0-.76.843l-.319,5.169a.31.31,0,0,1-.034.125l-2.761,5.379a.384.384,0,0,1-.047.068l-.79.868a.665.665,0,0,1-1.149-.531c.1-.919.486-3.867.562-4.4a.587.587,0,0,0-.49-.67.848.848,0,0,0-.109-.008A.618.618,0,0,0,364.152,92.848Z" transform="translate(-361 -85)"/>
        <path id="Path_1612" data-name="Path 1612" d="M454.638,159.221a12.855,12.855,0,0,1,5.4-.224,16.3,16.3,0,0,1,2.511.668,9.28,9.28,0,0,1,4.182,3.469,9.634,9.634,0,0,1,1.416,3c.366,1.249.079,1.644-.866,2.516a10.552,10.552,0,0,1-5.1,2.995c-1.385.3-.848-.846-.9-1.873-.043-.831.049-1.629-.047-2.464-.24-2.092-1.11-4.428-3.146-5.424a7.364,7.364,0,0,0-4.511-.811c-.291.041-.911.453-1.184.31a3,3,0,0,1,2.24-2.163Z" transform="translate(-397.014 -114.084)"/>
        <path id="Path_1613" data-name="Path 1613" d="M461.593,171.8a.857.857,0,0,1-.662-.251,1.629,1.629,0,0,1-.2-1.263,5.323,5.323,0,0,0,.03-.706c-.018-.354-.013-.7-.008-1.05a10.438,10.438,0,0,0-.038-1.394c-.17-1.473-.779-4.1-2.97-5.177a7.059,7.059,0,0,0-4.329-.781,1.917,1.917,0,0,0-.334.124,1.349,1.349,0,0,1-1.04.153.316.316,0,0,1-.162-.345,3.326,3.326,0,0,1,2.473-2.4,13.227,13.227,0,0,1,5.536-.23,16.733,16.733,0,0,1,2.56.68,9.408,9.408,0,0,1,4.333,3.581,9.8,9.8,0,0,1,1.463,3.1c.411,1.4.045,1.915-.955,2.836a10.962,10.962,0,0,1-5.245,3.072A2.223,2.223,0,0,1,461.593,171.8Zm-7.207-11.318q.322,0,.64.023a8.039,8.039,0,0,1,3,.888c2.461,1.205,3.137,4.071,3.321,5.672a11.077,11.077,0,0,1,.042,1.477c-.005.333-.011.668.006,1.007a5.784,5.784,0,0,1-.03.793c-.026.3-.059.682.033.781a.312.312,0,0,0,.2.047,1.607,1.607,0,0,0,.323-.04,10.138,10.138,0,0,0,4.949-2.918c.92-.849,1.088-1.131.776-2.2a9.2,9.2,0,0,0-1.366-2.9,8.817,8.817,0,0,0-4.032-3.358,16.031,16.031,0,0,0-2.462-.654,12.577,12.577,0,0,0-5.271.221,2.748,2.748,0,0,0-1.855,1.479c.062-.025.125-.052.181-.076a2.178,2.178,0,0,1,.5-.169A7.615,7.615,0,0,1,454.386,160.486Z" transform="translate(-396.808 -113.879)"/>
        <path id="Path_1614" data-name="Path 1614" d="M417.158,185.123l-7.4,8.452,10.623,10.7,7.239-7.644v-3.188l-9.7-7.566Z" transform="translate(-380.214 -124.452)"/>
        <path id="Path_1615" data-name="Path 1615" d="M375.668,102.564l-.063.215" transform="translate(-366.755 -91.921)" fill="none"/>
        <path id="Path_1616" data-name="Path 1616" d="M449.287,375.714l8.026-1.97,25.566-20.085s-4.047-9.469-3.9-9.148l-30.806,13.137-6.986,8.3.7,4.794a6.022,6.022,0,0,0,7.4,4.974Z" transform="translate(-392.599 -187.255)" fill="#fff"/>
        <path id="Path_1617" data-name="Path 1617" d="M447.637,376a6.367,6.367,0,0,1-6.264-5.419l-.7-4.794a.317.317,0,0,1,.071-.249l6.986-8.3a.317.317,0,0,1,.118-.087l30.737-13.108a.335.335,0,0,1,.479.126h0l.009.019c0,.007,0,0,0,0,.094.244,2.587,6.084,3.892,9.137a.315.315,0,0,1-.1.371L457.3,373.791a.323.323,0,0,1-.119.059l-8.026,1.969a6.371,6.371,0,0,1-1.52.185Zm-6.318-10.164.68,4.654a5.732,5.732,0,0,0,5.638,4.879h0a5.722,5.722,0,0,0,1.368-.167l7.959-1.953,25.322-19.894c-.538-1.257-3.078-7.2-3.68-8.633l-30.443,12.982Z" transform="translate(-392.393 -187.054)"/>
        <path id="Path_1618" data-name="Path 1618" d="M433.839,283.134l-2.246,15.888,6.763,49.361s12.294.808,12.306.473l1.919-32.632,1.534-30.559Z" transform="translate(-388.816 -163.073)" fill="#fff"/>
        <path id="Path_1619" data-name="Path 1619" d="M449.506,349.049h-.017c-2.881,0-11.274-.549-11.359-.555a.316.316,0,0,1-.292-.272l-6.763-49.361a.3.3,0,0,1,0-.087l2.246-15.888a.319.319,0,0,1,.353-.269l20.275,2.533a.316.316,0,0,1,.276.328l-1.534,30.559-1.919,32.633C450.758,349.046,450.339,349.049,449.506,349.049ZM438.43,347.88c1.437.092,8.483.537,11.059.537h0c.342,0,.546-.008.667-.016l1.906-32.4,1.518-30.263L433.9,283.282l-2.2,15.537Z" transform="translate(-388.611 -162.868)"/>
        <path id="Path_1620" data-name="Path 1620" d="M458.16,372.769l-3.747,23.384a25.216,25.216,0,0,0-.31,4.622l1.1,44.2s10.18,1.6,9.826,1.563l7.345-46.19a11.813,11.813,0,0,0-.056-4.038l-3.472-18.455Z" transform="translate(-397.683 -198.393)" fill="#fff"/>
        <path id="Path_1621" data-name="Path 1621" d="M464.835,446.645l-.041,0a.333.333,0,0,1-.059-.012c-.545-.1-7.2-1.148-9.784-1.554a.316.316,0,0,1-.267-.3l-1.1-44.2a25.611,25.611,0,0,1,.313-4.679l3.747-23.384a.318.318,0,0,1,.448-.236l10.69,5.082a.316.316,0,0,1,.174.227l3.471,18.455a12.092,12.092,0,0,1,.059,4.146L465.151,446.3a.351.351,0,0,1,0,.057.318.318,0,0,1-.316.284Zm-9.525-2.151c1.395.219,7.722,1.215,9.255,1.468l7.295-45.874a11.436,11.436,0,0,0-.055-3.931l-3.441-18.3L458.2,373.029,454.519,396a24.99,24.99,0,0,0-.306,4.564Z" transform="translate(-397.478 -198.187)"/>
        <path id="Path_1622" data-name="Path 1622" d="M471.023,274.959l5.374,10.985a12.619,12.619,0,0,1,1.145,7.408l-7.461,49.918s-13.011.1-13.021-.236l-.751-36.3-1.271-30.571Z" transform="translate(-398.054 -159.851)" fill="#fff"/>
        <path id="Path_1623" data-name="Path 1623" d="M465.834,343.394c-9.279,0-9.283-.14-9.3-.556l-.751-36.3-1.271-30.564a.315.315,0,0,1,.291-.328l15.985-1.208a.32.32,0,0,1,.308.176l5.374,10.985a12.867,12.867,0,0,1,1.173,7.594l-7.461,49.918a.315.315,0,0,1-.31.269S468.088,343.394,465.834,343.394Zm-8.668-.8c.485.062,2.251.17,8.669.17,1.731,0,3.188-.008,3.769-.012l7.421-49.652a12.238,12.238,0,0,0-1.116-7.224l-5.28-10.792-15.467,1.169,1.259,30.266Z" transform="translate(-397.849 -159.646)"/>
        <path id="Path_1624" data-name="Path 1624" d="M509.955,354.664l-2.914-2.907-2.781,3.977a2.693,2.693,0,0,0,.305,3.451l1.312,1.31Z" transform="translate(-417.258 -190.113)"/>
        <path id="Path_1625" data-name="Path 1625" d="M513.78,341.511l-9.727-9.7-.988.97a15.711,15.711,0,0,0-3.245,4.6l-1.225,2.637-1.164,1.165,5.466,5.454a2.367,2.367,0,0,0,2.018.666l3.237-.478a7.088,7.088,0,0,1,4.723.959l7.458,4.544a2.371,2.371,0,0,0,2.264.109l1.431-.693Z" transform="translate(-414.759 -182.252)" fill="#fff"/>
        <path id="Path_1626" data-name="Path 1626" d="M521.36,352.777a2.685,2.685,0,0,1-1.4-.392l-7.459-4.543a6.815,6.815,0,0,0-4.513-.916l-3.236.478a2.673,2.673,0,0,1-2.288-.755L497,341.194a.316.316,0,0,1,0-.446l1.124-1.125,1.2-2.587a16.007,16.007,0,0,1,3.31-4.691l.988-.97a.317.317,0,0,1,.445,0l19.975,19.931a.316.316,0,0,1-.085.508l-1.431.693A2.682,2.682,0,0,1,521.36,352.777Zm-12.379-6.555a7.4,7.4,0,0,1,3.853,1.08l7.459,4.543a2.053,2.053,0,0,0,1.961.095l1.031-.5-19.44-19.4-.765.751A15.359,15.359,0,0,0,499.9,337.3l-1.225,2.637a.307.307,0,0,1-.063.09l-.94.941,5.243,5.231a2.04,2.04,0,0,0,1.749.577l3.237-.478a7.346,7.346,0,0,1,1.082-.079Z" transform="translate(-414.554 -182.046)"/>
        <path id="Path_1627" data-name="Path 1627" d="M528.1,351.063,508.191,331.2l1.493-1.494,19.906,19.859Z" transform="translate(-418.999 -181.426)"/>
        <ellipse id="Ellipse_314" data-name="Ellipse 314" cx="2.524" cy="2.522" rx="2.524" ry="2.522" transform="translate(87.311 154.051)"/>
        <path id="Path_1628" data-name="Path 1628" d="M457.568,504.146a4.944,4.944,0,0,1-4.237,2.541l-6.343.108a2.873,2.873,0,0,1-2.593-4.011l7.042-16.294,10.216,2.706-.127,7.823Z" transform="translate(-393.767 -243.203)"/>
        <path id="Path_1629" data-name="Path 1629" d="M457.868,482.426l7.443-.313L465,474.681a2.438,2.438,0,0,0-2.539-2.332l-2.569.108a2.437,2.437,0,0,0-2.334,2.537Z" transform="translate(-399.046 -237.63)"/>
        <path id="Path_1630" data-name="Path 1630" d="M462.772,479.57l-4.187.126a2.47,2.47,0,0,0-2.389,2.187l-.122,1.06-.732-.194-.1-.753a2.47,2.47,0,0,0-2.516-2.143l-1.783.048.092,3.4-6.387,14.779a2.873,2.873,0,0,0,2.592,4.011l6.344-.108a4.943,4.943,0,0,0,4.237-2.541l3.959-7.127.126-7.823-.014,0Z" transform="translate(-393.867 -240.476)" fill="#fff"/>
        <g id="Group_2688" data-name="Group 2688" transform="translate(34.369 41.211)">
          <path id="Path_1631" data-name="Path 1631" d="M447.037,502.2h0a3.19,3.19,0,0,1-2.878-4.453l6.358-14.715-.09-3.327a.316.316,0,0,1,.307-.324l1.858-.05a2.794,2.794,0,0,1,2.762,2.418l.072.544.174.046.079-.7a2.8,2.8,0,0,1,2.7-2.466l4.185-.126a.309.309,0,0,1,.249.109.315.315,0,0,1,.072.262l-.863,4.823a.276.276,0,0,1,0,.044l-.126,7.824a.3.3,0,0,1-.04.148l-3.959,7.127a5.274,5.274,0,0,1-4.508,2.7l-6.344.108Zm4.027-22.2.083,3.081a.318.318,0,0,1-.026.134L444.735,498a2.558,2.558,0,0,0,2.3,3.571l6.338-.109a4.639,4.639,0,0,0,3.965-2.378l3.92-7.058.124-7.663a.3.3,0,0,1-.008-.136l.81-4.532-3.8.115a2.166,2.166,0,0,0-2.084,1.907l-.121,1.06a.316.316,0,0,1-.4.269l-.731-.194a.316.316,0,0,1-.233-.264l-.1-.753a2.16,2.16,0,0,0-2.135-1.869Z" transform="translate(-428.032 -281.483)"/>
          <path id="Path_1632" data-name="Path 1632" d="M441.816,175.211l-5.725.6,6.866-21.166a2.367,2.367,0,0,1,2.981-1.52l1.013.328a8.272,8.272,0,0,1,4.851,11.579l-2.513,5.009A9.465,9.465,0,0,1,441.816,175.211Z" transform="translate(-424.958 -153.01)"/>
          <path id="Path_1633" data-name="Path 1633" d="M548.832,313a1.386,1.386,0,0,1-1.54.7l-6.157-1.6-.835-.213-3.163-.825-.3-1.535-.073-.38a12.72,12.72,0,0,0,3.3-.04l.254.1,8.3,3.345a.357.357,0,0,1,.221.453Z" transform="translate(-464.627 -214.514)"/>
          <path id="Path_1634" data-name="Path 1634" d="M543.007,313.6l-4.939-2.964-5.45-3.271-.808-.1.1,3.054,3.143,1.375,6.475,2.833a1.391,1.391,0,0,0,1.631-.442.357.357,0,0,0-.145-.485l-.008,0Z" transform="translate(-462.675 -213.794)"/>
          <path id="Path_1635" data-name="Path 1635" d="M537.705,314.84a1.4,1.4,0,0,1-1.652.356l-9.374-4.73.078-3.448,10.821,7.328a.355.355,0,0,1,.133.485l-.005.009Z" transform="translate(-460.653 -213.695)"/>
          <path id="Path_1636" data-name="Path 1636" d="M451.377,197.422l-28.311-4.814,1.654,28.77,40.944-1.818-7.189-16.575A9.466,9.466,0,0,0,451.377,197.422Z" transform="translate(-419.826 -168.613)"/>
          <path id="Path_1637" data-name="Path 1637" d="M417.744,199.63l2.6,13-2.248,6.138a6.236,6.236,0,0,0,1.253,6.351l5.868,6.424.807,33.573,35.735-10.167-8.412-16.786-.473-30.736Z" transform="translate(-417.718 -171.38)"/>
        </g>
        <path id="Path_1638" data-name="Path 1638" d="M525.714,272.572a.358.358,0,0,0-.382-.332l-11.033-.058a7.725,7.725,0,0,1-1.477-.177l-4.989-1.125a4.174,4.174,0,0,1-1.665-.794l-9.546-22.256a4.731,4.731,0,0,0-.593-1.013l-7.015-9.148-10.862-19.7-7.437,4.618,17.14,32.376,7.767,12.155-.032.042,1.317,1.968,3.217,5.035.078-.047.042.189a6.745,6.745,0,0,0,3.512,4.417l-.007.009,9.085,4.779a.488.488,0,0,0,.6-.089c.016-.019.033-.039.048-.059a.94.94,0,0,0-.2-1.314l-3.543-3.057a1.051,1.051,0,0,1,.356-1.791l5.792-2.335,8.648-1.068a1.389,1.389,0,0,0,1.174-1.216v-.01Z" transform="translate(-404.232 -137.395)" fill="#fff"/>
        <path id="Path_1639" data-name="Path 1639" d="M512.874,283.687a.81.81,0,0,1-.407-.11l-9.072-4.773a.267.267,0,0,1-.066-.047,7.055,7.055,0,0,1-3.587-4.537.321.321,0,0,1-.091-.092l-3.217-5.035-1.313-1.963a.309.309,0,0,1-.053-.176l-7.685-12.028-17.153-32.4a.315.315,0,0,1,.113-.415l7.438-4.618a.317.317,0,0,1,.444.116l10.861,19.7,6.99,9.108a5.066,5.066,0,0,1,.633,1.081l9.514,22.181a3.866,3.866,0,0,0,1.476.685l4.989,1.125a7.465,7.465,0,0,0,1.416.169l11.026.058a.683.683,0,0,1,.7.625A1.7,1.7,0,0,1,524.4,273.9l-8.632,1.068-5.754,2.319a.737.737,0,0,0-.267,1.26l3.543,3.056a1.251,1.251,0,0,1,.246,1.741c-.019.025-.041.053-.064.079a.812.812,0,0,1-.6.265Zm-9.109-5.4,9.009,4.739A.164.164,0,0,0,513,283a.632.632,0,0,0-.107-.9l-3.562-3.072a1.367,1.367,0,0,1,.461-2.329l5.775-2.328a.31.31,0,0,1,.08-.02l8.648-1.068a1.078,1.078,0,0,0,.9-.9v-.009a.52.52,0,0,0-.067-.016l-11.033-.058a8.048,8.048,0,0,1-1.544-.185l-4.991-1.125a4.511,4.511,0,0,1-1.789-.854.32.32,0,0,1-.095-.124l-9.546-22.256a4.392,4.392,0,0,0-.554-.945l-7.015-9.148-10.728-19.449-6.9,4.287,17,32.117,7.754,12.133a.316.316,0,0,1,.049.164l1.231,1.842,3.1,4.855a.385.385,0,0,1,.051.016.317.317,0,0,1,.185.221l.043.19a6.422,6.422,0,0,0,3.347,4.205.286.286,0,0,1,.074.051Z" transform="translate(-404.026 -137.189)"/>
        <path id="Path_1640" data-name="Path 1640" d="M434.552,188.316l2.291.37a1.182,1.182,0,0,1,.82,1.786l-1.578,2.566" transform="translate(-389.982 -125.711)" opacity="0.1" style="isolation: isolate"/>
        <path id="Path_1641" data-name="Path 1641" d="M437.794,172.717l-1.143-3.2-3.629,1.3-1.126-1.586,2.326-7.169-6.534-2.116-.747,2.3-1.808-2.547-1.284,3.959a1.2,1.2,0,0,0-.055.446l.1,1.476a1.182,1.182,0,0,1-.7,1.162l-.407.181,0,.009-1.228.264a1.182,1.182,0,0,0-.679,1.889l.857,1.082-1.286,3.965a2.365,2.365,0,0,0,2.247,3.093l5.994.009,4.131,11.547a1.9,1.9,0,0,0,3.252.562l5.322-6.49Z" transform="translate(-384.38 -114.435)" fill="#fff"/>
        <path id="Path_1642" data-name="Path 1642" d="M434.407,190.149a2.193,2.193,0,0,1-2.089-1.466l-4.056-11.338-5.772-.008a2.681,2.681,0,0,1-2.548-3.506l1.234-3.8-.751-.95a1.5,1.5,0,0,1,.86-2.394l1.16-.249.008,0,.407-.181a.869.869,0,0,0,.513-.851l-.1-1.474a1.5,1.5,0,0,1,.069-.565l1.285-3.959a.315.315,0,0,1,.557-.085l1.444,2.034.553-1.7a.315.315,0,0,1,.4-.2l6.536,2.116a.32.32,0,0,1,.184.157.312.312,0,0,1,.019.241l-2.277,7.018.9,1.262,3.4-1.215a.316.316,0,0,1,.4.191l4.746,13.333a.316.316,0,0,1-.054.305l-5.322,6.491a2.2,2.2,0,0,1-1.706.81Zm-11.648-23.165a.3.3,0,0,1-.113.052l-1.228.263a.866.866,0,0,0-.5,1.385l.857,1.082a.316.316,0,0,1,.053.294l-1.286,3.965a2.049,2.049,0,0,0,1.948,2.68l5.994.009a.316.316,0,0,1,.3.209l4.13,11.547a1.568,1.568,0,0,0,1.494,1.047,1.548,1.548,0,0,0,1.217-.579l5.208-6.353-4.579-12.866-3.33,1.189a.318.318,0,0,1-.364-.115l-1.126-1.586a.315.315,0,0,1-.042-.28l2.229-6.87-5.934-1.921-.65,2a.316.316,0,0,1-.558.085l-1.444-2.034-1.091,3.36a.854.854,0,0,0-.039.326l.1,1.476a1.5,1.5,0,0,1-.886,1.471Z" transform="translate(-384.173 -114.23)"/>
        <path id="Path_1643" data-name="Path 1643" d="M437.635,151.342l.294.1a2.364,2.364,0,0,1,1.522,2.978l-2.534,7.81-10.424-3.375.71-2.188A8.285,8.285,0,0,1,437.635,151.342Z" transform="translate(-386.806 -110.982)"/>
        <path id="Path_1644" data-name="Path 1644" d="M442.649,175.206l-5.574-1.8,1.651-5.091,5.575,1.8a2.152,2.152,0,0,1,1.385,2.711l-.323,1A2.155,2.155,0,0,1,442.649,175.206Z" transform="translate(-390.977 -117.828)" fill="#fff"/>
        <path id="Path_1645" data-name="Path 1645" d="M439.441,175.886l3.974,1.286-1.615,4.977-3.974-1.286Z" transform="translate(-391.272 -120.813)" fill="#fff"/>
        <path id="Path_1646" data-name="Path 1646" d="M435.465,158.983l6.692,2.166-1.112,3.429a16.8,16.8,0,0,0,2.211.825,55.96,55.96,0,0,1-5.079,3.055.71.71,0,0,1-1.026-.835l.711-2.193a.709.709,0,0,0-.456-.894l-3.387-1.1Z" transform="translate(-389.773 -114.152)"/>
        <path id="Path_1647" data-name="Path 1647" d="M426.962,167l1.542.5a.709.709,0,0,1,.413.353l.434.849" transform="translate(-386.992 -117.311)" fill="#fff"/>
        <path id="Path_1648" data-name="Path 1648" d="M429.147,168.81a.315.315,0,0,1-.281-.173l-.434-.849a.4.4,0,0,0-.229-.2l-1.542-.5a.316.316,0,0,1,.2-.6l1.542.5a1.022,1.022,0,0,1,.6.509l.434.849a.316.316,0,0,1-.138.425A.306.306,0,0,1,429.147,168.81Z" transform="translate(-386.787 -117.105)"/>
        <path id="Path_1649" data-name="Path 1649" d="M424.022,178.771l-.42.418a1.184,1.184,0,0,1-.868.345l-1.116-.03.452-1.393Z" transform="translate(-384.886 -121.689)" fill="#fff"/>
        <path id="Path_1650" data-name="Path 1650" d="M422.562,179.645h-.041l-1.115-.03a.316.316,0,0,1-.292-.413l.451-1.394a.316.316,0,0,1,.4-.2l1.95.661a.315.315,0,0,1,.122.522l-.419.418A1.488,1.488,0,0,1,422.562,179.645Zm-.717-.651.693.019.024.316v-.316a.864.864,0,0,0,.613-.254l.059-.059-1.166-.4Z" transform="translate(-384.681 -121.484)"/>
        <path id="Path_1651" data-name="Path 1651" d="M462.68,162.751a1.263,1.263,0,0,1-1.263-1.234,5.1,5.1,0,0,0-1.1-3.222,1.263,1.263,0,0,1,1.963-1.59,7.62,7.62,0,0,1,1.662,4.755,1.263,1.263,0,0,1-1.234,1.291Z" transform="translate(-400.025 -113.07)" fill="#fff"/>
        <path id="Path_1652" data-name="Path 1652" d="M462.475,162.873a1.587,1.587,0,0,1-1.578-1.543,4.79,4.79,0,0,0-1.029-3.03,1.58,1.58,0,0,1,.232-2.219,1.625,1.625,0,0,1,2.223.231,7.935,7.935,0,0,1,1.732,4.946,1.579,1.579,0,0,1-1.543,1.614Zm-1.381-6.514a.936.936,0,0,0-.6.211.947.947,0,0,0-.139,1.332,5.405,5.405,0,0,1,1.17,3.413.951.951,0,0,0,.946.925v.316l.023-.316a.947.947,0,0,0,.925-.968,7.314,7.314,0,0,0-1.592-4.563A.944.944,0,0,0,461.094,156.358Z" transform="translate(-399.819 -112.876)"/>
        <path id="Path_1653" data-name="Path 1653" d="M482.953,226.674l-7.867,3.863-4.373-7.954,7.437-4.614Z" transform="translate(-404.232 -137.395)"/>
        <path id="Path_1654" data-name="Path 1654" d="M474.681,230.665l-4.662-8.48,7.974-4.948,5.122,9.286Zm-3.82-8.26,4.083,7.427,7.3-3.584-4.482-8.125Z" transform="translate(-403.958 -137.107)"/>
        <path id="Path_1655" data-name="Path 1655" d="M447.673,301.5l8.763-2.464v7.843h-8.763Z" transform="translate(-395.153 -169.339)" fill="#fff"/>
      </g>
    </g>
  </g>
</svg>
