<svg xmlns="http://www.w3.org/2000/svg" width="336.309" height="321.979" viewBox="0 0 336.309 321.979">
  <g id="Group_2806" data-name="Group 2806" transform="translate(-19 -247)">
    <g id="Group_2702" data-name="Group 2702" transform="translate(-791.561 241.973)">
      <path id="Path_1853" data-name="Path 1853" d="M1147.064,40.661v93.9l-5.287,5.5-5.287-5.5-5.282,5.5-5.285-5.5-5.283,5.5-5.281-5.5-5.283,5.5-5.283-5.5-5.282,5.5-5.284-5.5-5.282,5.5-5.282-5.5v-93.9Z" transform="translate(-0.43 -0.428)" fill="#fff"/>
      <path id="Path_1854" data-name="Path 1854" d="M1141.349,139.862a.235.235,0,0,1-.169-.072l-5.117-5.32-5.113,5.32a.243.243,0,0,1-.339,0l-5.115-5.319-5.114,5.319a.242.242,0,0,1-.339,0l-5.112-5.319-5.114,5.319a.243.243,0,0,1-.339,0l-5.113-5.319-5.113,5.319a.242.242,0,0,1-.339,0l-5.114-5.319-5.113,5.319a.243.243,0,0,1-.339,0l-5.281-5.5a.235.235,0,0,1-.065-.162v-93.9a.234.234,0,0,1,.234-.233h63.4a.234.234,0,0,1,.234.233v93.9a.233.233,0,0,1-.065.162l-5.287,5.5a.234.234,0,0,1-.169.072Zm-5.287-5.962a.235.235,0,0,1,.169.072l5.117,5.319,5.052-5.252V40.467h-62.931v93.572l5.047,5.252,5.113-5.319a.243.243,0,0,1,.339,0l5.114,5.32,5.113-5.319a.242.242,0,0,1,.339,0l5.114,5.319,5.113-5.319a.243.243,0,0,1,.339,0l5.112,5.319,5.113-5.319a.243.243,0,0,1,.339,0l5.115,5.319,5.113-5.319a.23.23,0,0,1,.168-.072Z"/>
      <ellipse id="Ellipse_356" data-name="Ellipse 356" cx="2.869" cy="2.856" rx="2.869" ry="2.856" transform="translate(1123.572 57.239)" fill="#fff"/>
      <path id="Path_1855" data-name="Path 1855" d="M1200.417,94.372a3.089,3.089,0,1,1,3.1-3.089A3.1,3.1,0,0,1,1200.417,94.372Zm0-5.712a2.622,2.622,0,1,0,2.635,2.622A2.632,2.632,0,0,0,1200.417,88.661Z" transform="translate(-73.976 -31.188)"/>
      <ellipse id="Ellipse_357" data-name="Ellipse 357" cx="2.869" cy="2.856" rx="2.869" ry="2.856" transform="translate(1120.114 57.239)" fill="#fff"/>
      <path id="Path_1856" data-name="Path 1856" d="M1190.618,94.372a3.089,3.089,0,1,1,3.1-3.089A3.1,3.1,0,0,1,1190.618,94.372Zm0-5.712a2.622,2.622,0,1,0,2.635,2.622A2.632,2.632,0,0,0,1190.618,88.661Z" transform="translate(-67.634 -31.188)"/>
      <path id="Path_1857" data-name="Path 1857" d="M1154.754,258.2h-38.887a1.377,1.377,0,0,1-1.38-1.374v-6.758a1.377,1.377,0,0,1,1.38-1.374h38.887a1.377,1.377,0,0,1,1.38,1.374v6.758A1.377,1.377,0,0,1,1154.754,258.2Z" transform="translate(-20.376 -135.055)"/>
      <path id="Path_1858" data-name="Path 1858" d="M1154.324,258.011h-38.887a1.613,1.613,0,0,1-1.615-1.607v-6.758a1.613,1.613,0,0,1,1.615-1.607h38.887a1.613,1.613,0,0,1,1.615,1.607V256.4A1.612,1.612,0,0,1,1154.324,258.011Zm-38.887-9.506a1.144,1.144,0,0,0-1.146,1.14V256.4a1.144,1.144,0,0,0,1.146,1.14h38.887a1.144,1.144,0,0,0,1.146-1.14v-6.758a1.144,1.144,0,0,0-1.146-1.14Z" transform="translate(-19.946 -134.629)" fill="#fff"/>
      <g id="Group_2701" data-name="Group 2701" transform="translate(1095.496 58.283)">
        <path id="Path_1859" data-name="Path 1859" d="M1134.331,95.97l2.642-3.993h-1.543l-1.186,1.793V91.977h-1.289V95.91l.2.061Z" transform="translate(-1127.824 -91.919)"/>
        <path id="Path_1860" data-name="Path 1860" d="M1163.78,91.977V95.97h-1.289V93.882l-1.408,2.088h-1.553l2.694-3.993Z" transform="translate(-1145.021 -91.919)"/>
        <path id="Path_1861" data-name="Path 1861" d="M1145.108,91.977l-2.61,3.993h-1.534l2.6-3.993Z" transform="translate(-1133.007 -91.919)"/>
        <path id="Path_1862" data-name="Path 1862" d="M1154.015,91.813V93.1h-1.792l.567.331.255.827-.593,1.245-.583.366h-2.31V94.581h1.9l.164-.346-.554-.327-.277-.779.344-.9.445-.3.158-.109Z" transform="translate(-1138.568 -91.813)"/>
        <path id="Path_1863" data-name="Path 1863" d="M1122.233,141.772H1120.5a2.081,2.081,0,0,1-2.084-2.074v-2.639h1.407V139.7a.676.676,0,0,0,.677.674h1.736a.676.676,0,0,0,.677-.674V138.58a1.582,1.582,0,0,0-.568-1.216l-2.744-2.3a2.978,2.978,0,0,1-1.069-2.287v-.889a2.082,2.082,0,0,1,2.084-2.074h1.621a2.081,2.081,0,0,1,2.083,2.074V134.3h-1.406v-2.413a.676.676,0,0,0-.677-.674h-1.621a.676.676,0,0,0-.677.674v.889a1.583,1.583,0,0,0,.569,1.216l2.744,2.3a2.978,2.978,0,0,1,1.069,2.287V139.7A2.08,2.08,0,0,1,1122.233,141.772Z" transform="translate(-1118.414 -116.405)"/>
        <path id="Path_1864" data-name="Path 1864" d="M1124.785,123.99h1.406v2.754h-1.406Z" transform="translate(-1122.537 -112.636)"/>
        <path id="Path_1865" data-name="Path 1865" d="M1124.785,162.043h1.406V164.8h-1.406Z" transform="translate(-1122.537 -137.261)"/>
      </g>
      <path id="Path_1866" data-name="Path 1866" d="M1155.051,132.7h23v10.992h-23Z" transform="translate(-46.627 -59.986)" fill="#fff"/>
      <path id="Path_1867" data-name="Path 1867" d="M1177.626,143.491h-23a.234.234,0,0,1-.234-.233V132.265a.234.234,0,0,1,.234-.233h23a.234.234,0,0,1,.234.233v10.992A.234.234,0,0,1,1177.626,143.491Zm-22.771-.467h22.536V132.5h-22.536Z" transform="translate(-46.197 -59.557)"/>
      <path id="Path_1868" data-name="Path 1868" d="M1119.172,182.015h38.341v6.106h-38.341Z" transform="translate(-23.408 -91.903)" fill="#fff"/>
      <path id="Path_1869" data-name="Path 1869" d="M1157.083,187.928h-38.341a.234.234,0,0,1-.234-.234v-6.106a.234.234,0,0,1,.234-.233h38.341a.234.234,0,0,1,.234.233v6.106A.234.234,0,0,1,1157.083,187.928Zm-38.106-.467h37.871v-5.64h-37.871Z" transform="translate(-22.978 -91.475)"/>
      <path id="Path_1870" data-name="Path 1870" d="M1119.172,210.568h38.341v6.107h-38.341Z" transform="translate(-23.408 -110.38)" fill="#fff"/>
      <path id="Path_1871" data-name="Path 1871" d="M1157.083,216.48h-38.341a.234.234,0,0,1-.234-.233V210.14a.234.234,0,0,1,.234-.233h38.341a.234.234,0,0,1,.234.233v6.106a.233.233,0,0,1-.234.233Zm-38.106-.466h37.871v-5.64h-37.871Z" transform="translate(-22.978 -109.952)"/>
    </g>
    <g id="Group_2710" data-name="Group 2710" transform="translate(-18 44)">
      <g id="Group_2696" data-name="Group 2696" transform="translate(-173.768 143.682)">
        <path id="Path_1791" data-name="Path 1791" d="M310.624,360.491a19.88,19.88,0,0,1-19.858-19.858V83.174a19.879,19.879,0,0,1,19.858-19.858H413.289a19.88,19.88,0,0,1,19.858,19.858v257.46a19.88,19.88,0,0,1-19.858,19.858Z" transform="translate(-0.689 -0.689)" fill="#fff"/>
        <g id="Group_2695" data-name="Group 2695" transform="translate(286.768 59.318)">
          <path id="Path_1792" data-name="Path 1792" d="M413.117,361.146H310.451a20.708,20.708,0,0,1-20.685-20.685V83a20.708,20.708,0,0,1,20.685-20.685H413.117A20.708,20.708,0,0,1,433.8,83v257.46A20.71,20.71,0,0,1,413.117,361.146ZM310.451,63.971A19.052,19.052,0,0,0,291.422,83v257.46a19.052,19.052,0,0,0,19.03,19.031H413.117a19.052,19.052,0,0,0,19.031-19.031V83a19.052,19.052,0,0,0-19.031-19.031Z" transform="translate(-287.284 -59.834)" fill="#464545"/>
          <path id="Path_1793" data-name="Path 1793" d="M412.6,65.937a16.567,16.567,0,0,1,16.548,16.548v257.46A16.567,16.567,0,0,1,412.6,356.493H309.935a16.567,16.567,0,0,1-16.548-16.548V82.485a16.567,16.567,0,0,1,16.548-16.548Zm0-6.619H309.935a23.167,23.167,0,0,0-23.167,23.167v257.46a23.168,23.168,0,0,0,23.167,23.168H412.6a23.168,23.168,0,0,0,23.168-23.168V82.485A23.169,23.169,0,0,0,412.6,59.318Z" transform="translate(-286.768 -59.318)" fill="#464545"/>
          <path id="Path_1794" data-name="Path 1794" d="M337.512,77.433h59.232a6.619,6.619,0,0,0,6.619-6.619V63.52H330.892v7.294A6.619,6.619,0,0,0,337.512,77.433Z" transform="translate(-294.367 -60.042)" fill="#464545"/>
        </g>
      </g>
      <g id="Group_2699" data-name="Group 2699" transform="translate(-685.591 25.5)">
        <path id="Path_1835" data-name="Path 1835" d="M1003.576,236.7a9.111,9.111,0,0,1-1.69.8,8.036,8.036,0,0,1-2,.507c-.292.049-.589.091-.892.123h-.008c-2.807.252-5.206-.343-6.581-1.627-.014-.01-.022-.025-.036-.035a1.238,1.238,0,0,1-.007.155,2.374,2.374,0,0,0,.608,1.555c1.118,1.274,3.26,1.963,5.747,1.991a10.091,10.091,0,0,0,4.325-.873,4.606,4.606,0,0,0,1.443-1.06,2.391,2.391,0,0,0,.623-1.554,2.231,2.231,0,0,0-.257-1.036A5.667,5.667,0,0,1,1003.576,236.7Zm-4.9-1.746a9.12,9.12,0,0,1-6.294-1.384,2.448,2.448,0,0,0,.6,1.412c1.116,1.273,3.26,1.959,5.74,1.99a10.023,10.023,0,0,0,4.323-.875,4.508,4.508,0,0,0,1.444-1.06,2.383,2.383,0,0,0,.62-1.554,2.267,2.267,0,0,0-.383-1.255C1004.378,232.7,1002.831,234.617,998.677,234.949Zm.071-1.182a9.995,9.995,0,0,0,4.321-.876,4.5,4.5,0,0,0,1.446-1.06,2.274,2.274,0,0,0,.014-3.107c-1.118-1.275-3.258-1.958-5.746-1.99a10.043,10.043,0,0,0-4.321.872,4.57,4.57,0,0,0-1.447,1.06,2.272,2.272,0,0,0-.014,3.112c1.115,1.273,3.26,1.957,5.747,1.989Zm-4.862-4.808c.6-.741,2.478-1.467,4.675-1.438a8.437,8.437,0,0,1,3.68.764,3,3,0,0,1,.982.717.956.956,0,0,1,.274.624.971.971,0,0,1-.274.623c-.6.741-2.482,1.468-4.68,1.435a8.473,8.473,0,0,1-3.679-.764,3.129,3.129,0,0,1-.984-.716.978.978,0,0,1-.273-.629A.953.953,0,0,1,993.886,228.959Z" transform="translate(-86.769 0)" fill="#000100"/>
        <path id="Path_1836" data-name="Path 1836" d="M863.793,244.36a3.155,3.155,0,0,0-2.5-1l-4.919.018-.359,1.853,4.92-.019a1.465,1.465,0,0,1,1.215.53,1.547,1.547,0,0,1,.287,1.313l-.074.32-.023.219-4.558.018a4.578,4.578,0,0,0-2.924,1.058,4.4,4.4,0,0,0-1.62,2.658l-.048.2a2.972,2.972,0,0,0,.535,2.651,3.046,3.046,0,0,0,2.493,1.036l6.444-.023,1.709-8.233A2.879,2.879,0,0,0,863.793,244.36Zm-2.637,8.978-4.558.018a1.539,1.539,0,0,1-1.239-.53,1.447,1.447,0,0,1-.287-1.313l.049-.2a2.155,2.155,0,0,1,.82-1.317,2.3,2.3,0,0,1,1.455-.547l4.534-.017Zm13.7-10.03-2.049,10.031-4.705.018a1.532,1.532,0,0,1-1.239-.534,1.46,1.46,0,0,1-.287-1.323l1.66-8.166h-1.887l-1.66,8.166a2.986,2.986,0,0,0,.546,2.669,3.081,3.081,0,0,0,2.5,1.045l4.73-.018-.145.684a2.343,2.343,0,0,1-.839,1.313,2.238,2.238,0,0,1-1.425.567l-6.446.025-.384,1.863,6.444-.025a4.487,4.487,0,0,0,2.887-1.093,4.626,4.626,0,0,0,1.656-2.654l2.55-12.581Z" transform="translate(-13.429 -8.721)" fill="#000100"/>
        <path id="Path_1837" data-name="Path 1837" d="M930.066,255.092l-6.444.025a3.062,3.062,0,0,1-2.491-1.044,3.011,3.011,0,0,1-.537-2.671l.048-.2a4.444,4.444,0,0,1,1.62-2.681,4.567,4.567,0,0,1,2.926-1.066l4.556-.017.025-.222.072-.318a1.569,1.569,0,0,0-.287-1.324,1.458,1.458,0,0,0-1.215-.534l-5.3.019.359-1.867,5.3-.019a3.158,3.158,0,0,1,2.5,1.008,2.9,2.9,0,0,1,.572,2.61Zm-1.5-1.859.769-3.927-4.534.018a2.281,2.281,0,0,0-1.456.546,2.181,2.181,0,0,0-.82,1.327l-.046.2a1.464,1.464,0,0,0,.286,1.324,1.53,1.53,0,0,0,1.239.534Z" transform="translate(-48.927 -8.658)" fill="#231f20"/>
        <path id="Path_1838" data-name="Path 1838" d="M954.776,251.79a3.725,3.725,0,0,1-1.64,2.432,4.862,4.862,0,0,1-2.792.82l-6.371.025.385-1.864,6.372-.023q1.885-.009,2.151-1.38l.1-.441q.287-1.367-1.6-1.367l-2.87.011a3.5,3.5,0,0,1-2.46-.8,2.389,2.389,0,0,1-.671-2.423l.1-.441a3.713,3.713,0,0,1,1.633-2.432,4.883,4.883,0,0,1,2.791-.82l6.4-.023-.346,1.867-6.4.024q-1.887,0-2.177,1.38l-.1.441q-.263,1.373,1.623,1.367l2.87-.011a3.5,3.5,0,0,1,2.46.8,2.42,2.42,0,0,1,.646,2.424Z" transform="translate(-61.288 -8.599)" fill="#000100"/>
        <path id="Path_1839" data-name="Path 1839" d="M978.185,250.119l-2.99.011a3.086,3.086,0,0,1-2.5-1.052,3.021,3.021,0,0,1-.547-2.689l1.3-6.449H972.27l.41-1.927h1.177l.866-4.3h1.913l-.866,4.3,3.963-.015-.41,1.927-3.963.015-1.3,6.449a1.469,1.469,0,0,0,1.5,1.87l2.989-.011Z" transform="translate(-76.074 -3.676)" fill="#231f20"/>
        <path id="Path_1840" data-name="Path 1840" d="M841.8,239.827a4.363,4.363,0,0,1-1.62,2.6,4.485,4.485,0,0,1-2.859,1.066l-6.423.023-1.447,7.106h-1.861l3.294-16.022,8.288-.03a2.87,2.87,0,0,1,2.956,3.63Zm-1.859,0,.332-1.63A1.436,1.436,0,0,0,840,236.9a1.48,1.48,0,0,0-1.211-.523l-6.422.025-1.093,5.275,6.423-.023a2.217,2.217,0,0,0,1.423-.533,2.248,2.248,0,0,0,.823-1.29Z" transform="translate(0 -4.124)" fill="#000100"/>
        <path id="Path_1841" data-name="Path 1841" d="M917.484,235.743l-7.806.028a2.459,2.459,0,0,0-2.3,1.875l-.716,3.565,4.872-.019-.387,1.891-4.847.018-1.478,7.144-1.893.008,2.557-12.6a4.765,4.765,0,0,1,4.582-3.748l7.806-.028Z" transform="translate(-39.671 -3.761)" fill="#231f20"/>
        <path id="Path_1842" data-name="Path 1842" d="M902.536,277.6h-1.748l-.4,1.081h-.34l1.455-3.848h.31l1.456,3.848h-.338Zm-1.646-.273h1.542l-.771-2.1Z" transform="translate(-38.158 -25.329)" fill="#000100"/>
        <path id="Path_1843" data-name="Path 1843" d="M910.68,278.68v-3.848h1.137a1.785,1.785,0,0,1,.906.227,1.56,1.56,0,0,1,.612.645,2.063,2.063,0,0,1,.216.957v.193a2.052,2.052,0,0,1-.217.957,1.535,1.535,0,0,1-.622.641,1.877,1.877,0,0,1-.924.224Zm.67-3.31v2.776h.436a1,1,0,0,0,.808-.329,1.44,1.44,0,0,0,.287-.944v-.214a1.481,1.481,0,0,0-.274-.956.966.966,0,0,0-.791-.331Z" transform="translate(-43.755 -25.329)" fill="#000100"/>
        <path id="Path_1844" data-name="Path 1844" d="M918.825,277.251v1.428h-.666v-3.848h1.472a1.493,1.493,0,0,1,1.025.335,1.13,1.13,0,0,1,.379.889,1.1,1.1,0,0,1-.372.881,1.557,1.557,0,0,1-1.04.314Zm0-.538h.8a.791.791,0,0,0,.547-.168.614.614,0,0,0,.188-.485.671.671,0,0,0-.19-.5.742.742,0,0,0-.523-.191h-.82Z" transform="translate(-47.694 -25.327)" fill="#000100"/>
        <path id="Path_1845" data-name="Path 1845" d="M928.4,276.8a2.348,2.348,0,0,1-.2.993,1.473,1.473,0,0,1-.559.655,1.638,1.638,0,0,1-1.67,0,1.488,1.488,0,0,1-.566-.65,2.277,2.277,0,0,1-.2-.976V276.6a2.326,2.326,0,0,1,.2-.993,1.5,1.5,0,0,1,.563-.66,1.641,1.641,0,0,1,1.667,0,1.469,1.469,0,0,1,.561.65,2.321,2.321,0,0,1,.2.988Zm-.668-.2a1.677,1.677,0,0,0-.242-.98.853.853,0,0,0-1.367,0,1.657,1.657,0,0,0-.25.956v.222a1.666,1.666,0,0,0,.247.981.794.794,0,0,0,.683.346.785.785,0,0,0,.683-.338,1.7,1.7,0,0,0,.239-.989Z" transform="translate(-51.403 -25.27)" fill="#000100"/>
        <path id="Path_1846" data-name="Path 1846" d="M938.958,277.415a1.382,1.382,0,0,1-.435.931,1.441,1.441,0,0,1-.981.322,1.365,1.365,0,0,1-.758-.214,1.4,1.4,0,0,1-.508-.607,2.137,2.137,0,0,1-.181-.9v-.5a2.186,2.186,0,0,1,.179-.91,1.387,1.387,0,0,1,.516-.611,1.406,1.406,0,0,1,.776-.217,1.283,1.283,0,0,1,1.388,1.169c0,.029,0,.058,0,.087h-.327a.98.98,0,0,0-1.066-.981,1.007,1.007,0,0,0-.833.392,1.69,1.69,0,0,0-.312,1.081v.472a1.708,1.708,0,0,0,.3,1.063.973.973,0,0,0,.82.4,1.084,1.084,0,0,0,.769-.243,1.18,1.18,0,0,0,.32-.734Z" transform="translate(-57.138 -25.263)" fill="#000100"/>
        <path id="Path_1847" data-name="Path 1847" d="M943.288,278.248a1.68,1.68,0,0,1,.16-.744,1.206,1.206,0,0,1,1.114-.7,1.175,1.175,0,0,1,.925.4,1.545,1.545,0,0,1,.355,1.062v.065a1.685,1.685,0,0,1-.161.747,1.192,1.192,0,0,1-.45.511,1.227,1.227,0,0,1-.664.18,1.182,1.182,0,0,1-.924-.4,1.544,1.544,0,0,1-.355-1.062Zm.317.086a1.3,1.3,0,0,0,.265.843.9.9,0,0,0,1.27.122.868.868,0,0,0,.122-.122,1.339,1.339,0,0,0,.265-.869v-.06a1.458,1.458,0,0,0-.122-.6.977.977,0,0,0-.34-.421.871.871,0,0,0-.5-.149.851.851,0,0,0-.69.33,1.347,1.347,0,0,0-.266.869Z" transform="translate(-60.926 -26.368)" fill="#000100"/>
        <path id="Path_1848" data-name="Path 1848" d="M950.335,276.86l.011.464a1.058,1.058,0,0,1,.4-.388,1.094,1.094,0,0,1,.529-.13.8.8,0,0,1,.86.556,1.056,1.056,0,0,1,.409-.41,1.129,1.129,0,0,1,.566-.145q.921,0,.939,1v1.913h-.317v-1.89a.853.853,0,0,0-.165-.569.674.674,0,0,0-.53-.185.837.837,0,0,0-.576.22.779.779,0,0,0-.262.525v1.892h-.317v-1.913a.779.779,0,0,0-.173-.546.683.683,0,0,0-.525-.18.793.793,0,0,0-.512.169.992.992,0,0,0-.317.507v1.961h-.317V276.86Z" transform="translate(-64.479 -26.369)" fill="#000100"/>
        <path id="Path_1849" data-name="Path 1849" d="M962.493,278.325a1.714,1.714,0,0,1-.3,1.06.942.942,0,0,1-.792.393,1.063,1.063,0,0,1-.9-.41v1.46h-.314v-3.963h.294l.017.41a1.011,1.011,0,0,1,.895-.458.958.958,0,0,1,.805.389,1.757,1.757,0,0,1,.292,1.078Zm-.317-.056a1.463,1.463,0,0,0-.226-.863.722.722,0,0,0-.626-.317.88.88,0,0,0-.5.137.9.9,0,0,0-.32.41V279a.854.854,0,0,0,.325.375.938.938,0,0,0,.507.135.715.715,0,0,0,.622-.318A1.67,1.67,0,0,0,962.176,278.269Z" transform="translate(-69.827 -26.374)" fill="#000100"/>
        <path id="Path_1850" data-name="Path 1850" d="M968.174,279.723a1.5,1.5,0,0,1-.062-.4,1.114,1.114,0,0,1-.424.335,1.308,1.308,0,0,1-.546.117.957.957,0,0,1-.667-.231.748.748,0,0,1-.256-.582.767.767,0,0,1,.349-.661,1.675,1.675,0,0,1,.969-.243h.573v-.325a.629.629,0,0,0-.189-.482.784.784,0,0,0-.546-.175.871.871,0,0,0-.547.168.506.506,0,0,0-.216.41h-.317a.735.735,0,0,1,.317-.59,1.218,1.218,0,0,1,.779-.25,1.12,1.12,0,0,1,.756.239.86.86,0,0,1,.283.668v1.353a1.69,1.69,0,0,0,.088.622v.031Zm-.995-.227a1.06,1.06,0,0,0,.567-.154.894.894,0,0,0,.364-.41v-.63h-.566a1.416,1.416,0,0,0-.739.174.533.533,0,0,0-.089.861.674.674,0,0,0,.464.16Z" transform="translate(-73.002 -26.371)" fill="#000100"/>
        <path id="Path_1851" data-name="Path 1851" d="M972.957,276.854l.011.489a1.127,1.127,0,0,1,.4-.41,1.041,1.041,0,0,1,.532-.136.859.859,0,0,1,.683.259,1.17,1.17,0,0,1,.227.778v1.876H974.5v-1.875a.88.88,0,0,0-.163-.571.633.633,0,0,0-.511-.187.8.8,0,0,0-.521.183,1.079,1.079,0,0,0-.334.5v1.958h-.314v-2.86Z" transform="translate(-76.391 -26.362)" fill="#000100"/>
        <path id="Path_1852" data-name="Path 1852" d="M979.481,279.325l.835-2.4h.342l-1.222,3.346-.063.148a.77.77,0,0,1-.727.521.9.9,0,0,1-.243-.037v-.261l.164.015a.588.588,0,0,0,.376-.115.868.868,0,0,0,.245-.4l.136-.385-1.078-2.837h.346Z" transform="translate(-79.335 -26.428)" fill="#000100"/>
      </g>
      <g id="Group_2704" data-name="Group 2704" transform="translate(118 235)">
        <path id="Path_1872" data-name="Path 1872" d="M106.7,226.376H24.559V152.562H106.7a6.043,6.043,0,0,1,6.029,6.057v61.7A6.043,6.043,0,0,1,106.7,226.376Z" transform="translate(-0.036 -0.036)" fill="#fff"/>
        <path id="Path_1873" data-name="Path 1873" d="M106.665,226.866H24.523A.525.525,0,0,1,24,226.34V152.526a.525.525,0,0,1,.523-.526h82.141a6.575,6.575,0,0,1,6.553,6.583v61.7A6.576,6.576,0,0,1,106.665,226.866Zm-81.618-1.052h81.618a5.524,5.524,0,0,0,5.505-5.532v-61.7a5.524,5.524,0,0,0-5.505-5.531H25.046Z"/>
        <path id="Path_1874" data-name="Path 1874" d="M97.994,199.329h20.5V183.592h-20.5a7.869,7.869,0,0,0,0,15.737Z" transform="translate(-4.246 -2.027)" fill="#fff"/>
        <g id="Group_2703" data-name="Group 2703" transform="translate(85.392 181.039)">
          <path id="Path_1875" data-name="Path 1875" d="M118.462,199.818h-20.5a8.394,8.394,0,0,1,0-16.788h20.5a.525.525,0,0,1,.523.526v15.737A.524.524,0,0,1,118.462,199.818Zm-20.5-15.736a7.342,7.342,0,0,0,0,14.684h19.981V184.082Z" transform="translate(-89.602 -183.03)"/>
          <ellipse id="Ellipse_358" data-name="Ellipse 358" cx="3.696" cy="3.713" rx="3.696" ry="3.713" transform="translate(4.572 4.682)"/>
          <path id="Path_1876" data-name="Path 1876" d="M98.148,195.948a4.238,4.238,0,1,1,4.219-4.238A4.234,4.234,0,0,1,98.148,195.948Zm0-7.426a3.187,3.187,0,1,0,3.172,3.187A3.183,3.183,0,0,0,98.148,188.522Z" transform="translate(-89.88 -183.315)"/>
        </g>
        <ellipse id="Ellipse_359" data-name="Ellipse 359" cx="3.696" cy="3.713" rx="3.696" ry="3.713" transform="translate(88.996 184.748)" fill="#fff"/>
        <path id="Path_1877" data-name="Path 1877" d="M97.113,194.909a4.239,4.239,0,1,1,4.219-4.238A4.234,4.234,0,0,1,97.113,194.909Zm0-7.426a3.187,3.187,0,1,0,3.172,3.187A3.183,3.183,0,0,0,97.113,187.483Z" transform="translate(-4.421 -2.209)"/>
      </g>
      <path id="Icon_ionic-ios-lock" data-name="Icon ionic-ios-lock" d="M38.086,19.491H35.4V14.265a10.744,10.744,0,1,0-21.488-.145v5.372H11.227A4.49,4.49,0,0,0,6.75,23.968V45.455a4.49,4.49,0,0,0,4.477,4.477H38.086a4.49,4.49,0,0,0,4.477-4.477V23.968A4.49,4.49,0,0,0,38.086,19.491ZM26.223,33.458v7.7a1.6,1.6,0,0,1-1.488,1.612A1.569,1.569,0,0,1,23.089,41.2V33.458a3.581,3.581,0,1,1,3.134,0Zm6.043-13.967H17.046V14.119a7.61,7.61,0,0,1,15.22,0Z" transform="translate(163.25 316.615)"/>
    </g>
    <g id="Group_2698" data-name="Group 2698" transform="translate(-369.742 303.466)">
      <path id="Path_1795" data-name="Path 1795" d="M682.986,353.483l-2.023,7.115,1.343,10.423,7,1.738,4.356-12.315Z" transform="translate(-29.182 -129.384)" fill="#fff"/>
      <path id="Path_1796" data-name="Path 1796" d="M689.1,372.856a.337.337,0,0,1-.108-.008l-7-1.738a.327.327,0,0,1-.245-.274l-1.342-10.423a.344.344,0,0,1,.009-.13l2.023-7.115a.327.327,0,0,1,.495-.183l10.673,6.961a.324.324,0,0,1,.129.379l-4.356,12.315A.326.326,0,0,1,689.1,372.856Zm-6.73-2.323,6.491,1.612,4.172-11.8-10.085-6.578-1.883,6.623Z" transform="translate(-28.954 -129.158)"/>
      <path id="Path_1797" data-name="Path 1797" d="M700.685,380.242a2.567,2.567,0,0,0-1.641-.709l-5.616-.3a4.365,4.365,0,0,1-.643-.088,6.454,6.454,0,0,1-4.979-5.277L687,369.127l-.4-.042a1.226,1.226,0,0,0-1.326.948l-.386,1.729-3.246-.853a5.91,5.91,0,0,1-4.31-4.564l-.677-3.423a.737.737,0,0,0-1.281-.33l-3.846,4.5-2.707,3.166-.234.273-1,2.322,8.125,6.332,9.959,7.76,4.088-.31h0l8.23-.624.019,0,.12-.094,1.486-1.157.8-.626a2.639,2.639,0,0,0,1.025-1.682A2.533,2.533,0,0,0,700.685,380.242Z" transform="translate(-23.683 -133.023)" fill="#fff"/>
      <path id="Path_1798" data-name="Path 1798" d="M697.808,386.1l-.019,0-12.322.935a.328.328,0,0,1-.227-.069l-18.084-14.092a.322.322,0,0,1-.1-.383l1-2.322a.3.3,0,0,1,.052-.084l6.787-7.933a1.064,1.064,0,0,1,1.852.478l.677,3.423a5.611,5.611,0,0,0,4.073,4.312l2.916.767.312-1.4a1.545,1.545,0,0,1,1.68-1.2l.4.042a.324.324,0,0,1,.287.268l.807,4.743a6.151,6.151,0,0,0,4.723,5.014,3.941,3.941,0,0,0,.594.082l5.615.3a2.9,2.9,0,0,1,1.852.8,2.852,2.852,0,0,1,.852,2.482,2.944,2.944,0,0,1-1.147,1.893l-2.407,1.876A.325.325,0,0,1,697.808,386.1Zm-12.264.279,12.111-.92,2.33-1.816a2.3,2.3,0,0,0,.9-1.471,2.211,2.211,0,0,0-.659-1.925,2.25,2.25,0,0,0-1.432-.619l-5.615-.3a4.778,4.778,0,0,1-.691-.095,6.8,6.8,0,0,1-5.234-5.541l-.766-4.5-.157-.017a.893.893,0,0,0-.972.695l-.386,1.729a.325.325,0,0,1-.149.208.321.321,0,0,1-.254.036L681.327,371a6.265,6.265,0,0,1-4.547-4.814l-.677-3.423a.4.4,0,0,0-.441-.325.4.4,0,0,0-.271.141l-6.754,7.9-.879,2.047Z" transform="translate(-23.455 -132.796)"/>
      <path id="Path_1799" data-name="Path 1799" d="M668.951,382.355l7.746,5.876,5.925,4.5c1.013-.06,2.087-.126,3.077-.183.56-.035,1.091-.065,1.573-.093l-8.6-6.527a1.219,1.219,0,0,1-.468-.789,6.1,6.1,0,0,0-2.348-3.964l-2.178-1.653-5.16-3.915-.129-.1a.738.738,0,0,0-1.165.428l-.241,1.111A5.262,5.262,0,0,0,668.951,382.355Z" transform="translate(-23.387 -138.376)"/>
      <path id="Path_1800" data-name="Path 1800" d="M687.075,392.548h-.01l-1.571.094c-.733.041-1.509.088-2.273.134l-.806.048a.329.329,0,0,1-.218-.066l-13.671-10.373a5.609,5.609,0,0,1-2.087-5.636l.242-1.112a1.066,1.066,0,0,1,1.683-.618l7.467,5.667a6.433,6.433,0,0,1,1.648,1.848,6.365,6.365,0,0,1,.825,2.327.892.892,0,0,0,.343.578l8.6,6.526a.325.325,0,0,1,.114.353A.33.33,0,0,1,687.075,392.548Zm-4.577-.379.685-.042c.764-.046,1.541-.093,2.272-.134l.694-.041-7.9-6a1.538,1.538,0,0,1-.593-1,5.771,5.771,0,0,0-2.223-3.754l-7.469-5.668a.394.394,0,0,0-.277-.079.411.411,0,0,0-.368.319l-.241,1.111a4.958,4.958,0,0,0,1.845,4.983Z" transform="translate(-23.16 -138.148)"/>
      <path id="Path_1801" data-name="Path 1801" d="M692.633,402.659l1.789,1.38a2.9,2.9,0,0,0,2.025.591l8.535-.756a2.482,2.482,0,0,0,1.17-.416l3.69-2.622a.227.227,0,0,0-.153-.412l-16.833,1.492a.416.416,0,0,0-.221.744Z" transform="translate(-33.913 -148.68)"/>
      <path id="Path_1802" data-name="Path 1802" d="M704.78,403.971l-8.534.756a3.22,3.22,0,0,1-2.255-.657L692.2,402.69a.736.736,0,0,1-.258-.8.745.745,0,0,1,.651-.529l16.833-1.491a.552.552,0,0,1,.372,1l-3.69,2.622a2.815,2.815,0,0,1-1.332.475Zm-12.125-1.959a.088.088,0,0,0-.081.065.087.087,0,0,0,.032.1l1.787,1.379a2.562,2.562,0,0,0,1.8.524l8.534-.756a2.155,2.155,0,0,0,1.016-.362l3.391-2.409Z" transform="translate(-33.684 -148.453)"/>
      <path id="Path_1803" data-name="Path 1803" d="M694.393,183.327l20.5,63.836a9.683,9.683,0,0,1-1.489,8.789l-30.083,39.976-6.956-13.751,12.041-28.539a12.144,12.144,0,0,1,.928-1.773l4.563-7.213-27.865-42.231,4.363-25.988Z" transform="translate(-23.046 -56.604)"/>
      <path id="Path_1804" data-name="Path 1804" d="M683.124,296.027a.38.38,0,0,1-.058,0,.325.325,0,0,1-.263-.177L675.848,282.1a.326.326,0,0,1-.01-.272l12.041-28.538a12.607,12.607,0,0,1,.952-1.82l4.451-7.036-27.75-42.057a.325.325,0,0,1-.049-.231l4.363-25.987a.325.325,0,0,1,.149-.222.336.336,0,0,1,.265-.037l24,6.892a.327.327,0,0,1,.221.213l20.505,63.837a10.022,10.022,0,0,1-1.54,9.082L683.359,295.9a.333.333,0,0,1-.234.13ZM676.5,281.939l6.651,13.15,29.766-39.555a9.377,9.377,0,0,0,1.44-8.5l-20.452-63.673-23.474-6.743-4.282,25.5,27.8,42.126a.323.323,0,0,1,0,.352l-4.563,7.212a11.9,11.9,0,0,0-.9,1.726Z" transform="translate(-22.817 -56.379)"/>
      <path id="Path_1805" data-name="Path 1805" d="M727.463,402.219v0C727.48,402.22,727.478,402.218,727.463,402.219Z" transform="translate(-48.297 -149.418)" fill="#29abe2"/>
      <path id="Path_1806" data-name="Path 1806" d="M684.353,290.509l-9.426-28.3-5.2-18.949a4.086,4.086,0,0,0,1.005-2.884l-3.13-61.356-26.8,1.219-.641,1.681c-1.857,4.87-1.15,7.9.49,15.008l.693,2.991,12.24,48.8.071-.021,3.266,19.215a12.11,12.11,0,0,0,1.3,3.755l10.522,19.333,10.319,18.97.081.147s10.8-2.441,10.917-2.461Z" transform="translate(-11.957 -57.67)"/>
      <path id="Path_1807" data-name="Path 1807" d="M678.952,310.219a.328.328,0,0,1-.316-.168l-.082-.147L657.712,271.6a12.386,12.386,0,0,1-1.336-3.855l-3.23-19a.33.33,0,0,1-.1-.165l-12.24-48.8-.694-3c-1.628-7.053-2.365-10.246-.478-15.2l.64-1.68a.356.356,0,0,1,.292-.21l26.8-1.219a.328.328,0,0,1,.342.309l3.13,61.356a4.4,4.4,0,0,1-.974,2.978l5.16,18.786,15.131,45.431a.32.32,0,0,1-.03.269.327.327,0,0,1-.224.153c-.178.037-7.208,1.624-10.9,2.458l-.043.006Zm-25.323-62a.322.322,0,0,1,.126.206l3.266,19.215a11.768,11.768,0,0,0,1.267,3.654l20.8,38.235c1.98-.448,8.674-1.961,10.323-2.329l-15.023-45.106-5.209-18.964a.323.323,0,0,1,.068-.3,3.763,3.763,0,0,0,.928-2.656l-3.114-61.034-26.255,1.194-.565,1.48c-1.816,4.767-1.141,7.693.49,14.764l.706,3.048Z" transform="translate(-11.733 -57.443)"/>
      <path id="Path_1808" data-name="Path 1808" d="M722.358,418.973l-10.82.959a1.43,1.43,0,0,1-1.421-.7l-1.338-2.647,15.706-1.392-.852,2.841A1.432,1.432,0,0,1,722.358,418.973Z" transform="translate(-40.617 -154.751)"/>
      <path id="Path_1809" data-name="Path 1809" d="M722.158,419.07l-10.82.959a1.76,1.76,0,0,1-1.743-.881l-1.337-2.646a.323.323,0,0,1,.006-.3.327.327,0,0,1,.257-.166l15.707-1.392a.325.325,0,0,1,.342.416l-.852,2.84a1.758,1.758,0,0,1-1.56,1.173Zm-13.1-2.433,1.121,2.219a1.1,1.1,0,0,0,1.1.525l10.82-.958a1.106,1.106,0,0,0,.991-.71l.714-2.382Z" transform="translate(-40.388 -154.524)"/>
      <path id="Path_1810" data-name="Path 1810" d="M721.928,398.709l-3.649-4.745-1.112-.5-.914-3.084a1.571,1.571,0,0,0-1.573-1.082l-6.535.579a.969.969,0,0,0-.867,1.3l.666,2.25L705.5,395.1l-.206,2.729a12.074,12.074,0,0,0,1.091,6l1.079,2.322,14.793-1.31a.926.926,0,0,0,.845-.989l-.191-2.567a4.822,4.822,0,0,0-.984-2.575Z" transform="translate(-39.17 -144.107)" fill="#fff"/>
      <path id="Path_1811" data-name="Path 1811" d="M722.057,404.938l-14.792,1.31a.328.328,0,0,1-.326-.187l-1.079-2.322a12.434,12.434,0,0,1-1.12-6.164l.207-2.73a.321.321,0,0,1,.141-.243l2.247-1.532-.6-2.025a1.352,1.352,0,0,1,.158-1.157,1.314,1.314,0,0,1,.994-.557l6.535-.579a1.888,1.888,0,0,1,1.916,1.312l.872,2.941.975.435a.334.334,0,0,1,.126.1l3.649,4.745a5.141,5.141,0,0,1,1.05,2.749l.191,2.567a1.259,1.259,0,0,1-1.144,1.338Zm-14.621.643L722,404.29a.6.6,0,0,0,.548-.641l-.191-2.567a4.491,4.491,0,0,0-.918-2.4l-3.6-4.68-1.038-.462a.323.323,0,0,1-.18-.2l-.914-3.085a1.249,1.249,0,0,0-1.231-.85l-6.535.579a.67.67,0,0,0-.511.275.7.7,0,0,0-.071.607l.667,2.25a.323.323,0,0,1-.129.36l-2.313,1.578-.195,2.574a11.789,11.789,0,0,0,1.062,5.843Z" transform="translate(-38.942 -143.88)"/>
      <path id="Path_1812" data-name="Path 1812" d="M721.078,413.175l2.244-.2a1.678,1.678,0,1,1,.3,3.343l-2.244.2a1.678,1.678,0,1,1-.3-3.343Z" transform="translate(-45.039 -153.838)"/>
      <path id="Path_1813" data-name="Path 1813" d="M723.419,416.414l-2.243.2a2,2,0,1,1-.353-3.991l2.243-.2a2,2,0,1,1,.353,3.99Zm-2.539-3.144a1.353,1.353,0,1,0,.239,2.7l2.243-.2a1.353,1.353,0,1,0-.239-2.7Z" transform="translate(-44.811 -153.61)"/>
      <path id="Path_1814" data-name="Path 1814" d="M682.716,125.917,671.2,99.308l-.075.011-2.83-6.472a9.726,9.726,0,0,0-8.568-5.8L622.4,85.691a9.727,9.727,0,0,0-10.1,9.459l-.169,7.335h-.01l-.655,28.464.136,2.49a4.851,4.851,0,0,0,5.3,4.793l.929-.082a6.016,6.016,0,0,0,5.466-5.353l.522-5,4.6,28.822,44.226-8.861-5.8-25.9,5.206,11.148a3.449,3.449,0,0,0,3.433,1.969l.657-.058a6.945,6.945,0,0,0,6.132-5.211l.567-2.257A2.4,2.4,0,0,0,682.716,125.917Z" transform="translate(-0.613 -19.3)" fill="#fff"/>
      <path id="Path_1815" data-name="Path 1815" d="M628.216,156.719a.327.327,0,0,1-.352-.272l-4.211-26.375-.264,2.53a6.354,6.354,0,0,1-5.763,5.643l-.93.082A5.233,5.233,0,0,1,612.737,137a5.151,5.151,0,0,1-1.694-3.792l-.137-2.473.656-28.489a.381.381,0,0,1,.012-.078l.167-7.257a10.026,10.026,0,0,1,9.169-9.743,10.217,10.217,0,0,1,1.274-.034l37.329,1.352a10.1,10.1,0,0,1,8.856,6l2.757,6.3a.32.32,0,0,1,.148.16l11.514,26.608a2.739,2.739,0,0,1,.141,1.747l-.567,2.257a7.276,7.276,0,0,1-6.421,5.456l-.657.058a3.789,3.789,0,0,1-3.759-2.155l-3.932-8.422,5.139,22.962a.323.323,0,0,1-.045.248.328.328,0,0,1-.21.141l-44.226,8.861Zm-4.661-29.471h.02a.326.326,0,0,1,.332.273l4.551,28.489,43.564-8.729L666.3,121.709a.328.328,0,0,1,.617-.208l5.206,11.148a3.129,3.129,0,0,0,3.107,1.782l.658-.058a6.619,6.619,0,0,0,5.843-4.965l.567-2.257a2.1,2.1,0,0,0-.108-1.333L670.746,99.38a.326.326,0,0,1-.147-.158l-2.831-6.472a9.445,9.445,0,0,0-8.28-5.608L622.16,85.79a9.567,9.567,0,0,0-1.192.031,9.372,9.372,0,0,0-8.572,9.11l-.17,7.335a.381.381,0,0,1-.012.078l-.654,28.386.136,2.465a4.457,4.457,0,0,0,1.482,3.33,4.512,4.512,0,0,0,3.459,1.157l.929-.082a5.7,5.7,0,0,0,5.17-5.062l.522-5a.328.328,0,0,1,.3-.291Z" transform="translate(-0.384 -19.073)"/>
      <path id="Path_1816" data-name="Path 1816" d="M665.641,56.418l-23.284,4.248-.883-9.961a10.285,10.285,0,0,1,9.375-11.12l2.917-.258a10.284,10.284,0,0,1,11.184,9.3Z" transform="translate(-12.933 -0.227)"/>
      <path id="Path_1817" data-name="Path 1817" d="M642.157,60.762a.327.327,0,0,1-.355-.294l-.882-9.961a10.623,10.623,0,0,1,9.673-11.472l2.917-.259a10.623,10.623,0,0,1,11.539,9.593l.69,7.793a.325.325,0,0,1-.267.348l-23.284,4.249Zm8.493-21.08a9.97,9.97,0,0,0-9.078,10.767l.851,9.6,22.638-4.13-.664-7.5a9.971,9.971,0,0,0-10.83-9Z" transform="translate(-12.705 0)"/>
      <path id="Path_1818" data-name="Path 1818" d="M648.641,81.219,647.322,66.33l13.693-1.213.819,9.237.72,8.236a4.418,4.418,0,0,1-4.321,4.787l-2.6.058A6.843,6.843,0,0,1,648.641,81.219Z" transform="translate(-15.353 -10.845)" fill="#fff"/>
      <path id="Path_1819" data-name="Path 1819" d="M658.333,87.458c-.107.009-.214.015-.322.018l-2.6.057a7.188,7.188,0,0,1-7.321-6.512l-1.319-14.888a.327.327,0,0,1,.3-.353l13.693-1.213a.326.326,0,0,1,.355.294l1.539,17.474A4.746,4.746,0,0,1,658.333,87.458ZM647.448,66.4l1.29,14.565a6.534,6.534,0,0,0,6.655,5.919l2.6-.057a4.087,4.087,0,0,0,4-4.433l-1.51-17.148L647.448,66.4Z" transform="translate(-15.124 -10.619)"/>
      <path id="Path_1820" data-name="Path 1820" d="M664.659,72.321l-5.154,6.034a3.283,3.283,0,0,1-2.256,1.14l-2.779.2a3.28,3.28,0,0,1-2.319-.73L646.3,74.184l-1.038-11.71,18.383-1.628,1.016,11.476Z" transform="translate(-14.505 -9.089)" fill="#fff"/>
      <g id="Group_2697" data-name="Group 2697" transform="translate(620.613 45.972)">
        <path id="Path_1821" data-name="Path 1821" d="M657.1,79.587l-.052,0-2.78.2a3.591,3.591,0,0,1-2.55-.8l-5.856-4.786a.321.321,0,0,1-.118-.221l-1.037-11.71a.326.326,0,0,1,.3-.352l18.383-1.629a.326.326,0,0,1,.355.3l1.017,11.476a.325.325,0,0,1-.077.239l-5.153,6.034A3.593,3.593,0,0,1,657.1,79.587Zm-10.716-5.8,5.75,4.7a2.949,2.949,0,0,0,2.088.658L657,78.943l.071.321-.028-.324a2.937,2.937,0,0,0,1.986-1.023l5.065-5.93-.977-11.017-17.731,1.571Z" transform="translate(-634.89 -54.834)"/>
        <path id="Path_1822" data-name="Path 1822" d="M662.036,78.34l-.022,0-.883.047a.326.326,0,0,1-.343-.307.348.348,0,0,1,.31-.342l.875-.046a.861.861,0,0,0,.607-.31.876.876,0,0,0,.208-.651l-.319-3.6a1.541,1.541,0,0,1,1.4-1.664l4.245-.376a.325.325,0,1,1,.058.648l-4.246.376a.888.888,0,0,0-.809.959l.319,3.6a1.539,1.539,0,0,1-1.4,1.665Z" transform="translate(-641.502 -59.274)"/>
        <path id="Path_1823" data-name="Path 1823" d="M645.179,56.1l.305,3.442-.459.041a2.632,2.632,0,0,0-2.4,2.846l.761,8.594a1.036,1.036,0,0,1-1.767.813l-3.166-3.192a1.022,1.022,0,0,1-.286-.872l2.019-13.4Z" transform="translate(-632.199 -52.403)"/>
        <path id="Path_1824" data-name="Path 1824" d="M642.237,72.238a1.333,1.333,0,0,1-1.08-.4l-3.167-3.191a1.353,1.353,0,0,1-.376-1.149l2.019-13.4a.323.323,0,0,1,.155-.23.331.331,0,0,1,.277-.029l4.993,1.724a.327.327,0,0,1,.219.279l.3,3.442a.326.326,0,0,1-.3.353l-.46.041a2.308,2.308,0,0,0-2.1,2.493l.761,8.594A1.351,1.351,0,0,1,642.237,72.238Zm-2.015-17.652-1.96,13.007a.7.7,0,0,0,.2.6l3.167,3.191a.677.677,0,0,0,.556.209.7.7,0,0,0,.652-.765l-.761-8.592a2.961,2.961,0,0,1,2.7-3.2l.134-.012-.258-2.909Z" transform="translate(-631.97 -52.175)"/>
        <path id="Path_1825" data-name="Path 1825" d="M656.461,58.134l.233,2.628a2.512,2.512,0,0,0,2.731,2.271l2.531-.224A2.426,2.426,0,0,1,664.6,65l.524,5.906a2.2,2.2,0,0,0,3.866,1.2l5.895-8.422a1.2,1.2,0,0,0-.151-1.7l-9.636-10.41Z" transform="translate(-639.723 -51.252)"/>
        <path id="Path_1826" data-name="Path 1826" d="M667.295,72.982a2.516,2.516,0,0,1-2.732-2.272L664.04,64.8a2.1,2.1,0,0,0-2.285-1.9l-2.531.224a2.841,2.841,0,0,1-3.086-2.567l-.233-2.628a.327.327,0,0,1,.127-.287l8.631-6.556a.33.33,0,0,1,.439.038l9.637,10.41a1.476,1.476,0,0,1,.515,1.011,1.519,1.519,0,0,1-.354,1.12l-5.876,8.4A2.555,2.555,0,0,1,667.295,72.982ZM656.573,58.055l.217,2.45a2.189,2.189,0,0,0,2.377,1.977l2.531-.224a2.757,2.757,0,0,1,2.994,2.489l.523,5.906a1.862,1.862,0,0,0,2.023,1.682,1.884,1.884,0,0,0,1.267-.657l5.877-8.4a.9.9,0,0,0,.223-.669.879.879,0,0,0-.314-.6l-9.465-10.22Z" transform="translate(-639.494 -51.025)"/>
        <path id="Path_1827" data-name="Path 1827" d="M630.789,138.519a.326.326,0,0,1-.354-.291l-2.393-23.845a.326.326,0,0,1,.293-.356.333.333,0,0,1,.358.29l2.393,23.845a.326.326,0,0,1-.293.356Z" transform="translate(-628.04 -76.923)"/>
        <path id="Path_1828" data-name="Path 1828" d="M703.25,131.49a.326.326,0,0,1-.347-.25l-3.2-13.814a1.6,1.6,0,0,1,.657-1.7,1.618,1.618,0,0,1,1.83-.031l-.129.305-.181.272-.049-.033a.971.971,0,0,0-1.1.019.957.957,0,0,0-.395,1.018l3.2,13.814a.325.325,0,0,1-.246.39.277.277,0,0,1-.044.008Z" transform="translate(-657.482 -77.499)"/>
      </g>
      <path id="Path_1829" data-name="Path 1829" d="M655.27,144.524a.009.009,0,0,1,0-.007l-.008-.016a1.37,1.37,0,0,0-1.57-.7l-5.618,1.5-6.7-1.008-1.206-.526c-.1-.045-1.843-1.305-2.424-1.726l1.343-.584.805.589a1.714,1.714,0,0,0,2.242-.194l.131-.135a.481.481,0,0,0-.015-.684l-2.077-1.975a.83.83,0,0,0-.329-.186,1.218,1.218,0,0,0-1.23-.162l-5.006,2.151-.354.123a5.474,5.474,0,0,0-2.874,1.741l-17.024,7.863a4.84,4.84,0,0,0-2.8,4.816l.2,2.279a4.853,4.853,0,0,0,5.279,4.388l3.752-.332a4.884,4.884,0,0,0,3.094-1.481l8.577-8.925,1.081-1.009a2.448,2.448,0,0,1,1.459-.65l1.515-.131,5.6.062a2.632,2.632,0,0,0,1.767-.644l1.405-1.217,2.99.082a4.631,4.631,0,0,0,1.991-.37l5.83-2.481A.343.343,0,0,0,655.27,144.524Z" transform="translate(-0.228 -41.057)" fill="#fff"/>
      <path id="Path_1830" data-name="Path 1830" d="M619.58,161.837l-3.753.333a5.186,5.186,0,0,1-5.633-4.683l-.2-2.279a5.178,5.178,0,0,1,2.991-5.14l16.955-7.831a5.82,5.82,0,0,1,2.974-1.786l.355-.123,4.984-2.143a1.56,1.56,0,0,1,1.514.17,1.132,1.132,0,0,1,.4.241l2.077,1.976a.8.8,0,0,1,.025,1.143l-.131.135a2.094,2.094,0,0,1-2.672.23l-.654-.478-.646.281c1.058.765,1.824,1.311,1.922,1.368l1.145.5,6.593.992,5.552-1.478a1.686,1.686,0,0,1,1.946.861l.007.014a.209.209,0,0,1,.015.03.66.66,0,0,1,0,.513.669.669,0,0,1-.364.365l-5.827,2.481a4.975,4.975,0,0,1-2.133.4l-2.859-.079-1.31,1.134a2.964,2.964,0,0,1-1.986.724l-5.6-.062-1.483.13a2.127,2.127,0,0,0-1.263.561l-1.081,1.01-8.565,8.912A5.211,5.211,0,0,1,619.58,161.837Zm19.2-23.122a.866.866,0,0,0-.268.068l-5.383,2.283A5.177,5.177,0,0,0,630.4,142.7a.333.333,0,0,1-.118.094l-17.024,7.863a4.525,4.525,0,0,0-2.615,4.492l.2,2.279a4.534,4.534,0,0,0,4.924,4.094l3.753-.333a4.551,4.551,0,0,0,2.885-1.381l8.577-8.925,1.094-1.022a2.782,2.782,0,0,1,1.648-.735l1.522-.132,5.63.061a2.293,2.293,0,0,0,1.547-.564l1.407-1.218a.344.344,0,0,1,.225-.081l2.989.082a4.255,4.255,0,0,0,1.852-.343l5.851-2.492,0-.005a1.033,1.033,0,0,0-1.2-.541l-5.617,1.494a.309.309,0,0,1-.133.008l-6.7-1.009a.312.312,0,0,1-.082-.023l-1.206-.527c-.045-.02-.147-.065-2.485-1.761a.324.324,0,0,1,.062-.56l1.342-.583a.326.326,0,0,1,.325.036l.805.589a1.417,1.417,0,0,0,1.811-.156l.131-.135a.16.16,0,0,0,.045-.114.156.156,0,0,0-.049-.11l-2.077-1.976a.51.51,0,0,0-.2-.111.307.307,0,0,1-.1-.054.9.9,0,0,0-.63-.187Z" transform="translate(0 -40.831)"/>
      <path id="Path_1831" data-name="Path 1831" d="M665.613,150.077l16.088-1.425a1.237,1.237,0,0,0,1.125-1.335l-.071-.8a1.238,1.238,0,0,0-1.342-1.116l-16.088,1.425a1.238,1.238,0,0,0-1.125,1.335l.071.8A1.238,1.238,0,0,0,665.613,150.077Z" transform="translate(-22.289 -43.846)"/>
      <path id="Path_1832" data-name="Path 1832" d="M681.5,148.749l-16.087,1.425a1.564,1.564,0,0,1-1.7-1.411l-.071-.8a1.564,1.564,0,0,1,1.423-1.688l16.088-1.425a1.562,1.562,0,0,1,1.7,1.412l.071.8A1.563,1.563,0,0,1,681.5,148.749Zm-16.375-1.826a.909.909,0,0,0-.829.983l.071.8a.91.91,0,0,0,.989.822l16.087-1.426a.909.909,0,0,0,.828-.982l-.071-.8a.91.91,0,0,0-.988-.822Z" transform="translate(-22.061 -43.618)"/>
      <path id="Path_1833" data-name="Path 1833" d="M702.987,144.859l-10.048-4.952-.008.028a9.358,9.358,0,0,0-1.817-.415l-.382-.061-5.293-1.234a2.265,2.265,0,0,0-1.634.674l-1.479,2.012a.481.481,0,0,0,.106.676l.152.111a1.714,1.714,0,0,0,2.241-.2l.491-.515,1.549.367-1.9,1.792a.385.385,0,0,1-.168.336l-1.094.73-6.423,2.171-5.793-.484a1.369,1.369,0,0,0-1.423.961l-.006.018a.007.007,0,0,1,0,.007.343.343,0,0,0,.261.412l6.176,1.417a4.627,4.627,0,0,0,2.025.015l2.929-.607,1.6.951a2.633,2.633,0,0,0,1.853.324l5.5-1.046.044-.008a5.877,5.877,0,0,1,.928-.071l2.214,5.393a4.866,4.866,0,0,0,4.937,2.987l2.906-.257a4.854,4.854,0,0,0,4.429-5.189l-.181-2.378a4.828,4.828,0,0,0-2.687-3.962Z" transform="translate(-24.696 -40.885)" fill="#fff"/>
      <path id="Path_1834" data-name="Path 1834" d="M701.227,156.487l-2.907.258a5.169,5.169,0,0,1-5.269-3.188l-2.13-5.187a4.864,4.864,0,0,0-.657.062l-5.534,1.052a2.975,2.975,0,0,1-2.083-.364l-1.488-.887-2.8.581a5.019,5.019,0,0,1-2.167-.016l-6.175-1.417a.668.668,0,0,1-.419-.294.659.659,0,0,1-.087-.506.092.092,0,0,1,0-.015l0-.015a1.7,1.7,0,0,1,1.768-1.207l5.726.479,6.316-2.135,1.058-.706a.462.462,0,0,1,.124-.3l1.462-1.379-.779-.186-.361.379a2.1,2.1,0,0,1-2.672.243l-.153-.11a.808.808,0,0,1-.177-1.131l1.479-2.012a1.536,1.536,0,0,1,.692-.526,1.558,1.558,0,0,1,1.282-.273l5.652,1.291a10.04,10.04,0,0,1,1.766.39h0a.288.288,0,0,1,.153.025l10.048,4.952a5.179,5.179,0,0,1,2.869,4.228l.181,2.379a5.2,5.2,0,0,1-4.726,5.536Zm-10.674-8.745c.2-.018.392-.025.586-.026a.325.325,0,0,1,.305.2l2.214,5.393a4.517,4.517,0,0,0,4.605,2.786l2.906-.257A4.545,4.545,0,0,0,705.3,151l-.181-2.378a4.527,4.527,0,0,0-2.507-3.7l-9.931-4.895a.267.267,0,0,1-.1-.016,8.958,8.958,0,0,0-1.752-.4l-.382-.061-5.316-1.239a.9.9,0,0,0-.764.18.3.3,0,0,1-.1.056.878.878,0,0,0-.43.313l-1.479,2.012a.161.161,0,0,0,.036.223l.151.11a1.419,1.419,0,0,0,1.811-.164l.491-.515a.329.329,0,0,1,.314-.092l1.549.367a.324.324,0,0,1,.148.552l-1.81,1.708a.718.718,0,0,1-.3.452l-1.1.733a.339.339,0,0,1-.078.038l-6.422,2.171a.294.294,0,0,1-.133.016l-5.793-.484a1.04,1.04,0,0,0-1.082.732h0v0l6.192,1.44a4.28,4.28,0,0,0,1.882.014l2.932-.607a.333.333,0,0,1,.235.04l1.6.952a2.324,2.324,0,0,0,1.622.284l5.5-1.046C690.29,147.769,690.421,147.753,690.553,147.742Z" transform="translate(-24.467 -40.66)"/>
    </g>
    <g id="Group_2694" data-name="Group 2694" transform="translate(-110.998 190.2)">
      <ellipse id="Ellipse_318" data-name="Ellipse 318" cx="1.484" cy="1.741" rx="1.484" ry="1.741" transform="translate(174.933 175.538) rotate(-25.289)"/>
      <ellipse id="Ellipse_319" data-name="Ellipse 319" cx="1.484" cy="1.741" rx="1.484" ry="1.741" transform="translate(174.782 174.289) rotate(-25.289)"/>
      <ellipse id="Ellipse_320" data-name="Ellipse 320" cx="1.484" cy="1.741" rx="1.484" ry="1.741" transform="translate(174.806 173.492) rotate(-25.289)"/>
      <path id="Path_1700" data-name="Path 1700" d="M148.682,426.373l-2.736-1.51L159.961,399.2l18.754-22.378,9.612-62.573,3.084.479-9.746,63.442-.281.337-18.835,22.476Z" transform="translate(-5.93 -60.325)"/>
      <path id="Path_1701" data-name="Path 1701" d="M144,421.011l-2.5-1.876,32.165-43.325,8.148-57.9,3.091.44-8.261,58.7-.239.321Z" transform="translate(-4.275 -61.685)"/>
      <path id="Path_1702" data-name="Path 1702" d="M147.847,449.859l6.482,4.791a1.245,1.245,0,0,0,1.755-.281l24.772-34.839a1.26,1.26,0,0,0-.29-1.751l-8.34-5.995a1.244,1.244,0,0,0-1.778.345l-22.914,36.043a1.26,1.26,0,0,0,.312,1.687Z" transform="translate(-6.447 -96.501)" fill="#fff"/>
      <path id="Path_1703" data-name="Path 1703" d="M154.883,455.022a1.548,1.548,0,0,1-.923-.3l-6.482-4.792a1.577,1.577,0,0,1-.39-2.11L170,411.775a1.556,1.556,0,0,1,2.222-.432l8.34,6a1.577,1.577,0,0,1,.361,2.189l-24.772,34.839a1.559,1.559,0,0,1-1.27.656Zm16.434-43.344a.933.933,0,0,0-.791.434l-22.913,36.043a.946.946,0,0,0,.234,1.265l6.482,4.791a.924.924,0,0,0,.554.183.936.936,0,0,0,.762-.395l24.772-34.839a.946.946,0,0,0-.217-1.314l-8.34-6A.938.938,0,0,0,171.317,411.679Z" transform="translate(-6.263 -96.316)"/>
      <ellipse id="Ellipse_321" data-name="Ellipse 321" cx="1.871" cy="1.273" rx="1.871" ry="1.273" transform="translate(146.943 375.794)"/>
      <path id="Path_1704" data-name="Path 1704" d="M131.89,476.617c2.564-1.129,5.822-2.559,5.822-2.559l4.988,7.755,6.516,13.849a.631.631,0,0,1-.141.73l-1.493,1.384a.622.622,0,0,1-.887-.042l-15.6-17.41a2.344,2.344,0,0,1,.793-3.708Z" transform="translate(-0.185 -119.742)" fill="#fff"/>
      <path id="Path_1705" data-name="Path 1705" d="M146.973,498.07a.934.934,0,0,1-.7-.311l-15.6-17.41a2.659,2.659,0,0,1,.9-4.206l5.822-2.557a.311.311,0,0,1,.387.117l4.988,7.755,6.536,13.884a.941.941,0,0,1-.212,1.095l-1.494,1.384A.928.928,0,0,1,146.973,498.07Zm-9.566-23.8-5.578,2.451a2.03,2.03,0,0,0-.687,3.211l15.6,17.409a.317.317,0,0,0,.444.021l1.493-1.383a.314.314,0,0,0,.07-.365l-6.516-13.849Z" transform="translate(0 -119.557)"/>
      <path id="Path_1706" data-name="Path 1706" d="M166.92,510.551h-5.393v-2.656h3.52a1.878,1.878,0,0,1,1.873,1.883Z" transform="translate(-11.723 -132.323)" fill="#fff"/>
      <path id="Path_1707" data-name="Path 1707" d="M166.736,510.679h-5.394a.313.313,0,0,1-.312-.314v-2.656a.313.313,0,0,1,.312-.313h3.521a2.194,2.194,0,0,1,2.185,2.2v.773A.313.313,0,0,1,166.736,510.679Zm-5.081-.628h4.769v-.459a1.566,1.566,0,0,0-1.56-1.569h-3.209Z" transform="translate(-11.538 -132.137)"/>
      <ellipse id="Ellipse_322" data-name="Ellipse 322" cx="0.646" cy="0.65" rx="0.646" ry="0.65" transform="translate(145.648 374.278)"/>
      <path id="Path_1708" data-name="Path 1708" d="M221.532,267.951l1.771,1.4-2.463,2.958-4.2.08-1.108-.878,3.526-.686Z" transform="translate(-31.802 -43.111)" fill="#fff"/>
      <path id="Path_1709" data-name="Path 1709" d="M216.456,272.521a.312.312,0,0,1-.193-.067l-1.107-.878a.314.314,0,0,1,.134-.555l3.421-.665,2.4-2.8a.31.31,0,0,1,.429-.041l1.772,1.4a.311.311,0,0,1,.117.214.314.314,0,0,1-.07.234l-2.463,2.958a.314.314,0,0,1-.234.112l-4.2.079Zm-.379-1.014.484.383,3.946-.074,2.165-2.6-1.285-1.018-2.277,2.651a.31.31,0,0,1-.176.1Z" transform="translate(-31.617 -42.925)"/>
      <path id="Path_1710" data-name="Path 1710" d="M220.08,264.666l1.772,1.4-2.464,2.958-4.2.079-1.108-.878,3.526-.686Z" transform="translate(-31.262 -41.889)" fill="#fff"/>
      <path id="Path_1711" data-name="Path 1711" d="M215,269.236a.315.315,0,0,1-.193-.067l-1.107-.878a.314.314,0,0,1,.134-.555l3.42-.666,2.4-2.8a.311.311,0,0,1,.429-.041l1.772,1.4a.315.315,0,0,1,.117.214.312.312,0,0,1-.07.234l-2.463,2.958a.313.313,0,0,1-.234.112l-4.2.079Zm-.378-1.013.484.383,3.946-.075,2.166-2.6-1.285-1.019-2.277,2.652a.311.311,0,0,1-.177.1Z" transform="translate(-31.078 -41.704)"/>
      <path id="Path_1712" data-name="Path 1712" d="M218.628,261.381l1.772,1.4-2.463,2.958-4.2.08-1.108-.878,3.527-.685Z" transform="translate(-30.722 -40.668)" fill="#fff"/>
      <path id="Path_1713" data-name="Path 1713" d="M213.551,265.951a.314.314,0,0,1-.193-.067l-1.107-.877a.315.315,0,0,1,.134-.555l3.42-.665,2.4-2.8a.31.31,0,0,1,.43-.041l1.772,1.4a.315.315,0,0,1,.046.448l-2.463,2.958a.313.313,0,0,1-.233.112l-4.2.079Zm-.379-1.014.484.384,3.946-.075,2.166-2.6-1.285-1.019-2.278,2.652a.308.308,0,0,1-.177.1Z" transform="translate(-30.537 -40.482)"/>
      <ellipse id="Ellipse_323" data-name="Ellipse 323" cx="1.484" cy="1.741" rx="1.484" ry="1.741" transform="matrix(0.91, -0.414, 0.414, 0.91, 189.68, 225.791)"/>
      <ellipse id="Ellipse_324" data-name="Ellipse 324" cx="1.484" cy="1.741" rx="1.484" ry="1.741" transform="matrix(0.91, -0.414, 0.414, 0.91, 188.54, 223.957)"/>
      <ellipse id="Ellipse_325" data-name="Ellipse 325" cx="1.484" cy="1.741" rx="1.484" ry="1.741" transform="matrix(0.91, -0.414, 0.414, 0.91, 187.4, 222.122)"/>
      <path id="Path_1714" data-name="Path 1714" d="M224.408,254.418l.712-.1a1.531,1.531,0,0,1,1.656,1l2.123,5.871a1.546,1.546,0,0,1,0,1.043l-.571,1.608a1.529,1.529,0,0,1-2.888-.012l-2.3-6.65a1.542,1.542,0,0,1-.083-.582l.036-.726a1.537,1.537,0,0,1,1.312-1.447Z" transform="translate(-34.6 -38.035)" fill="#fff"/>
      <path id="Path_1715" data-name="Path 1715" d="M226.7,264.986l-.1,0a1.839,1.839,0,0,1-1.644-1.242l-2.3-6.65a1.843,1.843,0,0,1-.1-.7l.036-.726a1.853,1.853,0,0,1,1.58-1.743l.713-.1a1.85,1.85,0,0,1,1.992,1.2l2.123,5.87a1.864,1.864,0,0,1,0,1.256l-.571,1.608A1.846,1.846,0,0,1,226.7,264.986Zm-1.55-10.556a1.142,1.142,0,0,0-.173.013l-.714.1a1.224,1.224,0,0,0-1.045,1.151l-.036.726a1.234,1.234,0,0,0,.066.464l2.3,6.65a1.214,1.214,0,0,0,1.087.821l.064,0a1.222,1.222,0,0,0,1.148-.814l.571-1.608a1.238,1.238,0,0,0,0-.831l-2.123-5.87A1.221,1.221,0,0,0,225.153,254.429Z" transform="translate(-34.415 -37.85)"/>
      <ellipse id="Ellipse_326" data-name="Ellipse 326" cx="6.161" cy="6.194" rx="6.161" ry="6.194" transform="translate(177.779 247.971)" fill="#fff"/>
      <path id="Path_1716" data-name="Path 1716" d="M212.034,317.289a6.508,6.508,0,1,1,6.472-6.508A6.5,6.5,0,0,1,212.034,317.289Zm0-12.389a5.881,5.881,0,1,0,5.849,5.881A5.871,5.871,0,0,0,212.034,304.9Z" transform="translate(-28.095 -56.615)"/>
      <path id="Path_1717" data-name="Path 1717" d="M210.074,232.44a1.555,1.555,0,0,1-1.057-.415l-27.254-25.238,2.115-2.309L207.33,226.2l-6.888-28.325,3.032-.746,8.115,33.37a1.573,1.573,0,0,1-.723,1.724,1.549,1.549,0,0,1-.792.219Z" transform="translate(-19.246 -16.778)"/>
      <path id="Path_1718" data-name="Path 1718" d="M206.377,228.9a1.558,1.558,0,0,1-1.079-.435L177.634,201.88l2.157-2.269,24.122,23.178-5.645-29.275,3.064-.6,6.577,34.112a1.573,1.573,0,0,1-.784,1.676A1.552,1.552,0,0,1,206.377,228.9Z" transform="translate(-17.711 -15.213)"/>
      <path id="Path_1719" data-name="Path 1719" d="M199.555,227.55,185.878,212.2a1.259,1.259,0,0,1,.1-1.772l5.823-5.242a1.245,1.245,0,0,1,1.79.129l13.32,15.995a1.26,1.26,0,0,1-.156,1.768l-5.467,4.6A1.244,1.244,0,0,1,199.555,227.55Z" transform="translate(-20.658 -19.655)" fill="#fff"/>
      <path id="Path_1720" data-name="Path 1720" d="M200.3,228.105a1.56,1.56,0,0,1-1.162-.521l-13.678-15.351a1.574,1.574,0,0,1,.121-2.216l5.821-5.243a1.6,1.6,0,0,1,2.238.162l13.321,16a1.575,1.575,0,0,1-.2,2.211l-5.467,4.6A1.552,1.552,0,0,1,200.3,228.105ZM192.445,205a.935.935,0,0,0-.624.24L186,210.484a.946.946,0,0,0-.073,1.33L199.6,227.165a.959.959,0,0,0,1.3.094l5.467-4.6a.945.945,0,0,0,.117-1.326l-13.322-16A.931.931,0,0,0,192.445,205Z" transform="translate(-20.473 -19.48)"/>
      <path id="Path_1721" data-name="Path 1721" d="M218.074,208.581l3.029,15.5a1.255,1.255,0,0,1-.984,1.474l-5.549,1.095a1.249,1.249,0,0,1-1.472-1.031l-2.541-15.772a1.254,1.254,0,0,1,1.034-1.44l5.062-.822A1.248,1.248,0,0,1,218.074,208.581Z" transform="translate(-29.945 -20.66)" fill="#fff"/>
      <path id="Path_1722" data-name="Path 1722" d="M214.141,226.8a1.555,1.555,0,0,1-1.538-1.319l-2.541-15.772a1.567,1.567,0,0,1,.275-1.169,1.548,1.548,0,0,1,1.016-.631l5.061-.821a1.568,1.568,0,0,1,1.78,1.246l3.029,15.5a1.569,1.569,0,0,1-1.231,1.842l-5.549,1.094A1.5,1.5,0,0,1,214.141,226.8Zm2.525-19.1a.879.879,0,0,0-.151.013l-5.061.822a.933.933,0,0,0-.611.379.947.947,0,0,0-.165.7l2.54,15.772a.934.934,0,0,0,1.1.773l5.549-1.095a.925.925,0,0,0,.6-.4.939.939,0,0,0,.143-.706l-3.029-15.5A.94.94,0,0,0,216.666,207.7Z" transform="translate(-29.76 -20.474)"/>
      <ellipse id="Ellipse_327" data-name="Ellipse 327" cx="4.107" cy="4.13" rx="4.107" ry="4.13" transform="translate(184.837 208.399)"/>
      <ellipse id="Ellipse_328" data-name="Ellipse 328" cx="2.479" cy="2.492" rx="2.479" ry="2.492" transform="translate(186.788 210.344)" fill="#fff"/>
      <path id="Path_1723" data-name="Path 1723" d="M222.693,249.988a2.8,2.8,0,1,1,2.018-.868A2.773,2.773,0,0,1,222.693,249.988Zm0-4.985a2.143,2.143,0,0,0-1.567.674,2.187,2.187,0,0,0,.071,3.081,2.209,2.209,0,0,0,3.063-.071,2.187,2.187,0,0,0-.071-3.081A2.149,2.149,0,0,0,222.693,245Z" transform="translate(-33.427 -34.345)"/>
      <path id="Path_1724" data-name="Path 1724" d="M199.986,375.513l-9.376-.92a1.252,1.252,0,0,1-1.123-1.136l-4.223-46.878a1.253,1.253,0,0,1,1.114-1.362l20.663-2.149a1.252,1.252,0,0,1,1.364,1.425l-7.063,49.947a1.25,1.25,0,0,1-1.357,1.072Z" transform="translate(-20.546 -63.601)" fill="#fff"/>
      <g id="Group_2693" data-name="Group 2693" transform="translate(151.735 213.074)">
        <path id="Path_1725" data-name="Path 1725" d="M199.923,375.648q-.075,0-.153-.008l-9.376-.92a1.567,1.567,0,0,1-1.4-1.421l-4.224-46.877a1.573,1.573,0,0,1,1.393-1.7l20.663-2.149a1.549,1.549,0,0,1,1.34.533,1.577,1.577,0,0,1,.366,1.249L201.468,374.3A1.571,1.571,0,0,1,199.923,375.648Zm7.065-52.459a.868.868,0,0,0-.1.005l-20.664,2.149a.945.945,0,0,0-.837,1.021l4.225,46.877a.939.939,0,0,0,.842.852l9.377.92a.943.943,0,0,0,1.018-.8l7.062-49.947a.939.939,0,0,0-.924-1.074Z" transform="translate(-172.097 -276.489)"/>
        <path id="Path_1726" data-name="Path 1726" d="M169.355,287.7c.451,2.3,7.447,3.084,15.8,1.429s14.189-5.45,13.739-7.748-7.016-2.229-15.37-.573S168.9,285.4,169.355,287.7Z" transform="translate(-166.36 -260.517)"/>
        <path id="Path_1727" data-name="Path 1727" d="M176.634,290.136c-4.551,0-7.455-.959-7.77-2.564-.25-1.273,1.118-2.666,3.954-4.03a45.867,45.867,0,0,1,10.461-3.23,55.126,55.126,0,0,1,10.169-1.208c3.431,0,5.3.682,5.568,2.028.252,1.284-1.1,2.9-3.715,4.445a33.76,33.76,0,0,1-10.269,3.67,44.175,44.175,0,0,1-8.4.888Zm16.814-10.4a54.5,54.5,0,0,0-10.048,1.2,45.285,45.285,0,0,0-10.312,3.179c-2.478,1.192-3.794,2.41-3.612,3.343.246,1.25,3.055,2.058,7.158,2.058a43.532,43.532,0,0,0,8.276-.876,33.115,33.115,0,0,0,10.074-3.6c2.3-1.356,3.61-2.806,3.419-3.783s-1.952-1.521-4.956-1.521Z" transform="translate(-166.176 -260.331)"/>
        <ellipse id="Ellipse_329" data-name="Ellipse 329" cx="1.871" cy="1.273" rx="1.871" ry="1.273" transform="translate(30.681 162.72)"/>
        <path id="Path_1728" data-name="Path 1728" d="M184.306,250.2l11.476-.477c1.138.04,1.562,1.523.875,2.437-.436.58-1.4,2.253-1.818,2.843a32.641,32.641,0,0,1-22.265,13.429l-4.854.081a2.282,2.282,0,0,1-2.569-2.748L169,251.2Z" transform="translate(-164.786 -249.406)"/>
        <path id="Path_1729" data-name="Path 1729" d="M167.181,268.665a2.565,2.565,0,0,1-2.008-.972,2.6,2.6,0,0,1-.511-2.184l3.911-14.793L184.1,249.7l11.483-.477a1.5,1.5,0,0,1,1.346.9,2.035,2.035,0,0,1-.21,2.044c-.224.3-.606.918-.974,1.517-.327.533-.636,1.037-.838,1.319a33.142,33.142,0,0,1-22.471,13.556l-4.9.084a2.04,2.04,0,0,1-.359.028Zm1.879-17.352-3.792,14.344a1.964,1.964,0,0,0,.391,1.643,1.937,1.937,0,0,0,1.829.715l4.9-.085a32.518,32.518,0,0,0,22.017-13.3c.189-.264.493-.758.815-1.282.376-.612.764-1.244,1.007-1.567a1.388,1.388,0,0,0,.144-1.4.883.883,0,0,0-.781-.538l-11.452.476Z" transform="translate(-164.601 -249.22)"/>
      </g>
      <path id="Path_1730" data-name="Path 1730" d="M174.488,246.367l21.959-3.345,2.994,19.737.168,14.05-16.138-1V260.752Z" transform="translate(-16.542 -33.842)" fill="#fff"/>
      <path id="Path_1731" data-name="Path 1731" d="M199.424,276.938h-.019l-16.139-1a.313.313,0,0,1-.293-.314V260.657l-8.935-14.308a.315.315,0,0,1,.217-.477l21.96-3.345a.315.315,0,0,1,.355.263l2.995,19.738.17,14.005a.3.3,0,0,1,.013.092.312.312,0,0,1-.312.313.033.033,0,0,1-.012,0ZM183.6,275.326l15.51.964-.164-13.713L196,243.194l-21.18,3.226,8.73,13.979a.316.316,0,0,1,.047.166v14.759Z" transform="translate(-16.357 -33.657)"/>
      <path id="Path_1732" data-name="Path 1732" d="M164.954,256.042l5.656,21.744s15.638,1,15.305-.334-4.325-29.1-4.325-29.1Z" transform="translate(-12.997 -35.822)"/>
      <path id="Path_1733" data-name="Path 1733" d="M180.487,278.275h0c-4.391,0-10.025-.358-10.081-.362a.313.313,0,0,1-.282-.234l-5.656-21.744a.315.315,0,0,1,.171-.365l16.635-7.694a.309.309,0,0,1,.28.009.315.315,0,0,1,.16.231c.04.278,3.994,27.766,4.32,29.074a.483.483,0,0,1-.092.419C185.774,277.825,185.423,278.275,180.487,278.275Zm-9.816-.974c1.092.067,5.943.347,9.816.347s4.728-.283,4.921-.4c-.417-2.025-3.743-25.1-4.252-28.629l-16.018,7.408Z" transform="translate(-12.812 -35.636)" fill="#fff"/>
      <path id="Path_1734" data-name="Path 1734" d="M163.9,172.979l3,.856-5.337,18.934-3-.856Z" transform="translate(-10.62 -7.8)" fill="#fff"/>
      <path id="Path_1735" data-name="Path 1735" d="M161.383,192.9a.309.309,0,0,1-.086-.012l-3-.855a.314.314,0,0,1-.215-.388l5.335-18.934a.312.312,0,0,1,.386-.216l3,.856a.314.314,0,0,1,.215.387l-5.335,18.935a.31.31,0,0,1-.3.227Zm-2.618-1.386,2.4.685,5.165-18.331-2.4-.685Z" transform="translate(-10.436 -7.614)"/>
      <path id="Path_1736" data-name="Path 1736" d="M167.7,179.08l3.007.839-4.5,16.324L163.2,195.4Z" transform="translate(-12.344 -10.068)"/>
      <path id="Path_1737" data-name="Path 1737" d="M169.814,187.239l-2.382-.754a1.255,1.255,0,0,1-.815-1.574l1.265-4.042a1.247,1.247,0,0,1,1.565-.82l2.382.754a1.256,1.256,0,0,1,.816,1.574l-1.265,4.041A1.247,1.247,0,0,1,169.814,187.239Z" transform="translate(-13.593 -10.407)" fill="#fff"/>
      <path id="Path_1738" data-name="Path 1738" d="M170,187.428a1.55,1.55,0,0,1-.469-.073l-2.382-.754a1.57,1.57,0,0,1-1.02-1.968l1.265-4.041a1.577,1.577,0,0,1,1.957-1.025l2.381.754a1.573,1.573,0,0,1,1.02,1.967l-1.265,4.041A1.554,1.554,0,0,1,170,187.428Zm-1.118-7.307a.935.935,0,0,0-.893.659l-1.265,4.041a.942.942,0,0,0,.613,1.181l2.382.754a.947.947,0,0,0,1.175-.615l1.265-4.042a.944.944,0,0,0-.612-1.18l-2.382-.754A.943.943,0,0,0,168.887,180.121Z" transform="translate(-13.408 -10.223)"/>
      <path id="Path_1739" data-name="Path 1739" d="M180.875,169.1l-1.041-.679v-.01l-.312-.312a1.18,1.18,0,0,1-.236-1.326l.614-1.335a1.172,1.172,0,0,0,.106-.433l.068-1.346.024-.471a10.023,10.023,0,0,0-9.47-10.538l-.815-.041-1.96-.1a9.391,9.391,0,0,0-9.785,10.392l1.064,5.479,7.612,2.234-.013.849a4.126,4.126,0,0,0,2.648,3.919l6.913,2.636a2.339,2.339,0,0,0,3.164-2.079l.209-4.139,1.173-.7A1.18,1.18,0,0,0,180.875,169.1Z" transform="translate(-10.417 -0.186)" fill="#fff"/>
      <path id="Path_1740" data-name="Path 1740" d="M176.94,178.3a2.634,2.634,0,0,1-.942-.175l-6.914-2.636a4.452,4.452,0,0,1-2.848-4.216l.008-.609-7.383-2.167a.315.315,0,0,1-.22-.241l-1.064-5.479A9.786,9.786,0,0,1,160,155.224a9.637,9.637,0,0,1,7.684-3.21l2.775.142a10.346,10.346,0,0,1,9.765,10.867l-.092,1.817a1.493,1.493,0,0,1-.134.548l-.614,1.335a.868.868,0,0,0,.173.972l.312.312.006.006.984.642a1.493,1.493,0,0,1-.048,2.528l-1.029.617-.2,3.972A2.656,2.656,0,0,1,176.94,178.3Zm-17.722-10.352,7.428,2.18a.313.313,0,0,1,.225.305l-.013.849a3.822,3.822,0,0,0,2.446,3.62l6.914,2.636a2.005,2.005,0,0,0,.72.134,2.029,2.029,0,0,0,2.021-1.935l.209-4.139a.313.313,0,0,1,.152-.254l1.173-.7a.864.864,0,0,0,.027-1.462l-1.04-.679a.311.311,0,0,1-.092-.094l-.269-.269a1.5,1.5,0,0,1-.3-1.68l.613-1.334a.867.867,0,0,0,.079-.317l.092-1.818a9.72,9.72,0,0,0-9.174-10.208l-2.775-.142a9,9,0,0,0-7.188,3,9.143,9.143,0,0,0-2.272,7.043Z" transform="translate(-10.234 0)"/>
      <path id="Path_1741" data-name="Path 1741" d="M189.954,174.974h-.016l-1.662-.084a1.021,1.021,0,0,1-.629-1.775l.7-.635a.991.991,0,0,1,.731-.262l1.6.082a.314.314,0,0,1,.3.33.3.3,0,0,1-.327.3l-1.6-.082a.385.385,0,0,0-.28.1l-.7.636a.387.387,0,0,0-.106.422.383.383,0,0,0,.348.259l1.662.085a.314.314,0,0,1-.017.627Z" transform="translate(-21.309 -7.516)"/>
      <path id="Path_1742" data-name="Path 1742" d="M190.881,185.88a.308.308,0,0,1-.1-.018l-1.04-.366a1.489,1.489,0,0,1-.861-.8l-.241-.536a.316.316,0,0,1,.026-.3.321.321,0,0,1,.271-.138l2.034.076a.313.313,0,0,1,.3.325.3.3,0,0,1-.324.3l-1.532-.057.035.076a.854.854,0,0,0,.5.459l1.04.367a.313.313,0,0,1-.1.609Z" transform="translate(-21.792 -11.794)"/>
      <ellipse id="Ellipse_330" data-name="Ellipse 330" cx="6.398" cy="6.433" rx="6.398" ry="6.433" transform="translate(147.272 158.892)"/>
      <ellipse id="Ellipse_331" data-name="Ellipse 331" cx="3.925" cy="3.946" rx="3.925" ry="3.946" transform="translate(149.746 161.379)" fill="#fff"/>
      <path id="Path_1743" data-name="Path 1743" d="M165.176,174.95c-.072,0-.144,0-.218-.006a4.26,4.26,0,0,1,.428-8.51,4.2,4.2,0,0,1,2.929,1.4,4.265,4.265,0,0,1-3.139,7.116Zm-.006-7.893a3.626,3.626,0,1,0,2.683,1.2,3.579,3.579,0,0,0-2.5-1.193C165.294,167.058,165.232,167.057,165.17,167.057Z" transform="translate(-11.503 -5.365)"/>
      <ellipse id="Ellipse_332" data-name="Ellipse 332" cx="2.52" cy="2.534" rx="2.52" ry="2.534" transform="translate(151.15 162.791)"/>
      <ellipse id="Ellipse_333" data-name="Ellipse 333" cx="0.88" cy="0.885" rx="0.88" ry="0.885" transform="translate(160.169 159.531)"/>
      <ellipse id="Ellipse_334" data-name="Ellipse 334" cx="0.88" cy="0.885" rx="0.88" ry="0.885" transform="translate(154.333 156.121)"/>
      <ellipse id="Ellipse_335" data-name="Ellipse 335" cx="0.884" cy="0.487" rx="0.884" ry="0.487" transform="translate(148.423 158.728) rotate(-57.798)"/>
      <path id="Path_1744" data-name="Path 1744" d="M141.57,199.052l13.312-3.9a17.666,17.666,0,0,1,16.441,3.519l1.075.917a26,26,0,0,1,8.152,12.729l5.029,17.808H177.9a26,26,0,0,0-23.435,14.807l-.724,1.512-14.358-24.164-4.2-9.383A10.107,10.107,0,0,1,141.57,199.052Z" transform="translate(-1.6 -15.777)" fill="#fff"/>
      <path id="Path_1745" data-name="Path 1745" d="M153.56,246.568a.313.313,0,0,1-.269-.153L138.934,222.25l-4.213-9.415a10.422,10.422,0,0,1,6.58-14.271l13.31-3.9a17.972,17.972,0,0,1,16.73,3.58l1.076.917a26.241,26.241,0,0,1,8.251,12.882l5.029,17.808a.318.318,0,0,1-.051.275.315.315,0,0,1-.249.124h-7.678a25.686,25.686,0,0,0-23.154,14.629l-.724,1.512a.313.313,0,0,1-.268.178Zm6.1-52.005a17.348,17.348,0,0,0-4.879.7l-13.311,3.9a9.793,9.793,0,0,0-6.184,13.411l4.2,9.382,14.043,23.632L154,244.6a26.307,26.307,0,0,1,23.716-14.984h7.264l-4.916-17.408a25.619,25.619,0,0,0-8.053-12.575l-1.076-.917A17.4,17.4,0,0,0,159.664,194.563Z" transform="translate(-1.417 -15.591)"/>
      <ellipse id="Ellipse_336" data-name="Ellipse 336" cx="7.094" cy="7.133" rx="7.094" ry="7.133" transform="translate(134.365 185.955)"/>
      <path id="Path_1746" data-name="Path 1746" d="M169.192,288.45l7.742-1.692c3.262-.713,8.6-.021,13.311.8,4.13.721,5.187.367,7.587-3.088a19.9,19.9,0,0,0,1.01-2.042l3.1,12.343a15.371,15.371,0,0,1,.158,6.8l-.886,4.377a10.739,10.739,0,0,1-9.734,8.6h-9.392a12.764,12.764,0,0,1-12.729-12.636Z" transform="translate(-14.572 -48.493)" fill="#fff"/>
      <path id="Path_1747" data-name="Path 1747" d="M191.3,314.672h-9.392a13.127,13.127,0,0,1-13.041-12.945l-.172-13.458a.314.314,0,0,1,.246-.311l7.743-1.692a16.271,16.271,0,0,1,3.4-.3,60.335,60.335,0,0,1,10.035,1.1,16,16,0,0,0,2.687.3c1.846,0,2.789-.671,4.59-3.263a18.429,18.429,0,0,0,.979-1.988.311.311,0,0,1,.588.049l3.1,12.343a15.772,15.772,0,0,1,.162,6.936l-.886,4.377a11.085,11.085,0,0,1-10.018,8.849Zm-21.977-26.155.17,13.2a12.5,12.5,0,0,0,12.417,12.326h9.38a10.457,10.457,0,0,0,9.439-8.347l.886-4.377a15.138,15.138,0,0,0-.155-6.657l-2.885-11.475a11.154,11.154,0,0,1-.669,1.276c-1.7,2.442-2.836,3.531-5.1,3.531a16.449,16.449,0,0,1-2.795-.313,59.747,59.747,0,0,0-9.928-1.093,15.608,15.608,0,0,0-3.263.29Z" transform="translate(-14.388 -48.308)"/>
      <ellipse id="Ellipse_337" data-name="Ellipse 337" cx="9.531" cy="9.583" rx="9.531" ry="9.583" transform="translate(156.817 247.009)"/>
      <path id="Path_1748" data-name="Path 1748" d="M178.824,438.946l-3.081-.5L185.7,376.7l-1.66-55.382,3.121-.094,1.667,55.683-.024.148Z" transform="translate(-17.008 -62.919)"/>
      <path id="Path_1749" data-name="Path 1749" d="M176.238,276.976a.628.628,0,0,1-.249-1.2l7.653-3.346a.62.62,0,0,1,.821.326.628.628,0,0,1-.324.825l-7.653,3.345A.61.61,0,0,1,176.238,276.976Z" transform="translate(-16.96 -44.755)" fill="#fff"/>
      <path id="Path_1750" data-name="Path 1750" d="M176.238,283.368a.628.628,0,0,1-.249-1.2l7.653-3.345a.621.621,0,0,1,.821.325.628.628,0,0,1-.324.825l-7.653,3.345a.622.622,0,0,1-.247.052Z" transform="translate(-16.96 -47.132)" fill="#fff"/>
      <path id="Path_1751" data-name="Path 1751" d="M186.943,440.019l-3.09-.432,8.846-63.833-.195-54.332,3.122-.011.2,54.556-.016.111Z" transform="translate(-20.023 -62.987)"/>
      <path id="Path_1752" data-name="Path 1752" d="M195.009,375.545l-9.37-.27a1.25,1.25,0,0,1-1.195-1.041l-5.958-34.763a1.255,1.255,0,0,1,.88-1.418l16.257-4.777a1.25,1.25,0,0,1,1.6,1.234l-.928,39.808A1.252,1.252,0,0,1,195.009,375.545Z" transform="translate(-18.021 -67.38)" fill="#fff"/>
      <path id="Path_1753" data-name="Path 1753" d="M194.86,375.674h-.046l-9.37-.269a1.569,1.569,0,0,1-1.493-1.3l-5.959-34.762a1.567,1.567,0,0,1,1.1-1.772l16.256-4.778a1.563,1.563,0,0,1,2,1.543l-.928,39.808A1.574,1.574,0,0,1,194.86,375.674Zm.931-42.32a.935.935,0,0,0-.265.039l-16.257,4.778a.94.94,0,0,0-.661,1.063L184.567,374a.942.942,0,0,0,.9.781l9.37.269.028.315v-.314a.943.943,0,0,0,.935-.92l.929-39.808a.942.942,0,0,0-.933-.965Z" transform="translate(-17.836 -67.195)"/>
      <ellipse id="Ellipse_338" data-name="Ellipse 338" cx="6.161" cy="6.194" rx="6.161" ry="6.194" transform="translate(163.868 253.515)" fill="#fff"/>
      <path id="Path_1754" data-name="Path 1754" d="M189.89,326.113a6.508,6.508,0,1,1,6.473-6.509A6.5,6.5,0,0,1,189.89,326.113Zm0-12.389a5.881,5.881,0,1,0,5.849,5.88A5.871,5.871,0,0,0,189.89,313.725Z" transform="translate(-19.861 -59.896)"/>
      <ellipse id="Ellipse_339" data-name="Ellipse 339" cx="3.718" cy="3.738" rx="3.718" ry="3.738" transform="translate(166.636 255.971)" fill="#fff"/>
      <path id="Path_1755" data-name="Path 1755" d="M191.855,325.111a4.052,4.052,0,1,1,4.03-4.052A4.046,4.046,0,0,1,191.855,325.111Zm0-7.477a3.425,3.425,0,1,0,3.405,3.424A3.419,3.419,0,0,0,191.855,317.634Z" transform="translate(-21.5 -61.35)"/>
      <ellipse id="Ellipse_340" data-name="Ellipse 340" cx="4.411" cy="4.435" rx="4.411" ry="4.435" transform="translate(168.294 310.15)"/>
      <ellipse id="Ellipse_341" data-name="Ellipse 341" cx="2.479" cy="2.492" rx="2.479" ry="2.492" transform="translate(170.727 311.788)" fill="#fff"/>
      <path id="Path_1756" data-name="Path 1756" d="M197.127,411.472a2.807,2.807,0,1,1,2.791-2.806A2.8,2.8,0,0,1,197.127,411.472Zm0-4.985a2.179,2.179,0,1,0,2.167,2.179A2.176,2.176,0,0,0,197.127,406.487Z" transform="translate(-23.921 -94.385)"/>
      <path id="Path_1757" data-name="Path 1757" d="M178.346,464.918l7.95,1.233a1.249,1.249,0,0,0,1.427-1.065l5.933-42.409a1.254,1.254,0,0,0-1.062-1.418l-10.153-1.436a1.25,1.25,0,0,0-1.418,1.133l-3.731,42.612A1.256,1.256,0,0,0,178.346,464.918Z" transform="translate(-17.582 -99.572)" fill="#fff"/>
      <path id="Path_1758" data-name="Path 1758" d="M186.3,466.295a1.625,1.625,0,0,1-.239-.018l-7.951-1.233a1.57,1.57,0,0,1-1.317-1.688l3.732-42.613a1.567,1.567,0,0,1,1.773-1.416l10.151,1.435a1.57,1.57,0,0,1,1.329,1.773l-5.933,42.408a1.571,1.571,0,0,1-1.545,1.351Zm-4.223-46.356a.944.944,0,0,0-.931.859l-3.731,42.612a.942.942,0,0,0,.79,1.013l7.951,1.233a.941.941,0,0,0,1.07-.8l5.933-42.409a.942.942,0,0,0-.8-1.064l-10.151-1.435a.89.89,0,0,0-.133-.01Z" transform="translate(-17.398 -99.387)"/>
      <path id="Path_1759" data-name="Path 1759" d="M173.3,503.564c.913-2.66,2.076-6.038,2.076-6.038l9.052,1.569,14.543,4.57a.628.628,0,0,1,.438.6v2.042a.626.626,0,0,1-.631.628l-23.3-.269a2.336,2.336,0,0,1-2.174-3.1Z" transform="translate(-16.051 -128.467)" fill="#fff"/>
      <path id="Path_1760" data-name="Path 1760" d="M198.6,507.06h-.012l-23.3-.269a2.609,2.609,0,0,1-2.128-1.126,2.636,2.636,0,0,1-.337-2.391c.913-2.659,2.076-6.038,2.076-6.038a.315.315,0,0,1,.349-.207l9.051,1.569,14.584,4.579a.938.938,0,0,1,.657.9v2.042a.939.939,0,0,1-.935.942Zm-23.2-9.367c-.286.831-1.226,3.561-1.99,5.786a2.022,2.022,0,0,0,1.882,2.684l23.3.27,0,.313v-.313a.314.314,0,0,0,.312-.314v-2.042a.313.313,0,0,0-.22-.3l-14.543-4.569Z" transform="translate(-15.865 -128.281)"/>
      <path id="Path_1761" data-name="Path 1761" d="M223.389,510.551H218v-2.656h3.52a1.878,1.878,0,0,1,1.873,1.883Z" transform="translate(-32.718 -132.323)" fill="#fff"/>
      <path id="Path_1762" data-name="Path 1762" d="M223.2,510.679h-5.394a.313.313,0,0,1-.312-.314v-2.656a.313.313,0,0,1,.312-.313h3.521a2.194,2.194,0,0,1,2.185,2.2v.773A.313.313,0,0,1,223.2,510.679Zm-5.081-.628h4.769v-.459a1.566,1.566,0,0,0-1.56-1.569h-3.209Z" transform="translate(-32.533 -132.137)"/>
      <ellipse id="Ellipse_342" data-name="Ellipse 342" cx="0.646" cy="0.65" rx="0.646" ry="0.65" transform="translate(179.691 375.897)"/>
      <ellipse id="Ellipse_343" data-name="Ellipse 343" cx="0.88" cy="0.885" rx="0.88" ry="0.885" transform="translate(154.576 186.69)" fill="#fff"/>
      <path id="Path_1763" data-name="Path 1763" d="M169.817,209.119a1.2,1.2,0,0,1-.305-2.358,1.2,1.2,0,0,1,.611,2.318A1.171,1.171,0,0,1,169.817,209.119Zm0-1.771a.545.545,0,0,0-.145.019.565.565,0,1,0,.145-.019Z" transform="translate(-14.362 -20.346)"/>
      <ellipse id="Ellipse_344" data-name="Ellipse 344" cx="0.88" cy="0.885" rx="0.88" ry="0.885" transform="translate(161.458 196.93)" fill="#fff"/>
      <path id="Path_1764" data-name="Path 1764" d="M180.773,225.422a1.2,1.2,0,0,1-.305-2.358,1.2,1.2,0,1,1,.305,2.358Zm0-1.77a.55.55,0,0,0-.146.019.565.565,0,1,0,.146-.019Z" transform="translate(-18.435 -26.407)"/>
      <ellipse id="Ellipse_345" data-name="Ellipse 345" cx="0.88" cy="0.885" rx="0.88" ry="0.885" transform="translate(163.643 202.684)" fill="#fff"/>
      <path id="Path_1765" data-name="Path 1765" d="M184.251,234.58a1.2,1.2,0,1,1,.305-.04A1.2,1.2,0,0,1,184.251,234.58Zm0-1.77a.55.55,0,0,0-.146.019.565.565,0,1,0,.146-.019Z" transform="translate(-19.728 -29.812)"/>
      <ellipse id="Ellipse_346" data-name="Ellipse 346" cx="0.88" cy="0.885" rx="0.88" ry="0.885" transform="translate(165.828 208.438)" fill="#fff"/>
      <path id="Path_1766" data-name="Path 1766" d="M187.729,243.738a1.2,1.2,0,0,1-.305-2.358,1.2,1.2,0,0,1,.61,2.318A1.171,1.171,0,0,1,187.729,243.738Zm0-1.77a.55.55,0,0,0-.146.019.565.565,0,1,0,.146-.019Z" transform="translate(-21.021 -33.217)"/>
      <ellipse id="Ellipse_347" data-name="Ellipse 347" cx="0.88" cy="0.885" rx="0.88" ry="0.885" transform="translate(148.661 184.587)" fill="#fff"/>
      <path id="Path_1767" data-name="Path 1767" d="M160.4,205.772a1.2,1.2,0,1,1,.305-.04A1.171,1.171,0,0,1,160.4,205.772Zm0-1.771a.551.551,0,0,0-.146.019A.565.565,0,1,0,160.4,204Z" transform="translate(-10.861 -19.101)"/>
      <ellipse id="Ellipse_348" data-name="Ellipse 348" cx="0.88" cy="0.885" rx="0.88" ry="0.885" transform="translate(171.686 241.066)" fill="#fff"/>
      <path id="Path_1768" data-name="Path 1768" d="M197.053,295.678a1.2,1.2,0,0,1-.3-2.358,1.208,1.208,0,0,1,1.458.852,1.2,1.2,0,0,1-.848,1.466A1.171,1.171,0,0,1,197.053,295.678Zm0-1.771a.545.545,0,0,0-.145.019.566.566,0,1,0,.145-.019Z" transform="translate(-24.488 -52.529)"/>
      <ellipse id="Ellipse_349" data-name="Ellipse 349" cx="0.88" cy="0.885" rx="0.88" ry="0.885" transform="translate(174.648 247.564)" fill="#fff"/>
      <path id="Path_1769" data-name="Path 1769" d="M201.769,306.022a1.2,1.2,0,1,1,.3-.04A1.169,1.169,0,0,1,201.769,306.022Zm0-1.771a.55.55,0,0,0-.146.019.565.565,0,1,0,.146-.019Z" transform="translate(-26.241 -56.374)"/>
      <path id="Path_1770" data-name="Path 1770" d="M213.018,191.129l-6.894-4.482-.575,1.06a2.523,2.523,0,0,0-.186,1.967l.831,2.613,2.7,3.552a1.893,1.893,0,0,0,3.421-.534l.965-3.481a.631.631,0,0,0-.262-.7Z" transform="translate(-27.977 -12.882)" fill="#fff"/>
      <path id="Path_1771" data-name="Path 1771" d="M210.293,196.838a2.161,2.161,0,0,1-1.845-1.014l-2.686-3.532a.315.315,0,0,1-.05-.094l-.832-2.613a2.853,2.853,0,0,1,.209-2.213l.576-1.06a.31.31,0,0,1,.443-.114L213,190.681a.937.937,0,0,1,.394,1.043l-.966,3.481a2.192,2.192,0,0,1-2.138,1.633Zm-4-4.884,2.667,3.508a1.581,1.581,0,0,0,2.871-.425l.966-3.483a.311.311,0,0,0-.131-.347l-6.612-4.3-.415.764a2.22,2.22,0,0,0-.162,1.721Z" transform="translate(-27.792 -12.696)"/>
      <path id="Path_1772" data-name="Path 1772" d="M170.808,248.919l-28.451-27.195a1.574,1.574,0,0,1-.056-2.218,1.554,1.554,0,0,1,2.206-.055l27.476,26.263,22.407-1.209a1.569,1.569,0,0,1,.167,3.133Z" transform="translate(-4.414 -24.918)"/>
      <path id="Path_1773" data-name="Path 1773" d="M174.253,244.794,147.07,216.986a1.575,1.575,0,0,1,.019-2.219,1.554,1.554,0,0,1,2.207.019l26.179,26.781,20.036-1.331a1.569,1.569,0,0,1,.206,3.131Z" transform="translate(-6.181 -23.169)"/>
      <ellipse id="Ellipse_350" data-name="Ellipse 350" cx="5.772" cy="5.804" rx="5.772" ry="5.804" transform="translate(135.312 189.396)" fill="#fff"/>
      <path id="Path_1774" data-name="Path 1774" d="M144.039,223.265a6.011,6.011,0,0,1-3.659-1.233,6.121,6.121,0,0,1,3.668-11,6.014,6.014,0,0,1,3.659,1.233,6.147,6.147,0,0,1,1.194,8.569A6.029,6.029,0,0,1,144.039,223.265Zm.009-11.608a5.411,5.411,0,0,0-4.364,2.185,5.51,5.51,0,0,0,1.072,7.689,5.439,5.439,0,0,0,7.647-1.077,5.515,5.515,0,0,0-1.071-7.688A5.389,5.389,0,0,0,144.049,211.657Z" transform="translate(-2.96 -21.947)"/>
      <path id="Path_1775" data-name="Path 1775" d="M169.406,248.143l-14.084-14.974a1.261,1.261,0,0,1,.05-1.775l5.68-5.4a1.243,1.243,0,0,1,1.793.081L176.589,241.7a1.261,1.261,0,0,1-.109,1.772l-5.341,4.744A1.243,1.243,0,0,1,169.406,248.143Z" transform="translate(-9.289 -27.384)" fill="#fff"/>
      <path id="Path_1776" data-name="Path 1776" d="M170.129,248.675a1.564,1.564,0,0,1-1.135-.491L154.911,233.21a1.576,1.576,0,0,1,.062-2.219l5.68-5.4a1.6,1.6,0,0,1,2.241.1l13.745,15.628a1.576,1.576,0,0,1-.136,2.216l-5.342,4.744A1.55,1.55,0,0,1,170.129,248.675Zm-8.4-22.883a.929.929,0,0,0-.643.258l-5.68,5.4a.943.943,0,0,0-.038,1.331l14.084,14.974a.954.954,0,0,0,1.3.059l5.342-4.744a.944.944,0,0,0,.081-1.329l-13.745-15.629A.94.94,0,0,0,161.725,225.791Z" transform="translate(-9.104 -27.209)"/>
      <path id="Path_1777" data-name="Path 1777" d="M211.941,261.944l-12.268,2.216a1.25,1.25,0,0,1-1.463-1.107l-.57-5.608a1.255,1.255,0,0,1,1.075-1.372l12.65-1.714C214.563,253.931,215.134,260.923,211.941,261.944Z" transform="translate(-25.147 -38.05)" fill="#fff"/>
      <path id="Path_1778" data-name="Path 1778" d="M199.266,264.308a1.558,1.558,0,0,1-1.55-1.41l-.571-5.609a1.562,1.562,0,0,1,1.344-1.715l12.65-1.714c1.509-.2,2.672,1.043,2.984,3.064s-.376,4.526-2.271,5.131l-12.308,2.226A1.557,1.557,0,0,1,199.266,264.308Zm12.191-9.841a1.813,1.813,0,0,0-.237.016L198.571,256.2a.938.938,0,0,0-.807,1.029l.57,5.609a.935.935,0,0,0,1.1.831l12.267-2.216c1.525-.49,2.078-2.649,1.8-4.427C213.314,255.788,212.676,254.468,211.456,254.468Z" transform="translate(-24.962 -37.864)"/>
      <ellipse id="Ellipse_351" data-name="Ellipse 351" cx="3.483" cy="3.502" rx="3.483" ry="3.502" transform="translate(137.225 192.199)" fill="#fff"/>
      <path id="Path_1779" data-name="Path 1779" d="M144.8,223.124a3.749,3.749,0,0,1-2.282-.77,3.818,3.818,0,0,1,2.288-6.864,3.749,3.749,0,0,1,2.283.77,3.818,3.818,0,0,1-2.289,6.864Zm.005-7.006a3.144,3.144,0,0,0-2.535,1.269,3.2,3.2,0,0,0,.622,4.465,3.159,3.159,0,0,0,4.442-.626,3.2,3.2,0,0,0-.621-4.466A3.138,3.138,0,0,0,144.8,216.118Z" transform="translate(-4.092 -23.606)"/>
      <ellipse id="Ellipse_352" data-name="Ellipse 352" cx="4.107" cy="4.13" rx="4.107" ry="4.13" transform="translate(163.249 217.544)"/>
      <ellipse id="Ellipse_353" data-name="Ellipse 353" cx="2.479" cy="2.492" rx="2.479" ry="2.492" transform="translate(164.61 219.538)" fill="#fff"/>
      <path id="Path_1780" data-name="Path 1780" d="M187.388,264.623a2.756,2.756,0,0,1-1.678-.566,2.807,2.807,0,0,1,1.682-5.047,2.756,2.756,0,0,1,1.678.566,2.816,2.816,0,0,1,.548,3.931A2.763,2.763,0,0,1,187.388,264.623Zm0-4.985a2.147,2.147,0,0,0-1.732.867,2.186,2.186,0,0,0,.425,3.051,2.158,2.158,0,0,0,3.034-.428,2.185,2.185,0,0,0-.425-3.051A2.14,2.14,0,0,0,187.392,259.638Z" transform="translate(-20.301 -39.786)"/>
      <path id="Path_1781" data-name="Path 1781" d="M224.149,271.764l2.073.9-1.619,3.5-4.036,1.168-1.3-.56,3.23-1.579Z" transform="translate(-33.192 -44.528)" fill="#fff"/>
      <path id="Path_1782" data-name="Path 1782" d="M220.382,277.454a.309.309,0,0,1-.123-.026l-1.3-.56a.314.314,0,0,1-.014-.57l3.133-1.532,1.6-3.325a.313.313,0,0,1,.4-.152l2.072.9a.316.316,0,0,1,.168.177.307.307,0,0,1-.009.244l-1.62,3.5a.316.316,0,0,1-.2.169l-4.036,1.169A.307.307,0,0,1,220.382,277.454Zm-.546-.891.567.245,3.792-1.1,1.423-3.076-1.5-.65-1.518,3.154a.319.319,0,0,1-.144.146Z" transform="translate(-33.007 -44.343)"/>
      <path id="Path_1783" data-name="Path 1783" d="M202.035,186.45l1.068-2-3.431-1.726-1.182,3.182.974,2.262.744-2.554Z" transform="translate(-25.466 -11.424)" fill="#fff"/>
      <path id="Path_1784" data-name="Path 1784" d="M199.28,188.3a.313.313,0,0,1-.286-.189l-.975-2.263a.315.315,0,0,1-.006-.234l1.182-3.182a.316.316,0,0,1,.178-.183.309.309,0,0,1,.253.011l3.432,1.726a.315.315,0,0,1,.135.429l-1.069,2a.31.31,0,0,1-.4.136l-1.5-.683-.643,2.207a.312.312,0,0,1-.28.225Zm-.639-2.585.582,1.349.5-1.721a.316.316,0,0,1,.17-.2.3.3,0,0,1,.259,0l1.56.712.778-1.455-2.834-1.425Z" transform="translate(-25.281 -11.238)"/>
      <path id="Path_1785" data-name="Path 1785" d="M201.428,188.477l1.069-2-3.432-1.726-1.182,3.182.975,2.263.743-2.554Z" transform="translate(-25.24 -12.177)" fill="#fff"/>
      <path id="Path_1786" data-name="Path 1786" d="M198.672,190.326a.313.313,0,0,1-.286-.189l-.975-2.262a.317.317,0,0,1-.006-.235l1.182-3.182a.313.313,0,0,1,.178-.182.309.309,0,0,1,.253.011l3.432,1.726a.315.315,0,0,1,.135.43l-1.068,2a.312.312,0,0,1-.4.138l-1.5-.684-.643,2.207a.312.312,0,0,1-.28.224Zm-.638-2.585.582,1.349.5-1.721a.313.313,0,0,1,.17-.2.308.308,0,0,1,.259,0l1.561.712.777-1.455L199.05,185Z" transform="translate(-25.055 -11.992)"/>
      <path id="Path_1787" data-name="Path 1787" d="M201.845,191.153l.116-2.265-3.836-.085.285,3.385,1.843,1.626-.413-2.629Z" transform="translate(-25.329 -13.683)" fill="#fff"/>
      <path id="Path_1788" data-name="Path 1788" d="M200.068,193.942a.31.31,0,0,1-.206-.078l-1.843-1.626a.316.316,0,0,1-.1-.21l-.285-3.385a.313.313,0,0,1,.084-.241.348.348,0,0,1,.234-.1l3.836.085a.309.309,0,0,1,.222.1.316.316,0,0,1,.083.23l-.116,2.265a.312.312,0,0,1-.306.3l-1.646.026.357,2.272a.315.315,0,0,1-.158.324.305.305,0,0,1-.15.04Zm-1.543-2.093,1.1.97-.278-1.771a.319.319,0,0,1,.069-.251.312.312,0,0,1,.234-.112l1.714-.028.085-1.65-3.168-.07Z" transform="translate(-25.145 -13.497)"/>
      <ellipse id="Ellipse_354" data-name="Ellipse 354" cx="0.949" cy="0.955" rx="0.949" ry="0.955" transform="translate(161.523 373.221)" fill="#fff"/>
      <path id="Path_1789" data-name="Path 1789" d="M180.946,506.191a1.269,1.269,0,0,1-.322-2.5,1.268,1.268,0,0,1,.646,2.453A1.261,1.261,0,0,1,180.946,506.191Zm0-1.91a.66.66,0,0,0-.164.021.636.636,0,1,0,.164-.021Z" transform="translate(-18.474 -130.747)"/>
      <ellipse id="Ellipse_355" data-name="Ellipse 355" cx="0.949" cy="0.955" rx="0.949" ry="0.955" transform="translate(134.915 359.324)" fill="#fff"/>
      <path id="Path_1790" data-name="Path 1790" d="M138.589,484.069a1.269,1.269,0,0,1-1.09-1.905,1.246,1.246,0,0,1,.768-.589,1.268,1.268,0,0,1,1.414,1.863,1.252,1.252,0,0,1-.768.589A1.292,1.292,0,0,1,138.589,484.069Zm0-1.909a.665.665,0,0,0-.165.021.64.64,0,0,0-.453.783.646.646,0,0,0,.779.455.63.63,0,0,0,.388-.3.641.641,0,0,0-.549-.962Z" transform="translate(-2.725 -122.522)"/>
    </g>
  </g>
</svg>
