<svg xmlns="http://www.w3.org/2000/svg" width="336.309" height="332.296" viewBox="0 0 336.309 332.296">
  <g id="Group_2807" data-name="Group 2807" transform="translate(-19 -247)">
    <g id="Group_2726" data-name="Group 2726" transform="translate(-712 -73)">
      <path id="Path_1958" data-name="Path 1958" d="M832.865,595.469V408.515c0-44.454,36.033-80.621,80.324-80.621s80.323,36.166,80.323,80.621V595.469Z" transform="translate(-2.18 -2.189)" fill="#fff"/>
      <path id="Path_1959" data-name="Path 1959" d="M993.377,595.689H832.729a.356.356,0,0,1-.356-.356V408.379c0-44.651,36.193-80.978,80.68-80.978s80.679,36.327,80.679,80.978V595.332A.355.355,0,0,1,993.377,595.689Zm-160.293-.713H993.021v-186.6c0-44.258-35.874-80.265-79.969-80.265s-79.969,36.007-79.969,80.265Z" transform="translate(-2.044 -2.052)"/>
      <path id="Path_1960" data-name="Path 1960" d="M911.145,320.493a85.813,85.813,0,0,0-85.653,85.97v192.3H996.8v-192.3A85.811,85.811,0,0,0,911.145,320.493Zm74.982,84.945H962.039V351.231a75.2,75.2,0,0,1,24.088,54.207Zm-125.876,4.992V467.26h-24.1V410.431Zm53.38-4.992v-74.2a74.432,74.432,0,0,1,43.433,15.758v58.444Zm43.434,4.992V467.26H913.632V410.431Zm-48.407-4.992H865.225V346.995a74.432,74.432,0,0,1,43.433-15.758Zm0,4.992V467.26H865.225V410.431Zm-48.407,61.821v60.57h-24.1v-60.57Zm4.974,0h43.433v60.57H865.225Zm48.406,0h43.433v60.57H913.631Zm48.408,0h24.1v60.57h-24.1Zm0-4.992V410.431h24.1V467.26ZM860.251,351.231v54.207H836.163A75.2,75.2,0,0,1,860.251,351.231Zm-24.1,236.837V537.814h24.1v50.254Zm29.075-50.254h43.433v50.254H865.225Zm48.406,50.254V537.814h43.433v50.254Zm48.408,0V537.814h24.1v50.254Z" transform="translate(-0.136 -0.137)" fill="#fff"/>
      <path id="Path_1961" data-name="Path 1961" d="M996.662,598.986H825.356a.356.356,0,0,1-.356-.356v-192.3c0-47.6,38.583-86.327,86.009-86.327s86.008,38.726,86.008,86.327v192.3A.355.355,0,0,1,996.662,598.986Zm-170.951-.713h170.6V406.327c0-47.207-38.264-85.613-85.3-85.613s-85.3,38.406-85.3,85.613ZM986,588.288H961.9a.357.357,0,0,1-.356-.357V537.678a.357.357,0,0,1,.356-.357H986a.356.356,0,0,1,.355.357v50.254A.356.356,0,0,1,986,588.288Zm-23.746-.713h23.391V538.034H962.258Zm-5.329.713H913.5a.356.356,0,0,1-.355-.357V537.678a.356.356,0,0,1,.355-.357h43.433a.357.357,0,0,1,.356.357v50.254A.357.357,0,0,1,956.929,588.288Zm-43.078-.713h42.722V538.034H913.851Zm-5.329.713H865.089a.357.357,0,0,1-.356-.357V537.678a.357.357,0,0,1,.356-.357h43.433a.356.356,0,0,1,.355.357v50.254A.356.356,0,0,1,908.522,588.288Zm-43.077-.713h42.722V538.034H865.444Zm-5.33.713h-24.1a.356.356,0,0,1-.355-.357V537.678a.356.356,0,0,1,.355-.357h24.1a.356.356,0,0,1,.356.357v50.254A.357.357,0,0,1,860.115,588.288Zm-23.746-.713H859.76V538.034H836.369ZM986,533.042H961.9a.357.357,0,0,1-.356-.357v-60.57a.356.356,0,0,1,.356-.356H986a.356.356,0,0,1,.355.356v60.57A.356.356,0,0,1,986,533.042Zm-23.746-.713h23.391V472.472H962.258Zm-5.329.713H913.5a.356.356,0,0,1-.355-.357v-60.57a.356.356,0,0,1,.355-.356h43.433a.356.356,0,0,1,.356.356v60.57A.357.357,0,0,1,956.929,533.042Zm-43.078-.713h42.722V472.472H913.851Zm-5.329.713H865.089a.357.357,0,0,1-.356-.357v-60.57a.356.356,0,0,1,.356-.356h43.433a.356.356,0,0,1,.355.356v60.57A.355.355,0,0,1,908.522,533.042Zm-43.077-.713h42.722V472.472H865.444Zm-5.33.713h-24.1a.356.356,0,0,1-.355-.357v-60.57a.356.356,0,0,1,.355-.356h24.1a.356.356,0,0,1,.356.356v60.57A.356.356,0,0,1,860.115,533.042Zm-23.746-.713H859.76V472.472H836.369ZM986,467.48H961.9a.356.356,0,0,1-.356-.356V410.294a.356.356,0,0,1,.356-.356H986a.356.356,0,0,1,.355.356v56.829A.355.355,0,0,1,986,467.48Zm-23.746-.713h23.391V410.651H962.258Zm-5.329.713H913.5a.356.356,0,0,1-.355-.356V410.294a.356.356,0,0,1,.355-.356h43.433a.356.356,0,0,1,.356.356v56.829A.356.356,0,0,1,956.929,467.48Zm-43.078-.713h42.722V410.651H913.851Zm-5.329.713H865.089a.356.356,0,0,1-.356-.356V410.294a.356.356,0,0,1,.356-.356h43.433a.356.356,0,0,1,.355.356v56.829A.355.355,0,0,1,908.522,467.48Zm-43.077-.713h42.722V410.651H865.444Zm-5.33.713h-24.1a.356.356,0,0,1-.355-.356V410.294a.356.356,0,0,1,.355-.356h24.1a.356.356,0,0,1,.356.356v56.829A.355.355,0,0,1,860.115,467.48Zm-23.746-.713H859.76V410.651H836.369ZM985.99,405.658H961.9a.356.356,0,0,1-.356-.356V351.095a.355.355,0,0,1,.6-.262,75.06,75.06,0,0,1,24.2,54.464.355.355,0,0,1-.355.361Zm-23.733-.713h23.372a74.323,74.323,0,0,0-23.372-53.029Zm-5.329.713H913.5a.356.356,0,0,1-.355-.356V331.1a.359.359,0,0,1,.108-.256.313.313,0,0,1,.259-.1,74.519,74.519,0,0,1,43.639,15.832.358.358,0,0,1,.137.282V405.3A.355.355,0,0,1,956.929,405.658Zm-43.078-.713h42.722V347.032a73.8,73.8,0,0,0-42.722-15.563Zm-5.329.713H865.089a.356.356,0,0,1-.356-.356V346.858a.358.358,0,0,1,.137-.282,74.52,74.52,0,0,1,43.639-15.832.322.322,0,0,1,.259.1.359.359,0,0,1,.108.256v74.2A.354.354,0,0,1,908.522,405.658Zm-43.077-.713h42.722V331.469a73.805,73.805,0,0,0-42.722,15.563Zm-5.33.713H836.026a.355.355,0,0,1-.355-.361,75.065,75.065,0,0,1,24.2-54.464.355.355,0,0,1,.6.262V405.3A.357.357,0,0,1,860.115,405.658Zm-23.727-.713H859.76V351.917A74.323,74.323,0,0,0,836.388,404.945Z"/>
    </g>
    <g id="Group_2714" data-name="Group 2714" transform="translate(87 -163.704)">
      <path id="Path_1948" data-name="Path 1948" d="M140.625,575.5H91.375l14.933,47.886h19.384Z" fill="#fff"/>
      <path id="Path_1949" data-name="Path 1949" d="M125.692,623.884H106.308a.5.5,0,0,1-.478-.351L90.9,575.646a.5.5,0,0,1,.478-.646h49.25a.5.5,0,0,1,.478.646L126.17,623.533A.5.5,0,0,1,125.692,623.884Zm-19.016-1h18.648L139.946,576H92.054Z"/>
      <path id="Path_1950" data-name="Path 1950" d="M130.625,575.5h-29.25l8.84,45.859h11.57Z" fill="#fff"/>
      <path id="Path_1951" data-name="Path 1951" d="M121.785,621.856H110.214a.5.5,0,0,1-.491-.4l-8.839-45.858a.5.5,0,0,1,.491-.594h29.25a.5.5,0,0,1,.491.594l-8.84,45.858A.5.5,0,0,1,121.785,621.856Zm-11.158-1h10.745L130.02,576H101.981Z"/>
      <path id="Path_1952" data-name="Path 1952" d="M120.5,600.722h-9a47.943,47.943,0,0,0-48,47.886V681.53a11.986,11.986,0,0,0,12,11.971h81a11.986,11.986,0,0,0,12-11.971V648.608A47.943,47.943,0,0,0,120.5,600.722Z" fill="#fff"/>
      <g id="Group_2713" data-name="Group 2713">
        <path id="Path_1953" data-name="Path 1953" d="M156.5,694h-81A12.5,12.5,0,0,1,63,681.53V648.608a48.5,48.5,0,0,1,48.5-48.385h9A48.5,48.5,0,0,1,169,648.608V681.53A12.5,12.5,0,0,1,156.5,694Zm-45-92.779A47.5,47.5,0,0,0,64,648.608V681.53A11.5,11.5,0,0,0,75.5,693h81A11.5,11.5,0,0,0,168,681.53V648.608a47.5,47.5,0,0,0-47.5-47.387Z"/>
        <path id="Path_1954" data-name="Path 1954" d="M135,602.717H97a2,2,0,1,1,0-3.99h38a2,2,0,1,1,0,3.99Z"/>
        <path id="Path_1955" data-name="Path 1955" d="M135,603.216H97a2.494,2.494,0,1,1,0-4.988h38a2.494,2.494,0,1,1,0,4.988Zm-38-3.991a1.5,1.5,0,1,0,0,2.993h38a1.5,1.5,0,1,0,0-2.993Z"/>
      </g>
      <path id="Path_1956" data-name="Path 1956" d="M124.55,642.486v-7.047a6.02,6.02,0,0,0-6.021-6.006H118v-6.048h-4v6.048h-.193a6.02,6.02,0,0,0-6.021,6.006v2.595a8.657,8.657,0,0,0,3.1,6.641l7.993,6.715a4.678,4.678,0,0,1,1.673,3.588v3.265a2.021,2.021,0,0,1-2.021,2.016h-5.057a2.021,2.021,0,0,1-2.021-2.016v-7.708h-4v7.708a6.021,6.021,0,0,0,6.021,6.007H114v6.381h4V664.25h.528a6.021,6.021,0,0,0,6.021-6.007v-3.265a8.656,8.656,0,0,0-3.1-6.64l-7.993-6.715a4.679,4.679,0,0,1-1.673-3.589v-2.595a2.021,2.021,0,0,1,2.021-2.016h4.721a2.021,2.021,0,0,1,2.021,2.016v7.047Z" fill="#fff"/>
      <path id="Path_1957" data-name="Path 1957" d="M118,671.131h-4a.5.5,0,0,1-.5-.5l-.028-5.882a6.521,6.521,0,0,1-6.521-6.506v-7.708a.5.5,0,0,1,.5-.5h4a.5.5,0,0,1,.5.5v7.708a1.521,1.521,0,0,0,1.521,1.517h5.057a1.521,1.521,0,0,0,1.521-1.517V654.98a4.178,4.178,0,0,0-1.5-3.206l-7.993-6.715a9.155,9.155,0,0,1-3.275-7.023v-2.6a6.521,6.521,0,0,1,6.214-6.5v-5.557a.5.5,0,0,1,.5-.5h4a.5.5,0,0,1,.5.5l.028,5.549a6.521,6.521,0,0,1,6.521,6.505v7.047a.5.5,0,0,1-.5.5h-4a.5.5,0,0,1-.5-.5v-7.047a1.521,1.521,0,0,0-1.521-1.517h-4.721a1.521,1.521,0,0,0-1.521,1.517v2.595a4.177,4.177,0,0,0,1.5,3.206l7.993,6.716a9.154,9.154,0,0,1,3.275,7.022v3.265a6.52,6.52,0,0,1-6.521,6.506H118.5v5.882A.5.5,0,0,1,118,671.131Zm-3.5-1h3v-5.882a.5.5,0,0,1,.5-.5h.528a5.521,5.521,0,0,0,5.521-5.508V654.98a8.157,8.157,0,0,0-2.919-6.258l-7.993-6.715a5.178,5.178,0,0,1-1.851-3.97v-2.595a2.521,2.521,0,0,1,2.521-2.515h4.721a2.521,2.521,0,0,1,2.521,2.515v6.548h3v-6.548a5.52,5.52,0,0,0-5.521-5.508H118a.5.5,0,0,1-.5-.5v-5.552h-3v5.549a.5.5,0,0,1-.5.5h-.193a5.521,5.521,0,0,0-5.521,5.508v2.595a8.158,8.158,0,0,0,2.919,6.259l7.993,6.715a5.176,5.176,0,0,1,1.851,3.97v3.265a2.52,2.52,0,0,1-2.521,2.515h-5.057a2.521,2.521,0,0,1-2.521-2.515v-7.209h-3v7.209a5.52,5.52,0,0,0,5.521,5.508H114a.5.5,0,0,1,.5.5Z"/>
    </g>
    <g id="Group_2725" data-name="Group 2725" transform="translate(-1032.25 -273.8)">
      <g id="Group_2723" data-name="Group 2723" transform="translate(1245.438 598)">
        <path id="Path_2022" data-name="Path 2022" d="M1532.544,811.77l-12.348-4.255s0,0-.005,0c-1.952-.754-2.279-1.511-1.579-1.651a.022.022,0,0,0,.014-.008l2.109-.328a3.213,3.213,0,0,0,1.57-.689,3.368,3.368,0,0,0,.814-1.1,1.123,1.123,0,0,0,.063-.528.5.5,0,0,0-.015-.07.548.548,0,0,0-.682-.371l-6.941,1.349-1.686-.051a6.486,6.486,0,0,0-3,.618l-.661.314c-2.272-.021-5.3.746-5.825,2.226l4.3,5.654a5.394,5.394,0,0,0,1.954,1.6l2.043.985a4.707,4.707,0,0,0,2.3.772l8.385.5a1.506,1.506,0,0,0,1.49-1.07v-.01a.383.383,0,0,0-.145-.341l2.7.16a1.517,1.517,0,0,0,1.469-1l.623.018a1.506,1.506,0,0,0,1.458-1.114.032.032,0,0,0,0-.01.382.382,0,0,0-.162-.341l.4.082a1.507,1.507,0,0,0,1.629-.845l0-.01a.389.389,0,0,0-.277-.475Zm-11.584-.371c-.177-.105-.156-.418.1-.388l8.692,1.792Z" transform="translate(-1391.04 -712.935)" fill="#fff"/>
        <g id="Group_2722" data-name="Group 2722" transform="translate(13.807)">
          <path id="Path_2023" data-name="Path 2023" d="M1522.94,816.635h-.019l-8.386-.5a5.058,5.058,0,0,1-2.461-.825l-2.005-.964a5.756,5.756,0,0,1-2.072-1.693L1503.7,807a.327.327,0,0,1-.047-.308c.632-1.78,4.039-2.443,6.037-2.443h.021l.593-.282a6.869,6.869,0,0,1,3.148-.649l1.648.05,6.906-1.343a.785.785,0,0,1,.219-.029.881.881,0,0,1,.839.629.729.729,0,0,1,.024.112,1.45,1.45,0,0,1-.078.69,3.648,3.648,0,0,1-.907,1.233,3.54,3.54,0,0,1-1.736.766l-2.066.321a.335.335,0,0,1-.046.012c-.019,0-.036.009-.048.012a3.607,3.607,0,0,0,1.688,1.012l.023.01,12.319,4.245a.691.691,0,0,1,.412.325.709.709,0,0,1,.074.543,1.8,1.8,0,0,1-1.719,1.112h0c-.048,0-.1,0-.146,0a1.831,1.831,0,0,1-1.758,1.373l-.42-.012a1.9,1.9,0,0,1-1.681,1l-2.236-.132,0,.021a1.825,1.825,0,0,1-1.81,1.37Zm-18.609-9.877,4.184,5.5a5.092,5.092,0,0,0,1.836,1.5l2.043.985a4.467,4.467,0,0,0,2.18.74l8.371.5a1.187,1.187,0,0,0,1.167-.815.352.352,0,0,1-.114-.384.324.324,0,0,1,.306-.219l2.7.16a1.189,1.189,0,0,0,1.137-.77.34.34,0,0,1,.322-.235l.622.018a1.179,1.179,0,0,0,1.129-.85.353.353,0,0,1-.122-.408.317.317,0,0,1,.347-.2l.4.081c.038,0,.1.007.162.007a1.144,1.144,0,0,0,1.1-.65c-.008,0-.068-.054-.075-.057l-12.348-4.255a.274.274,0,0,1-.042-.018c-.827-.322-2.162-.96-2.1-1.7a.638.638,0,0,1,.557-.555.339.339,0,0,1,.068-.019l2.109-.328a2.889,2.889,0,0,0,1.413-.619,3.087,3.087,0,0,0,.712-.953.775.775,0,0,0,.047-.374.229.229,0,0,0-.218-.182c-.011,0-.084.015-.094.017l-6.942,1.35a.319.319,0,0,1-.072.006l-1.686-.051a6.11,6.11,0,0,0-2.849.586l-.66.314a.369.369,0,0,1-.143.031h-.091c-2.167,0-4.75.7-5.353,1.853Zm25.008,5.953a.349.349,0,0,1-.052,0l-8.8-1.4a.334.334,0,0,1-.116-.042.571.571,0,0,1-.254-.631.5.5,0,0,1,.492-.366l.071,0,8.719,1.8a.327.327,0,0,1-.064.647Z" transform="translate(-1404.43 -712.516)"/>
          <path id="Path_2024" data-name="Path 2024" d="M1377.674,1037.57l-9.1,14.508h-19.621a1.286,1.286,0,0,1-1.118-1.919l.951-1.685a5.876,5.876,0,0,1,3.9-2.863l10.756-2.28,6.648-10.55a4.485,4.485,0,0,1,7.585,4.79Z" transform="translate(-1316.88 -840.891)"/>
          <path id="Path_2025" data-name="Path 2025" d="M1365.25,865.493a22.475,22.475,0,0,0,22.449-22.5v-34.1l-44.9,17.757v16.345a22.475,22.475,0,0,0,22.45,22.5Z" transform="translate(-1314.147 -716.385)"/>
          <path id="Path_2026" data-name="Path 2026" d="M1394.642,616.293,1371,618.5V608.375A10.363,10.363,0,0,1,1381.354,598h2.937a10.363,10.363,0,0,1,10.351,10.375Z" transform="translate(-1329.979 -598)"/>
          <path id="Path_2027" data-name="Path 2027" d="M1310.589,706.384,1289.116,727.5l-8.074,1.023-3.563-7.246,24.7-30.274Z" transform="translate(-1277.478 -650.208)"/>
          <path id="Path_2028" data-name="Path 2028" d="M1346.865,741.459l42.439-8.572-1.625-23.029-.194-16.83-40.619-3.785Z" transform="translate(-1316.429 -649.22)"/>
          <path id="Path_2029" data-name="Path 2029" d="M1337.3,673.223l36.877-4.759a9.788,9.788,0,0,1,10.836,7.754l3.8,18.532-61.939-.848,2.03-12.536a9.781,9.781,0,0,1,8.4-8.143Z" transform="translate(-1305.207 -637.51)"/>
        </g>
        <path id="Path_2030" data-name="Path 2030" d="M1384.412,682.465V644.308h12.475v12.018l-11.066,26.423A.732.732,0,0,1,1384.412,682.465Z" transform="translate(-1323.698 -623.995)" fill="#fff"/>
        <path id="Path_2031" data-name="Path 2031" d="M1384.735,683.109a1.055,1.055,0,0,1-1.068-1.062V643.89a.327.327,0,0,1,.326-.327h12.475a.326.326,0,0,1,.326.327v12.018a.33.33,0,0,1-.025.126L1385.7,682.457A1.038,1.038,0,0,1,1384.735,683.109Zm-.415-38.892v37.83a.4.4,0,0,0,.416.409.383.383,0,0,0,.367-.25l11.041-26.363V644.217Z" transform="translate(-1323.281 -623.577)"/>
        <path id="Path_2032" data-name="Path 2032" d="M1374.513,1081.889v0C1374.5,1081.892,1374.5,1081.889,1374.513,1081.889Z" transform="translate(-1318.135 -869.634)" fill="#29abe2"/>
        <path id="Path_2033" data-name="Path 2033" d="M1365.059,776.329l-.752-1.642-14.014.392-.116-.636-2.28.7-7.717.216-.007,2.167-13.809,4.258-19.43,64.572a9.808,9.808,0,0,0,1.625,8.817l28.914,37.485-.5,7.37-.532,7.91-.068,1.006-.025.354c.114-.01,1.006-.041,2.24-.078.482-.014,1.011-.032,1.57-.046.989-.032,2.061-.061,3.072-.09l4.272-.118.042-.164.708-2.867.467-1.884.948-3.822.293-1.183.989-4,1.812-7.315,5.322-21.472a12.31,12.31,0,0,0,.318-3.985l-1.735-20.515,7.785-47.3,1.138-3.038a19.7,19.7,0,0,0-.533-15.1Zm-32.566,74.324-4.664-7.178,12.208-19.346-.047,16.025a2,2,0,0,0-.1.568l-.295,20.507-.308,4.563-5.842-13.37a12.187,12.187,0,0,0-.952-1.769Z" transform="translate(-1279.973 -697.047)" fill="#fff"/>
        <path id="Path_2034" data-name="Path 2034" d="M1335.935,909.21a.327.327,0,0,1-.325-.349l1.114-16.517-28.838-37.387a10.156,10.156,0,0,1-1.679-9.111l19.43-64.572a.326.326,0,0,1,.216-.218l13.58-4.188.006-1.926a.328.328,0,0,1,.317-.326l7.674-.214,2.237-.69a.326.326,0,0,1,.417.253l.066.36,13.735-.384a.341.341,0,0,1,.305.191l.752,1.642a20.157,20.157,0,0,1,.541,15.352l-1.138,3.038-7.761,47.2,1.731,20.474a12.6,12.6,0,0,1-.326,4.092l-10.581,42.7a.326.326,0,0,1-.308.246l-5.113.141c-.75.022-1.511.043-2.23.066l-1.571.047c-1.262.037-2.121.069-2.222.077a.128.128,0,0,1-.028,0Zm-9.724-127.582-19.38,64.405a9.505,9.505,0,0,0,1.571,8.522l28.914,37.485a.328.328,0,0,1,.067.221l-1.1,16.277c.407-.016,1.092-.039,1.88-.062l1.572-.047c.717-.023,1.479-.044,2.23-.066l4.867-.135,10.52-42.461a11.967,11.967,0,0,0,.309-3.879l-1.735-20.515a.285.285,0,0,1,0-.081l7.785-47.3,1.155-3.1a19.5,19.5,0,0,0-.524-14.849l-.663-1.446-13.8.386a.327.327,0,0,1-.33-.268l-.05-.275-1.928.6a.352.352,0,0,1-.088.015l-7.4.207-.006,1.849a.329.329,0,0,1-.23.312Zm12.662,84.071a.326.326,0,0,1-.3-.2l-5.842-13.37a11.953,11.953,0,0,0-.927-1.721l-4.664-7.178a.33.33,0,0,1,0-.353l12.209-19.346a.326.326,0,0,1,.6.175l-.047,16.026a.323.323,0,0,1-.015.1,1.646,1.646,0,0,0-.085.475l-.3,20.507-.308,4.579a.328.328,0,0,1-.27.3.278.278,0,0,1-.057.005ZM1327.8,843.053l4.55,7a12.708,12.708,0,0,1,.978,1.816l5.308,12.147.218-3.23.294-20.49a2.261,2.261,0,0,1,.1-.612l.043-14.843Z" transform="translate(-1279.558 -696.628)"/>
        <path id="Path_2035" data-name="Path 2035" d="M1372.18,821.169a4.89,4.89,0,0,1,4.885,4.9l-.2,25.109" transform="translate(-1316.832 -723.277)" fill="#fff"/>
        <path id="Path_2036" data-name="Path 2036" d="M1376.453,851.084h0a.327.327,0,0,1-.324-.329l.2-25.109a4.569,4.569,0,0,0-4.559-4.566.327.327,0,0,1,0-.654,5.223,5.223,0,0,1,5.211,5.223l-.2,25.112a.327.327,0,0,1-.326.324Z" transform="translate(-1316.415 -722.86)"/>
        <path id="Path_2037" data-name="Path 2037" d="M1377.889,1102.155h-2.246a1.689,1.689,0,0,0,0,3.377h2.246a1.689,1.689,0,0,0,0-3.377Z" transform="translate(-1317.831 -881.01)" fill="#99644c"/>
        <path id="Path_2038" data-name="Path 2038" d="M1254.841,746.444l13.326,10.247a4.929,4.929,0,0,0,5.2.506l1.381-.687a4.955,4.955,0,0,0,2.1-6.881l-2.1-3.707a4.943,4.943,0,0,0-3.033-2.338l-11.8-3.115Z" transform="translate(-1250.964 -677.976)"/>
        <path id="Path_2039" data-name="Path 2039" d="M1407.788,637.249h-4.979a.6.6,0,0,1-.6-.6V631.69a.6.6,0,0,1,.6-.6h4.979a3.081,3.081,0,0,1,0,6.162Z" transform="translate(-1333.688 -616.574)" fill="#ed956e"/>
        <path id="Path_2040" data-name="Path 2040" d="M1377.6,614.369h-2.411a2.445,2.445,0,0,0-2.442,2.479l.031,2.437v10.437a.732.732,0,0,1-1.318.442l-2.87-3.814a2.453,2.453,0,0,1-.02-2.922l1.14-1.558a2.45,2.45,0,0,0,.474-1.448v-4.584l.977-2.938Z" transform="translate(-1314.542 -606.365)"/>
        <path id="Path_2041" data-name="Path 2041" d="M1383.1,612.16a7.572,7.572,0,0,0-7.564,7.581v.9a3.064,3.064,0,0,0,0,5.814v1.891a5.06,5.06,0,0,0,1.381,3.475l3.384,3.582a3.255,3.255,0,0,0,2.368,1.022h3.382a3.257,3.257,0,0,0,2.369-1.022l3.384-3.582a5.06,5.06,0,0,0,1.381-3.475V612.16Z" transform="translate(-1317.541 -605.949)" fill="#fff"/>
        <path id="Path_2042" data-name="Path 2042" d="M1385.635,636.328h-3.382a3.6,3.6,0,0,1-2.605-1.124l-3.384-3.581a5.369,5.369,0,0,1-1.47-3.7v-1.665a3.39,3.39,0,0,1,0-6.266v-.67a7.908,7.908,0,0,1,7.89-7.908h10.085a.327.327,0,0,1,.326.327v16.182a5.368,5.368,0,0,1-1.471,3.7l-3.384,3.581a3.592,3.592,0,0,1-2.6,1.124Zm-2.952-24.26a7.255,7.255,0,0,0-7.237,7.254v.9a.328.328,0,0,1-.222.31,2.737,2.737,0,0,0,0,5.194.327.327,0,0,1,.222.31v1.891a4.716,4.716,0,0,0,1.292,3.251l3.384,3.581a2.943,2.943,0,0,0,2.132.92h3.382a2.946,2.946,0,0,0,2.132-.92l3.384-3.581a4.717,4.717,0,0,0,1.292-3.251V612.068Z" transform="translate(-1317.123 -605.529)"/>
        <path id="Path_2043" data-name="Path 2043" d="M1487.747,782.9l-19.21-17.931-7.365,7.169a2.913,2.913,0,0,0-.31,3.585l5.094,5.758,16.8,8.033Z" transform="translate(-1366.347 -691.727)"/>
        <path id="Path_2044" data-name="Path 2044" d="M1440.752,695.645l8.7,27.467,2.122,6.926-8.857,5.941a.823.823,0,0,1-1.221-.376l-14.7-36.3Z" transform="translate(-1347.488 -652.814)"/>
        <path id="Path_2045" data-name="Path 2045" d="M1259.221,722.954a6.3,6.3,0,0,1-.326-1.78c-.1-1.717-.292-4.419-.292-4.419a1.051,1.051,0,0,0-.926-.878l-.039,0a1.006,1.006,0,0,0-1.085.92c-.052.56-.4,3.9-.523,4.932a.39.39,0,0,1-.318.345.379.379,0,0,1-.406-.185l-.639-1.153-.365-.367-.249,2.269a3.16,3.16,0,0,0-1.828.434l-3.021,1.786a3.2,3.2,0,0,0-1.123,4.37l1.486,2.525a3.171,3.171,0,0,0,3.318,1.5l-.006.061,3.344-1.014a5.1,5.1,0,0,0,2.49-3.79l.657-2.655a5.518,5.518,0,0,0-.149-2.9Z" transform="translate(-1246.92 -664.167)" fill="#fff"/>
        <path id="Path_2046" data-name="Path 2046" d="M1252.465,733.224a.325.325,0,0,1-.144-.034,3.491,3.491,0,0,1-3.449-1.692l-1.486-2.525a3.526,3.526,0,0,1,1.239-4.817l3.02-1.786a3.488,3.488,0,0,1,1.7-.486l.217-1.972a.326.326,0,0,1,.556-.195l.365.368a.291.291,0,0,1,.054.072l.639,1.153c.083.02.11,0,.114-.035.127-1.059.473-4.394.522-4.928a1.34,1.34,0,0,1,1.437-1.215,1.391,1.391,0,0,1,1.26,1.153c0,.03.2,2.735.3,4.455a5.966,5.966,0,0,0,.311,1.693,5.832,5.832,0,0,1,.159,3.077l-.659,2.663a5.409,5.409,0,0,1-2.632,3.989.355.355,0,0,1-.08.036l-3.344,1.013A.33.33,0,0,1,1252.465,733.224Zm.958-10.688a2.843,2.843,0,0,0-1.447.4l-3.02,1.787a2.871,2.871,0,0,0-1.008,3.922l1.486,2.525a2.861,2.861,0,0,0,2.978,1.349.312.312,0,0,1,.156.009l3.1-.941a4.738,4.738,0,0,0,2.3-3.543l.664-2.68a5.166,5.166,0,0,0-.143-2.72,6.613,6.613,0,0,1-.344-1.87c-.095-1.709-.29-4.408-.29-4.408a.719.719,0,0,0-.633-.577l-.09,0a.683.683,0,0,0-.677.623c-.05.539-.4,3.887-.523,4.944a.715.715,0,0,1-.581.627.671.671,0,0,1-.138.014.706.706,0,0,1-.612-.359l-.481-.869-.163,1.491a.327.327,0,0,1-.346.29c-.065,0-.129-.006-.194-.006Z" transform="translate(-1246.505 -663.75)"/>
        <path id="Path_2047" data-name="Path 2047" d="M1348.242,787.7h-5.872l6.228-24.784,9.431,6.915v8.06A9.8,9.8,0,0,1,1348.242,787.7Z" transform="translate(-1300.098 -690.574)"/>
        <path id="Path_2048" data-name="Path 2048" d="M1391.419,731.639l-15.209,3.27v-53.4h15.209Z" transform="translate(-1319.094 -644.877)" fill="#fff"/>
        <path id="Path_2049" data-name="Path 2049" d="M1375.793,734.818a.326.326,0,0,1-.326-.327v-53.4a.327.327,0,0,1,.326-.327H1391a.327.327,0,0,1,.326.327v50.133a.328.328,0,0,1-.258.32l-15.209,3.27A.355.355,0,0,1,1375.793,734.818Zm.326-53.4v52.671l14.557-3.13V681.416Z" transform="translate(-1318.677 -644.459)"/>
        <path id="Path_2050" data-name="Path 2050" d="M1419.245,738.754h5.872V675.726h-15.659v53.219a9.8,9.8,0,0,0,9.787,9.809Z" transform="translate(-1337.759 -641.632)"/>
        <path id="Path_2051" data-name="Path 2051" d="M1352.419,739.569h-5.872V679.794l15.659-2.616V729.76A9.8,9.8,0,0,1,1352.419,739.569Z" transform="translate(-1302.443 -642.447)"/>
        <path id="Path_2052" data-name="Path 2052" d="M1386.456,672.415l-6.8-2.216a.652.652,0,0,0-.854.622v5.866a.652.652,0,0,0,.854.622l6.8-2.216,6.8,2.216a.653.653,0,0,0,.854-.622v-5.866a.653.653,0,0,0-.854-.622Z" transform="translate(-1320.552 -638.511)" fill="#fff"/>
        <path id="Path_2053" data-name="Path 2053" d="M1393.036,677.255a.985.985,0,0,1-.3-.049l-6.7-2.183-6.695,2.183a1,1,0,0,1-1.281-.933v-5.866a1,1,0,0,1,1.281-.933l6.7,2.183,6.7-2.183a1,1,0,0,1,1.281.933v5.866A.982.982,0,0,1,1393.036,677.255Zm-7-2.9a.328.328,0,0,1,.1.016l6.8,2.216a.326.326,0,0,0,.426-.311v-5.866a.325.325,0,0,0-.426-.311l-6.8,2.216a.33.33,0,0,1-.2,0l-6.8-2.216a.326.326,0,0,0-.427.311v5.866a.325.325,0,0,0,.427.311l6.8-2.216A.331.331,0,0,1,1386.038,674.353Z" transform="translate(-1320.134 -638.097)"/>
        <path id="Path_2054" data-name="Path 2054" d="M1371,1081.205l11.734-.035,2.071-10.513-11.767,1.352-1.42,2.63a5.152,5.152,0,0,0-.618,2.449Z" transform="translate(-1316.169 -863.329)" fill="#fff"/>
        <path id="Path_2055" data-name="Path 2055" d="M1370.582,1081.113a.328.328,0,0,1-.327-.327v-4.118a5.5,5.5,0,0,1,.658-2.6l1.42-2.63a.324.324,0,0,1,.25-.169l11.767-1.352a.319.319,0,0,1,.277.1.327.327,0,0,1,.08.285l-2.072,10.514a.325.325,0,0,1-.318.264l-11.734.035Zm2.244-9.218-1.339,2.48a4.848,4.848,0,0,0-.579,2.293v3.79l11.139-.033,1.933-9.812Z" transform="translate(-1315.752 -862.91)"/>
        <path id="Path_2056" data-name="Path 2056" d="M1380.389,1076.359h-3.081a4.883,4.883,0,0,0-4.878,4.889v2.316h12.836v-2.316A4.883,4.883,0,0,0,1380.389,1076.359Z" transform="translate(-1316.973 -866.53)"/>
        <path id="Path_2057" data-name="Path 2057" d="M1381.995,1102.384h-13.835c-2.054,0-2.293-3.625-.986-6.949l1.144-2.909h13.52l1.144,2.909c1.307,3.323,1.068,6.949-.986,6.949Z" transform="translate(-1313.567 -875.605)"/>
        <path id="Path_2058" data-name="Path 2058" d="M1383.357,1098.461h-10.534c-1.564,0-1.746-2.173-.751-4.165l.871-1.743h10.294l.871,1.743c.995,1.991.812,4.165-.751,4.165Z" transform="translate(-1316.426 -875.621)"/>
        <path id="Path_2059" data-name="Path 2059" d="M1382.935,1098.37H1372.4a1.517,1.517,0,0,1-1.356-.739,4.3,4.3,0,0,1,.314-3.9l.962-1.923h10.7l.962,1.923a4.294,4.294,0,0,1,.314,3.9A1.517,1.517,0,0,1,1382.935,1098.37Zm-10.212-5.908-.78,1.563a3.785,3.785,0,0,0-.343,3.262.871.871,0,0,0,.8.429h10.534a.87.87,0,0,0,.8-.429,3.785,3.785,0,0,0-.343-3.262l-.781-1.563Z" transform="translate(-1316.004 -875.203)" fill="#fff"/>
        <path id="Path_2060" data-name="Path 2060" d="M1259.9,725.43s0,.01-.01.013a1.887,1.887,0,0,1-2.284.235l-6.155-4.018a.733.733,0,0,1-.333-.615v-.9a1.222,1.222,0,0,1,1.221-1.224h.351a.731.731,0,0,1,.475.175l6.626,5.659a.483.483,0,0,1,.108.676Z" transform="translate(-1248.876 -665.88)" fill="#fff"/>
        <path id="Path_2061" data-name="Path 2061" d="M1258.229,725.859a2.493,2.493,0,0,1-1.193-.314l-6.175-4.031a1.056,1.056,0,0,1-.481-.89v-.9a1.552,1.552,0,0,1,1.548-1.552h.35a1.059,1.059,0,0,1,.687.254l6.625,5.658a.782.782,0,0,1,.3.512.8.8,0,0,1-.144.605.393.393,0,0,1-.037.043h0A2.033,2.033,0,0,1,1258.229,725.859Zm-6.3-7.03a.9.9,0,0,0-.9.9v.9a.406.406,0,0,0,.184.342l6.154,4.018a1.639,1.639,0,0,0,1.854-.169.173.173,0,0,0,.026-.113.153.153,0,0,0-.062-.1l-6.646-5.676a.4.4,0,0,0-.263-.1Z" transform="translate(-1248.459 -665.461)"/>
        <path id="Path_2062" data-name="Path 2062" d="M1257.186,731.594a.029.029,0,0,1-.01.012,1.886,1.886,0,0,1-2.284.235l-6.154-4.018a.735.735,0,0,1-.333-.615v-.9a1.223,1.223,0,0,1,1.222-1.224h.35a.732.732,0,0,1,.475.175l6.626,5.659a.482.482,0,0,1,.108.675Z" transform="translate(-1247.35 -669.34)" fill="#fff"/>
        <path id="Path_2063" data-name="Path 2063" d="M1255.509,732.024a2.492,2.492,0,0,1-1.192-.313l-6.175-4.031a1.058,1.058,0,0,1-.481-.889v-.9a1.551,1.551,0,0,1,1.548-1.551h.35a1.061,1.061,0,0,1,.687.254l6.625,5.658a.788.788,0,0,1,.3.51.8.8,0,0,1-.145.606.438.438,0,0,1-.037.044h0A2.032,2.032,0,0,1,1255.509,732.024Zm-6.3-7.03a.9.9,0,0,0-.9.9v.9a.4.4,0,0,0,.185.341l6.154,4.018a1.643,1.643,0,0,0,1.854-.169.178.178,0,0,0,.026-.114.153.153,0,0,0-.063-.1l-6.646-5.675a.407.407,0,0,0-.264-.1Z" transform="translate(-1246.933 -668.922)"/>
        <path id="Path_2064" data-name="Path 2064" d="M1254.487,737.032a.022.022,0,0,1-.01.01,1.775,1.775,0,0,1-2.159-.024l-5.324-4.412a.692.692,0,0,1-.245-.611l.1-.84a1.15,1.15,0,0,1,1.272-1.014l.327.037a.687.687,0,0,1,.425.214l5.59,6a.456.456,0,0,1,.028.644Z" transform="translate(-1246.418 -672.174)" fill="#fff"/>
        <path id="Path_2065" data-name="Path 2065" d="M1253.046,737.305a2.3,2.3,0,0,1-1.334-.438l-5.343-4.427a1.021,1.021,0,0,1-.362-.9l.1-.841a1.476,1.476,0,0,1,1.633-1.3l.328.037a1.012,1.012,0,0,1,.627.317l5.59,5.994a.752.752,0,0,1,.234.522.782.782,0,0,1-.2.565.22.22,0,0,1-.076.069,1.9,1.9,0,0,1-1.188.4Zm-5.48-7.262a.82.82,0,0,0-.814.731l-.1.84a.367.367,0,0,0,.129.322l5.323,4.411a1.508,1.508,0,0,0,1.723.041.144.144,0,0,0,.032-.089.123.123,0,0,0-.041-.087l-5.61-6.015a.362.362,0,0,0-.224-.113l-.328-.037A.781.781,0,0,0,1247.566,730.043Z" transform="translate(-1246.001 -671.756)"/>
        <path id="Path_2066" data-name="Path 2066" d="M1253.39,743.282a.024.024,0,0,1-.009.01,1.637,1.637,0,0,1-1.991.045l-4.3-3.189a.638.638,0,0,1-.245-.555l.062-.777a1.059,1.059,0,0,1,1.141-.973l.3.024a.64.64,0,0,1,.4.185l4.59,4.64A.419.419,0,0,1,1253.39,743.282Z" transform="translate(-1246.475 -676.498)" fill="#fff"/>
        <path id="Path_2067" data-name="Path 2067" d="M1251.985,743.558a2.167,2.167,0,0,1-1.191-.368l-4.312-3.2a.964.964,0,0,1-.376-.844l.063-.778a1.388,1.388,0,0,1,1.491-1.273l.3.025a.956.956,0,0,1,.6.28l4.591,4.64a.717.717,0,0,1,.239.489.741.741,0,0,1-.177.545.349.349,0,0,1-.039.039,1.768,1.768,0,0,1-1.2.443Zm-4.383-5.81a.749.749,0,0,0-.784.673l-.062.778a.309.309,0,0,0,.12.27l4.291,3.185a1.362,1.362,0,0,0,1.56-.008.1.1,0,0,0,.02-.064.089.089,0,0,0-.032-.061l-4.611-4.659a.308.308,0,0,0-.193-.089l-.3-.025Z" transform="translate(-1246.058 -676.08)"/>
        <path id="Path_2068" data-name="Path 2068" d="M1381.2,609.127h2.014a2.445,2.445,0,0,1,2.442,2.387l.025,1.025a2.445,2.445,0,0,0,2.441,2.387h3.1a2.638,2.638,0,0,1,2.636,2.642v6.521a2.333,2.333,0,0,0,2.33,2.335h.047a2.367,2.367,0,0,0,1.676-.7c1.4-1.4,3.3-3.366,4.651-4.769a2.452,2.452,0,0,0-.031-3.431l-2.171-2.177a2.455,2.455,0,0,1-.7-1.427l-.628-5.042-4.077-5.319Z" transform="translate(-1321.895 -601.122)"/>
        <path id="Path_2069" data-name="Path 2069" d="M1394.621,642.26h-1.972a.327.327,0,0,1,0-.654h1.972a.981.981,0,0,0,.979-.981V636.6a2.319,2.319,0,0,1,2.314-2.32h3.1a1.806,1.806,0,0,1,1.8,1.806v.942a.331.331,0,0,1,0,.249v.869a.327.327,0,0,1-.326.327h-.609l-.732.925a.326.326,0,1,1-.511-.407l.83-1.048a.328.328,0,0,1,.256-.123h.44v-.64c0-.008,0-.015,0-.023a.194.194,0,0,1,0-.021v-1.048a1.152,1.152,0,0,0-1.149-1.152h-3.1a1.666,1.666,0,0,0-1.661,1.665v4.028A1.635,1.635,0,0,1,1394.621,642.26Z" transform="translate(-1328.139 -618.365)"/>
        <path id="Path_2070" data-name="Path 2070" d="M1376.319,1010.906h-.023a.329.329,0,0,1-.3-.349l2.1-30.4a.334.334,0,0,1,.347-.3.328.328,0,0,1,.3.349l-2.1,30.4a.327.327,0,0,1-.325.3Z" transform="translate(-1318.972 -812.353)"/>
        <path id="Path_2071" data-name="Path 2071" d="M1552.371,823.638a.347.347,0,0,1-.067-.007l-9.646-1.991a.327.327,0,0,1,.131-.641l9.646,1.991a.327.327,0,0,1-.064.647Z" transform="translate(-1412.385 -723.179)"/>
        <path id="Path_2072" data-name="Path 2072" d="M1548.834,827.478a.343.343,0,0,1-.054,0l-8.573-1.422a.327.327,0,0,1-.268-.376.323.323,0,0,1,.375-.269l8.574,1.422a.327.327,0,0,1-.053.65Z" transform="translate(-1411.002 -725.653)"/>
        <path id="Path_2073" data-name="Path 2073" d="M1541.773,830.162a.3.3,0,0,1-.044,0l-6.795-.929a.327.327,0,0,1,.088-.648l6.795.929a.327.327,0,0,1-.044.651Z" transform="translate(-1408.037 -727.438)"/>
      </g>
      <g id="Group_2724" data-name="Group 2724" transform="translate(1244.999 622.564)">
        <path id="Path_2074" data-name="Path 2074" d="M1254.824,700.2v-17a.954.954,0,0,1,.4-.784c2.7-1.891,4.736-9.872,4.736-19.435a61.156,61.156,0,0,0-.532-8.2h-10.871a61.24,61.24,0,0,0-.532,8.2c0,9.563,2.031,17.544,4.736,19.435a.953.953,0,0,1,.4.784v17a4.853,4.853,0,0,1-3.3,4.6L1246,706.1a.323.323,0,0,0,.1.63h15.776a.323.323,0,0,0,.1-.63l-3.861-1.307A4.853,4.853,0,0,1,1254.824,700.2Z" transform="translate(-1245.437 -654.438)" fill="#fff"/>
        <path id="Path_2075" data-name="Path 2075" d="M1261.441,706.637h-15.776a.666.666,0,0,1-.214-1.3l3.862-1.306a4.51,4.51,0,0,0,3.064-4.275v-17a.612.612,0,0,0-.254-.5c-2.875-2.009-4.882-10.116-4.882-19.716a61.363,61.363,0,0,1,.535-8.242.344.344,0,0,1,.34-.3h10.872a.343.343,0,0,1,.339.3,61.283,61.283,0,0,1,.535,8.242c0,9.6-2.008,17.707-4.882,19.716a.612.612,0,0,0-.253.5v17a4.51,4.51,0,0,0,3.064,4.275l3.862,1.306a.666.666,0,0,1-.213,1.3Zm-7.888-.685h7.888v.343l0-.343-3.872-1.27a5.193,5.193,0,0,1-3.529-4.923v-17a1.3,1.3,0,0,1,.545-1.064c2.66-1.859,4.59-9.914,4.59-19.154a61.033,61.033,0,0,0-.489-7.853h-10.273a60.98,60.98,0,0,0-.489,7.852c0,9.24,1.93,17.3,4.589,19.154a1.3,1.3,0,0,1,.546,1.064v17a5.193,5.193,0,0,1-3.53,4.923l-3.862,1.306Z" transform="translate(-1244.999 -654)"/>
      </g>
    </g>
    <g id="Group_2721" data-name="Group 2721" transform="translate(-670.001 -349.839)">
      <g id="Group_2717" data-name="Group 2717" transform="translate(707.64 822.859)">
        <path id="Path_1962" data-name="Path 1962" d="M792.8,908.859c-9.453-13.52-20.257-19.6-20.257-19.6s2.025-4.732,9.453-4.732c5.4,0,10.243,4.1,12.829,8.788a18.823,18.823,0,0,1,2.026,7.436A10.867,10.867,0,0,1,792.8,908.859Z" transform="translate(-758.059 -883.523)" fill="#fff"/>
        <path id="Path_1963" data-name="Path 1963" d="M792.291,908.682a.309.309,0,0,1-.054,0,.34.34,0,0,1-.223-.14c-9.3-13.3-20.038-19.443-20.146-19.5a.338.338,0,0,1-.144-.428c.086-.2,2.2-4.937,9.763-4.937,6.036,0,10.843,4.828,13.125,8.962a19.052,19.052,0,0,1,2.068,7.579,11.114,11.114,0,0,1-4.187,8.4A.343.343,0,0,1,792.291,908.682Zm-19.81-20.069a71.589,71.589,0,0,1,19.877,19.238,10.51,10.51,0,0,0,3.648-7.619,18.35,18.35,0,0,0-1.989-7.282c-2.189-3.964-6.788-8.6-12.53-8.6C775.374,884.347,773.034,887.648,772.481,888.613Z" transform="translate(-757.545 -883.008)"/>
        <path id="Path_1964" data-name="Path 1964" d="M807.726,971.394c-23.634,0-31.642-18.2-39.366-36.132-6.347-14.73-12.91-29.967-28.137-39.268a7.1,7.1,0,0,1,7.022-12.324c17.61,9.37,25.315,23.167,31.506,34.253,6.84,12.256,10.628,18.177,21.365,18.177h.182c8.15-.041,14.092-3.786,19.832-7.436,5.152-3.238,10.554-6.618,16.969-6.618,36.753,0,66.4,36.247,67.638,37.794a7.093,7.093,0,0,1-10.689,9.309c-.182-.19-19.2-20.064-42.094-20.064-10.75,0-14.7,4.38-19.7,9.93-5.1,5.665-11.453,12.378-24.532,12.378Z" transform="translate(-736.517 -882.514)" fill="#fff"/>
        <path id="Path_1965" data-name="Path 1965" d="M807.216,971.218c-24.02,0-31.979-18.472-39.676-36.336-6.33-14.689-12.871-29.87-28-39.113a7.433,7.433,0,0,1,7.355-12.91c17.7,9.415,25.429,23.26,31.643,34.383,6.788,12.163,10.519,18.007,21.071,18.007h.182c8.105-.04,13.975-3.773,19.651-7.383,5.219-3.281,10.614-6.671,17.15-6.671,37.036,0,66.659,36.373,67.9,37.921a7.43,7.43,0,0,1-11.2,9.752c-.787-.817-19.469-19.957-41.85-19.957-10.606,0-14.507,4.333-19.445,9.819-4.744,5.271-11.239,12.489-24.782,12.489Zm-63.779-88.542a6.762,6.762,0,0,0-3.548,12.516c15.314,9.355,21.9,24.636,28.266,39.414,7.615,17.673,15.485,35.936,39.06,35.936,13.243,0,19.622-7.089,24.28-12.266,5.051-5.611,9.041-10.042,19.948-10.042,22.664,0,41.541,19.339,42.333,20.162a6.756,6.756,0,0,0,10.186-8.859C902.729,958,873.3,921.87,836.589,921.87c-6.342,0-11.653,3.338-16.789,6.567-5.755,3.66-11.708,7.447-20.01,7.487h-.184c-10.932,0-14.742-5.957-21.659-18.35-6.172-11.051-13.85-24.8-31.37-34.12A6.77,6.77,0,0,0,743.437,882.676Z" transform="translate(-736.008 -882)"/>
      </g>
      <g id="Group_2719" data-name="Group 2719" transform="translate(689.001 784)">
        <path id="Path_1966" data-name="Path 1966" d="M950.939,843.682l-.468-.881.012-.025-1.865-4.567a.346.346,0,0,0-.436-.222l-.009,0a1.346,1.346,0,0,0-.667,1.5l.729,2.745L946.48,840.3a.345.345,0,0,0-.486-.058l-.007.005a1.347,1.347,0,0,0-.113,1.634l1.948,2.783-.188.132-1.738-1.908a.346.346,0,0,0-.486-.059l-.007.006a1.349,1.349,0,0,0-.114,1.635l.927,1.324-1.524,1.071a1.529,1.529,0,0,1-.758-.77l-.019-.022a1.851,1.851,0,0,1,.03-1.525l1.107-2.291a3.575,3.575,0,0,0,.362-1.863,2.48,2.48,0,0,0-.394-1.165,1.231,1.231,0,0,0-.44-.389.565.565,0,0,0-.073-.031.607.607,0,0,0-.766.389l-3.138,7.172-1.107,1.5a7.213,7.213,0,0,0-1.325,3.119s-.1,1.073-.2,2a5.7,5.7,0,0,0-.12,1.2c-.008.077-.013.128-.015.132l.013-.013a4.8,4.8,0,0,0,.485,1.887l-18.284,2.7a13.9,13.9,0,0,0-2.123.486L905.5,863.612l-19.073-.131-14.157-.964-1.79,1.792-.321,11.622,18.665-.075,17.976-2.108a2.988,2.988,0,0,0,.743-.2h0l10.021-2.667,21.867-8.208a3.092,3.092,0,0,0,.421-.2l.032.015.086-.084a3.065,3.065,0,0,0,.967-.944l5.377-5.249,3.176-4.882a2.614,2.614,0,0,0,.5-1.818l-.18-1.862.713-.939a.912.912,0,0,0,.119-.895l-.243-.6.436-.534a.906.906,0,0,0,.1-1Z" transform="translate(-798.324 -816.569)" fill="#fff"/>
        <g id="Group_2718" data-name="Group 2718" transform="translate(33.72 21.051)">
          <path id="Path_1967" data-name="Path 1967" d="M869.632,875.749a.347.347,0,0,1-.348-.358l.321-11.622a.351.351,0,0,1,.1-.237l1.79-1.792a.326.326,0,0,1,.269-.1l14.157.965,18.992.13,12.38-4.2a14.4,14.4,0,0,1,2.184-.5l17.837-2.636a4.973,4.973,0,0,1-.33-1.492.333.333,0,0,1-.012-.176l.009-.1a5.722,5.722,0,0,1,.125-1.234l.189-1.966a7.607,7.607,0,0,1,1.392-3.294l1.083-1.471,3.123-7.136a.966.966,0,0,1,1.193-.579.825.825,0,0,1,.115.047,1.574,1.574,0,0,1,.573.5,2.576,2.576,0,0,1,.408,1.008c.01-.012.021-.022.032-.033a.452.452,0,0,1,.079-.06.64.64,0,0,1,.386-.121.691.691,0,0,1,.547.266l.778.854-.364-1.367a1.7,1.7,0,0,1,.86-1.9.729.729,0,0,1,.259-.052.692.692,0,0,1,.661.481l1.857,4.542a.321.321,0,0,1,.023.088l.418.786a1.26,1.26,0,0,1-.136,1.389l-.3.374.164.4a1.266,1.266,0,0,1-.164,1.237l-.63.829.166,1.726a2.964,2.964,0,0,1-.569,2.06l-3.164,4.865a.381.381,0,0,1-.049.059l-5.351,5.223a3.406,3.406,0,0,1-1.021,1l-.059.058a.344.344,0,0,1-.212.1,3.125,3.125,0,0,1-.362.163l-21.867,8.208-10.038,2.674a3.277,3.277,0,0,1-.81.212l-17.975,2.108-18.7.077Zm.665-11.822-.307,11.123,18.305-.073,17.936-2.107a2.57,2.57,0,0,0,.657-.176.44.44,0,0,1,.044-.015l10.016-2.666,21.834-8.2a2.7,2.7,0,0,0,.374-.178.319.319,0,0,1,.056-.025.375.375,0,0,1,.05-.037,2.722,2.722,0,0,0,.858-.837.326.326,0,0,1,.049-.06l5.35-5.221,3.156-4.85a2.285,2.285,0,0,0,.448-1.594l-.18-1.862a.349.349,0,0,1,.07-.245l.713-.939a.565.565,0,0,0,.073-.552l-.242-.6a.349.349,0,0,1,.053-.352l.436-.534a.561.561,0,0,0,.061-.62l-.468-.882a.335.335,0,0,1-.04-.149l-1.828-4.474a.956.956,0,0,0-.447,1.081l.724,2.717a.348.348,0,0,1-.594.324l-1.755-1.926a.956.956,0,0,0-.049,1.169l1.933,2.761a.348.348,0,0,1-.086.485l-.188.132a.346.346,0,0,1-.457-.05l-1.739-1.908a.956.956,0,0,0-.049,1.17l.912,1.3a.349.349,0,0,1-.086.486l-1.524,1.071a.351.351,0,0,1-.348.031,1.884,1.884,0,0,1-.912-.909.331.331,0,0,1-.037-.063,2.2,2.2,0,0,1,.036-1.813l1.109-2.293a3.214,3.214,0,0,0,.327-1.684,2.118,2.118,0,0,0-.33-.988.879.879,0,0,0-.315-.282.3.3,0,0,0-.1-.023.258.258,0,0,0-.245.179l-3.151,7.2a.429.429,0,0,1-.039.067l-1.106,1.5a6.894,6.894,0,0,0-1.262,2.969l-.192,1.979a5.45,5.45,0,0,0-.117,1.163l-.006.068a.3.3,0,0,1,0,.043,4.459,4.459,0,0,0,.452,1.751.355.355,0,0,1-.008.314.35.35,0,0,1-.257.181l-18.284,2.7a13.45,13.45,0,0,0-2.069.474l-12.428,4.219c-.037.013-.069.037-.114.018l-19.073-.131-14.02-.954Zm73.4-18.556a.372.372,0,0,1,.032.054,1.14,1.14,0,0,0,.419.5l1.06-.744-.727-1.038a1.982,1.982,0,0,1-.28-.935l-.466.963a1.5,1.5,0,0,0-.038,1.2Zm1.322-3.9a4.129,4.129,0,0,1-.177.415l-.027.056a.735.735,0,0,1,.5-.025l-.252-.36C945.047,841.525,945.031,841.5,945.017,841.468Z" transform="translate(-831.518 -837.09)"/>
          <path id="Path_1968" data-name="Path 1968" d="M907.956,970.226l12.818-4.2a13.922,13.922,0,0,0,6.743-4.793l33.328-40.313-7.175-6.289a8.618,8.618,0,0,0-11.519.139l-45.507,41.862Z" transform="translate(-848.029 -882.596)"/>
          <path id="Path_1969" data-name="Path 1969" d="M907.11,970.1l-11.675-14.028,45.75-42.086a8.967,8.967,0,0,1,11.985-.144l7.43,6.512-.216.262-33.329,40.313a14.208,14.208,0,0,1-6.9,4.9Zm-10.715-13.964,10.947,13.153,12.594-4.122a13.514,13.514,0,0,0,6.574-4.673l33.121-40.062-6.92-6.066a8.272,8.272,0,0,0-11.055.134Z" transform="translate(-847.299 -882.065)"/>
          <path id="Path_1970" data-name="Path 1970" d="M810.484,863.015l-25.523-12.573a6.967,6.967,0,0,0-9.67,8.486l6.882,20.45a17.765,17.765,0,0,0,4.856,7.451l9.839,8.988L822.629,882.1l-9.154-16.254a6.958,6.958,0,0,0-2.991-2.832Z" transform="translate(-774.565 -844.703)"/>
          <path id="Path_1971" data-name="Path 1971" d="M796.289,895.707l-10.02-9.154a18.159,18.159,0,0,1-4.951-7.6l-6.882-20.45a7.216,7.216,0,0,1,.958-6.578,7.237,7.237,0,0,1,9.2-2.333l25.523,12.573a7.286,7.286,0,0,1,3.141,2.973l9.329,16.565Zm-14.943-46.186a6.668,6.668,0,0,0-5.385,2.815,6.522,6.522,0,0,0-.865,5.948l6.882,20.45a17.469,17.469,0,0,0,4.76,7.305l9.658,8.823,25.23-13.434-8.978-15.941a6.589,6.589,0,0,0-2.842-2.691l-25.522-12.573a6.606,6.606,0,0,0-2.937-.7Z" transform="translate(-774.041 -844.171)"/>
          <path id="Path_1972" data-name="Path 1972" d="M796.338,878.638,829,889.735l6.631,2.974a6.974,6.974,0,0,1,4.094,5.8l.482,5.934,15.782,15.344-25.739,22.777a2.219,2.219,0,0,1-3.567-.936l-5.717-16.458-20.677-20.96Z" transform="translate(-787.497 -862.163)"/>
          <path id="Path_1973" data-name="Path 1973" d="M828.125,942.687a2.576,2.576,0,0,1-2.433-1.729L820,924.575l-20.7-20.984-4.05-26.253,33.2,11.282,6.661,2.987a7.32,7.32,0,0,1,4.3,6.089l.471,5.8,15.958,15.514-26.021,23.028a2.549,2.549,0,0,1-1.693.646Zm-28.172-39.425L820.607,924.2l.026.075,5.718,16.458a1.879,1.879,0,0,0,1.775,1.26,1.835,1.835,0,0,0,1.233-.471l25.456-22.529-15.606-15.173-.493-6.064a6.625,6.625,0,0,0-3.889-5.51l-6.631-2.974-32.084-10.9Z" transform="translate(-786.84 -861.379)"/>
        </g>
        <path id="Path_1974" data-name="Path 1974" d="M690.341,861.863l.154,1.211a4.823,4.823,0,0,0,4.538,4.213l16.552.836,14.894-.862a7.775,7.775,0,0,0,7.29-8.442l-.088-1.013a5.281,5.281,0,0,0-6.2-4.746l-5.647,1.018-8.679,1.538L694.313,857A4.328,4.328,0,0,0,690.341,861.863Z" transform="translate(-689.788 -825.625)" fill="#fff"/>
        <path id="Path_1975" data-name="Path 1975" d="M711.053,867.943h-.018l-16.552-.835a5.166,5.166,0,0,1-4.866-4.517l-.154-1.211a4.677,4.677,0,0,1,4.293-5.257l18.846-1.382,14.289-2.551a5.621,5.621,0,0,1,6.6,5.059l.088,1.014a8.123,8.123,0,0,1-7.616,8.821l-14.894.861ZM727.9,852.8a5.021,5.021,0,0,0-.882.079l-14.327,2.556-18.88,1.387a3.98,3.98,0,0,0-3.654,4.473l.154,1.211a4.471,4.471,0,0,0,4.211,3.909l16.533.834,14.875-.859a7.427,7.427,0,0,0,6.963-8.065l-.088-1.013A4.965,4.965,0,0,0,727.9,852.8Z" transform="translate(-689.257 -825.096)"/>
        <path id="Path_1976" data-name="Path 1976" d="M726,883.091l-4.1-6.946-.59-1.832a7.367,7.367,0,0,0-.563-1.293,6.2,6.2,0,0,0-4.392-4.5l-1.094-.3a6.08,6.08,0,0,0-1.1-.385l-13.386-3.244-7.121-.753a3.212,3.212,0,0,0-3.53,2.859l-.222,2.092a5.321,5.321,0,0,0,4.5,5.826l9.587,1.436,8.169-.542a6.307,6.307,0,0,0-.377,2.153,6.587,6.587,0,0,0,.129,1.29l-.044.028.493,12.117a1.531,1.531,0,0,0,1.126,1.456h.009a.39.39,0,0,0,.361-.412l.357-5.063,1.113,5.757a1.786,1.786,0,0,0,1.542,1.4h.01a.4.4,0,0,0,.359-.471l-.024-.362.317,1.642a1.785,1.785,0,0,0,1.542,1.4h.011a.4.4,0,0,0,.356-.418,1.45,1.45,0,0,0,.836.327h.011a.443.443,0,0,0,.408-.475l0-15.725s-.1-.339.13-.447a.424.424,0,0,1,.443.146l.647,1.2a3.344,3.344,0,0,0,.276.435l.472.874A3.666,3.666,0,0,0,724,883.774a2.552,2.552,0,0,0,1.209.37,1.274,1.274,0,0,0,.59-.134.59.59,0,0,0,.069-.043.629.629,0,0,0,.136-.876Z" transform="translate(-689.53 -832.166)" fill="#fff"/>
        <path id="Path_1977" data-name="Path 1977" d="M718.542,896.255h-.006a2.121,2.121,0,0,1-1.869-1.657l-.114-.59a.777.777,0,0,1-.171.036,2.123,2.123,0,0,1-1.92-1.654l-.616-3.185-.171,2.424a.732.732,0,0,1-.706.736,1.857,1.857,0,0,1-1.482-1.766l-.495-12.141a.343.343,0,0,1,.021-.134,6.936,6.936,0,0,1-.106-1.2,6.645,6.645,0,0,1,.238-1.771l-7.659.508a.236.236,0,0,1-.075,0l-9.587-1.437a5.654,5.654,0,0,1-4.792-6.206l.222-2.092a3.551,3.551,0,0,1,3.913-3.168l7.12.753,13.431,3.252a6.341,6.341,0,0,1,1.161.407l1.042.282a6.505,6.505,0,0,1,4.629,4.715,7.62,7.62,0,0,1,.566,1.312l.578,1.794,4.08,6.911a.969.969,0,0,1-.23,1.335.762.762,0,0,1-.1.061,2.219,2.219,0,0,1-2.149-.232,4.02,4.02,0,0,1-1.475-1.564l-.471-.87a3.269,3.269,0,0,1-.277-.438l-.565-1.045,0,15.71a.77.77,0,0,1-.19.55.792.792,0,0,1-.54.274,1.815,1.815,0,0,1-.705-.163.727.727,0,0,1-.493.254l-.044,0Zm-1.856-3.739a.348.348,0,0,1,.341.283l.317,1.642a1.449,1.449,0,0,0,1.184,1.117c.035-.011.035-.056.035-.062a.348.348,0,0,1,.564-.281,1.1,1.1,0,0,0,.619.252h.012a.117.117,0,0,0,.061-.1l0-15.707a.691.691,0,0,1,.331-.807.77.77,0,0,1,.836.216.328.328,0,0,1,.06.081l.647,1.2a3.156,3.156,0,0,0,.249.394l.5.914a3.312,3.312,0,0,0,1.212,1.292,1.626,1.626,0,0,0,1.459.224.283.283,0,0,0,.085-.4l-4.119-6.974a.377.377,0,0,1-.032-.071l-.59-1.832a7.071,7.071,0,0,0-.537-1.235.328.328,0,0,1-.033-.09,5.864,5.864,0,0,0-4.128-4.238l-1.113-.306a6.123,6.123,0,0,0-1.087-.382l-13.385-3.245-7.075-.745a2.857,2.857,0,0,0-3.148,2.548l-.222,2.092a4.961,4.961,0,0,0,4.2,5.444l9.549,1.43,8.132-.539a.331.331,0,0,1,.3.139.348.348,0,0,1,.049.328,5.942,5.942,0,0,0-.356,2.034,6.226,6.226,0,0,0,.123,1.221.352.352,0,0,1-.032.229l.487,11.971a1.2,1.2,0,0,0,.81,1.123c-.027-.008-.011-.029-.011-.067l.358-5.086a.348.348,0,0,1,.689-.042l1.113,5.757a1.458,1.458,0,0,0,1.165,1.115l.048-.015c0-.009.011-.075.01-.084l-.025-.361a.349.349,0,0,1,.3-.369A.357.357,0,0,1,716.687,892.516Z" transform="translate(-689.001 -831.636)"/>
        <path id="Path_1978" data-name="Path 1978" d="M881.086,1002.356l3.832.536a13.909,13.909,0,0,0,8.159-1.343l49.777-24.97S938.5,962.895,938.146,963l-70.792,20.842,1.918,7.829a14.19,14.19,0,0,0,11.815,10.685Z" transform="translate(-796.633 -892.022)"/>
        <path id="Path_1979" data-name="Path 1979" d="M886.206,1002.841h0a14.2,14.2,0,0,1-1.972-.137l-3.832-.536a14.468,14.468,0,0,1-12.1-10.948l-2-8.152,71.214-20.951c.314,0,.638,0,5.035,13.823l.091.284-50.042,25.1a14.322,14.322,0,0,1-6.391,1.513ZM867.135,983.55l1.839,7.506a13.773,13.773,0,0,0,11.524,10.423l3.832.536a13.553,13.553,0,0,0,7.954-1.309l49.51-24.836c-1.48-4.645-3.825-11.761-4.424-13Z" transform="translate(-795.997 -891.49)"/>
        <path id="Path_1980" data-name="Path 1980" d="M1046.322,947.746l22.169,14.805a22.184,22.184,0,0,1,3.16,2.559l35.326,34.43s-7.5,7.626-7.261,7.313l-43.6-28.152-13.686-18.481Z" transform="translate(-902.289 -882.817)" fill="#fff"/>
        <path id="Path_1981" data-name="Path 1981" d="M1099.183,1006.682a.35.35,0,0,1-.255-.111L1055.4,978.464a.322.322,0,0,1-.09-.085L1041.626,959.9a.349.349,0,0,1-.053-.312l3.888-12.473a.347.347,0,0,1,.525-.186l22.169,14.805a22.526,22.526,0,0,1,3.209,2.6l35.326,34.429a.348.348,0,0,1,.005.494c-5.227,5.319-6.716,6.829-7.215,7.257l-.015.02,0,0C1099.28,1006.682,1099.239,1006.682,1099.183,1006.682Zm-43.35-28.769,43.319,27.973c.845-.823,4.315-4.34,6.8-6.871l-35.075-34.185a21.9,21.9,0,0,0-3.11-2.519l-21.782-14.546-3.7,11.859Z" transform="translate(-901.761 -882.288)"/>
        <path id="Path_1982" data-name="Path 1982" d="M1202.12,1076.776l-3.665,2.682-2.356-4.813a2.982,2.982,0,0,1,.915-3.717l1.651-1.208Z" transform="translate(-994.84 -956.426)"/>
        <path id="Path_1983" data-name="Path 1983" d="M1197.8,1079.182l-2.539-5.186a3.325,3.325,0,0,1,1.022-4.151l1.986-1.454,3.766,7.691Zm.208-9.737-1.315.962a2.631,2.631,0,0,0-.808,3.282l2.174,4.438,3.093-2.264Z" transform="translate(-994.31 -955.624)"/>
        <path id="Path_1984" data-name="Path 1984" d="M1208.912,1091.984l-.543-.755a4.343,4.343,0,0,0-2.477-1.682l-10.2-2.272a12.546,12.546,0,0,1-5.524-2.938l-3.232-2.9a3.89,3.89,0,0,0-2.486-1.056l-10.493,2.915,2.734,2.854a18.161,18.161,0,0,0,1.174,5.188l.583,1.528,13.25.009,16.754.011a.57.57,0,0,0,.464-.9Z" transform="translate(-981.659 -962.86)" fill="#fff"/>
        <path id="Path_1985" data-name="Path 1985" d="M1207.923,1092.705l-30.005-.019a.347.347,0,0,1-.324-.224l-.584-1.528a18.553,18.553,0,0,1-1.188-5.161l-2.647-2.764a.348.348,0,0,1,.158-.577l10.494-2.915a.324.324,0,0,1,.093-.013,4.2,4.2,0,0,1,2.717,1.144l3.232,2.9a12.228,12.228,0,0,0,5.368,2.856l10.2,2.272a4.675,4.675,0,0,1,2.683,1.818l.542.755a.918.918,0,0,1-.742,1.456Zm-29.765-.718,29.765.019v0a.221.221,0,0,0,.179-.35l-.542-.755a4.025,4.025,0,0,0-2.271-1.544l-10.2-2.273a12.925,12.925,0,0,1-5.681-3.018l-3.232-2.9a3.578,3.578,0,0,0-2.208-.965l-9.884,2.745,2.331,2.433a.347.347,0,0,1,.1.217,17.818,17.818,0,0,0,1.152,5.087Z" transform="translate(-981.13 -962.33)"/>
        <path id="Path_1986" data-name="Path 1986" d="M1215.939,1113.6l-31-.02,0-2.332,31,.02Z" transform="translate(-988.289 -981.488)"/>
        <path id="Path_1987" data-name="Path 1987" d="M1215.758,1113.42l-31.7-.02,0-3.03,31.7.02Zm-31-.718,30.3.02v-1.635l-30.3-.02Z" transform="translate(-987.759 -980.957)"/>
        <ellipse id="Ellipse_362" data-name="Ellipse 362" cx="2.782" cy="2.786" rx="2.782" ry="2.786" transform="translate(197.575 122.161)"/>
        <path id="Path_1988" data-name="Path 1988" d="M1189.521,1097.47a3.137,3.137,0,1,1,3.13-3.134,3.137,3.137,0,0,1-3.13,3.134Zm0-5.573a2.437,2.437,0,0,0,0,4.875v0a2.437,2.437,0,0,0,0-4.875Z" transform="translate(-989.165 -969.388)"/>
        <path id="Path_1989" data-name="Path 1989" d="M1027.877,910.911l10.22,15.5a14.476,14.476,0,0,1,1.25,2.337l19.475,46.128s-9.492,6.244-9.154,6.046l-28.382-43.149a13.064,13.064,0,0,1-1.78-4.091l-4.059-16.667a7.069,7.069,0,0,1,1.464-6.23l.418-.5A6.591,6.591,0,0,1,1027.877,910.911Z" transform="translate(-885.884 -858.797)" fill="#fff"/>
        <path id="Path_1990" data-name="Path 1990" d="M1049.133,980.745a.349.349,0,0,1-.328-.232l-28.336-43.079a13.39,13.39,0,0,1-1.827-4.2l-4.058-16.667a7.441,7.441,0,0,1,1.537-6.537l.418-.5a6.94,6.94,0,0,1,11.1.657l10.22,15.5a14.859,14.859,0,0,1,1.281,2.394l19.475,46.128a.348.348,0,0,1-.13.427c-2.99,1.967-8.643,5.69-9.116,6.017a.32.32,0,0,1-.053.038.413.413,0,0,1-.186.051Zm-27.293-72.981a6.228,6.228,0,0,0-4.769,2.22l-.418.5a6.741,6.741,0,0,0-1.392,5.923l4.058,16.666a12.7,12.7,0,0,0,1.732,3.981l28.187,42.853c1.424-.952,7.323-4.835,8.624-5.691L1038.5,928.352a14.185,14.185,0,0,0-1.22-2.281l-10.221-15.5a6.236,6.236,0,0,0-5.22-2.81Z" transform="translate(-885.357 -858.268)"/>
        <path id="Path_1991" data-name="Path 1991" d="M1109.131,1089.112a5.436,5.436,0,0,0,5.409.629l6.418-2.778a3.177,3.177,0,0,0,.778-5.218l-14.48-13.2-9.025,7.373,3.684,7.817Z" transform="translate(-935.962 -955.72)"/>
        <path id="Path_1992" data-name="Path 1992" d="M1111.726,1089.837a5.744,5.744,0,0,1-3.457-1.146l-7.285-5.424-3.838-8.143,9.468-7.735,14.7,13.4a3.525,3.525,0,0,1-.863,5.791l-6.428,2.782a5.752,5.752,0,0,1-2.3.477Zm-10.187-7.024,7.145,5.319a5.093,5.093,0,0,0,5.064.589l6.417-2.777a2.829,2.829,0,0,0,.682-4.64l-14.259-12.993-8.581,7.011Z" transform="translate(-935.307 -955.019)"/>
        <path id="Path_1993" data-name="Path 1993" d="M1103.253,1059.532l-7.614,3.073-3.067-7.624a2.693,2.693,0,0,1,1.488-3.5l2.628-1.061a2.686,2.686,0,0,1,3.5,1.49Z" transform="translate(-932.429 -944.659)"/>
        <path id="Path_1994" data-name="Path 1994" d="M1094.917,1062.529l-3.2-7.947a3.043,3.043,0,0,1,1.681-3.957l2.628-1.061a3.031,3.031,0,0,1,3.95,1.683l3.2,7.948Zm2.246-12.488a2.322,2.322,0,0,0-.873.171l-2.629,1.061a2.344,2.344,0,0,0-1.3,3.049l2.937,7.3,6.967-2.813-2.937-7.3a2.331,2.331,0,0,0-2.171-1.468Z" transform="translate(-931.899 -944.128)"/>
        <path id="Path_1995" data-name="Path 1995" d="M1114.351,1073.5l-13.134-11.968-1.452-3.46-1.811.763a2.728,2.728,0,0,0-1.551,3.3l.242.8-.646.528-.6-1.012a2.719,2.719,0,0,0-3.392-1.113l-4.259,1.778,3.117,4.547-.013.01,3.685,7.817,7.215,5.372a5.437,5.437,0,0,0,5.409.629l6.417-2.777a3.178,3.178,0,0,0,.777-5.218Z" transform="translate(-929.633 -949.394)" fill="#fff"/>
        <path id="Path_1996" data-name="Path 1996" d="M1104.464,1081.756a5.746,5.746,0,0,1-3.457-1.146l-7.215-5.371a.35.35,0,0,1-.107-.131L1090,1067.29a.389.389,0,0,1-.017-.046l-3.059-4.461a.35.35,0,0,1,.153-.52l4.26-1.778a3.043,3.043,0,0,1,1.189-.241,3.086,3.086,0,0,1,2.636,1.5l.4.665.154-.126-.174-.58a3.072,3.072,0,0,1,1.75-3.724l1.812-.763a.35.35,0,0,1,.456.187l1.423,3.388,13.076,11.916a3.526,3.526,0,0,1-.864,5.791l-6.428,2.782a5.719,5.719,0,0,1-2.3.478Zm-10.186-7.024,7.145,5.319a5.092,5.092,0,0,0,5.064.588l6.417-2.777a2.828,2.828,0,0,0,.682-4.64l-13.134-11.968a.346.346,0,0,1-.087-.123l-1.318-3.138-1.491.628a2.376,2.376,0,0,0-1.353,2.88l.242.8a.347.347,0,0,1-.113.371l-.647.528a.35.35,0,0,1-.28.073.346.346,0,0,1-.239-.164l-.6-1.011a2.422,2.422,0,0,0-2.959-.972l-3.865,1.613,2.874,4.193a.344.344,0,0,1,.058.148Z" transform="translate(-929.101 -948.862)"/>
        <path id="Path_1997" data-name="Path 1997" d="M881.558,960.634l4.714,4.583-27.347,19.535-3.508-10.1-1.983-2.01Z" transform="translate(-788.233 -890.595)" fill="#fff"/>
        <path id="Path_1998" data-name="Path 1998" d="M858.4,984.571a.36.36,0,0,1-.106-.016.347.347,0,0,1-.223-.218l-3.483-10.024-1.927-1.954a.349.349,0,0,1,.111-.566l28.123-12.01a.347.347,0,0,1,.379.071l4.714,4.583a.346.346,0,0,1,.1.276.35.35,0,0,1-.145.257L858.6,984.506a.343.343,0,0,1-.2.065Zm-4.883-12.338,1.622,1.644a.352.352,0,0,1,.081.131l3.356,9.66L885.2,964.646l-4.249-4.131Z" transform="translate(-787.703 -890.064)"/>
        <path id="Path_1999" data-name="Path 1999" d="M821.176,807.514l-4.917,1.47-5.5-18.472,4.918-1.47Z" transform="translate(-762.476 -787.043)"/>
        <path id="Path_2000" data-name="Path 2000" d="M804.349,812.58l6.292.812-7.019-23.554a2.607,2.607,0,0,0-3.244-1.756l-1.124.336a9.147,9.147,0,0,0-5.642,12.665l2.639,5.6a10.43,10.43,0,0,0,8.1,5.9Z" transform="translate(-751.6 -786.397)"/>
        <path id="Path_2001" data-name="Path 2001" d="M782.226,797.886a14.125,14.125,0,0,0-5.947-.388,17.857,17.857,0,0,0-2.783.673,10.234,10.234,0,0,0-4.7,3.724,10.609,10.609,0,0,0-1.636,3.279c-.436,1.371-.13,1.814.889,2.8a11.624,11.624,0,0,0,5.539,3.439c1.519.362.957-.913,1.042-2.045.069-.916-.012-1.8.115-2.721.318-2.3,1.337-4.862,3.605-5.911a8.1,8.1,0,0,1,4.991-.779c.32.052.992.524,1.3.373a3.31,3.31,0,0,0-2.413-2.446Z" transform="translate(-736.053 -792.052)"/>
        <path id="Path_2002" data-name="Path 2002" d="M833.161,816.227l-1.315-4.413.973-1.174a1.307,1.307,0,0,0-.7-2.1l-1.346-.323,0-.011-.444-.21a1.306,1.306,0,0,1-.74-1.3l.15-1.627a1.306,1.306,0,0,0-.049-.494l-1.312-4.406-2.058,2.768-.764-2.562-7.254,2.168,1.061,3.56-5.015,1.5a2.38,2.38,0,0,0-1.6,2.959l.33,1.108a2.366,2.366,0,0,0,2.81,1.626l.72,2.418-1.968,2.927-.327.44-.605-.236.048,4.847,8.891,9.211a1.392,1.392,0,0,0,2.394-.972l-.022-12.462,5.585.122a2.61,2.61,0,0,0,2.557-3.357Z" transform="translate(-763.62 -793.755)" fill="#fff"/>
        <path id="Path_2003" data-name="Path 2003" d="M823.115,833.145a1.711,1.711,0,0,1-1.241-.535l-8.891-9.211a.353.353,0,0,1-.1-.239l-.048-4.847a.35.35,0,0,1,.15-.29.343.343,0,0,1,.324-.038l.358.14.169-.227,1.867-2.776-.585-1.964a2.713,2.713,0,0,1-2.9-1.922l-.33-1.108a2.732,2.732,0,0,1,1.829-3.392l4.682-1.4-.961-3.226a.348.348,0,0,1,.234-.434l7.253-2.169a.348.348,0,0,1,.433.235l.565,1.9,1.643-2.211a.356.356,0,0,1,.34-.135.348.348,0,0,1,.273.244l1.313,4.406a1.643,1.643,0,0,1,.062.625l-.15,1.627a.961.961,0,0,0,.542.954l.443.21.01,0,1.271.306a1.655,1.655,0,0,1,.887,2.666l-.853,1.031,1.261,4.234a2.96,2.96,0,0,1-2.83,3.807l-5.3-.115.021,12.1a1.72,1.72,0,0,1-.5,1.23,1.78,1.78,0,0,1-1.251.519Zm-9.535-10.13,8.794,9.11a1.009,1.009,0,0,0,.74.322,1.079,1.079,0,0,0,.759-.315,1.012,1.012,0,0,0,.3-.736l-.022-12.462a.349.349,0,0,1,.1-.25.3.3,0,0,1,.251-.1l5.585.122h0a2.263,2.263,0,0,0,2.213-2.91l-1.315-4.413a.349.349,0,0,1,.065-.322l.973-1.174a.957.957,0,0,0-.512-1.542l-1.346-.323a.338.338,0,0,1-.133-.065l-.381-.18a1.661,1.661,0,0,1-.939-1.648l.15-1.627a.964.964,0,0,0-.035-.362l-1.115-3.74-1.643,2.211a.348.348,0,0,1-.613-.109l-.664-2.228-6.587,1.969.961,3.225a.348.348,0,0,1-.234.434l-5.015,1.5a2.033,2.033,0,0,0-1.362,2.525l.33,1.108a2.031,2.031,0,0,0,2.4,1.385.348.348,0,0,1,.412.241l.72,2.417a.35.35,0,0,1-.044.295l-2.3,3.381a.347.347,0,0,1-.406.116l-.126-.049Z" transform="translate(-763.094 -793.226)"/>
        <path id="Path_2004" data-name="Path 2004" d="M825.273,798.634l-7.428,2.22,1.137,3.816a18.631,18.631,0,0,1-2.458.855,62.056,62.056,0,0,0,5.516,3.505.783.783,0,0,0,1.152-.9l-.727-2.441a.784.784,0,0,1,.526-.975l3.759-1.124Z" transform="translate(-765.949 -792.831)"/>
        <path id="Path_2005" data-name="Path 2005" d="M846.286,814.058a.344.344,0,0,1-.165-.042.349.349,0,0,1-.141-.472l.5-.926a1.125,1.125,0,0,1,.671-.546l2.378-.712a.349.349,0,0,1,.2.669l-2.379.712a.437.437,0,0,0-.258.21l-.5.925a.348.348,0,0,1-.307.183Z" transform="translate(-783.709 -800.502)"/>
        <path id="Path_2006" data-name="Path 2006" d="M856.9,832.847a1.66,1.66,0,0,1-1.194-.511l-.451-.473a.349.349,0,0,1,.147-.575l2.166-.68a.358.358,0,0,1,.267.025.344.344,0,0,1,.17.209l.462,1.551a.349.349,0,0,1-.332.448l-1.229,0Zm-.755-1.061.064.068a.958.958,0,0,0,.691.3v.349l0-.349.764,0-.228-.766Z" transform="translate(-789.272 -812.118)"/>
        <path id="Path_2007" data-name="Path 2007" d="M789.96,800.284a1.046,1.046,0,0,1-1.342-1.051,8.1,8.1,0,0,1,1.871-5,1.045,1.045,0,1,1,1.591,1.355,5.975,5.975,0,0,0-1.376,3.74A1.044,1.044,0,0,1,789.96,800.284Z" transform="translate(-749.116 -789.953)" fill="#fff"/>
        <path id="Path_2008" data-name="Path 2008" d="M789.131,800.171l-.064,0a1.392,1.392,0,0,1-1.328-1.457,8.44,8.44,0,0,1,1.954-5.209,1.433,1.433,0,0,1,1.963-.16,1.4,1.4,0,0,1,.159,1.966,5.643,5.643,0,0,0-1.293,3.531,1.4,1.4,0,0,1-.993,1.272A1.361,1.361,0,0,1,789.131,800.171Zm1.624-6.462a.694.694,0,0,0-.531.245,7.758,7.758,0,0,0-1.789,4.789.7.7,0,0,0,.181.5.687.687,0,0,0,.482.227l.032.349v-.349a.7.7,0,0,0,.2-.029.7.7,0,0,0,.5-.636,6.316,6.316,0,0,1,1.459-3.951.7.7,0,0,0-.08-.983A.689.689,0,0,0,790.755,793.709Z" transform="translate(-748.586 -789.447)"/>
        <path id="Path_2009" data-name="Path 2009" d="M838.16,853.036a.349.349,0,0,1-.309-.188l-1.156-2.232a1.728,1.728,0,0,1,.07-1.729,1.8,1.8,0,0,1,1.523-.818l1.679.045a.349.349,0,0,1-.019.7l-1.679-.045a.992.992,0,0,0-.914.49,1.04,1.04,0,0,0-.042,1.037l1.157,2.232a.349.349,0,0,1-.148.47A.337.337,0,0,1,838.16,853.036Z" transform="translate(-778.011 -822.664)"/>
        <path id="Path_2010" data-name="Path 2010" d="M821.3,785.264l-.326.1a2.613,2.613,0,0,0-1.753,3.25l2.59,8.692,11.571-3.459-.726-2.435a9.124,9.124,0,0,0-11.356-6.146Z" transform="translate(-767.521 -784.531)"/>
        <path id="Path_2011" data-name="Path 2011" d="M821.281,797.122a.351.351,0,0,1-.166-.042.344.344,0,0,1-.168-.207l-2.59-8.693a2.962,2.962,0,0,1,1.987-3.684l.326-.1a9.461,9.461,0,0,1,11.789,6.382l.726,2.434a.349.349,0,0,1-.234.434l-11.571,3.46a.339.339,0,0,1-.1.015Zm2.1-12.425a8.768,8.768,0,0,0-2.514.37l-.326.1a2.263,2.263,0,0,0-1.519,2.816l2.491,8.359,10.9-3.261-.626-2.1A8.836,8.836,0,0,0,823.384,784.7Z" transform="translate(-766.989 -784)"/>
        <path id="Path_2012" data-name="Path 2012" d="M941.967,975.875a.35.35,0,0,1-.23-.086l-6.249-5.48a.349.349,0,0,1,.46-.524l6.114,5.362,28.094-6.5a.349.349,0,0,1,.157.68l-28.268,6.542a.367.367,0,0,1-.078.008Z" transform="translate(-837.679 -895.424)" fill="#fff"/>
        <path id="Path_2013" data-name="Path 2013" d="M762.3,927.873a.349.349,0,0,1-.348-.326l-.781-11.836a.349.349,0,0,1,.325-.371.34.34,0,0,1,.37.325l.781,11.836a.349.349,0,0,1-.324.371Z" transform="translate(-732.555 -863.259)"/>
        <path id="Path_2014" data-name="Path 2014" d="M756.833,926.226a.349.349,0,0,1-.346-.31l-.976-8.706a.35.35,0,0,1,.307-.386.355.355,0,0,1,.385.308l.977,8.705a.35.35,0,0,1-.307.386A.274.274,0,0,1,756.833,926.226Z" transform="translate(-729.137 -864.156)"/>
        <path id="Path_2015" data-name="Path 2015" d="M1063.618,851.007l-.588-1.209-.332.592-3.2,2.276.987,2.858-3.687,7.125,1.557,1.163,3.474-4.943a2.711,2.711,0,0,0,.588-1.863l-.115-1.933.773-.944a.943.943,0,0,0,.157-.921l-.228-.627.472-.536a.947.947,0,0,0,.14-1.037Z" transform="translate(-910.959 -823.708)" fill="#fff"/>
        <path id="Path_2016" data-name="Path 2016" d="M1056.812,842.611a.358.358,0,0,1,.5.08l2.7,3.194.055,0-2.741-4.239a1.4,1.4,0,0,1,.179-1.686l.008-.005a.358.358,0,0,1,.5.08l1.742,2.06-.65-2.868a1.394,1.394,0,0,1,.747-1.522l.009,0a.358.358,0,0,1,.443.247l1.757,4.8-.67,1.282-.98,1.872.331.012-.147,4.016.448.335-5.077,5.318-.163.231a2.146,2.146,0,0,1-.431-3l2.925-3.918.07-1.895-1.742-2.7a1.4,1.4,0,0,1,.179-1.686l.006-.006Z" transform="translate(-909.841 -816.4)" fill="#fff"/>
        <path id="Path_2017" data-name="Path 2017" d="M1055.276,855.634a.342.342,0,0,1-.208-.07,2.5,2.5,0,0,1-.5-3.49l2.859-3.83.061-1.675-1.683-2.6a1.745,1.745,0,0,1,.236-2.133.743.743,0,0,1,.738-.1l-.271-.419a1.743,1.743,0,0,1,.237-2.134.716.716,0,0,1,1.024.127l.806.951-.335-1.477a1.741,1.741,0,0,1,.955-1.921.723.723,0,0,1,.583.047.7.7,0,0,1,.336.424l1.749,4.772a.35.35,0,0,1-.207.448.347.347,0,0,1-.447-.208l-1.757-4.8a.975.975,0,0,0-.528,1.108l.645,2.84a.348.348,0,0,1-.6.3l-1.742-2.06a.976.976,0,0,0-.115,1.222l2.726,4.215a.35.35,0,0,1,.01.362.366.366,0,0,1-.315.176.479.479,0,0,1-.307-.126l-2.7-3.194a.976.976,0,0,0-.115,1.222l1.728,2.671a.35.35,0,0,1,.056.2l-.07,1.9a.344.344,0,0,1-.069.2l-2.925,3.917a1.8,1.8,0,0,0,.362,2.514.349.349,0,0,1-.209.628Z" transform="translate(-909.312 -815.874)"/>
        <path id="Path_2018" data-name="Path 2018" d="M1067.074,849.774a.349.349,0,0,1-.279-.14l-3.261-4.362a.349.349,0,0,1,.558-.418l3.261,4.362a.348.348,0,0,1-.278.557Z" transform="translate(-914.981 -820.64)"/>
        <path id="Path_2019" data-name="Path 2019" d="M1068.14,859.464a.348.348,0,0,1-.284-.146l-1.264-1.774a.348.348,0,1,1,.567-.4l1.264,1.774a.348.348,0,0,1-.284.551Z" transform="translate(-916.83 -828.049)"/>
        <path id="Path_2020" data-name="Path 2020" d="M1060.2,863.64a.342.342,0,0,1-.2-.064.349.349,0,0,1-.084-.485l3.472-4.931a2.381,2.381,0,0,0,.526-1.641l-.115-1.933a.353.353,0,0,1,.078-.242l.773-.944a.6.6,0,0,0,.1-.581l-.228-.627a.349.349,0,0,1,.065-.349l.471-.536a.594.594,0,0,0,.089-.654l-.553-1.2a.348.348,0,1,1,.632-.293l.551,1.193a1.288,1.288,0,0,1-.195,1.412l-.335.381.157.433a1.3,1.3,0,0,1-.214,1.262l-.686.838.106,1.8a3.055,3.055,0,0,1-.664,2.1l-3.459,4.914a.345.345,0,0,1-.283.149Z" transform="translate(-912.803 -823.2)"/>
      </g>
      <g id="Group_2720" data-name="Group 2720" transform="translate(833.731 789.551)">
        <path id="Path_2021" data-name="Path 2021" d="M1055.252,826.926l.478.018a1.339,1.339,0,0,0,1.346-1.337l.888-26.151a1.355,1.355,0,0,0-1.251-1.438l-.478-.018a1.339,1.339,0,0,0-1.346,1.337L1054,825.489A1.354,1.354,0,0,0,1055.252,826.926Z" transform="translate(-1054 -798)"/>
      </g>
    </g>
    <g id="Group_2712" data-name="Group 2712" transform="translate(-29 492.859)">
      <path id="Path_1880" data-name="Path 1880" d="M71.109,80.659l-3.287,7.292L65.4,90.73l-7.42,2.708A3.893,3.893,0,0,0,55.485,96.4l-.985,5.439,17.3-1.737V94.2l12.8-.521Z" transform="translate(-2.16 -21.156)"/>
      <path id="Path_1881" data-name="Path 1881" d="M54.4,101.941a.194.194,0,0,1-.191-.229l.985-5.439a4.1,4.1,0,0,1,2.617-3.113l7.374-2.691,2.37-2.719,3.276-7.267a.194.194,0,0,1,.14-.11.2.2,0,0,1,.171.051L84.641,93.446a.195.195,0,0,1-.126.335L71.9,94.294v5.717a.194.194,0,0,1-.174.193l-17.3,1.737ZM71.076,80.893,67.9,87.936a.2.2,0,0,1-.031.048l-2.422,2.778a.2.2,0,0,1-.079.055l-7.421,2.708a3.711,3.711,0,0,0-2.369,2.818l-.939,5.186L71.51,99.835V94.107a.194.194,0,0,1,.186-.194l12.348-.5Z" transform="translate(-2.064 -21.06)"/>
      <path id="Path_1882" data-name="Path 1882" d="M189.962,74.186V91.03H92.73L78.852,77.855l-.421-4.5,7.378-18.438,24.742,1.214,5.476-.106L117.314,56l.272-.006,1.27-.024.712-.014,1.652-.032,2.087-.04,3.048-.057,3-.059,2.364-.045,8.994-.174,3.134-.06,2.693-.052,10.643,1.6,3.869.582,7.563,1.136,1.244.186,5.573.838,9.122,9.045,1.776,1.763.76.752,1.666,1.652Z" transform="translate(-10.113 -12.6)" fill="#fff"/>
      <path id="Path_1883" data-name="Path 1883" d="M189.866,91.127H92.633a.194.194,0,0,1-.133-.053L78.623,77.9a.192.192,0,0,1-.059-.123l-.421-4.505a.182.182,0,0,1,.013-.09l7.377-18.438a.19.19,0,0,1,.19-.122l24.742,1.214,35.973-.694,28.924,4.343a.189.189,0,0,1,.107.054L190,73.952a.2.2,0,0,1,.057.138V90.933A.2.2,0,0,1,189.866,91.127Zm-97.155-.389h96.961V74.171L175.241,59.861l-28.83-4.332-35.954.7L85.841,55.017,78.532,73.283l.409,4.386Z" transform="translate(-10.017 -12.503)"/>
      <path id="Path_1884" data-name="Path 1884" d="M162.476,102.842h-3.712c.6-2.766.724-7.288.686-12.386Z" transform="translate(-36.811 -24.412)"/>
      <path id="Path_1885" data-name="Path 1885" d="M173.545,95.229s.055-.16.154-.441c.012-.035.025-.071.039-.111l.021-.059c0-.016.009-.033.015-.05l.063-.222c.021-.082.052-.162.073-.26l.063-.314c.055-.22.068-.465.107-.725.013-.262.042-.541.033-.837.007-.294-.019-.6-.037-.918-.034-.315-.065-.639-.119-.963s-.112-.651-.172-.973-.132-.64-.206-.947c-.141-.615-.288-1.189-.413-1.683-.25-.987-.417-1.645-.417-1.645s.307.6.766,1.513c.23.454.5.983.776,1.562.141.288.278.592.419.9s.277.628.4.957.242.66.355.992.2.671.271,1.007c.085.332.127.665.18.981.026.319.073.624.07.908,0,.143.007.28.009.41s-.012.266-.017.389-.016.24-.023.347c0,.057-.008.1-.013.142s-.009.079-.013.116c-.035.3-.054.464-.054.464Z" transform="translate(-41.459 -22.626)"/>
      <path id="Path_1886" data-name="Path 1886" d="M159.968,74.807c.18.336.349.675.521,1.013s.339.678.507,1.018q.5,1.022.978,2.05c.317.686.635,1.373.943,2.063l.232.517c.079.176.152.337.232.533a10.694,10.694,0,0,1,.4,1.154l.6,2.185.29,1.094.287,1.1.28,1.1.276,1.1.536,2.2-2.266.286c-.055-1.182-.12-2.364-.16-3.547l-.067-1.774-.051-1.775q-.028-.886-.042-1.774l-.032-1.775-.015-1.775a9.309,9.309,0,0,0-.133-1.576c-.045-.261-.1-.515-.174-.776l-.227-.859c-.149-.573-.3-1.144-.448-1.719L162,73.151a9.151,9.151,0,0,0-.562-1.53,9.637,9.637,0,0,0-.837-1.439c-.172-.247-.338-.476-.514-.738s-.332-.527-.478-.8a8.928,8.928,0,0,1-.392-.835l-.336-.827c-.219-.554-.438-1.107-.644-1.667.35.483.688.972,1.026,1.462l.5.738c.161.242.331.469.508.692s.365.436.559.638l.615.629a9.744,9.744,0,0,1,2.067,3.173l.083.21.082.218.154.417.308.833c.208.555.4,1.114.6,1.67l.3.836c.1.3.2.622.278.94a10.148,10.148,0,0,1,.29,1.943l.1,1.773.086,1.773q.045.886.077,1.773l.069,1.773L166,88.584c.039,1.182.053,2.366.077,3.549l-2.265.286-.431-2.222-.206-1.113-.2-1.113-.2-1.116-.194-1.116-.366-2.235A9.042,9.042,0,0,0,162,82.482l-.309-1.075c-.211-.725-.412-1.455-.614-2.185s-.392-1.462-.578-2.2c-.091-.368-.186-.735-.271-1.106s-.178-.738-.257-1.111Z" transform="translate(-36.636 -16.057)"/>
      <path id="Path_1887" data-name="Path 1887" d="M163.765,57.513l.247.277c.156.183.393.447.678.793s.63.767,1.016,1.257c.194.242.388.483.613.73s.461.5.722.752.537.5.837.746q.224.183.459.364l.5.371c.354.256.708.53,1.075.8.216.173.365.278.567.458s.4.349.576.528a11.364,11.364,0,0,1,1.056,1.162,11.867,11.867,0,0,1,.929,1.323,13.3,13.3,0,0,1,.767,1.456,14.958,14.958,0,0,1,.578,1.558c.076.267.151.535.21.806l.089.406.073.373c.1.495.186.992.277,1.484s.178.979.256,1.464.164.96.233,1.431c.149.941.278,1.854.393,2.721.051.437.115.841.152,1.3a12.5,12.5,0,0,1,.033,1.262c-.015.4-.041.787-.088,1.149s-.109.7-.17,1c-.12.612-.231,1.145-.33,1.584s-.186.782-.241,1.017l-.093.359s-.015-.128-.043-.369-.066-.593-.1-1.04-.077-.991-.112-1.614c-.019-.316-.031-.633-.066-.964s-.075-.678-.138-1.036-.134-.724-.232-1.1c-.09-.351-.214-.775-.332-1.193-.234-.843-.474-1.733-.706-2.657-.121-.461-.232-.933-.347-1.409s-.23-.959-.338-1.447-.225-.977-.326-1.474l-.079-.371-.079-.335c-.051-.224-.118-.445-.181-.666a12.892,12.892,0,0,0-1.056-2.53c-.112-.2-.223-.395-.345-.584l-.178-.286-.189-.278c-.255-.367-.526-.716-.809-1.049-.142-.172-.282-.322-.421-.472s-.337-.339-.463-.471c-.328-.32-.654-.628-.962-.937l-.47-.47c-.156-.164-.309-.325-.45-.493a11.943,11.943,0,0,1-.772-.995c-.228-.333-.433-.658-.609-.977s-.334-.633-.459-.921c-.253-.57-.467-1.07-.638-1.486s-.3-.747-.387-.971l-.13-.349Z" transform="translate(-38.473 -13.464)"/>
      <path id="Path_1888" data-name="Path 1888" d="M181.725,68.176l-6.228,6.6L183.282,87.8l-16.633.256a6.916,6.916,0,0,0-6.121,4,1.715,1.715,0,0,0,.562,2.121l1.777,1.259h30.449l.111-1.392a10.111,10.111,0,0,0-1.155-5.557l-2.589-4.858h7.266L197.3,68.87Z" transform="translate(-37.344 -17.008)"/>
      <path id="Path_1889" data-name="Path 1889" d="M193.221,95.534h-30.45a.191.191,0,0,1-.111-.035l-1.777-1.259a1.909,1.909,0,0,1-.626-2.363,7.066,7.066,0,0,1,6.292-4.117l16.3-.25-7.613-12.733a.194.194,0,0,1,.025-.234l6.229-6.6a.192.192,0,0,1,.149-.06l15.571.694a.2.2,0,0,1,.186.2l-.346,14.759a.194.194,0,0,1-.194.19h-6.943l2.437,4.572a10.289,10.289,0,0,1,1.177,5.664l-.111,1.393A.194.194,0,0,1,193.221,95.534Zm-30.389-.389h30.21l.1-1.214a9.9,9.9,0,0,0-1.132-5.449l-2.59-4.858a.195.195,0,0,1,.171-.286h7.077L197,68.959l-15.293-.682L175.643,74.7l7.71,12.9a.194.194,0,0,1-.163.294l-16.633.256a6.68,6.68,0,0,0-5.949,3.892,1.519,1.519,0,0,0,.5,1.879Z" transform="translate(-37.248 -16.911)"/>
      <path id="Path_1890" data-name="Path 1890" d="M86.257,63.44c.029.055.058.111.085.168a19.584,19.584,0,0,0,1.932,3.79c.893,1.118,1.8,2.2,2.617,3.384a10.617,10.617,0,0,1,1.649,6.972c.029-.348-.661-1.244-.814-1.586-.313-.7-.593-1.415-.939-2.1a22.545,22.545,0,0,0-2.1-2.946,15.318,15.318,0,0,1-2.237-3.689A8.336,8.336,0,0,1,86.257,63.44Z" transform="translate(-12.665 -15.434)"/>
      <path id="Path_1891" data-name="Path 1891" d="M82.412,73.152a24.138,24.138,0,0,0,.8,3.375,11.663,11.663,0,0,0,2.717,3.123,30.718,30.718,0,0,1,2.759,3.1,6.807,6.807,0,0,1,.985,1.973c.112.342.208,1.628.461,1.831,0,0-.05-.045-.136-.132-.992-1-1.85-2.137-2.937-3.041a38.15,38.15,0,0,1-3.272-3.073,6.458,6.458,0,0,1-2.01-3.558A6.746,6.746,0,0,1,82.412,73.152Z" transform="translate(-11.212 -18.661)"/>
      <path id="Path_1892" data-name="Path 1892" d="M78.447,81.7s.019.065.047.184a13.2,13.2,0,0,0,.965,3.619,15.859,15.859,0,0,0,2.754,2.968,26.591,26.591,0,0,1,2.642,3.02,9.16,9.16,0,0,1,1.32,3.635c-.065-.346-.961-1.03-1.2-1.309a12.267,12.267,0,0,0-1.519-1.574,38.919,38.919,0,0,1-3.14-2.858,8.234,8.234,0,0,1-2.329-3.3,6.9,6.9,0,0,1,.393-4.206C78.422,81.761,78.447,81.7,78.447,81.7Z" transform="translate(-9.902 -21.502)"/>
      <path id="Path_1893" data-name="Path 1893" d="M106.934,70.1l-3.806,10.418L97.309,91.853A5.181,5.181,0,0,1,92.7,94.672H67.834l-5.423,4.083a3.011,3.011,0,0,1-1.81.606H50.006A1.72,1.72,0,0,1,48.514,96.8l1.418-2.522a6.6,6.6,0,0,1,2.651-2.592l9.3-4.951a3,3,0,0,1,.875-.3l19.132-3.22L82.8,77.4l2.508-5.469,11.419-5.383,3.114-10.071,6.747.174Z" transform="translate(-0.096 -13.118)" fill="#fff"/>
      <path id="Path_1894" data-name="Path 1894" d="M60.5,99.458H49.91a1.914,1.914,0,0,1-1.66-2.854l1.418-2.522A6.777,6.777,0,0,1,52.4,91.414l9.3-4.95a3.185,3.185,0,0,1,.932-.322l19-3.2.887-5.676a.2.2,0,0,1,.015-.051l2.509-5.469a.2.2,0,0,1,.093-.095l11.342-5.346,3.089-9.99a.2.2,0,0,1,.19-.137l6.747.174a.2.2,0,0,1,.189.19L107.032,70a.19.19,0,0,1-.012.072l-3.806,10.418L97.386,91.846a5.354,5.354,0,0,1-4.78,2.924H67.8L62.43,98.814A3.219,3.219,0,0,1,60.5,99.458Zm22.386-22.1-.9,5.787a.193.193,0,0,1-.16.162L62.695,86.525a2.759,2.759,0,0,0-.817.282l-9.3,4.95A6.4,6.4,0,0,0,50,94.273L48.586,96.8A1.525,1.525,0,0,0,49.91,99.07H60.5A2.835,2.835,0,0,0,62.2,98.5l5.424-4.083a.189.189,0,0,1,.116-.039H92.605a4.969,4.969,0,0,0,4.435-2.713l5.819-11.332,3.784-10.361L106.3,56.74l-6.417-.166-3.071,9.931a.193.193,0,0,1-.1.118L85.358,71.976Z" transform="translate(0 -13.021)"/>
      <path id="Path_1895" data-name="Path 1895" d="M181.49,57.044l-5.229,9.18a8.707,8.707,0,0,0,.491,9.384l8.337,11.615-11.961.256a6.915,6.915,0,0,0-6.121,4,1.715,1.715,0,0,0,.561,2.121l1.777,1.259H199.8l.111-1.393a10.117,10.117,0,0,0-1.155-5.557l-1.323-2.482a1.614,1.614,0,0,1,1.418-2.376h6.466l8.742-13.435L204.8,60.627Z" transform="translate(-39.497 -13.308)" fill="#fff"/>
      <g id="Group_2711" data-name="Group 2711" transform="translate(81.574 42.887)">
        <path id="Path_1896" data-name="Path 1896" d="M199.7,94.96h-30.45a.193.193,0,0,1-.112-.035l-1.777-1.259a1.908,1.908,0,0,1-.626-2.362,7.068,7.068,0,0,1,6.293-4.117l11.593-.247L176.5,75.625a8.924,8.924,0,0,1-.5-9.594l5.23-9.18a.2.2,0,0,1,.2-.1l23.313,3.583a.192.192,0,0,1,.105.053l9.252,8.993a.2.2,0,0,1,.027.246l-8.742,13.435a.194.194,0,0,1-.162.088h-6.466a1.42,1.42,0,0,0-1.248,2.09l1.323,2.482A10.284,10.284,0,0,1,200,93.39l-.111,1.392A.2.2,0,0,1,199.7,94.96Zm-30.388-.389H199.52l.1-1.213a9.9,9.9,0,0,0-1.133-5.45l-1.323-2.482a1.808,1.808,0,0,1,1.589-2.662h6.361l8.6-13.213-9.094-8.839L181.5,57.16l-5.164,9.064a8.531,8.531,0,0,0,.48,9.174l8.337,11.615a.194.194,0,0,1-.153.308l-11.961.255a6.681,6.681,0,0,0-5.95,3.893,1.518,1.518,0,0,0,.5,1.88Z" transform="translate(-120.974 -56.098)"/>
        <path id="Path_1897" data-name="Path 1897" d="M149.859,66.355s.054.079.148.228.232.368.395.652.347.635.551,1.046.411.883.625,1.4.411,1.092.624,1.7c.186.613.393,1.26.552,1.94.175.678.323,1.385.455,2.106q.1.542.18,1.092l.082.551.066.553c.04.369.087.738.116,1.107s.053.736.079,1.1.037.726.047,1.084.026.71.019,1.058c0,.7-.014,1.367-.049,2s-.083,1.237-.14,1.791-.128,1.061-.2,1.51-.14.839-.207,1.16-.129.573-.167.745-.067.263-.067.263-.027-.091-.071-.263-.109-.422-.176-.741-.148-.706-.237-1.148-.17-.941-.266-1.484-.179-1.13-.274-1.75-.183-1.271-.269-1.946-.182-1.368-.26-2.074l-.259-2.135c-.335-2.864-.669-5.729-.921-7.878-.062-.543-.119-1.042-.17-1.484s-.089-.839-.124-1.161-.053-.584-.071-.759S149.859,66.355,149.859,66.355Z" transform="translate(-115.425 -59.289)"/>
        <path id="Path_1898" data-name="Path 1898" d="M148.054,102.842h-2.247a79.669,79.669,0,0,0,.688-12.386A68.67,68.67,0,0,1,148.054,102.842Z" transform="translate(-114.078 -67.299)"/>
        <path id="Path_1899" data-name="Path 1899" d="M151.976,65.554s-.313-.688-.781-1.721c-.235-.518-.508-1.12-.8-1.765-.146-.318-.3-.672-.447-.97a9.623,9.623,0,0,0-.528-.918c-.193-.3-.4-.592-.618-.873s-.437-.548-.658-.8-.445-.484-.658-.7-.425-.408-.622-.578c-.1-.09-.194-.164-.283-.238s-.178-.144-.259-.2-.162-.124-.228-.166-.126-.082-.18-.118l-.075-.051c-.032-.019-.06-.038-.087-.053l-.106-.065,3.048-.057c.08.106.158.218.237.332.194.284.389.586.58.906s.375.654.55,1,.345.706.492,1.074a11.1,11.1,0,0,1,.4,1.124c.114.394.169.738.245,1.088.146.694.281,1.343.4,1.9Z" transform="translate(-114.024 -55.94)"/>
        <path id="Path_1900" data-name="Path 1900" d="M161.791,64.921l-3.77-4.073-.022-.03c-.175-.218-.345-.439-.51-.658L157,59.5c-.323-.446-.638-.892-.949-1.342-.457-.658-.907-1.319-1.352-1.987l2.364-.046c.166.4.331.795.5,1.19.211.494.425.988.646,1.476l.335.728c.114.24.229.478.349.712l-.022-.03Z" transform="translate(-117.033 -55.888)"/>
        <path id="Path_1901" data-name="Path 1901" d="M177.553,64.5c-.026,1.295-.073,2.155-.073,2.155s-.085-.859-.261-2.137c-.087-.638-.2-1.383-.341-2.169-.071-.395-.155-.8-.249-1.2-.052-.2-.1-.41-.155-.588-.032-.094-.052-.18-.088-.282l-.107-.292,0,0,0,0-.008-.014-.016-.03-.027-.058c-.018-.038-.044-.076-.068-.116-.042-.076-.1-.154-.148-.23-.112-.154-.228-.306-.357-.452a10.116,10.116,0,0,0-.813-.835c-.562-.522-1.132-.976-1.629-1.355s-.925-.676-1.223-.88c-.108-.072-.2-.134-.273-.184l3.133-.059c.369.424.767.908,1.16,1.448a12.084,12.084,0,0,1,.725,1.11c.113.2.222.41.321.628.045.114.1.222.136.344.02.06.042.116.059.18l.056.206.062.316c.022.106.036.232.053.346.038.238.046.449.07.668q.047.652.062,1.265C177.569,63.1,177.563,63.855,177.553,64.5Z" transform="translate(-122.688 -55.772)"/>
        <path id="Path_1902" data-name="Path 1902" d="M190.436,92.985s-.027-.082-.068-.236c-.01-.041-.023-.076-.033-.134s-.021-.1-.033-.157a2.149,2.149,0,0,1-.063-.4,3.2,3.2,0,0,1-.007-.528,2.789,2.789,0,0,1,.023-.3l.056-.321a4.387,4.387,0,0,1,.59-1.421,4.53,4.53,0,0,1,1.335-1.337,4.756,4.756,0,0,1,2.048-.732l.288-.031c.084-.007.157-.013.236-.017l.47-.025c.315-.019.635-.035.957-.043.644-.024,1.3-.037,1.952-.037s1.309.011,1.952.035q.483.013.957.042l.47.026.117.006h.015l.049,0h.007l.029,0,.057.007.23.027a5.183,5.183,0,0,1,.6.116c.091.025.182.045.27.075l.26.1a4.683,4.683,0,0,1,.941.5,4.51,4.51,0,0,1,1.31,1.363A4.219,4.219,0,0,1,206.015,91c.072.416.111.76.146,1.056s.047.528.063.686.015.245.015.245-.053-.068-.144-.2-.228-.321-.386-.57-.349-.558-.558-.891a3.993,3.993,0,0,0-.771-.883,3.688,3.688,0,0,0-1.107-.66,3.532,3.532,0,0,0-.647-.182,3.814,3.814,0,0,0-.639-.054l-.231.009-.058,0h-.016l-.117.007-.47.025c-.315.019-.635.033-.957.042-.644.025-1.3.035-1.952.036s-1.309-.014-1.952-.038c-.322-.007-.642-.024-.957-.043l-.471-.025-.229-.015-.172-.007a3.523,3.523,0,0,0-1.333.206,3.718,3.718,0,0,0-1.12.641,4.243,4.243,0,0,0-.788.869c-.049.077-.1.152-.143.224s-.079.15-.119.221a3.958,3.958,0,0,0-.187.405,3.241,3.241,0,0,0-.127.365c-.017.055-.033.106-.049.152s-.025.087-.035.124c-.043.152-.069.234-.069.234Z" transform="translate(-128.84 -66.24)"/>
        <path id="Path_1903" data-name="Path 1903" d="M188.227,89.511l-.019-.078c-.013-.051-.028-.132-.043-.23s-.041-.222-.055-.372-.027-.33-.022-.527a5.435,5.435,0,0,1,.218-1.424,5.63,5.63,0,0,1,.862-1.721,5.809,5.809,0,0,1,1.745-1.566l.279-.16.3-.138a5.678,5.678,0,0,1,.621-.242c.113-.041.2-.069.293-.1l.279-.086.566-.171c.38-.118.769-.228,1.162-.34s.792-.226,1.2-.331c.805-.219,1.626-.43,2.45-.628l.618-.146.309-.072.077-.017.081-.017.019,0,.039-.007.156-.027.312-.053a1.573,1.573,0,0,1,.191-.02l.208-.015.414-.023.38.017c.126.009.252.007.377.026l.372.056a5.7,5.7,0,0,1,.723.174,2.727,2.727,0,0,1,.348.117l.34.132c.224.091.431.216.641.322a6.143,6.143,0,0,1,1.976,1.819c.113.181.228.355.329.533s.183.365.265.543l.194.547c.058.18.095.363.136.538a4,4,0,0,1,.079.52,4.584,4.584,0,0,1,.041.479c.009.293.023.57.027.833.012.524.016.982.012,1.36s-.017.678-.021.881-.015.313-.015.313-.045-.1-.12-.289-.189-.466-.317-.821-.284-.787-.449-1.283c-.084-.248-.166-.513-.256-.793-.044-.147-.092-.269-.141-.4a2.909,2.909,0,0,0-.161-.383,4.9,4.9,0,0,0-1-1.445,4.962,4.962,0,0,0-1.55-1.064c-.153-.053-.3-.118-.455-.168L202,83.5a1.367,1.367,0,0,0-.237-.058,3.694,3.694,0,0,0-.484-.071l-.244-.025c-.081-.01-.164,0-.246,0h-.246l-.213.026-.106.009a.736.736,0,0,0-.123.015l-.31.061-.156.031-.039.007-.019,0,.052-.011-.01,0-.077.019-.308.076-.617.151c-.824.2-1.651.384-2.468.555-.407.09-.813.171-1.214.248s-.8.158-1.19.226l-1.134.2a3.739,3.739,0,0,0-.459.1l-.224.063-.217.078a5.047,5.047,0,0,0-1.52.886,5.536,5.536,0,0,0-1.044,1.169,6.393,6.393,0,0,0-.584,1.129c-.068.168-.109.319-.162.455s-.069.264-.095.361c-.053.2-.076.3-.076.3Z" transform="translate(-128.13 -64.155)"/>
        <path id="Path_1904" data-name="Path 1904" d="M186.7,83.5l-.054-.389a6.36,6.36,0,0,1-.017-1.132,6.618,6.618,0,0,1,.4-1.75,6.879,6.879,0,0,1,1.234-2.048,7.225,7.225,0,0,1,2.314-1.737c.833-.4,1.713-.82,2.629-1.237.457-.212.925-.419,1.4-.628s.953-.423,1.439-.628c.969-.421,1.963-.827,2.955-1.235s1.993-.8,2.982-1.168q.739-.285,1.471-.549c.487-.178.965-.357,1.441-.521.949-.337,1.871-.65,2.749-.939l.65-.21c.214-.067.417-.139.652-.206a7.015,7.015,0,0,1,1.376-.257c.111-.009.221-.015.33-.019l.3-.007.566-.009,1.048-.006c.658,0,1.233.009,1.707.023s.847.034,1.1.043l.391.023-.375.114c-.245.069-.6.178-1.062.3s-1.015.265-1.655.42l-1.02.238-.553.123-.283.062c-.087.02-.174.043-.262.067a6.2,6.2,0,0,0-1.044.392l-1.19.586c-.833.4-1.713.82-2.629,1.237-.457.213-.926.418-1.4.628s-.953.422-1.439.628c-.969.421-1.963.825-2.955,1.234s-1.994.795-2.983,1.166c-.493.19-.984.372-1.472.549s-.966.355-1.442.52c-.948.338-1.871.65-2.749.938a6.57,6.57,0,0,0-1.089.457,5.352,5.352,0,0,0-.49.286c-.156.1-.3.214-.449.322a6.723,6.723,0,0,0-1.373,1.472,7.4,7.4,0,0,0-.755,1.432,8.037,8.037,0,0,0-.313,1.032l-.082.385Z" transform="translate(-127.639 -60.109)"/>
        <path id="Path_1905" data-name="Path 1905" d="M204.959,60.847h0c-.188.076-.425.172-.71.276-.385.144-.855.312-1.4.5-.27.092-.558.184-.863.284s-.584.2-.887.326a9.349,9.349,0,0,0-1.794,1,8.711,8.711,0,0,0-.853.688q-.455.424-.931.863c-.318.3-.65.592-.985.892s-.674.6-1.02.9c-.688.6-1.4,1.2-2.113,1.8s-1.439,1.174-2.159,1.741c-.357.286-.715.562-1.072.834s-.708.545-1.06.8-.689.51-1.024.756a9.493,9.493,0,0,0-.849.7,9.062,9.062,0,0,0-1.341,1.562,9.945,9.945,0,0,0-.875,1.568,12.063,12.063,0,0,0-.491,1.341c-.053.194-.1.369-.142.518s-.063.292-.087.4l-.069.332-.018-.084c-.012-.056-.031-.142-.047-.252s-.04-.244-.064-.4-.036-.353-.045-.564a8.323,8.323,0,0,1,.079-1.538,8.753,8.753,0,0,1,.54-1.963A8.86,8.86,0,0,1,185.909,72c.07-.086.138-.174.208-.26s.15-.168.225-.252c.148-.172.314-.33.478-.494.317-.31.626-.585.949-.885s.65-.594.985-.892.672-.6,1.019-.9c.689-.6,1.395-1.206,2.11-1.8s1.439-1.178,2.159-1.743c.357-.286.715-.564,1.072-.835s.708-.544,1.058-.8c.176-.13.348-.26.522-.389.085-.062.172-.126.255-.19l.142-.1.13-.09a9.041,9.041,0,0,1,3.495-1.48,9.432,9.432,0,0,1,1.056-.13c.319-.02.62-.042.907-.056.377-.019.724-.036,1.034-.045Z" transform="translate(-126.789 -57.397)"/>
        <path id="Path_1906" data-name="Path 1906" d="M195.782,58.669c-.626.28-1.83.821-2.137.987-.105.057-.221.12-.349.188l-.186.1c-.066.038-.136.076-.208.116a9.84,9.84,0,0,0-.843.536,10.091,10.091,0,0,0-1.884,1.741c-.3.35-.622.8-.947,1.222s-.658.865-.989,1.3c-2.607,3.429-5.214,6.86-5.3,6.966.066-.118,2.181-3.873,4.3-7.628.269-.477.538-.952.8-1.423s.5-.919.806-1.4a11.981,11.981,0,0,1,1.924-2.338,11.367,11.367,0,0,1,.943-.8l.2-.148Z" transform="translate(-126.421 -56.541)"/>
        <path id="Path_1907" data-name="Path 1907" d="M233.231,77.5a7.84,7.84,0,0,0-.891.488c-.469.312-1.13.75-1.87,1.319-.183.142-.377.292-.566.454s-.387.33-.584.506-.388.371-.59.562c-.186.2-.393.4-.576.624-.093.11-.19.22-.285.332s-.182.232-.273.348c-.19.232-.353.486-.53.736s-.327.518-.491.785c-.144.276-.306.544-.441.828s-.281.586-.421.879c-.071.146-.142.292-.213.438s-.164.3-.244.444-.166.3-.251.436-.176.276-.263.412c-.169.276-.359.531-.538.787-.367.506-.745.97-1.116,1.4-.183.216-.373.416-.55.614s-.361.379-.532.557-.343.338-.5.5-.318.3-.464.434c-.3.268-.556.5-.776.682-.409.346-.666.538-.7.56.032-.031.265-.252.626-.636.195-.206.427-.463.688-.76.127-.15.263-.312.407-.48s.285-.354.439-.544.3-.395.456-.6.313-.428.467-.658c.311-.46.626-.95.919-1.474.144-.262.3-.526.425-.8.067-.136.136-.276.2-.414s.118-.28.178-.421.122-.274.176-.424l.162-.46c.107-.308.216-.618.32-.929s.249-.63.373-.946c.141-.308.281-.618.435-.919s.31-.6.49-.874c.085-.142.17-.284.257-.423s.184-.27.273-.4c.178-.272.379-.516.562-.768s.385-.483.582-.7.385-.438.58-.634.379-.39.562-.568c.736-.712,1.377-1.25,1.816-1.624l.49-.414Z" transform="translate(-138.592 -62.408)"/>
        <path id="Path_1908" data-name="Path 1908" d="M142.766,62.4c0,.232-.012.467-.03.7s-.043.482-.069.7q-.081.687-.166,1.4c-.225,1.9-.464,3.925-.7,5.952s-.479,4.053-.7,5.954l-.166,1.4a10.877,10.877,0,0,1-.223,1.352c-.22.863-.447,1.65-.644,2.393-.754,2.761-1.274,4.661-1.338,4.9.05-.228.477-2.155,1.094-4.957.162-.744.355-1.561.524-2.407a10.9,10.9,0,0,0,.154-1.317c.03-.46.064-.928.1-1.406.132-1.909.271-3.943.411-5.98s.282-4.071.411-5.98q.051-.717.1-1.406c.015-.236.029-.442.034-.656s0-.421-.006-.626a9.546,9.546,0,0,0-.369-2.281,9.357,9.357,0,0,0-.333-.959c-.057-.14-.138-.322-.195-.448l-.2-.438c-.257-.564-.481-1.058-.666-1.465-.061-.136-.12-.262-.172-.376l1.653-.032c.148.374.32.811.516,1.3.058.144.115.294.178.446.071.178.122.31.188.5a10.082,10.082,0,0,1,.333,1.13A11,11,0,0,1,142.766,62.4Z" transform="translate(-111.725 -55.988)"/>
        <path id="Path_1909" data-name="Path 1909" d="M138.878,66.105c-.038.276-.083.546-.14.81s-.115.514-.172.764c-.227,1-.438,1.931-.62,2.729-.341,1.5-.574,2.524-.6,2.649.016-.126.156-1.172.357-2.693.107-.813.233-1.759.369-2.775.032-.252.066-.508.1-.768s.05-.512.06-.772a9.559,9.559,0,0,0-.062-1.568c-.03-.262-.072-.512-.122-.777s-.1-.534-.154-.8c-.1-.526-.2-1.046-.3-1.548-.194-1.006-.373-1.945-.529-2.747-.033-.182-.067-.357-.1-.522-.126-.654-.229-1.192-.3-1.566l.273-.006,1.27-.024c.046.472.11,1.134.19,1.922.08.817.174,1.767.275,2.785.05.51.1,1.036.156,1.57.026.268.052.536.079.809s.048.564.054.847a10.626,10.626,0,0,1-.085,1.68Z" transform="translate(-111.041 -56.012)"/>
        <path id="Path_1910" data-name="Path 1910" d="M116.246,66.03a6.6,6.6,0,0,0-.227,1.3,12.173,12.173,0,0,1-.5,1.843,6.3,6.3,0,0,1-1.813,2.331c-.717.562-1.592.469-2.438.776-1.995.724-4.251,1.048-6.034,2.241a.009.009,0,0,0,0-.011,8.559,8.559,0,0,1-2.356,1.624,1.179,1.179,0,0,1,.1-.3c.047-.118.162-.523.213-.636a7,7,0,0,1,4.031-3.593c.906-.38,1.845-.694,2.783-.983,2.185-.671,4.243-1.122,5.5-3.265C115.771,66.919,116.007,66.473,116.246,66.03Z" transform="translate(-99.812 -59.181)"/>
        <path id="Path_1911" data-name="Path 1911" d="M115.278,78.74a5.931,5.931,0,0,1-1.835,3.635,6.518,6.518,0,0,1-3.552,1.238,41.868,41.868,0,0,1-5.525.3,7.256,7.256,0,0,0-3.291.4,3.335,3.335,0,0,1-.672.269,1.015,1.015,0,0,0-.44.119,3.464,3.464,0,0,1,2.082-1.891,11.435,11.435,0,0,1,3.019-.714c.5-.064,1-.112,1.5-.169,1.479-.166,2.97-.154,4.447-.308C112.957,81.416,113.965,79.988,115.278,78.74Z" transform="translate(-98.843 -63.405)"/>
        <path id="Path_1912" data-name="Path 1912" d="M113.633,88.212A7.246,7.246,0,0,1,112.3,91.36c-1.208,1.363-2.925,1.623-4.638,1.8a44.921,44.921,0,0,1-5.319.234c-1.287-.023-2.822.549-4.059.236a13.5,13.5,0,0,1,3.533-1.761,38.1,38.1,0,0,1,5.1-.639,10.908,10.908,0,0,0,4.115-.588C112.139,90.1,112.738,89,113.633,88.212Z" transform="translate(-98.285 -66.553)"/>
        <path id="Path_1913" data-name="Path 1913" d="M177.749,106.885a2.8,2.8,0,0,1-.146-5.6l39.69-2.113a4.946,4.946,0,0,0,3.419-8.218l-1.795-2.026a2.8,2.8,0,1,1,4.172-3.722l1.795,2.026a10.544,10.544,0,0,1-7.295,17.534l-39.69,2.113c-.05,0-.1,0-.15,0Z" transform="translate(-123.767 -65.242)"/>
        <path id="Path_1914" data-name="Path 1914" d="M177.652,106.982A3,3,0,0,1,177.5,101l39.69-2.114a4.752,4.752,0,0,0,3.286-7.9l-1.8-2.026a2.989,2.989,0,1,1,4.461-3.979l1.795,2.026a10.738,10.738,0,0,1-7.43,17.857l-39.689,2.114C177.759,106.98,177.706,106.982,177.652,106.982Zm43.254-22.618a2.608,2.608,0,0,0-1.94,4.338l1.795,2.026a5.137,5.137,0,0,1-3.555,8.542l-39.689,2.114a2.607,2.607,0,0,0,.275,5.206l39.69-2.114a10.359,10.359,0,0,0,7.161-17.211l-1.795-2.026A2.6,2.6,0,0,0,220.906,84.364Z" transform="translate(-123.67 -65.145)"/>
      </g>
      <path id="Path_1915" data-name="Path 1915" d="M244.98,85.674l1.325,1.495-4.172,3.722-1.325-1.5Z" transform="translate(-64.077 -22.823)" fill="#fff"/>
      <path id="Path_1916" data-name="Path 1916" d="M242.027,90.988h-.011a.2.2,0,0,1-.133-.065l-1.325-1.5a.2.2,0,0,1,.017-.274l4.172-3.722a.206.206,0,0,1,.14-.049.2.2,0,0,1,.133.065l1.324,1.5a.194.194,0,0,1-.016.274l-4.172,3.722A.2.2,0,0,1,242.027,90.988Zm-1.051-1.673,1.067,1.205,3.882-3.463-1.067-1.205Z" transform="translate(-63.978 -22.726)"/>
      <path id="Path_1917" data-name="Path 1917" d="M187.767,109.807l-.3-5.594,3.713-.2.3,5.593Zm7.426-.4-.3-5.594,3.713-.2.3,5.594Zm7.425-.4-.3-5.594,3.713-.2.3,5.593Zm7.426-.4-.3-5.594,3.713-.2.3,5.594Zm7.426-.4-.3-5.594,3.713-.2.3,5.594Zm8.4-1.317-2.486-5.015a4.916,4.916,0,0,0,1.078-.73,5,5,0,0,0,.718-.8l4.515,3.292a10.542,10.542,0,0,1-3.826,3.249ZM231.586,99l-5.523-.809a5.1,5.1,0,0,0,.052-.72,4.948,4.948,0,0,0-.275-1.63l5.269-1.847A10.619,10.619,0,0,1,231.586,99Z" transform="translate(-46.351 -25.586)" fill="#fff"/>
      <path id="Path_1918" data-name="Path 1918" d="M187.67,109.9a.2.2,0,0,1-.194-.184l-.3-5.594a.194.194,0,0,1,.183-.2l3.713-.2a.2.2,0,0,1,.2.184l.3,5.594a.2.2,0,0,1-.184.2l-3.712.2Zm-.091-5.6.275,5.206,3.326-.177-.275-5.206Zm7.518,5.209a.19.19,0,0,1-.13-.05.194.194,0,0,1-.064-.134l-.3-5.593a.194.194,0,0,1,.183-.2l3.713-.2a.193.193,0,0,1,.2.184l.3,5.594a.2.2,0,0,1-.184.2l-3.713.2Zm-.092-5.6.275,5.206,3.326-.178-.275-5.205Zm7.517,5.209a.195.195,0,0,1-.193-.184l-.3-5.594a.194.194,0,0,1,.184-.2l3.712-.2a.206.206,0,0,1,.14.049.194.194,0,0,1,.064.134l.3,5.594a.194.194,0,0,1-.183.2l-3.713.2Zm-.091-5.605.275,5.206,3.326-.177-.275-5.206Zm7.518,5.209a.194.194,0,0,1-.194-.184l-.3-5.593a.194.194,0,0,1,.183-.2l3.713-.2a.193.193,0,0,1,.2.184l.3,5.594a.2.2,0,0,1-.05.14.193.193,0,0,1-.134.064l-3.713.2Zm-.092-5.6.275,5.206,3.326-.177-.275-5.206Zm7.518,5.209a.194.194,0,0,1-.194-.184l-.3-5.594a.194.194,0,0,1,.049-.14.192.192,0,0,1,.134-.064l3.713-.2a.2.2,0,0,1,.2.184l.3,5.593a.194.194,0,0,1-.184.2l-3.712.2Zm-.092-5.6.275,5.206,3.326-.178-.275-5.206Zm8.493,4.288a.194.194,0,0,1-.174-.108l-2.486-5.015a.2.2,0,0,1,.087-.26,4.718,4.718,0,0,0,1.036-.7,4.815,4.815,0,0,0,.69-.763.193.193,0,0,1,.27-.043l4.516,3.292a.2.2,0,0,1,.043.272,10.752,10.752,0,0,1-3.9,3.308.2.2,0,0,1-.086.02Zm-2.229-5.126,2.315,4.669a10.332,10.332,0,0,0,3.467-2.944l-4.2-3.065a5.189,5.189,0,0,1-.63.67A5.092,5.092,0,0,1,223.545,101.881Zm7.944-2.787h-.028l-5.523-.81a.194.194,0,0,1-.164-.22,4.888,4.888,0,0,0,.049-.692,4.736,4.736,0,0,0-.264-1.566.2.2,0,0,1,.119-.248l5.27-1.847a.192.192,0,0,1,.148.009.2.2,0,0,1,.1.111,10.8,10.8,0,0,1,.485,5.1.193.193,0,0,1-.191.166Zm-5.307-1.168,5.141.754a10.428,10.428,0,0,0-.431-4.538l-4.905,1.719a5.161,5.161,0,0,1,.225,1.51,5.309,5.309,0,0,1-.029.555Z" transform="translate(-46.255 -25.49)"/>
      <path id="Path_1919" data-name="Path 1919" d="M180.912,109.6l.3,5.594-1.991.106-.3-5.594Z" transform="translate(-43.51 -30.775)" fill="#fff"/>
      <path id="Path_1920" data-name="Path 1920" d="M179.119,115.4a.192.192,0,0,1-.193-.184l-.3-5.594a.2.2,0,0,1,.049-.141.194.194,0,0,1,.134-.064l1.99-.105a.2.2,0,0,1,.2.184l.3,5.594a.2.2,0,0,1-.184.2l-1.99.106Zm-.092-5.6L179.3,115l1.6-.085-.275-5.206Z" transform="translate(-43.413 -30.678)"/>
      <path id="Path_1921" data-name="Path 1921" d="M241.893,82.2V92.657l-5.9-6.58,2.258-6.946Z" transform="translate(-62.477 -20.648)" fill="#fff"/>
      <path id="Path_1922" data-name="Path 1922" d="M235.484,79.508l1.666,1.652c-.029.026-.057.051-.093.079-.058.041-.138.118-.22.19a5.288,5.288,0,0,0-1.55,2.733c-.107.528-.22,1.088-.337,1.664l-.044.22-.013.078-.014.056-.026.108-.052.222-.071.258a7.255,7.255,0,0,1-.367.974,7.088,7.088,0,0,1-1.144,1.723,6.891,6.891,0,0,1-1.572,1.289c-.144.087-.293.16-.437.24s-.3.14-.443.2c-.279.118-.556.234-.829.347-1.088.456-2.105.88-2.976,1.242-1.689.706-2.829,1.182-2.9,1.21l2.735-1.547c.821-.466,1.782-1.008,2.808-1.588.258-.146.519-.292.782-.442.132-.074.245-.148.369-.224s.235-.16.346-.248a5.675,5.675,0,0,0,1.944-2.735,5.484,5.484,0,0,0,.192-.783l.031-.182.024-.226.012-.11,0-.032,0-.012,0,.006v-.009l0-.014,0-.027.018-.222c.047-.592.093-1.164.138-1.707a7.344,7.344,0,0,1,1.695-4.029c.11-.124.2-.23.3-.33Z" transform="translate(-58.512 -20.774)"/>
      <path id="Path_1923" data-name="Path 1923" d="M108.064,62.492h-5.341V64.65a2.914,2.914,0,0,0,2.908,2.918H110.5a2.914,2.914,0,0,0,2.908-2.918V62.492Z" transform="translate(-18.186 -15.119)" fill="#fff"/>
      <path id="Path_1924" data-name="Path 1924" d="M110.4,67.666h-4.867a3.111,3.111,0,0,1-3.1-3.113V62.4a.194.194,0,0,1,.194-.194h10.683a.194.194,0,0,1,.194.194v2.157A3.11,3.11,0,0,1,110.4,67.666Zm-7.581-5.076v1.963a2.722,2.722,0,0,0,2.714,2.724H110.4a2.722,2.722,0,0,0,2.715-2.724V62.59Z" transform="translate(-18.09 -15.022)"/>
      <path id="Path_1925" data-name="Path 1925" d="M97.348,20.955l-3.56-3.643a1.036,1.036,0,0,0-1.576.109l-.876,1.187a2.923,2.923,0,0,0,.78,4.2l2.55,1.62Z" transform="translate(-14.212)"/>
      <path id="Path_1926" data-name="Path 1926" d="M120.822,20.955l3.56-3.643a1.036,1.036,0,0,1,1.576.109l.875,1.186a2.922,2.922,0,0,1-.78,4.2l-2.55,1.62Z" transform="translate(-24.201)"/>
      <path id="Path_1927" data-name="Path 1927" d="M90.572,25.554l-5.056,14a1.2,1.2,0,0,0,.2,1.166l7.163,8.845,9.42.011V21.583l-6.554.209A5.691,5.691,0,0,0,90.572,25.554Z" transform="translate(-12.444 -1.523)" fill="#fff"/>
      <path id="Path_1928" data-name="Path 1928" d="M102.2,49.67l-9.42-.011a.194.194,0,0,1-.15-.071l-7.163-8.846a1.4,1.4,0,0,1-.228-1.355l5.055-14a5.857,5.857,0,0,1,5.345-3.89l6.555-.208a.179.179,0,0,1,.141.055.2.2,0,0,1,.059.14v27.99a.2.2,0,0,1-.057.138A.191.191,0,0,1,102.2,49.67Zm-9.327-.4,9.134.01V21.687l-6.355.2a5.47,5.47,0,0,0-4.993,3.633l-5.055,14a1.01,1.01,0,0,0,.165.977Z" transform="translate(-12.348 -1.426)"/>
      <path id="Path_1929" data-name="Path 1929" d="M92.349,35.668s-.007.072-.021.207a32.355,32.355,0,0,1-.949,4.825c-.332,1.286-.9,2.4-.229,3.651.275.515.557,1.026.824,1.546a8.254,8.254,0,0,0,1.14,2.072c.961.978,2.329,1.367,3.344,2.265-1.483-.19-3.429-.577-4.52-1.685a15.994,15.994,0,0,1-2.172-3.417,4.1,4.1,0,0,1-.039-3.876,42.282,42.282,0,0,1,2.02-4.514c.159-.3.319-.6.494-.893Z" transform="translate(-13.712 -6.204)"/>
      <path id="Path_1930" data-name="Path 1930" d="M94.718,38.789s.02.214.03.584,0,.894-.036,1.515a19.656,19.656,0,0,0-.276,2.432,2,2,0,0,0,.507.982c.346.5.618,1.273,1.274,1.292,1.136.033,2.3-.372,3.453-.388.369-.005.584.007.584.007s-.179.12-.5.3-.784.425-1.348.683c-.282.129-.59.262-.917.4-.164.068-.333.131-.505.2-.086.034-.174.067-.262.1l-.134.048-.067.025c-.024.009-.069.021-.1.031a1.9,1.9,0,0,1-1.776-.435,5.031,5.031,0,0,1-1.609-2.7,6.387,6.387,0,0,1,.783-3.172c.232-.578.454-1.052.622-1.381S94.718,38.789,94.718,38.789Z" transform="translate(-14.956 -7.241)"/>
      <path id="Path_1931" data-name="Path 1931" d="M122.388,25.554l5.056,14a1.2,1.2,0,0,1-.2,1.166l-7.163,8.845-9.419.011-.2-27.99,6.754.208A5.694,5.694,0,0,1,122.388,25.554Z" transform="translate(-20.759 -1.523)" fill="#fff"/>
      <path id="Path_1932" data-name="Path 1932" d="M110.568,49.671a.2.2,0,0,1-.194-.194l-.2-27.99a.193.193,0,0,1,.058-.141.211.211,0,0,1,.141-.055l6.755.208a5.855,5.855,0,0,1,5.345,3.89l5.056,14a1.41,1.41,0,0,1-.228,1.355l-7.163,8.845a.193.193,0,0,1-.15.072Zm0-27.984.2,27.6,9.136-.01L127,40.5a1.013,1.013,0,0,0,.164-.977l-5.055-14a5.47,5.47,0,0,0-4.993-3.634Z" transform="translate(-20.663 -1.426)"/>
      <path id="Path_1933" data-name="Path 1933" d="M125.546,35.668l.107.178a33.475,33.475,0,0,1,2.287,4.831c.595,1.484,1.094,2.789.274,4.3a28.83,28.83,0,0,1-1.906,3.142c-.925,1.282-2.7,1.591-4.148,1.954a4.314,4.314,0,0,1-.661.137c.2-.133.37-.315.573-.447.361-.234.742-.435,1.114-.65a5.174,5.174,0,0,0,1.887-1.52c.662-1.036,1.165-2.255,1.73-3.352.65-1.262-.043-2.574-.366-3.853a40.257,40.257,0,0,1-.871-4.517C125.552,35.74,125.546,35.668,125.546,35.668Z" transform="translate(-24.426 -6.204)"/>
      <path id="Path_1934" data-name="Path 1934" d="M123.119,38.789s.111.184.28.513.389.8.622,1.381.477,1.257.7,1.992l.086.278.02.071.023.089c0,.013.017.078.024.12l.017.122c.214,1.576-1.787,4.127-3.477,3.64-.033-.009-.078-.022-.1-.031l-.067-.025-.134-.048c-.088-.032-.176-.065-.262-.1-.172-.068-.342-.131-.505-.2-.327-.134-.635-.266-.917-.4-.564-.258-1.028-.5-1.348-.683s-.5-.3-.5-.3.214-.012.584-.007.891.033,1.507.1c.308.033.641.075.99.127.176.025.353.057.536.087.091.014.184.031.276.049l.14.027.07.013a.212.212,0,0,0,.036,0,.561.561,0,0,0,.23-.043,3.96,3.96,0,0,0,1.46-2.11.239.239,0,0,1,0-.026c0-.007.006.009,0-.026l-.006-.041c.007.037,0,.008,0,.015v-.009l0-.019-.012-.072c-.015-.1-.029-.193-.043-.288-.113-.762-.187-1.48-.226-2.1s-.045-1.145-.036-1.515.031-.584.031-.584Z" transform="translate(-23.125 -7.241)"/>
      <path id="Path_1935" data-name="Path 1935" d="M115.271,29.157a6.552,6.552,0,0,0-5.155-6.982h-7.85a6.551,6.551,0,0,0-5.155,6.982l.274,3.149a3.4,3.4,0,0,0,1.632,2.621l2.924,1.761a.6.6,0,0,1,.118.935l-3.983,4.057a2.612,2.612,0,0,0-.6,2.681l1.319,3.822a3.458,3.458,0,0,0,4.314,2.174l3.057-.587,0-3.951.049,3.951,3.057.587a3.457,3.457,0,0,0,4.314-2.174l1.32-3.822a2.612,2.612,0,0,0-.6-2.681l-3.983-4.057a.6.6,0,0,1,.118-.935l2.924-1.761A3.4,3.4,0,0,0,115,32.307Z" transform="translate(-16.313 -1.72)" fill="#fff"/>
      <path id="Path_1936" data-name="Path 1936" d="M110.225,50.618h0a3.66,3.66,0,0,1-1.1-.172l-3.026-.58-3.048.585a3.546,3.546,0,0,1-1.082.167,3.657,3.657,0,0,1-3.452-2.468l-1.319-3.822a2.79,2.79,0,0,1,.648-2.881l3.983-4.057a.406.406,0,0,0-.08-.633L98.821,35a3.61,3.61,0,0,1-1.726-2.77l-.274-3.149a6.753,6.753,0,0,1,5.308-7.19.206.206,0,0,1,.041,0h7.85a.164.164,0,0,1,.04,0,6.753,6.753,0,0,1,5.308,7.19l-.274,3.149A3.605,3.605,0,0,1,113.368,35l-2.924,1.761a.407.407,0,0,0-.08.633l3.983,4.057A2.788,2.788,0,0,1,115,44.329l-1.32,3.822A3.656,3.656,0,0,1,110.225,50.618Zm-3.911-1.106,2.9.557a3.261,3.261,0,0,0,4.095-2.046l1.319-3.822a2.4,2.4,0,0,0-.558-2.48l-3.983-4.057a.8.8,0,0,1,.156-1.239l2.924-1.761a3.216,3.216,0,0,0,1.54-2.47l.274-3.149A6.364,6.364,0,0,0,110,22.273H102.19a6.363,6.363,0,0,0-4.982,6.771l.274,3.149a3.217,3.217,0,0,0,1.539,2.47l2.924,1.761a.8.8,0,0,1,.156,1.239L98.118,41.72a2.4,2.4,0,0,0-.558,2.48l1.319,3.822a3.27,3.27,0,0,0,3.086,2.205,3.234,3.234,0,0,0,.987-.154l2.922-.562,0-3.79a.194.194,0,0,1,.192-.194.2.2,0,0,1,.195.192Z" transform="translate(-16.216 -1.623)"/>
      <path id="Path_1937" data-name="Path 1937" d="M103.071,42.6c0,.561-1.416,0-1.974,0s-1.713-1.684-1.713-2.244,1.249-.317,1.808-.317S103.071,42.04,103.071,42.6Z" transform="translate(-17.077 -7.64)"/>
      <ellipse id="Ellipse_360" data-name="Ellipse 360" cx="1.011" cy="1.015" rx="1.011" ry="1.015" transform="translate(83.104 32.4)" fill="#fff"/>
      <path id="Path_1938" data-name="Path 1938" d="M101.492,42.193a1.209,1.209,0,1,1,1.205-1.21A1.209,1.209,0,0,1,101.492,42.193Zm0-2.03a.821.821,0,1,0,.818.821A.821.821,0,0,0,101.492,40.163Z" transform="translate(-17.377 -7.569)"/>
      <path id="Path_1939" data-name="Path 1939" d="M111.255,41.482a2.259,2.259,0,0,0-2.208-1.8h-1.292a2.259,2.259,0,0,0-2.208,1.8l-1.813,8.609.336,1.31,4.33.551,4.33-.551.337-1.31Z" transform="translate(-18.522 -7.539)" fill="#fff"/>
      <path id="Path_1940" data-name="Path 1940" d="M108.3,52.049l-.024,0-4.33-.551a.194.194,0,0,1-.163-.145l-.338-1.309a.2.2,0,0,1,0-.089l1.813-8.61a2.465,2.465,0,0,1,2.4-1.951h1.291a2.465,2.465,0,0,1,2.4,1.951l1.813,8.61a.2.2,0,0,1,0,.089l-.337,1.309a.194.194,0,0,1-.163.145l-4.33.551Zm-4.175-.922,4.175.531,4.176-.531.292-1.138-1.8-8.565a2.076,2.076,0,0,0-2.019-1.642h-1.291a2.075,2.075,0,0,0-2.018,1.642l-1.8,8.565Z" transform="translate(-18.426 -7.442)"/>
      <path id="Path_1941" data-name="Path 1941" d="M108.484,56.157h-4.5v.37a.8.8,0,0,0,.628.782l.2.043a1.562,1.562,0,0,1,1.219,1.372v.011a.786.786,0,0,0,.7.7l1.754.186,1.75-.186a.79.79,0,0,0,.7-.708,1.57,1.57,0,0,1,1.227-1.38l.192-.042a.8.8,0,0,0,.628-.782v-.371Z" transform="translate(-18.606 -13.013)"/>
      <path id="Path_1942" data-name="Path 1942" d="M116.541,42.6c0,.561,1.415,0,1.974,0s1.712-1.684,1.712-2.244-1.249-.317-1.807-.317S116.541,42.04,116.541,42.6Z" transform="translate(-22.779 -7.64)"/>
      <ellipse id="Ellipse_361" data-name="Ellipse 361" cx="1.011" cy="1.015" rx="1.011" ry="1.015" transform="translate(94.63 32.4)" fill="#fff"/>
      <path id="Path_1943" data-name="Path 1943" d="M118.755,42.193a1.209,1.209,0,1,1,1.205-1.21A1.209,1.209,0,0,1,118.755,42.193Zm0-2.03a.821.821,0,1,0,.818.821A.82.82,0,0,0,118.755,40.163Z" transform="translate(-23.114 -7.569)"/>
      <path id="Path_1944" data-name="Path 1944" d="M100.569,25.129a2.5,2.5,0,0,1,.544-.467,1.927,1.927,0,0,1,.666-.249,1.906,1.906,0,0,1,.351-.025c.1,0,.25.019.394.029l4.236.326h.355l4.149-.332c.148-.012.264-.024.369-.023a1.75,1.75,0,0,1,.348.037,1.9,1.9,0,0,1,.648.263,1.987,1.987,0,0,1,.274.211c.081.073.174.176.258.259l.48.491.991,1.012-.776-1.186-.376-.574c-.071-.1-.127-.2-.214-.32a2.566,2.566,0,0,0-1.528-.988,3.415,3.415,0,0,0-.473-.063l-4.149-.331h-.356l-4.236.326-.215.017c-.06,0-.078.009-.12.013l-.13.02a2.654,2.654,0,0,0-.486.135,2.578,2.578,0,0,0-.805.5,3.008,3.008,0,0,0-.523.656l-.383.586-.792,1.209,1.01-1.032Z" transform="translate(-16.972 -2.06)"/>
      <path id="Path_1945" data-name="Path 1945" d="M113.478,28.145c-.07-.1-.127-.2-.214-.32a2.474,2.474,0,0,0-.286-.328,2.575,2.575,0,0,0-1.242-.66,3.307,3.307,0,0,0-.473-.062l-4.322-.346h-.183l-4.322.346a3.31,3.31,0,0,0-.472.062,2.491,2.491,0,0,0-.467.148,2.552,2.552,0,0,0-.775.511,2.517,2.517,0,0,0-.286.328c-.087.119-.144.215-.214.32l-.376.574-.777,1.187.991-1.013.48-.491c.083-.083.177-.186.258-.259a2.029,2.029,0,0,1,.274-.211,1.923,1.923,0,0,1,.648-.263,1.75,1.75,0,0,1,.348-.037c.105,0,.222.011.369.023l4.322.345h.183l4.322-.345c.148-.012.264-.024.369-.023a1.75,1.75,0,0,1,.348.037,1.9,1.9,0,0,1,.648.263,1.987,1.987,0,0,1,.274.211c.081.073.174.176.258.259l.48.491.991,1.013-.776-1.187Z" transform="translate(-16.972 -3.134)"/>
      <path id="Path_1946" data-name="Path 1946" d="M113.221,31.65c-.061-.094-.114-.183-.192-.293a2.435,2.435,0,0,0-.263-.3,2.308,2.308,0,0,0-.714-.462,2.6,2.6,0,0,0-.853-.184l-3.87-.34h-.182l-3.87.34a2.61,2.61,0,0,0-.854.184,2.3,2.3,0,0,0-.713.462,2.327,2.327,0,0,0-.263.3c-.079.109-.132.2-.193.293l-.332.521-.687,1.078.9-.9.438-.437a2.249,2.249,0,0,1,.481-.406,1.676,1.676,0,0,1,.578-.212,1.626,1.626,0,0,1,.305-.021l.158.012c.039.005.12.011.178.017l3.842.337c.009,0,.21,0,.21,0l3.87-.34c.058-.005.139-.011.178-.017l.158-.012a1.623,1.623,0,0,1,.3.021,1.661,1.661,0,0,1,.579.212,2.269,2.269,0,0,1,.481.406l.437.437.9.9-.687-1.078-.332-.521Z" transform="translate(-17.36 -4.344)"/>
      <path id="Path_1947" data-name="Path 1947" d="M134.472,61.263c-.02-1.226-.038-2.3-.052-3.163-.012-.652-.02-1.184-.028-1.572l-.273.006-1.288.024c.056.9.162,2.589.3,4.759.1,1.638.222,3.551.347,5.6a10.722,10.722,0,0,1-.268,3q-.086.378-.2.75t-.251.772c-.168.519-.339,1.038-.509,1.56-.339,1.041-.678,2.083-1.01,3.107s-.658,2.042-.987,3c-.3.82-1.212,2.741-1.25,2.978.06-.07.123-.135.182-.208a10.777,10.777,0,0,0,1.541-2.589c.383-.968.741-1.957,1.126-2.967s.766-2.032,1.152-3.059c.194-.512.385-1.024.578-1.534l.287-.768c.1-.266.183-.534.261-.806a11.855,11.855,0,0,0,.44-3.27C134.532,64.828,134.5,62.91,134.472,61.263Z" transform="translate(-26.919 -13.137)"/>
    </g>
  </g>
</svg>
