<svg xmlns="http://www.w3.org/2000/svg" width="336.31" height="325.1" viewBox="0 0 336.31 325.1">
  <g id="Group_2810" data-name="Group 2810" transform="translate(-22 -247)">
    <g id="Group_2737" data-name="Group 2737" transform="translate(35.209 375.248)">
      <g id="Group_2731" data-name="Group 2731" transform="translate(52.618 48.903)">
        <path id="Path_2119" data-name="Path 2119" d="M264.634,633.958H505.589v8.657H264.634Z" transform="translate(-258.051 -570.843)" fill="#fff"/>
        <path id="Path_2120" data-name="Path 2120" d="M505.368,642.754H264.413a.36.36,0,0,1-.36-.361v-8.657a.36.36,0,0,1,.36-.361H505.368a.36.36,0,0,1,.36.361v8.657A.36.36,0,0,1,505.368,642.754Zm-240.6-.721H505.008V634.1H264.772Z" transform="translate(-257.83 -570.621)"/>
        <path id="Path_2121" data-name="Path 2121" d="M504.426,620.26l.719,3.708H264.19l-.719-3.644a8.418,8.418,0,0,1,1.309-5.014H504.57A24.1,24.1,0,0,0,504.426,620.26Z" transform="translate(-257.608 -563.739)" fill="#fff"/>
        <path id="Path_2122" data-name="Path 2122" d="M504.943,624.107H263.973a.36.36,0,0,1-.353-.291l-.719-3.643a8.863,8.863,0,0,1,1.364-5.287.358.358,0,0,1,.3-.158H504.353a.358.358,0,0,1,.279.133.364.364,0,0,1,.072.3,14.811,14.811,0,0,0-.164,3.513c.015.452.029.906.029,1.362l.693,3.543a.352.352,0,0,1,.04.165.36.36,0,0,1-.36.36Zm-240.675-.722H504.493l-.636-3.279c-.006-.517-.021-.963-.034-1.408a17.589,17.589,0,0,1,.1-3.249H264.757a8.164,8.164,0,0,0-1.142,4.653Z" transform="translate(-257.391 -563.517)"/>
        <path id="Path_2123" data-name="Path 2123" d="M505.036,609.533h-238c.129-1.644,1.33-3.185,2.862-4.556l1.878-1.046H500.34l.446,1.061c1.5,1.372,2.69,2.9,4.25,4.54Z" transform="translate(-258.967 -559.403)" fill="#fff"/>
        <path id="Path_2124" data-name="Path 2124" d="M504.829,609.671H266.817a.36.36,0,0,1-.358-.389c.122-1.54,1.1-3.109,2.983-4.8a.388.388,0,0,1,.064-.047l1.878-1.045a.358.358,0,0,1,.175-.046H500.119a.359.359,0,0,1,.332.221l.415.989a36.742,36.742,0,0,1,2.576,2.709c.5.563,1.017,1.145,1.581,1.74a.36.36,0,0,1-.194.664Zm-237.6-.721H503.986c-.375-.408-.732-.81-1.081-1.2a35.382,35.382,0,0,0-2.582-2.709.362.362,0,0,1-.09-.128l-.353-.841H271.65l-1.761.98a7.542,7.542,0,0,0-2.662,3.9Z" transform="translate(-258.746 -559.181)"/>
        <path id="Path_2125" data-name="Path 2125" d="M502.479,598.363H278.053l6.228-5.416H496.315Z" transform="translate(-263.163 -555.219)" fill="#fff"/>
        <path id="Path_2126" data-name="Path 2126" d="M502.272,598.5H277.832a.361.361,0,0,1-.235-.633l6.228-5.416a.36.36,0,0,1,.236-.088H496.094a.362.362,0,0,1,.238.089l6.11,5.368a.361.361,0,0,1-.17.68ZM278.8,597.78H501.3l-5.343-4.695H284.194Z" transform="translate(-262.942 -554.997)"/>
        <path id="Path_2127" data-name="Path 2127" d="M288.114,575.685H500v8.657H288.114Z" transform="translate(-266.996 -548.643)" fill="#fff"/>
        <path id="Path_2128" data-name="Path 2128" d="M499.775,584.481H287.893a.36.36,0,0,1-.36-.361v-8.657a.36.36,0,0,1,.36-.361H499.775a.36.36,0,0,1,.36.361v8.657A.36.36,0,0,1,499.775,584.481Zm-211.522-.721H499.415v-7.936H288.252Z" transform="translate(-266.775 -548.42)"/>
        <path id="Path_2129" data-name="Path 2129" d="M288.114,557.038H500V565.7H288.114Z" transform="translate(-266.996 -541.539)" fill="#fff"/>
        <path id="Path_2130" data-name="Path 2130" d="M499.775,565.834H287.893a.36.36,0,0,1-.36-.361v-8.657a.36.36,0,0,1,.36-.361H499.775a.36.36,0,0,1,.36.361v8.657A.36.36,0,0,1,499.775,565.834Zm-211.522-.722H499.415v-7.936H288.252Z" transform="translate(-266.775 -541.317)"/>
        <path id="Path_2131" data-name="Path 2131" d="M288.114,538.39H500v8.658H288.114Z" transform="translate(-266.996 -534.434)" fill="#fff"/>
        <path id="Path_2132" data-name="Path 2132" d="M499.775,547.186H287.893a.36.36,0,0,1-.36-.36v-8.658a.361.361,0,0,1,.36-.361H499.775a.361.361,0,0,1,.36.361v8.658A.359.359,0,0,1,499.775,547.186Zm-211.522-.721H499.415v-7.936H288.252Z" transform="translate(-266.775 -534.212)"/>
        <path id="Path_2133" data-name="Path 2133" d="M636.474,684.408l13.21,3.413h-7.193l-13.5-3.413Z" transform="translate(-396.861 -590.063)" fill="#fff"/>
        <g id="Group_2730" data-name="Group 2730" transform="translate(230.886)">
          <path id="Path_2134" data-name="Path 2134" d="M649.478,687.96a.028.028,0,0,0-.014,0h-7.193a.325.325,0,0,1-.088-.012l-13.5-3.412a.361.361,0,0,1,.088-.71h7.48a.366.366,0,0,1,.09.011l13.174,3.4a.36.36,0,0,1-.04.719Zm-7.162-.722h4.309l-10.416-2.69h-4.537Z" transform="translate(-627.526 -589.841)"/>
          <path id="Path_2135" data-name="Path 2135" d="M640,689.483l-11.656-3.012a1.048,1.048,0,0,1,.521-2.03l13.08,3.379.689,1.418-1.857.445" transform="translate(-627.201 -590.063)"/>
          <path id="Path_2136" data-name="Path 2136" d="M640.558,689.821a.361.361,0,0,1-.084-.712l1.42-.341-.42-.864-12.919-3.337a.676.676,0,0,0-.591.123.688.688,0,0,0,.249,1.208l11.656,3.012a.36.36,0,0,1-.179.7L628.035,686.6a1.41,1.41,0,0,1-.511-2.477,1.39,1.39,0,0,1,1.211-.252l13.08,3.379a.365.365,0,0,1,.234.192l.689,1.418a.36.36,0,0,1-.24.508l-1.856.445a.312.312,0,0,1-.084.011Z" transform="translate(-626.98 -589.84)"/>
          <path id="Path_2137" data-name="Path 2137" d="M647.048,632.144h-4.305a5.724,5.724,0,0,1-1.435-.183l-1.239-.32a1.558,1.558,0,0,0,1.945-1.512V587.3a7.176,7.176,0,0,0-4.547-6.71l-9.729-3.859V534.747a2.161,2.161,0,0,1,2.158-2.164h2.877a2.161,2.161,0,0,1,2.158,2.164v37.084l5.182,2.055a14.43,14.43,0,0,1,9.095,13.417V629.98a2.162,2.162,0,0,1-2.159,2.165Z" transform="translate(-627.269 -532.222)"/>
          <path id="Path_2138" data-name="Path 2138" d="M646.827,632.283h-4.305a6.121,6.121,0,0,1-1.525-.194l-1.239-.321a.36.36,0,0,1,.18-.7,1.211,1.211,0,0,0,1.5-1.163V587.083a6.819,6.819,0,0,0-4.32-6.374l-9.729-3.859a.361.361,0,0,1-.227-.336V534.525A2.524,2.524,0,0,1,629.675,532h2.877a2.524,2.524,0,0,1,2.518,2.525v36.839l4.954,1.966a14.709,14.709,0,0,1,9.323,13.752v42.675a2.527,2.527,0,0,1-2.519,2.526Zm-5.436-.842a5.378,5.378,0,0,0,1.13.121h4.305a1.8,1.8,0,0,0,1.8-1.8V587.081A13.992,13.992,0,0,0,639.758,574l-5.182-2.055a.361.361,0,0,1-.227-.336V534.525a1.8,1.8,0,0,0-1.8-1.8h-2.877a1.8,1.8,0,0,0-1.8,1.8v41.744l9.5,3.769a7.537,7.537,0,0,1,4.775,7.045v42.825a1.925,1.925,0,0,1-.761,1.534Z" transform="translate(-627.047 -532)"/>
        </g>
        <path id="Path_2139" data-name="Path 2139" d="M267.792,684.408l-13.21,3.413h7.193l13.5-3.413Z" transform="translate(-254.222 -590.063)" fill="#fff"/>
        <path id="Path_2140" data-name="Path 2140" d="M261.553,687.96h-7.193a.361.361,0,0,1-.089-.711l13.21-3.412a.344.344,0,0,1,.09-.011h7.48a.36.36,0,0,1,.088.709l-13.5,3.412A.311.311,0,0,1,261.553,687.96Zm-4.354-.722h4.309l10.644-2.69h-4.537Z" transform="translate(-254 -589.841)"/>
        <path id="Path_2141" data-name="Path 2141" d="M266.839,689.756l12.714-3.285a1.048,1.048,0,0,0-.521-2.03l-13.08,3.379-.4,1.46Z" transform="translate(-258.4 -590.063)"/>
        <path id="Path_2142" data-name="Path 2142" d="M266.618,689.9a.38.38,0,0,1-.124-.022L265.2,689.4a.363.363,0,0,1-.223-.436l.4-1.46a.361.361,0,0,1,.257-.253l13.08-3.379a1.426,1.426,0,0,1,1.754,1.364,1.409,1.409,0,0,1-1.054,1.365l-12.714,3.285A.331.331,0,0,1,266.618,689.9Zm-.855-1.06.874.321,12.606-3.257a.686.686,0,0,0,.514-.665.693.693,0,0,0-.856-.665L266.022,687.9Z" transform="translate(-258.179 -589.842)"/>
        <path id="Path_2143" data-name="Path 2143" d="M256.74,632.144h4.305a5.724,5.724,0,0,0,1.435-.183l1.239-.32a1.558,1.558,0,0,1-1.945-1.512V587.3a7.176,7.176,0,0,1,4.547-6.71l9.729-3.859V534.747a2.161,2.161,0,0,0-2.158-2.164h-2.877a2.161,2.161,0,0,0-2.158,2.164v37.084l-5.181,2.055a14.429,14.429,0,0,0-9.1,13.417V629.98A2.162,2.162,0,0,0,256.74,632.144Z" transform="translate(-254.221 -532.222)"/>
        <path id="Path_2144" data-name="Path 2144" d="M260.824,632.283h-4.305A2.526,2.526,0,0,1,254,629.757V587.081a14.711,14.711,0,0,1,9.323-13.753l4.954-1.965V534.525A2.524,2.524,0,0,1,270.794,532h2.877a2.524,2.524,0,0,1,2.518,2.525v41.989a.36.36,0,0,1-.227.336l-9.729,3.859a6.819,6.819,0,0,0-4.32,6.374v42.825a1.2,1.2,0,0,0,1.5,1.163.36.36,0,0,1,.18.7l-1.239.32a6.09,6.09,0,0,1-1.525.194Zm9.971-99.562a1.8,1.8,0,0,0-1.8,1.8v37.084a.36.36,0,0,1-.227.336L263.587,574a13.992,13.992,0,0,0-8.868,13.081v42.677a1.8,1.8,0,0,0,1.8,1.8h4.305a5.38,5.38,0,0,0,1.131-.121,1.931,1.931,0,0,1-.761-1.534V587.083a7.537,7.537,0,0,1,4.775-7.045l9.5-3.769V534.525a1.8,1.8,0,0,0-1.8-1.8Z" transform="translate(-254 -532)"/>
      </g>
      <g id="Group_2733" data-name="Group 2733" transform="translate(0 0)">
        <path id="Path_2145" data-name="Path 2145" d="M248.018,628.138l13.967,35.532-9.6-2.139L249.964,672.3l-27.933-43.091a1.075,1.075,0,0,1,.931-1.658Z" transform="translate(-189.136 -519.5)"/>
        <path id="Path_2146" data-name="Path 2146" d="M249.906,672.99l-28.395-43.806a1.431,1.431,0,0,1,1.2-2.208l25.329.591.087.221,14.212,36.156-9.912-2.209Zm-27.173-45.3a.716.716,0,0,0-.649.374.705.705,0,0,0,.028.733l27.47,42.378,2.307-10.29,9.3,2.07-13.634-34.686Z" transform="translate(-188.916 -519.279)"/>
        <path id="Path_2147" data-name="Path 2147" d="M271.858,679.757l-9.607-2.14-2.414,10.773-12.064-18.611h20.161Z" transform="translate(-199.01 -535.586)" fill="#ccc"/>
        <path id="Path_2148" data-name="Path 2148" d="M271.858,679.757l-9.607-2.14-2.414,10.773-12.064-18.611h20.161Z" transform="translate(-199.01 -535.586)" fill="#fff"/>
        <path id="Path_2149" data-name="Path 2149" d="M259.6,689.076,246.712,669.2h21.062l4.258,10.829-9.914-2.209Zm-11.57-19.161,11.245,17.347,2.306-10.29,9.3,2.071-3.589-9.129Z" transform="translate(-198.606 -535.366)"/>
        <path id="Path_2150" data-name="Path 2150" d="M239.179,699.047l-2.735-1.772a2.646,2.646,0,0,1,1.073-4.843l5.776-.823a12.707,12.707,0,0,0,8.887-5.685l2.388-3.7,2.287,1.392a1.264,1.264,0,0,1,.49,1.614l-.779,1.672,3.216,1.332a6.184,6.184,0,0,0,6.451-1.071l2.73-2.4a.762.762,0,0,1,1.266.53l.565,10.818-.654,2.547Z" transform="translate(-194.233 -540.328)" fill="#fff"/>
        <path id="Path_2151" data-name="Path 2151" d="M238.856,699.106l-2.826-1.831a2.992,2.992,0,0,1-1.372-2.519,3.023,3.023,0,0,1,2.588-2.975l5.776-.823a12.34,12.34,0,0,0,8.637-5.525l2.577-3.994,2.584,1.575a1.619,1.619,0,0,1,.627,2.068l-.622,1.335,2.874,1.19a5.9,5.9,0,0,0,6.076-1.008l2.73-2.4a1.119,1.119,0,0,1,1.858.778l.567,10.871-.734,2.864Zm15.6-16.7-2.2,3.407a13.062,13.062,0,0,1-9.139,5.845l-5.775.822a2.307,2.307,0,0,0-1.974,2.27,2.28,2.28,0,0,0,1.047,1.922l2.644,1.713L269.641,698l.573-2.229-.562-10.764a.4.4,0,0,0-.408-.383.389.389,0,0,0-.264.1l-2.73,2.4a6.633,6.633,0,0,1-6.824,1.132l-3.561-1.475.936-2.008a.907.907,0,0,0-.352-1.159Z" transform="translate(-194.014 -540.028)"/>
        <path id="Path_2152" data-name="Path 2152" d="M272.806,705.134l-.506,1.07a5.518,5.518,0,0,1-4.991,3.155H244.6a2.543,2.543,0,0,1-1.246-.326l-5.028-2.82h18.7a1.274,1.274,0,0,0,.887-.359,6.39,6.39,0,0,1,4.452-1.8h9.752a.76.76,0,0,1,.69,1.083Z" transform="translate(-195.412 -548.643)"/>
        <path id="Path_2153" data-name="Path 2153" d="M245.805,554.36c1.174-2.248.576-3.957.064-5.7l-.107-.2-.285-1.742a8.338,8.338,0,0,0-1.543-3.616l-1.289-1.744-3.658-8.317a.708.708,0,0,0-.893-.451.618.618,0,0,0-.085.036,1.429,1.429,0,0,0-.513.452,2.857,2.857,0,0,0-.459,1.35,4.119,4.119,0,0,0,.421,2.16l1.291,2.657a2.132,2.132,0,0,1,.035,1.768l-.022.026a1.787,1.787,0,0,1-1.252,1.022l-5.852-4.477-.349-.676-.711,1.33a1.055,1.055,0,0,0,.115,1.166l.508.619-.282.693a1.055,1.055,0,0,0,.139,1.038l.831,1.088-.209,2.159a3.03,3.03,0,0,0,.586,2.109l3.7,5.662,12.373,9.785,2.525-5.932Z" transform="translate(-192.419 -483.31)" fill="#fff"/>
        <path id="Path_2154" data-name="Path 2154" d="M248.284,562.916l-12.818-10.16-3.7-5.662a3.356,3.356,0,0,1-.642-2.339l.195-2.019-.746-.978a1.416,1.416,0,0,1-.184-1.387l.2-.5-.373-.456a1.408,1.408,0,0,1-.153-1.559l1.031-1.932.625,1.212,5.646,4.32a1.421,1.421,0,0,0,.849-.774l.053-.086a1.771,1.771,0,0,0-.062-1.411l-1.291-2.656a4.462,4.462,0,0,1-.456-2.344,3.224,3.224,0,0,1,.526-1.531,1.789,1.789,0,0,1,.64-.56,1.181,1.181,0,0,1,.139-.058,1.091,1.091,0,0,1,1.341.679l3.629,8.249L244,542.68a8.74,8.74,0,0,1,1.608,3.77l.275,1.683.107.214.073.245c.478,1.608.97,3.27,0,5.377l5.061,2.263Zm-12.251-10.6,11.96,9.458L250.2,556.6l-5.105-2.282.175-.335c1.052-2.015.595-3.556.111-5.185l-.063-.209-.128-.277-.284-1.743a8.012,8.012,0,0,0-1.478-3.46l-1.33-1.814-3.657-8.318a.36.36,0,0,0-.455-.254,1.07,1.07,0,0,0-.418.355,2.5,2.5,0,0,0-.394,1.182,3.752,3.752,0,0,0,.385,1.963l1.294,2.661a2.492,2.492,0,0,1,.041,2.064l-.054.089a2.114,2.114,0,0,1-1.468,1.166l-.164.037-6.122-4.768-.389.728a.7.7,0,0,0,.076.773l.641.784-.362.888a.7.7,0,0,0,.092.688l.914,1.2-.222,2.3a2.653,2.653,0,0,0,.517,1.861Z" transform="translate(-192.199 -483.093)"/>
        <path id="Path_2155" data-name="Path 2155" d="M248.926,566.977,274.088,586.1l11.2.18,5.5-10.125-36.359-19.3Z" transform="translate(-199.449 -492.564)" fill="#fff"/>
        <path id="Path_2156" data-name="Path 2156" d="M285.065,586.413h-.006l-11.2-.18a.359.359,0,0,1-.21-.074l-25.162-19.118a.356.356,0,0,1-.1-.453l5.5-10.125a.36.36,0,0,1,.483-.145l36.359,19.3a.357.357,0,0,1,.146.485l-5.5,10.126a.355.355,0,0,1-.314.187Zm-11.073-.891,10.863.175,5.229-9.62-35.727-18.963-5.19,9.546Z" transform="translate(-199.229 -492.345)"/>
        <path id="Path_2157" data-name="Path 2157" d="M227.048,599.634l58.458-7.929v27.5h-57.15a8.716,8.716,0,0,1-8.73-8.7v-2.395a8.56,8.56,0,0,1,7.422-8.475Z" transform="translate(-188.287 -505.842)"/>
        <path id="Path_2158" data-name="Path 2158" d="M285.643,619.311H228.135a9.083,9.083,0,0,1-9.087-9.058v-2.395a8.951,8.951,0,0,1,7.732-8.827l58.864-7.984Zm-.715-27.45-58.052,7.875a8.235,8.235,0,0,0-7.114,8.122v2.395a8.369,8.369,0,0,0,8.373,8.345h56.794V591.861Z" transform="translate(-188.067 -505.591)"/>
        <path id="Path_2159" data-name="Path 2159" d="M302.881,581.477v19.907a9.839,9.839,0,0,1-3.565,7.576l-35.4,29.333-10.754,19.97a18.893,18.893,0,0,1-7.287,7.458l-23.292,20.931-11.073-9.812,32.642-40.518,1.519-11.307,44.907-45.992Z" transform="translate(-185.195 -501.011)"/>
        <path id="Path_2160" data-name="Path 2160" d="M222.283,686.891l-11.567-10.248,32.791-40.7,1.521-11.327.082-.084L290.153,578.4l12.781,2.549v20.2a10.166,10.166,0,0,1-3.694,7.85l-35.346,29.289-10.722,19.909a19.237,19.237,0,0,1-7.39,7.58ZM211.7,676.561l10.58,9.374,23.115-20.762a18.52,18.52,0,0,0,7.149-7.318l10.788-20.031,35.453-29.379a9.455,9.455,0,0,0,3.436-7.3V581.531L290.4,579.173l-44.69,45.768-1.515,11.289Z" transform="translate(-184.893 -500.772)"/>
        <path id="Path_2161" data-name="Path 2161" d="M286.206,616.893l13.379-13.336a1.16,1.16,0,0,0-.823-1.981H278.523Z" transform="translate(-210.725 -509.603)" opacity="0.1" style="isolation: isolate"/>
        <path id="Path_2162" data-name="Path 2162" d="M388.589,508.976a.484.484,0,0,0-.1-.056l-27.931-10.408a7.857,7.857,0,0,0-5.906.17L318.187,514.72a7.824,7.824,0,0,0-3.97,3.914l-4.958,10.873h.021l-3.457,7.929-17,21.4h29.438a19.061,19.061,0,0,1,12.3,4.494l1.625,1.372,12.673-13.3a65.068,65.068,0,0,0,12.774-19.427l3.543-8.334h23.024a8.366,8.366,0,0,0,8.379-8.353v-1.257a5.213,5.213,0,0,0-3.982-5.056Z" transform="translate(-214.647 -470.15)" fill="#fff"/>
        <path id="Path_2163" data-name="Path 2163" d="M331.957,564.841a.361.361,0,0,1-.231-.084l-1.624-1.372a18.722,18.722,0,0,0-12.066-4.409H288.6a.356.356,0,0,1-.28-.578l16.975-21.363,3.394-7.781a.3.3,0,0,1,.027-.112l4.958-10.873a8.177,8.177,0,0,1,4.152-4.092l36.469-16.038a8.256,8.256,0,0,1,6.177-.179l27.93,10.408a.6.6,0,0,1,.119.059,5.553,5.553,0,0,1,4.191,5.387v1.257a8.732,8.732,0,0,1-8.736,8.708H361.185l-3.451,8.117a65.189,65.189,0,0,1-12.844,19.534l-12.674,13.3a.362.362,0,0,1-.26.11Zm-42.62-6.578h28.7a19.437,19.437,0,0,1,12.528,4.578L331.931,564l12.441-13.057a64.536,64.536,0,0,0,12.705-19.321l3.542-8.333a.357.357,0,0,1,.329-.217h23.024a8.017,8.017,0,0,0,8.021-8v-1.257a4.842,4.842,0,0,0-3.709-4.71.37.37,0,0,1-.115-.05l-27.952-10.426a7.529,7.529,0,0,0-5.637.162l-36.469,16.038a7.466,7.466,0,0,0-3.79,3.736l-4.91,10.767a.306.306,0,0,1-.024.1l-3.457,7.929a.377.377,0,0,1-.048.079Z" transform="translate(-214.427 -469.933)"/>
        <path id="Path_2164" data-name="Path 2164" d="M235.515,543.65v-2.124l2.071-2.945a1.558,1.558,0,0,0-.131-1.9l-.008-.006a.4.4,0,0,0-.566.068l-3.171,3.464h-.061l3.257-4.633a1.557,1.557,0,0,0-.132-1.895l-.007-.006a.4.4,0,0,0-.566.068l-2.044,2.233L235,532.8a1.56,1.56,0,0,0-.778-1.735l-.01,0a.4.4,0,0,0-.508.258l-2.173,5.3,1.288,2.685.438.913h-.373v4.5l-.348.24,2.991,4.307,2.624-1.811Z" transform="translate(-192.824 -482.731)" fill="#fff"/>
        <path id="Path_2165" data-name="Path 2165" d="M235.309,549.4a.371.371,0,0,1-.064-.006.358.358,0,0,1-.23-.148l-2.991-4.307a.354.354,0,0,1,.09-.495l.194-.134v-4.315a.355.355,0,0,1,.184-.312l-1.5-3.134a.352.352,0,0,1-.009-.288l2.173-5.3a.772.772,0,0,1,.949-.462,1.9,1.9,0,0,1,1.029,2.141l-.481,1.8,1.06-1.158a.79.79,0,0,1,1.051-.108,1.9,1.9,0,0,1,.227,2.362l-.411.585a.8.8,0,0,1,.865.053,1.9,1.9,0,0,1,.228,2.363l-2.021,2.876v1.9l2.576,3.709a.355.355,0,0,1-.091.5l-2.624,1.811A.336.336,0,0,1,235.309,549.4Zm-2.494-4.573,2.584,3.722,2.037-1.406L235,543.635a.355.355,0,0,1-.064-.2v-2.124a.352.352,0,0,1,.065-.2l2.071-2.944a1.21,1.21,0,0,0-.074-1.421c-.008.007-.07.026-.076.033l-3.171,3.463a.4.4,0,0,1-.5.045.355.355,0,0,1-.214.072h-.016V544.5a.355.355,0,0,1-.154.292Zm-1.112-8.442,1.55,3.232,3.137-4.46a1.2,1.2,0,0,0-.09-1.437c-.006.007-.054.042-.06.048L234.2,536a.357.357,0,0,1-.609-.331l.849-3.183a1.208,1.208,0,0,0-.568-1.313l-.01,0c0,.009-.039.056-.043.064Z" transform="translate(-192.602 -482.513)"/>
        <path id="Path_2166" data-name="Path 2166" d="M213.427,748.368l11.979-10.975-10.99-11.817-10.378,12.776Z" transform="translate(-182.348 -556.843)" fill="#fff"/>
        <path id="Path_2167" data-name="Path 2167" d="M213.117,748.536l-9.844-10.5L214.105,724.7l11.513,12.382ZM204.221,738l8.934,9.532,11.453-10.493-10.465-11.254Z" transform="translate(-182.057 -556.508)"/>
        <path id="Path_2168" data-name="Path 2168" d="M173.521,756.7l-2.735-1.772a2.646,2.646,0,0,1,1.073-4.843l8.328-1.186a10.736,10.736,0,0,0,5.605-2.591l8.583-7.6.54.4,1.863,1.857a1.265,1.265,0,0,1,0,1.791l-1.271,1.266,4.1,1.78a7.116,7.116,0,0,0,6.832-.638l1.481-1.006a.761.761,0,0,1,1.135.914l-4.573,11.236Z" transform="translate(-169.22 -561.847)" fill="#fff"/>
        <path id="Path_2169" data-name="Path 2169" d="M173.2,756.776l-2.826-1.831a3,3,0,0,1,1.217-5.495l8.328-1.186a10.345,10.345,0,0,0,5.418-2.5l8.8-7.792.773.571,1.9,1.891a1.619,1.619,0,0,1,0,2.295l-.9.9,3.618,1.572a6.827,6.827,0,0,0,6.487-.607l1.481-1.005a1.148,1.148,0,0,1,1.565.305,1.09,1.09,0,0,1,.1,1.036L204.5,756.377Zm20.981-17.892-8.369,7.409a11.075,11.075,0,0,1-5.792,2.677l-8.328,1.185a2.307,2.307,0,0,0-1.975,2.27,2.281,2.281,0,0,0,1.047,1.922l2.644,1.713,30.614-.389,4.485-11.016a.379.379,0,0,0-.035-.371.407.407,0,0,0-.569-.114l-1.481,1.005a7.541,7.541,0,0,1-7.176.67l-4.578-1.989,1.642-1.636a.908.908,0,0,0,0-1.287l-1.862-1.856Z" transform="translate(-169 -561.563)"/>
        <path id="Path_2170" data-name="Path 2170" d="M207.149,763.507l-.506,1.07a5.517,5.517,0,0,1-4.99,3.155H178.944a2.544,2.544,0,0,1-1.246-.326l-5.028-2.82h18.7a1.272,1.272,0,0,0,.886-.359,6.392,6.392,0,0,1,4.452-1.8h9.752A.76.76,0,0,1,207.149,763.507Z" transform="translate(-170.398 -570.881)"/>
        <path id="Path_2171" data-name="Path 2171" d="M351.838,468.8c0-3.982-5.2-7.21-11.624-7.21-5.477,0-10.069,2.349-11.3,5.511a1.263,1.263,0,0,0,1.2,1.7Z" transform="translate(-229.89 -456.274)"/>
        <path id="Path_2172" data-name="Path 2172" d="M352.522,460.366c0-3.39-4.43-6.138-9.9-6.138-4.662,0-8.571,2-9.619,4.693a1.074,1.074,0,0,0,1.017,1.446h18.5Z" transform="translate(-231.454 -453.468)"/>
        <path id="Path_2173" data-name="Path 2173" d="M352.016,474.066l-.052-2.073-1.014.025-.184-7.334a2.612,2.612,0,0,0-2.682-2.542l-.342.008a9.144,9.144,0,0,0-8.927,9.357l.021.813h-.024l.093,3.7-2.266,2.331a1.266,1.266,0,0,0,.881,2.147l1.381.033-.034,5.9a2.616,2.616,0,0,0,3.481,2.4l5.2-1.816V501.99a.762.762,0,0,0,1.3.535L361.7,489.669v-15.6Z" transform="translate(-232.728 -456.483)" fill="#fff"/>
        <path id="Path_2174" data-name="Path 2174" d="M348.1,502.886a1.123,1.123,0,0,1-1.125-1.117V487.3l-4.723,1.649a2.971,2.971,0,0,1-3.956-2.724l.032-5.563-1.031-.024a1.622,1.622,0,0,1-1.13-2.752l2.162-2.224-.09-3.552a.371.371,0,0,1,.021-.129l-.017-.686a9.512,9.512,0,0,1,9.275-9.723l.343-.009h.076a2.987,2.987,0,0,1,2.971,2.891l.176,6.977.656-.016h.009a.357.357,0,0,1,.358.347l.043,1.725h9.336a.357.357,0,0,1,.357.357v15.6a.358.358,0,0,1-.1.251l-12.85,12.857a1.114,1.114,0,0,1-.789.33Zm-.769-16.445a.355.355,0,0,1,.357.356v14.972a.4.4,0,0,0,.41.4.387.387,0,0,0,.281-.119L361.123,489.3V474.2H351.8a.356.356,0,0,1-.357-.347l-.043-1.717-.657.016a.344.344,0,0,1-.366-.347l-.185-7.334a2.269,2.269,0,0,0-2.256-2.2l-.4.009a8.8,8.8,0,0,0-8.578,8.991l.02.813a.376.376,0,0,1-.02.129l.09,3.574a.351.351,0,0,1-.1.256l-2.266,2.331a.91.91,0,0,0,.633,1.544l1.382.033a.356.356,0,0,1,.348.358l-.034,5.9a2.255,2.255,0,0,0,3.005,2.058l5.2-1.816a.36.36,0,0,1,.12-.02Z" transform="translate(-232.508 -456.262)"/>
        <path id="Path_2175" data-name="Path 2175" d="M349.976,484.671v2.686a6.2,6.2,0,0,1-3.76,5.694,3.522,3.522,0,0,0-3.528-3.517h-2.316v4.9a2.54,2.54,0,0,0,3.47,2.358l6.606-2.585a2.535,2.535,0,0,0,1.612-2.358v-9.252a2.081,2.081,0,0,0-2.084,2.077Z" transform="translate(-234.287 -464.274)"/>
        <path id="Path_2176" data-name="Path 2176" d="M343.031,498.788l-1.75.4a.742.742,0,0,1-.909-.721V496.36h1.676a1.624,1.624,0,0,1,1.627,1.621A.829.829,0,0,1,343.031,498.788Z" transform="translate(-234.287 -469.519)" fill="#fff"/>
        <path id="Path_2177" data-name="Path 2177" d="M340.893,499.347a1.1,1.1,0,0,1-1.1-1.1v-2.109a.357.357,0,0,1,.358-.356h1.676a1.983,1.983,0,0,1,1.984,1.977,1.18,1.18,0,0,1-.92,1.154l-1.751.4a1.1,1.1,0,0,1-.25.029Zm-.383-2.849v1.752a.388.388,0,0,0,.472.373l1.75-.4a.47.47,0,0,0,.367-.46,1.268,1.268,0,0,0-1.269-1.264Z" transform="translate(-234.068 -469.3)"/>
        <path id="Path_2178" data-name="Path 2178" d="M370.6,481.735l-5.648,2.5V460.4a2.537,2.537,0,0,1,2.541-2.533h1.143a8.874,8.874,0,0,1,8.792,10.2L376.526,474A10.14,10.14,0,0,1,370.6,481.735Z" transform="translate(-243.653 -454.855)"/>
        <path id="Path_2179" data-name="Path 2179" d="M354.657,479.965H343.393l-.254-1.857h11.518Z" transform="translate(-235.342 -462.565)"/>
        <path id="Path_2180" data-name="Path 2180" d="M367.911,463.032h-8.893v18.349a5.074,5.074,0,0,0,5.082,5.066h3.811Z" transform="translate(-241.391 -456.822)"/>
        <path id="Path_2181" data-name="Path 2181" d="M357.513,460.352h-10.47V466.3a5.073,5.073,0,0,0,5.082,5.066h5.389Z" transform="translate(-236.829 -455.801)"/>
        <path id="Path_2182" data-name="Path 2182" d="M339.374,483.169a.4.4,0,0,1-.4-.4v-3.679a.4.4,0,0,1,.4-.4h2.463a.4.4,0,0,1,.4.4v3.679a.4.4,0,0,1-.4.4Z" transform="translate(-233.753 -462.785)" fill="#fff"/>
        <g id="Group_2732" data-name="Group 2732" transform="translate(104.859)">
          <path id="Path_2183" data-name="Path 2183" d="M341.618,478.821a.048.048,0,0,1,.048.047v3.679a.048.048,0,0,1-.048.047h-2.464a.048.048,0,0,1-.047-.047v-3.679a.047.047,0,0,1,.047-.047Zm0-.713h-2.464a.761.761,0,0,0-.762.76v3.679a.761.761,0,0,0,.762.76h2.464a.761.761,0,0,0,.763-.76v-3.679A.762.762,0,0,0,341.618,478.108Z" transform="translate(-338.392 -462.565)"/>
          <path id="Path_2184" data-name="Path 2184" d="M370.921,478.622c0-3.982,5.2-7.209,11.624-7.209,5.477,0,10.069,2.349,11.3,5.511a1.262,1.262,0,0,1-1.2,1.7Z" transform="translate(-350.785 -460.015)"/>
          <path id="Path_2185" data-name="Path 2185" d="M363.943,487.118c0-3.7,4.839-6.7,10.807-6.7,5.092,0,9.361,2.184,10.506,5.124a1.174,1.174,0,0,1-1.111,1.579h-20.2Z" transform="translate(-348.126 -463.444)"/>
          <path id="Path_2186" data-name="Path 2186" d="M366.676,492.028a2.907,2.907,0,0,1-1.271-5.525,12.132,12.132,0,0,1,5.323-1.179c4.426,0,8.138,2.185,9.133,5.124a1.16,1.16,0,0,1-.966,1.579H366.676Z" transform="translate(-348.056 -465.314)"/>
          <path id="Path_2187" data-name="Path 2187" d="M364.575,497.85a2.141,2.141,0,0,1-.935-4.07,8.933,8.933,0,0,1,3.921-.868c3.261,0,6,1.609,6.729,3.775a.855.855,0,0,1-.713,1.163Z" transform="translate(-347.549 -468.205)"/>
          <path id="Path_2188" data-name="Path 2188" d="M366,467.984c0-3.982,5.2-7.209,11.624-7.209,5.477,0,10.069,2.349,11.3,5.511a1.262,1.262,0,0,1-1.2,1.7Z" transform="translate(-348.908 -455.962)"/>
          <path id="Path_2189" data-name="Path 2189" d="M349.988,460.21c0-3.982,5.2-7.21,11.624-7.21,5.477,0,10.069,2.349,11.3,5.511a1.262,1.262,0,0,1-1.2,1.7Z" transform="translate(-342.81 -453)"/>
        </g>
        <path id="Path_2190" data-name="Path 2190" d="M232.4,537.966l-1.232,2.584.907,1.487-.518,1.422,1.121,1.332-.157,3.6,2.731,4.182,2.852-1.874-3.331-4.8Z" transform="translate(-192.684 -485.369)" fill="#fff"/>
        <path id="Path_2191" data-name="Path 2191" d="M235.438,535.931l.548.458-4.086,4.853-.548-.458Z" transform="translate(-192.754 -484.594)"/>
        <path id="Path_2192" data-name="Path 2192" d="M232.6,548.674a.334.334,0,0,1-.069-.007.357.357,0,0,1-.283-.418l.666-3.385,2.909-3.495a.36.36,0,0,1,.5-.046.355.355,0,0,1,.047.5l-2.794,3.355-.631,3.206A.355.355,0,0,1,232.6,548.674Z" transform="translate(-193.091 -486.617)"/>
        <path id="Path_2193" data-name="Path 2193" d="M414.245,527.769a7.159,7.159,0,0,0-7.15-7.128h-.985a4.19,4.19,0,0,0-3.5,1.9l-.844.842a7.248,7.248,0,0,0-1.772,2.915l-.578,1.788-4.021,6.779a.61.61,0,0,0,.135.854.622.622,0,0,0,.067.042,1.242,1.242,0,0,0,.579.131,3.385,3.385,0,0,0,1.455-.2,3.59,3.59,0,0,0,1.312-1.389l1.169-2.152h0c.392-.621,1.116,0,1.124,2.034l-.164,14.591a.432.432,0,0,0,.395.467h.01a1.681,1.681,0,0,0,1.5-1.393l1.6-11.383s.006,0,.006,0a.25.25,0,0,1,.492.092l-1.605,8.166a.432.432,0,0,0,.3.532l.011,0a1.683,1.683,0,0,0,1.726-1.1l.7-2.086-.124.787a.433.433,0,0,0,.324.519l.011,0a1.684,1.684,0,0,0,1.682-1.164l.646-2.212a.427.427,0,0,0,.328.379l.011,0a1.683,1.683,0,0,0,1.683-1.164l2.369-8.115a4.14,4.14,0,0,0,1.106-2.81v-.529Z" transform="translate(-255.204 -478.769)" fill="#fff"/>
        <path id="Path_2194" data-name="Path 2194" d="M401.257,549.382l-.04,0a.792.792,0,0,1-.722-.852l.163-14.565c0-1.318-.314-1.8-.43-1.892-.006.01-.019.027-.035.052l-1.157,2.133a3.939,3.939,0,0,1-1.442,1.524,3.058,3.058,0,0,1-1.453.251h-.188a1.614,1.614,0,0,1-.743-.171.841.841,0,0,1-.122-.076.965.965,0,0,1-.206-1.348l3.981-6.716.566-1.749a7.637,7.637,0,0,1,1.86-3.057l.82-.817a4.536,4.536,0,0,1,3.779-2.03h.986a7.5,7.5,0,0,1,7.508,7.485v.527a4.5,4.5,0,0,1-1.144,2.989l-2.346,8.036a2.085,2.085,0,0,1-1.875,1.43,1.68,1.68,0,0,1-.193-.012.9.9,0,0,1-.128-.038l-.471,1.614a2.061,2.061,0,0,1-2.067,1.42.474.474,0,0,1-.1-.027.582.582,0,0,1-.208-.092l-.218.652a2.059,2.059,0,0,1-2.121,1.338.424.424,0,0,1-.075-.019l-.326,2.313a2.036,2.036,0,0,1-1.842,1.7Zm-1.034-18.036c.7,0,1.143,1,1.148,2.619l-.164,14.6c0,.063.022.1.06.107a1.343,1.343,0,0,0,1.138-1.114L404,536.2a.354.354,0,0,1,.035-.11l0,0a.624.624,0,0,1,1.01-.207.633.633,0,0,1,.163.483l-1.611,8.211a.1.1,0,0,0,.046.119,1.138,1.138,0,0,0,.117.006,1.383,1.383,0,0,0,1.2-.9l.687-2.059a.361.361,0,0,1,.424-.234.357.357,0,0,1,.269.4l-.124.787c-.015.068.012.108.051.117.008,0,.045,0,.08,0a1.36,1.36,0,0,0,1.2-.944l.637-2.184a.358.358,0,0,1,.7.064.078.078,0,0,0,.053.068c.009,0,.044,0,.08,0a1.36,1.36,0,0,0,1.2-.943l2.36-8.088a.352.352,0,0,1,.08-.141,3.788,3.788,0,0,0,1.013-2.57v-.527a6.79,6.79,0,0,0-6.793-6.772h-.985a3.825,3.825,0,0,0-3.2,1.738.377.377,0,0,1-.046.057l-.844.843a6.918,6.918,0,0,0-1.684,2.771l-.579,1.789a.344.344,0,0,1-.032.072l-4.021,6.779a.267.267,0,0,0,.037.386.893.893,0,0,0,.436.1h.188a2.772,2.772,0,0,0,1.093-.153,3.224,3.224,0,0,0,1.171-1.245l1.171-2.156a.763.763,0,0,1,.648-.418Z" transform="translate(-254.983 -478.55)"/>
        <path id="Path_2195" data-name="Path 2195" d="M412.723,551.21a.34.34,0,0,1-.074-.008.356.356,0,0,1-.277-.421l1.5-7.206a.358.358,0,0,1,.7.145l-1.5,7.2A.357.357,0,0,1,412.723,551.21Z" transform="translate(-261.714 -487.398)"/>
        <path id="Path_2196" data-name="Path 2196" d="M416.665,548.8a.38.38,0,0,1-.086-.011.356.356,0,0,1-.261-.431l1.6-6.456a.357.357,0,0,1,.693.171l-1.6,6.457A.357.357,0,0,1,416.665,548.8Z" transform="translate(-263.217 -486.765)"/>
        <path id="Path_2197" data-name="Path 2197" d="M412.682,519.292a.356.356,0,0,1-.043-.709l17.338-2.138a.357.357,0,1,1,.088.708l-17.338,2.138Z" transform="translate(-261.699 -477.169)"/>
      </g>
      <g id="Group_2735" data-name="Group 2735" transform="translate(178.283 6.19)">
        <path id="Path_2198" data-name="Path 2198" d="M540.952,496.34H530.115V468.493A5.5,5.5,0,0,1,535.621,463h3.4a1.925,1.925,0,0,1,1.926,1.923Z" transform="translate(-484.856 -463)"/>
        <path id="Path_2199" data-name="Path 2199" d="M522.439,575.981h39.446l5.071,33.28H538.4a12.666,12.666,0,0,1-12.531-10.745Z" transform="translate(-481.932 -506.042)"/>
        <path id="Path_2200" data-name="Path 2200" d="M578.36,600.083v34.6l-3.693,51.108s-11.528-.031-11.131-.009l-5.47-49.54A26.882,26.882,0,0,1,558,631l2.624-30.9Z" transform="translate(-495.443 -515.224)" fill="#fff"/>
        <path id="Path_2201" data-name="Path 2201" d="M574.461,685.918s-10.358-.028-11.085-.012a.217.217,0,0,1-.064,0,.346.346,0,0,1-.331-.339.247.247,0,0,1,0-.043l-5.46-49.459a27.35,27.35,0,0,1-.067-5.3l2.623-30.9a.337.337,0,0,1,.337-.309l17.736-.022h0a.338.338,0,0,1,.24.1.335.335,0,0,1,.1.239v34.6L574.8,685.605a.338.338,0,0,1-.337.313ZM565,685.226c2.7,0,7.825.013,9.144.016l3.671-50.795V600.213l-17.086.021-2.6,30.588a26.6,26.6,0,0,0,.066,5.173l5.436,49.235,1.369,0Z" transform="translate(-495.236 -515.017)"/>
        <path id="Path_2202" data-name="Path 2202" d="M479.678,607.933l-3.642,8.249a4.031,4.031,0,0,1-2.615,2.307l-4.765,1.348a7.522,7.522,0,0,1-1.58.267l-1.088.066-.041.072-8.048.48a.346.346,0,0,0-.352.34v.009a1.343,1.343,0,0,0,1.2,1.112l6.757.464,6.057,2.065a1.016,1.016,0,0,1,.438,1.71l-3.264,3.137a.907.907,0,0,0-.123,1.279c.015.019.032.037.049.056a.476.476,0,0,0,.589.054l8.532-5.091-.007-.008a6.521,6.521,0,0,0,3.163-4.448l.048-.28,1.876-4.01Z" transform="translate(-457.21 -518.215)" fill="#fff"/>
        <path id="Path_2203" data-name="Path 2203" d="M468.782,631.154a.809.809,0,0,1-.564-.228.981.981,0,0,1-.074-.082,1.246,1.246,0,0,1,.168-1.755l3.246-3.121a.68.68,0,0,0-.293-1.142l-6.035-2.056-6.713-.461A1.681,1.681,0,0,1,457,620.894a.7.7,0,0,1,.685-.72l7.874-.469a.344.344,0,0,1,.2-.08l1.088-.066a7.125,7.125,0,0,0,1.509-.254l4.765-1.348a3.673,3.673,0,0,0,2.4-2.115l3.644-8.253a.368.368,0,0,1,.324-.2.34.34,0,0,1,.306.227l3.184,9.176a.341.341,0,0,1-.014.254l-1.857,3.969-.04.235a6.854,6.854,0,0,1-3.256,4.642.3.3,0,0,1-.061.047l-8.532,5.091a.8.8,0,0,1-.435.128Zm-2.821-10.866a.339.339,0,0,1-.2.081l-8.049.48a.941.941,0,0,0,.877.791l6.729.461a.361.361,0,0,1,.086.017l6.058,2.064a1.355,1.355,0,0,1,.928,1.663,1.355,1.355,0,0,1-.363.61l-3.265,3.138a.578.578,0,0,0-.1.821c.074.079.11.1.19.043l8.475-5.057a.3.3,0,0,1,.068-.053,6.18,6.18,0,0,0,3-4.217l.046-.275a.363.363,0,0,1,.027-.087l1.818-3.886-2.857-8.233-3.293,7.461a4.349,4.349,0,0,1-2.833,2.5l-4.765,1.348a7.84,7.84,0,0,1-1.652.278Z" transform="translate(-457.003 -518.007)"/>
        <path id="Path_2204" data-name="Path 2204" d="M559.237,622.42h19.63V600.081l-17.734.023Z" transform="translate(-495.951 -515.224)"/>
        <path id="Path_2205" data-name="Path 2205" d="M582.848,584.047l13.824,22.137a13.2,13.2,0,0,1,1.614,3.81l11.947,48.158s-10.936,3.592-10.573,3.429l-21.235-46.149a13.2,13.2,0,0,1-.816-2.324l-5.379-21.6Z" transform="translate(-500.901 -509.115)" fill="#fff"/>
        <path id="Path_2206" data-name="Path 2206" d="M599.443,661.718a.338.338,0,0,1-.331-.267l0-.008-21.2-46.076a13.55,13.55,0,0,1-.838-2.385l-5.379-21.6a.338.338,0,0,1,.134-.358l10.62-7.461a.341.341,0,0,1,.262-.054.336.336,0,0,1,.22.152L596.751,605.8a13.512,13.512,0,0,1,1.655,3.908l11.947,48.158a.337.337,0,0,1-.222.4c-10.511,3.451-10.617,3.451-10.687,3.451ZM572.4,591.445l5.324,21.375a12.929,12.929,0,0,0,.8,2.265l21.115,45.887c1.227-.381,6.335-2.051,9.983-3.249l-11.871-47.854a12.812,12.812,0,0,0-1.573-3.713l-13.635-21.834Z" transform="translate(-500.692 -508.908)"/>
        <path id="Path_2207" data-name="Path 2207" d="M549.533,522.888l-.051,0-1.758-4.829a5.066,5.066,0,0,0-3.657-3.208l-37.605-8.4a5.066,5.066,0,0,0-6.171,5.191l.6,11.93-2.287,18.9-11.788,35.865,6.255,2.242,11.248-23.7,3.54-12.776.013.08v19.288h3.131l.029.18h39.8l-.911-7.194,2.2,5.772h2.869l5.83-8.445Z" transform="translate(-468.362 -479.506)" fill="#fff"/>
        <path id="Path_2208" data-name="Path 2208" d="M492.864,580.711a.35.35,0,0,1-.115-.02l-6.255-2.241a.338.338,0,0,1-.207-.424l11.788-35.867,2.273-18.835-.6-11.872a5.331,5.331,0,0,1,1.477-3.985,5.465,5.465,0,0,1,5.106-1.551l37.606,8.4a5.382,5.382,0,0,1,3.9,3.422l1.71,4.7a.282.282,0,0,1,.1.128l11.291,30.9a.334.334,0,0,1-.04.306l-5.83,8.445a.339.339,0,0,1-.279.146h-2.87a.338.338,0,0,1-.317-.217l-1.195-3.133.544,4.3a.342.342,0,0,1,.028.134.339.339,0,0,1-.339.338H510.825a.337.337,0,0,1-.3-.181h-2.861a.338.338,0,0,1-.339-.337V546.342l-2.89,10.423L493.17,580.518a.339.339,0,0,1-.306.193Zm-5.831-2.786,5.656,2.027L503.8,556.531l3.521-12.721a.334.334,0,0,1,.345-.247.338.338,0,0,1,.315.285l.013.08,0,19H510.8a.336.336,0,0,1,.3.181h39.144l-.862-6.815a.338.338,0,0,1,.652-.162l2.118,5.555h2.459l5.63-8.155-11.182-30.6a.29.29,0,0,1-.1-.128l-1.759-4.83a4.706,4.706,0,0,0-3.413-2.994l-37.605-8.405a4.769,4.769,0,0,0-4.469,1.358,4.662,4.662,0,0,0-1.291,3.486l.6,11.929-2.29,18.958Z" transform="translate(-468.153 -479.301)"/>
        <path id="Path_2209" data-name="Path 2209" d="M572.231,591.509l5.031,20.207,18.958-6.255L582.85,584.046Z" transform="translate(-500.901 -509.115)"/>
        <path id="Path_2210" data-name="Path 2210" d="M580.333,593.587l-3.274,1.583a5.755,5.755,0,0,1-7.658-2.653l-.976-2.009a7.511,7.511,0,0,1,3.486-10.016l2.064-1a5.315,5.315,0,0,1,7.072,2.45l1.944,4A5.729,5.729,0,0,1,580.333,593.587Z" transform="translate(-499.166 -507.18)"/>
        <path id="Path_2211" data-name="Path 2211" d="M558.017,582.211l-24.3,11.474,33.3,7.908Z" transform="translate(-486.229 -508.416)"/>
        <path id="Path_2212" data-name="Path 2212" d="M543.344,469a1.354,1.354,0,0,0,1.175-.678,2.024,2.024,0,0,1,1.291-.711,2.532,2.532,0,0,1,1.992.335,1.352,1.352,0,1,0,1.625-2.161,5.188,5.188,0,0,0-4.162-.819,4.6,4.6,0,0,0-3.093,2.009A1.352,1.352,0,0,0,543.344,469Z" transform="translate(-489.381 -463.701)" fill="#fff"/>
        <path id="Path_2213" data-name="Path 2213" d="M543.135,469.127a1.691,1.691,0,0,1-.841-.225,1.687,1.687,0,0,1-.625-2.3,4.944,4.944,0,0,1,3.318-2.173,5.548,5.548,0,0,1,4.434.88,1.686,1.686,0,0,1,.339,2.363,1.732,1.732,0,0,1-2.369.339,2.229,2.229,0,0,0-1.721-.274,1.747,1.747,0,0,0-1.065.548A1.7,1.7,0,0,1,543.135,469.127Zm3.107-4.156a5.592,5.592,0,0,0-1.119.115,4.259,4.259,0,0,0-2.867,1.848,1.011,1.011,0,0,0,.375,1.383,1.042,1.042,0,0,0,1.386-.374,2.325,2.325,0,0,1,1.516-.872,2.9,2.9,0,0,1,2.263.395,1.04,1.04,0,0,0,1.421-.2,1.009,1.009,0,0,0-.2-1.418A4.578,4.578,0,0,0,546.242,464.971Z" transform="translate(-489.172 -463.494)"/>
        <path id="Path_2214" data-name="Path 2214" d="M539.795,489.963l16.171-5.769v-5.347a10.028,10.028,0,0,0-10.04-10.017h-2.849a10.028,10.028,0,0,0-10.04,10.017v4.373A6.75,6.75,0,0,0,539.795,489.963Z" transform="translate(-485.97 -465.221)"/>
        <path id="Path_2215" data-name="Path 2215" d="M552.11,574.8h11.112a1.27,1.27,0,0,0,1.268-1.265v-.6a1.27,1.27,0,0,0-1.268-1.265H552.11a1.27,1.27,0,0,0-1.268,1.265v.6A1.271,1.271,0,0,0,552.11,574.8Z" transform="translate(-492.753 -504.399)"/>
        <path id="Path_2216" data-name="Path 2216" d="M583.653,573.115l-12.424-6.007-.011.028a9.255,9.255,0,0,0-1.782-.579l-.365-.092-5.2-1.717a2.276,2.276,0,0,0-1.7.532l-1.658,1.891a.488.488,0,0,0,.046.69l.143.125a1.716,1.716,0,0,0,2.261-.005l.538-.474,1.518.508-2.061,1.633a.39.39,0,0,1-.2.323l-1.159.636-6.621,1.611-5.755-1a1.374,1.374,0,0,0-1.509.84l-.007.017a.012.012,0,0,1,0,.007.347.347,0,0,0,.225.437l6.055,1.975a4.633,4.633,0,0,0,2.026.2l2.984-.349,1.515,1.1a2.639,2.639,0,0,0,1.826.491l5.6-.562.044,0a5.911,5.911,0,0,1,1.37.064l3.935,6.668a4.767,4.767,0,0,0,4.106,2.342h4.157a4.76,4.76,0,0,0,4.765-4.7l.028-2.289a4.755,4.755,0,0,0-2.688-4.337Z" transform="translate(-491.553 -501.74)" fill="#fff"/>
        <path id="Path_2217" data-name="Path 2217" d="M581.339,584.564h-4.156a5.128,5.128,0,0,1-4.4-2.508l-3.852-6.529a5.4,5.4,0,0,0-1.134-.038l-5.632.565a2.962,2.962,0,0,1-2.058-.553l-1.407-1.021-2.854.334a4.959,4.959,0,0,1-2.172-.211l-6.054-1.974a.687.687,0,0,1-.444-.854.419.419,0,0,1,.019-.054,1.715,1.715,0,0,1,1.882-1.049l5.686.992,6.508-1.584,1.12-.615a.446.446,0,0,1,.152-.29l1.573-1.247-.742-.249-.392.347a2.106,2.106,0,0,1-2.708.006l-.144-.126a.825.825,0,0,1-.078-1.164l1.659-1.891a1.543,1.543,0,0,1,.745-.471,1.573,1.573,0,0,1,1.312-.16l5.541,1.8a10.1,10.1,0,0,1,1.729.548.606.606,0,0,1,.128.027l12.424,6.007a5.11,5.11,0,0,1,2.878,4.643l-.028,2.289a5.115,5.115,0,0,1-5.1,5.03ZM568.174,574.8a6.592,6.592,0,0,1,1.022.084.339.339,0,0,1,.238.162l3.935,6.668a4.448,4.448,0,0,0,3.815,2.176h4.157a4.438,4.438,0,0,0,4.426-4.362l.028-2.289a4.432,4.432,0,0,0-2.5-4.028l-12.31-5.951a.275.275,0,0,1-.125-.027,8.948,8.948,0,0,0-1.718-.555l-.365-.094-5.222-1.723a.891.891,0,0,0-.773.111.336.336,0,0,1-.109.048.875.875,0,0,0-.454.275l-1.658,1.891a.147.147,0,0,0,.014.212l.143.127a1.415,1.415,0,0,0,1.814-.006l.538-.475a.34.34,0,0,1,.332-.067l1.518.508a.338.338,0,0,1,.1.585l-1.962,1.556a.735.735,0,0,1-.341.43l-1.163.639a.345.345,0,0,1-.084.032l-6.621,1.612a.313.313,0,0,1-.138.005l-5.755-1a1.048,1.048,0,0,0-1.138.633h0v0l6.063,1.987a4.3,4.3,0,0,0,1.879.182l2.987-.35a.357.357,0,0,1,.239.062l1.515,1.1a2.306,2.306,0,0,0,1.591.428l5.6-.561c.2-.017.338-.023.479-.023Z" transform="translate(-491.345 -501.532)"/>
        <path id="Path_2218" data-name="Path 2218" d="M563.975,753.2h15.452v3.591H563.975Z" transform="translate(-497.756 -573.557)"/>
        <path id="Path_2219" data-name="Path 2219" d="M577.728,737.982l-7.978-.12.121-7.956a2.609,2.609,0,0,1,2.651-2.566l2.754.041a2.609,2.609,0,0,1,2.573,2.644Z" transform="translate(-499.956 -563.705)"/>
        <path id="Path_2220" data-name="Path 2220" d="M578.439,740.82l-1.652-4.508v-1.137h-2.8a2.646,2.646,0,0,0-2.626,2.31l-.171,1.345-.162.076-.308-.149-.161-1.271a2.644,2.644,0,0,0-2.626-2.31h-2.8v1.847l-1.541,4.209a13.176,13.176,0,0,0-.8,4.529v.732a1.322,1.322,0,0,0,1.324,1.32h13.8a1.322,1.322,0,0,0,1.323-1.309l.009-1.032a13.2,13.2,0,0,0-.8-4.652Z" transform="translate(-497.302 -566.69)" fill="#fff"/>
        <path id="Path_2221" data-name="Path 2221" d="M577.7,747.944H563.9a1.663,1.663,0,0,1-1.663-1.658v-.732a13.473,13.473,0,0,1,.824-4.646l1.52-4.153v-1.787a.338.338,0,0,1,.338-.337h2.8a2.989,2.989,0,0,1,2.962,2.6l.065.511.065-.511a2.989,2.989,0,0,1,2.962-2.6h2.8a.338.338,0,0,1,.339.337v1.077l1.63,4.452a13.46,13.46,0,0,1,.825,4.772l-.009,1.033a1.667,1.667,0,0,1-1.663,1.642ZM565.258,735.3v1.509a.354.354,0,0,1-.021.116l-1.54,4.21a12.778,12.778,0,0,0-.782,4.413v.731a.986.986,0,0,0,.986.984h13.8a.987.987,0,0,0,.985-.974l.009-1.033a12.794,12.794,0,0,0-.783-4.534l-1.651-4.508a.339.339,0,0,1-.021-.116v-.8h-2.465a2.311,2.311,0,0,0-2.291,2.014l-.17,1.344a.338.338,0,0,1-.192.264l-.162.076a.336.336,0,0,1-.292,0l-.308-.149a.338.338,0,0,1-.187-.261l-.161-1.271a2.311,2.311,0,0,0-2.29-2.014h-2.465Z" transform="translate(-497.094 -566.482)"/>
        <path id="Path_2222" data-name="Path 2222" d="M539.654,491.181a1.724,1.724,0,0,0-1.709-1.553h-.1a1.729,1.729,0,0,0-1.726,1.722v4.769a1.729,1.729,0,0,0,1.726,1.722h.1a1.674,1.674,0,0,0,.194-.02v5.092l10.788,11.336a.761.761,0,0,0,1.312-.522v-7.635l1.67-.016a1.184,1.184,0,0,0,1.005-.576l1.851-3.091a10.1,10.1,0,0,0,1.435-5.189v-6.04H539.654Z" transform="translate(-487.143 -473.144)" fill="#fff"/>
        <g id="Group_2734" data-name="Group 2734" transform="translate(48.636 12.94)">
          <path id="Path_2223" data-name="Path 2223" d="M549.264,514.616a1.086,1.086,0,0,1-.791-.344l-10.788-11.334a.34.34,0,0,1-.093-.233v-4.736a2.064,2.064,0,0,1-2.021-2.058v-4.77a2.065,2.065,0,0,1,2.065-2.06h.1a2.05,2.05,0,0,1,1.992,1.554h16.262a.339.339,0,0,1,.339.338v6.039a10.446,10.446,0,0,1-1.483,5.361L553,505.464a1.538,1.538,0,0,1-1.292.74l-1.336.014v7.3a1.079,1.079,0,0,1-.346.8A1.127,1.127,0,0,1,549.264,514.616Zm-11-12.046,10.7,11.237a.4.4,0,0,0,.3.133.441.441,0,0,0,.3-.118.4.4,0,0,0,.129-.3v-7.634a.338.338,0,0,1,.335-.337l1.671-.016a.844.844,0,0,0,.719-.412l1.85-3.09a9.766,9.766,0,0,0,1.388-5.015v-5.7H539.446a.337.337,0,0,1-.337-.3,1.379,1.379,0,0,0-1.372-1.25h-.1a1.388,1.388,0,0,0-1.387,1.385v4.769a1.387,1.387,0,0,0,1.387,1.384h.1a.778.778,0,0,0,.095-.009.4.4,0,0,1,.295.077.361.361,0,0,1,.143.251v4.957Z" transform="translate(-535.571 -485.876)"/>
          <ellipse id="Ellipse_389" data-name="Ellipse 389" cx="9.522" cy="4.426" rx="9.522" ry="4.426" transform="translate(2.317 1.517)"/>
          <path id="Path_2224" data-name="Path 2224" d="M539.293,483.9H542.5v6.07h-3.211Z" transform="translate(-536.989 -483.903)"/>
          <path id="Path_2225" data-name="Path 2225" d="M624.257,729.463a5.3,5.3,0,0,0,4.761,2.309l6.78-.482a3.072,3.072,0,0,0,2.387-4.519l-9.055-16.7-10.644,3.847.874,8.323Z" transform="translate(-567.159 -570.066)"/>
          <path id="Path_2226" data-name="Path 2226" d="M627.722,706.133l-7.537,2.612-2.617-7.517a2.605,2.605,0,0,1,1.611-3.317l2.6-.9a2.614,2.614,0,0,1,3.325,1.607Z" transform="translate(-566.754 -565.035)"/>
        </g>
        <path id="Path_2227" data-name="Path 2227" d="M636.859,721.9l-8.941-16.489-1.21-3.314-1.794.652a2.641,2.641,0,0,0-1.663,3.12l.224.9-.736.266-.483-.9a2.65,2.65,0,0,0-3.241-1.237l-3.262,1.185,1.538,4.212.744,7.082,4.9,7.22a5.3,5.3,0,0,0,4.761,2.308l6.779-.482a3.073,3.073,0,0,0,2.388-4.519Z" transform="translate(-517.481 -554.09)" fill="#fff"/>
        <path id="Path_2228" data-name="Path 2228" d="M627.107,727.045a5.628,5.628,0,0,1-4.663-2.469l-4.9-7.22a.338.338,0,0,1-.056-.155l-.741-7.041-1.523-4.172a.338.338,0,0,1,.2-.433l3.262-1.185a2.988,2.988,0,0,1,3.657,1.4l.344.643.173-.063-.15-.6a2.971,2.971,0,0,1,1.876-3.518l1.794-.652a.337.337,0,0,1,.434.2l1.21,3.314,8.921,16.443a3.411,3.411,0,0,1-2.649,5.016l-6.79.483c-.135.01-.269.015-.4.015Zm-8.952-10L623,724.2a4.936,4.936,0,0,0,4.456,2.16l6.78-.482a2.735,2.735,0,0,0,2.113-4.021l-8.941-16.489-1.114-3.043-1.478.537a2.3,2.3,0,0,0-1.45,2.721l.224.9a.337.337,0,0,1-.213.4l-.735.267a.337.337,0,0,1-.414-.158l-.483-.9a2.348,2.348,0,0,0-2.827-1.08l-2.944,1.07,1.422,3.894a.323.323,0,0,1,.019.081Z" transform="translate(-517.273 -553.88)"/>
        <path id="Path_2229" data-name="Path 2229" d="M556.191,504.4a.338.338,0,0,1-.022-.675l.7-.046a1.681,1.681,0,0,0,1.579-1.647l.066-2.857v-3.18a.338.338,0,0,1,.677,0v3.188l-.066,2.865a2.353,2.353,0,0,1-2.211,2.3l-.7.046Z" transform="translate(-494.662 -475.441)"/>
        <path id="Path_2230" data-name="Path 2230" d="M582.305,560.743a.341.341,0,0,1-.32-.227l-4.231-12.155a.339.339,0,0,1,.641-.222l4.23,12.155a.338.338,0,0,1-.209.43A.366.366,0,0,1,582.305,560.743Z" transform="translate(-502.999 -495.349)"/>
        <path id="Path_2231" data-name="Path 2231" d="M516.847,566.274a.33.33,0,0,1-.087-.011.338.338,0,0,1-.24-.414l6.768-25.322a.338.338,0,0,1,.654.174l-6.768,25.322A.338.338,0,0,1,516.847,566.274Z" transform="translate(-479.672 -492.44)"/>
      </g>
      <g id="Group_2736" data-name="Group 2736" transform="translate(41.744 37.411)">
        <path id="Path_2232" data-name="Path 2232" d="M245.118,541.033l-.373.013a1.013,1.013,0,0,1-1.051-.972L243,521.059a1.012,1.012,0,0,1,.977-1.046l.373-.013a1.013,1.013,0,0,1,1.051.972l.693,19.015A1.012,1.012,0,0,1,245.118,541.033Z" transform="translate(-243 -520)"/>
      </g>
    </g>
    <g id="Group_2728" data-name="Group 2728" transform="translate(250.189 247)">
      <path id="Path_2118" data-name="Path 2118" d="M1947.115,844.116a53.9,53.9,0,1,1-53.911,53.9A53.905,53.905,0,0,1,1947.115,844.116Zm0,107.946a54.048,54.048,0,1,1,54.061-54.048A54.116,54.116,0,0,1,1947.115,952.062Zm0-107.8a53.75,53.75,0,1,0,53.763,53.75A53.817,53.817,0,0,0,1947.115,844.265Zm-9.411,97.529c-1.937-.646-4.651-2.583-5.167-4.778s-4.651-1.808-4.651-1.808c.775-4.133.259-7.36.517-9.427s4.391-3.487,3.351-4.391-1.156-3.1-1.156-3.1c1.679-2.97,1.033-5.037,1.033-5.037-1.809-5.037-7.751-4.262-7.751-4.262,1.938-1.55.775-2.583.775-2.583a41.817,41.817,0,0,1-5.3-2.712c-3.229,1.291-3.1-2.324-3.1-2.324a9.224,9.224,0,0,1-6.329-.9c-7.492.9-12.788,7.491-12.788,7.491,1.163,2.066,3.1,3.874,4,7.361s2.971,4.519,2.971,4.519,3.875.775,9.817,9.3,3.1,1.55,6.459,5.812,3.875,5.038,5.813,5.167,8.655,3.487,11.5,3.487,1.938-1.162,0-1.808Zm-37.332-37.968c.1,2.034,1.389-.9,1.389-.9a36.943,36.943,0,0,0-2.487-3.1,2.528,2.528,0,0,0-.872-4.1s2.584-3.745,2.067-4.713a30.933,30.933,0,0,0-3.552,2.389c-1.227.871-.711-4.391-.711-4.391.969-.969,3.1-1.743,3.779-2.712s1.8-2.363,4.069-1.065c1.356.775,4.263-1.259,4.263-1.259s1.744,2.809,1.259,4.359c0,0,2.034,0,2.228-3.777a25.6,25.6,0,0,0,1.744-3.971,42.326,42.326,0,0,0,6.588-3.971s2.557,2.358,2.034-2.518c-.291-2.712,3.972-3.971,3.972-3.971s-.872-5.715-1.647-6.78c0,0-3.778,4.94-3.1,0s-4.36.581-4.36.581a4.991,4.991,0,0,1-4.941,3.875l-.291-5.715s6.588-2.615,6.1-4.165,4.36-3.293,4.36-3.293.387,2.131,1.744,2.325-2.034,5.133,1.066,3.293a23.246,23.246,0,0,0,3.972-2.712s1.647-3.971,1.55-4.746c0,0,7.847-2.131,8.913-.581s-4.941,3.1-4.941,3.1-1.647,2.518-1.26,3.874-1.938.387-3.681,3.2c0,0,5.064,1.511,10.008-3.293,2.393-2.325,1.714-3.777,1.714-3.777s3.483-2.518,5.761-3,0-3.875,0-3.875,3.442-1.625,2.473-4.25a54.263,54.263,0,0,0-26.605,5.632,51.055,51.055,0,0,0-21.286,19.157c-1.391,2.293-6.969,12.268-7.3,17.705s1.03,7.471.449,8.634,1.841,1.259,1.453,2.712-1.033,3,.84,4.165,3.132-.388,3.229,1.647Zm82.01-4.31c1.113-2.131,4.989-4.407,4.989-4.407s1.4-1.211.485-2.179-1.453-.727-2.955.388-4.408-.823-6.588-4.068-2.325-2.373-2.325-2.373.872-5.811-5.425-2.857c-1.453.727-4.263-.581-5.91-1.4s-2.374,1.162-2.422,1.356-3.246.823-3.73-.436,2.567-1.162.339-2.954a50.2,50.2,0,0,1-7.218,1.065c-1.7-.1,0,1.211-3.875,1.356s-2.277,4.02-2.277,4.02a7.885,7.885,0,0,0-2.761,3.2,4.087,4.087,0,0,1-2.1,2.373v2.76s-2.825,1.308,0,3.729c.452,1.7.614,3,0,3.2,0,0-.065,2.454,10.657,1.873,3.423,0,4.392.581,4.715,2.712s2.584,4.649,2.713,5.618,2.067,2.906-1.227,6.07a2.949,2.949,0,0,0,1.324,2.131c1.308.969,3.294,6.3,3.294,6.3s3.536,3.487,6.007,4.359a9.891,9.891,0,0,0,4.6.484s.339-1.211.727-2.47,2.325-1.453,2.955-6.1,1.018-9.2.388-10.8-1.732-5.327.321-7.652,4.185-3.148,5.3-5.279Zm-.659,21.541c.1-.312.217-.683.333-1.078a14.339,14.339,0,0,1,1.06-2.864c.632-1,.791-4.125.816-4.742a.581.581,0,0,0-.773-.572,8.508,8.508,0,0,0-2.674,1.719c-2.01,1.852-1.69,3.081-1.434,4.068a2.711,2.711,0,0,1,.136.948,4.163,4.163,0,0,1-.995,1.709c-.494.621-.852,1.069-.734,1.573a.808.808,0,0,0,.462.549,2.756,2.756,0,0,0,1.136.214,3.748,3.748,0,0,0,1.44-.279,2.093,2.093,0,0,0,1.226-1.247Zm17.223-37.922c-.484-1.593-3.688-11.09-7.768-16.184s-8.428-10.137-13.133-13.088-7.26-4.622-11.924-6.3-3.066,0-3.066,0a5.671,5.671,0,0,0,2.761,1.347,6.921,6.921,0,0,0-1.962,3.027c-.315,1.55-1.817.46-1.5-.291s-.775-3.22-2.422-3.269-2.979,1.743-3.657,2.954-.63,2.664-3.1,3.1-2.132,3.826-2.132,3.826l2.277-.872.484,3.245s1.889-.194,2.519-2.906c.048-1.065-1.211-1.5-.049-2.47s3.439-2.615,3.439-3.1c0,0,.388,3.584-.92,4.649s-.533,2.179.92,1.5,2.131-1.453,2.567-.969-2.179,2.276-2.179,2.276-.1,3-2.325,2.857c-1.453.1-1.986,1.743-1.986,1.743s-1.986.145-2.18-1.4-1.017-1.937-1.163.049.727,4.407-1.841,5.811-4.069,1.162-4.069,1.162a2.779,2.779,0,0,0,.579,2.228c.875,1.356-.288,4.31-2.371,1.792s-2.648,2.664-2.648,2.664-1.687,1.7-1.663,2.954.475,2.139,1.147,2.341c1.546.465,1.744,1.937,2.519,1.485s.669-1.524,3.682-1.485c1.356,0,1.505-2.389,1.98-3.164s2.477-3.874,4.8-3.487c1.227.194.516,1.227,3.488,1.227,1.356.064-1.228,1.42-.711,1.873s1.163,1.55,2,.323.065-2.776,1.938-3.035c.9-.129.71,2.2,1.033,2.712s1.55,1.163,2.26-1.873,1.873-1.743,2.454-.775,2.2,1.226,4.134.839c0,0,1.437,3.842,2.309,4.375s1.7,1.73,2.955,2.584,3.342,4.438,4.6,5.164c0,1.114.727,4.456,2.325,3.245s1.55-1.7,2.81-2.857c.92-.581,3.439.436,4.553-2.567-2.325-2.712-1.744-3.168-4.505-3.109-1.017-1.879-1.114-2.266-.533-2.7s1.546,1.5,2.492,1.453,2.5-1.453,3.466-1.453.533,1.308,1.5,1.5,1.114.775,1.6,2.276,2.325,1.743,2.616,4.456c.452,1.775,1.744,2.421,1.744-.42s.336-3.666-.147-5.258Zm-52.236-18.858c-.026.025-2.6,2.522-1.882,3.413a.619.619,0,0,0,.5.247,1.8,1.8,0,0,0,.9-.368,3.672,3.672,0,0,0,1.467-2.872.581.581,0,0,0-.985-.418Zm1.1,2.687a.581.581,0,0,0,.431.476.588.588,0,0,0,.144.018.581.581,0,0,0,.462-.229c.022-.029,2.188-2.887,1.345-3.658-.5-.458-1.107.1-1.366.332a3.671,3.671,0,0,0-1.016,3.061Zm-38,29.77a.581.581,0,0,0,.233.788,7.939,7.939,0,0,1,1.957,1.468.581.581,0,0,0,.453.218v0a.581.581,0,0,0,.453-.944,9.2,9.2,0,0,0-2.308-1.762.582.582,0,0,0-.789.233Zm2.158-1.013a.581.581,0,0,0-.581-.581,1.063,1.063,0,0,1-.462-.283.581.581,0,1,0-.82.823,2.062,2.062,0,0,0,1.283.622A.581.581,0,0,0,1911.966,895.722Zm1.673-1.688a.581.581,0,0,0-.488-.661c-.027,0-2.689-.431-3.279-2.281a12.9,12.9,0,0,1-.4-1.662,2.918,2.918,0,0,0-1.447-2.363l-.012-.008a.581.581,0,0,0-.8.19,6.37,6.37,0,0,1-1.078,1.284,1.016,1.016,0,0,0-.368.841c.04.719.839,1.386,1.231,1.672.49.94,1.578,2.848,2.453,3.1a15.839,15.839,0,0,0,3.305.39,3.6,3.6,0,0,0,.373-.014.581.581,0,0,0,.514-.491Zm76.688,33.958c-.775,1.6-5.764,2.712-5.764,2.712,1.453,2.422-3.2,5.085-3.2,5.085s-1.5,1.453-1.356,2.081c1.841-.581,1.356.194,2.082,1.162,3.438-2.133,9.557-10.629,11.062-12.956-1.049-.221-2.051.318-2.826,1.916Zm-47.458-69.516a12.633,12.633,0,0,0-3.369,1.737.581.581,0,0,0,.7.926,11.652,11.652,0,0,1,3.026-1.557l.02-.007a.581.581,0,1,0-.379-1.1Zm4.246,93.586a54.048,54.048,0,1,1,54.061-54.048,54.115,54.115,0,0,1-54.061,54.048Zm0-107.8a53.75,53.75,0,1,0,53.763,53.75,53.817,53.817,0,0,0-53.763-53.75Z" transform="translate(-1893.054 -843.967)"/>
    </g>
    <path id="Path_2076" data-name="Path 2076" d="M1808.174,357.778l.409,2.824a.609.609,0,0,0,.513.515l2.818.409-2.819.41a.611.611,0,0,0-.514.515l-.408,2.823-.41-2.824a.609.609,0,0,0-.514-.515l-2.817-.408,2.819-.41a.608.608,0,0,0,.513-.514Z" transform="translate(-1735.667 -90.462)" fill="#fff"/>
    <path id="Path_2077" data-name="Path 2077" d="M1805.636,365.159l-.754-5.2a.263.263,0,0,0-.074-.147.258.258,0,0,0-.143-.073l-5.2-.753,5.194-.756a.26.26,0,0,0,.219-.218l.752-5.205.755,5.205a.259.259,0,0,0,.216.219l5.2.753-5.194.755a.253.253,0,0,0-.146.074.26.26,0,0,0-.073.145Zm-1.315-6.178.442.064a.95.95,0,0,1,.536.268.965.965,0,0,1,.273.54l.064.446.064-.442a.957.957,0,0,1,.807-.809l.445-.065-.442-.064a.945.945,0,0,1-.536-.268.961.961,0,0,1-.272-.54l-.065-.445-.064.442a.959.959,0,0,1-.806.81Z" transform="translate(-1733.128 -87.918)"/>
    <path id="Path_2078" data-name="Path 2078" d="M1815.829,525.59l.409,2.824a.61.61,0,0,0,.513.515l2.818.408-2.818.41a.61.61,0,0,0-.342.172.6.6,0,0,0-.172.343l-.408,2.822-.409-2.824a.61.61,0,0,0-.514-.515l-2.817-.409,2.819-.41a.61.61,0,0,0,.513-.515Z" transform="translate(-1739.581 -176.274)" fill="#fff"/>
    <path id="Path_2079" data-name="Path 2079" d="M1813.292,532.971l-.754-5.2a.26.26,0,0,0-.216-.219l-5.2-.753,5.2-.756a.262.262,0,0,0,.218-.217l.752-5.205.754,5.2a.259.259,0,0,0,.074.146.254.254,0,0,0,.143.073l5.2.753-5.194.756a.261.261,0,0,0-.146.073.25.25,0,0,0-.073.144Zm-1.316-6.178.441.064a.944.944,0,0,1,.536.268.959.959,0,0,1,.272.539l.065.446.064-.442a.959.959,0,0,1,.807-.809l.445-.065-.442-.064a.945.945,0,0,1-.536-.268.961.961,0,0,1-.273-.539l-.064-.446-.064.442a.957.957,0,0,1-.807.809Z" transform="translate(-1737.043 -173.731)"/>
    <path id="Path_2081" data-name="Path 2081" d="M2412.894,456.3l-1.135-7.831a.829.829,0,0,0-.234-.465.816.816,0,0,0-.461-.233l-7.816-1.133,7.816-1.137a.821.821,0,0,0,.465-.234.811.811,0,0,0,.233-.462l1.131-7.831,1.135,7.831a.826.826,0,0,0,.694.7l7.816,1.133-7.816,1.137a.822.822,0,0,0-.464.235.808.808,0,0,0-.233.461Zm-4.8-9.664,3.062.444a1.508,1.508,0,0,1,.854.429,1.526,1.526,0,0,1,.432.859l.446,3.073.443-3.068a1.524,1.524,0,0,1,1.284-1.288l3.066-.446-3.061-.443a1.526,1.526,0,0,1-1.287-1.288l-.445-3.072-.443,3.067a1.525,1.525,0,0,1-1.285,1.289Z" transform="translate(-2178.025 -130.962)" fill="#050505"/>
    <path id="Path_2082" data-name="Path 2082" d="M2350.686,640.258l.562,3.875a.837.837,0,0,0,.7.706l3.865.56-3.868.563a.837.837,0,0,0-.7.707l-.56,3.872-.561-3.875a.836.836,0,0,0-.705-.706l-3.865-.56,3.868-.563a.836.836,0,0,0,.7-.706Z" transform="translate(-2012.373 -234.91)" fill="#fff"/>
    <path id="Path_2083" data-name="Path 2083" d="M2348.149,650.428l-.907-6.255a.486.486,0,0,0-.136-.274.479.479,0,0,0-.271-.137l-6.245-.9,6.243-.908a.488.488,0,0,0,.274-.138.476.476,0,0,0,.138-.271l.9-6.256.907,6.256a.484.484,0,0,0,.137.273.476.476,0,0,0,.27.137l6.245.9-6.243.908a.49.49,0,0,0-.274.138.475.475,0,0,0-.137.271Zm-2.708-7.573,1.49.216a1.184,1.184,0,0,1,1,1l.217,1.5.215-1.492a1.185,1.185,0,0,1,1-1l1.493-.218-1.49-.216a1.183,1.183,0,0,1-1-1l-.217-1.5-.216,1.492a1.183,1.183,0,0,1-1,1Z" transform="translate(-2009.834 -232.366)"/>
    <path id="Path_2084" data-name="Path 2084" d="M1765.325,364.911l1.018,7.028a1.519,1.519,0,0,0,1.279,1.281l7.01,1.015-7.014,1.021a1.519,1.519,0,0,0-1.279,1.281l-1.013,7.023-1.018-7.029a1.516,1.516,0,0,0-1.279-1.281l-7.01-1.016,7.015-1.021a1.518,1.518,0,0,0,1.279-1.281Z" transform="translate(-1710.909 -94.109)" fill="#fff"/>
    <path id="Path_2085" data-name="Path 2085" d="M1762.785,383.447l-1.363-9.407a1.168,1.168,0,0,0-.33-.656,1.153,1.153,0,0,0-.652-.33l-9.389-1.361,9.39-1.365a1.17,1.17,0,0,0,.984-.984l1.358-9.406,1.363,9.407a1.169,1.169,0,0,0,.982.986l9.389,1.361-9.39,1.365a1.162,1.162,0,0,0-.655.331,1.149,1.149,0,0,0-.328.653Zm-6.881-11.755,4.634.671a1.843,1.843,0,0,1,1.044.525,1.867,1.867,0,0,1,.528,1.049l.673,4.649.671-4.643a1.864,1.864,0,0,1,1.571-1.576l4.64-.675-4.634-.671a1.842,1.842,0,0,1-1.044-.525,1.863,1.863,0,0,1-.528-1.05l-.673-4.649-.67,4.643a1.864,1.864,0,0,1-1.571,1.575Z" transform="translate(-1708.369 -91.566)"/>
    <path id="Path_2087" data-name="Path 2087" d="M2195.717,640.313l-1.211-8.356a.941.941,0,0,0-.791-.8l-8.34-1.209,8.34-1.213a.943.943,0,0,0,.794-.791l1.206-8.356,1.211,8.356a.94.94,0,0,0,.79.8l8.34,1.208-8.341,1.213a.944.944,0,0,0-.528.265.933.933,0,0,0-.265.526Zm-5.491-10.361,3.586.519a1.635,1.635,0,0,1,1.381,1.383l.522,3.6.518-3.593a1.639,1.639,0,0,1,1.38-1.384l3.591-.522-3.585-.519a1.623,1.623,0,0,1-.917-.46,1.641,1.641,0,0,1-.464-.922l-.521-3.6-.519,3.593a1.639,1.639,0,0,1-1.38,1.384Z" transform="translate(-1930.464 -263.969)"/>
    <path id="Path_2089" data-name="Path 2089" d="M2046.89,665.958l-1.288-8.883a1.056,1.056,0,0,0-.886-.89l-8.865-1.285,8.866-1.29a1.055,1.055,0,0,0,.889-.887l1.282-8.881,1.287,8.883a1.06,1.06,0,0,0,.3.593,1.046,1.046,0,0,0,.589.3l8.865,1.285-8.866,1.29a1.057,1.057,0,0,0-.592.3,1.045,1.045,0,0,0-.3.59ZM2040.7,654.9l4.11.6a1.753,1.753,0,0,1,1.477,1.479l.6,4.124.594-4.117a1.75,1.75,0,0,1,1.475-1.479l4.116-.6-4.11-.6a1.753,1.753,0,0,1-1.478-1.478l-.6-4.123-.594,4.117a1.753,1.753,0,0,1-1.475,1.48Z" transform="translate(-1854.004 -289.577)"/>
    <ellipse id="Ellipse_363" data-name="Ellipse 363" cx="2.087" cy="2.091" rx="2.087" ry="2.091" transform="translate(112.11 284.744)" fill="#fff"/>
    <path id="Path_2090" data-name="Path 2090" d="M1894.857,397.611a2.44,2.44,0,1,1,2.436-2.44A2.44,2.44,0,0,1,1894.857,397.611Zm0-4.183a1.743,1.743,0,1,0,1.74,1.743A1.743,1.743,0,0,0,1894.857,393.428Z" transform="translate(-1780.66 -108.335)"/>
    <ellipse id="Ellipse_364" data-name="Ellipse 364" cx="1.392" cy="1.394" rx="1.392" ry="1.394" transform="translate(124.635 272.196)" fill="#fff"/>
    <path id="Path_2091" data-name="Path 2091" d="M1919.793,370.537a1.743,1.743,0,1,1,1.74-1.743A1.743,1.743,0,0,1,1919.793,370.537Zm0-2.789a1.046,1.046,0,1,0,1.044,1.046A1.046,1.046,0,0,0,1919.793,367.748Z" transform="translate(-1793.767 -95.204)"/>
    <ellipse id="Ellipse_365" data-name="Ellipse 365" cx="1.392" cy="1.394" rx="1.392" ry="1.394" transform="translate(39.048 406.126)" fill="#fff"/>
    <path id="Path_2092" data-name="Path 2092" d="M1744.641,644.624a1.743,1.743,0,1,1,1.74-1.743A1.744,1.744,0,0,1,1744.641,644.624Zm0-2.789a1.046,1.046,0,1,0,1.044,1.046A1.046,1.046,0,0,0,1744.641,641.835Z" transform="translate(-1704.201 -235.36)"/>
    <ellipse id="Ellipse_366" data-name="Ellipse 366" cx="1.392" cy="1.394" rx="1.392" ry="1.394" transform="translate(153.859 348.88)" fill="#fff"/>
    <path id="Path_2093" data-name="Path 2093" d="M1979.6,527.47a1.743,1.743,0,1,1,1.74-1.743A1.743,1.743,0,0,1,1979.6,527.47Zm0-2.789a1.046,1.046,0,1,0,1.044,1.046A1.046,1.046,0,0,0,1979.6,524.682Z" transform="translate(-1824.35 -175.453)"/>
    <ellipse id="Ellipse_367" data-name="Ellipse 367" cx="1.392" cy="1.394" rx="1.392" ry="1.394" transform="translate(67.376 425.391)" fill="#fff"/>
    <path id="Path_2094" data-name="Path 2094" d="M1802.614,684.048a1.743,1.743,0,1,1,1.74-1.743A1.743,1.743,0,0,1,1802.614,684.048Zm0-2.789a1.046,1.046,0,1,0,1.044,1.046A1.046,1.046,0,0,0,1802.614,681.26Z" transform="translate(-1733.846 -287.018)"/>
    <ellipse id="Ellipse_368" data-name="Ellipse 368" cx="1.392" cy="1.394" rx="1.392" ry="1.394" transform="translate(213.701 330.058)" fill="#fff"/>
    <path id="Path_2095" data-name="Path 2095" d="M2102.066,488.951a1.743,1.743,0,1,1,1.739-1.743A1.743,1.743,0,0,1,2102.066,488.951Zm0-2.789a1.046,1.046,0,1,0,1.044,1.046A1.046,1.046,0,0,0,2102.066,486.162Z" transform="translate(-1886.973 -155.756)"/>
    <ellipse id="Ellipse_369" data-name="Ellipse 369" cx="1.392" cy="1.394" rx="1.392" ry="1.394" transform="translate(174.734 314.721)" fill="#fff"/>
    <path id="Path_2096" data-name="Path 2096" d="M2022.322,457.563a1.743,1.743,0,1,1,1.74-1.742A1.743,1.743,0,0,1,2022.322,457.563Zm0-2.788a1.046,1.046,0,1,0,1.044,1.046A1.046,1.046,0,0,0,2022.322,454.775Z" transform="translate(-1846.196 -139.706)"/>
    <ellipse id="Ellipse_370" data-name="Ellipse 370" cx="1.392" cy="1.394" rx="1.392" ry="1.394" transform="translate(174.734 307.75)" fill="#fff"/>
    <path id="Path_2097" data-name="Path 2097" d="M2022.322,443.3a1.743,1.743,0,1,1,1.74-1.743A1.743,1.743,0,0,1,2022.322,443.3Zm0-2.789a1.046,1.046,0,1,0,1.044,1.046A1.046,1.046,0,0,0,2022.322,440.508Z" transform="translate(-1846.196 -132.41)"/>
    <path id="Path_2098" data-name="Path 2098" d="M1976.754,729.105a1.743,1.743,0,1,1,1.74-1.743A1.743,1.743,0,0,1,1976.754,729.105Zm0-2.789a1.046,1.046,0,1,0,1.044,1.046A1.046,1.046,0,0,0,1976.754,726.317Z" transform="translate(-1819.846 -278.561)"/>
    <ellipse id="Ellipse_372" data-name="Ellipse 372" cx="1.392" cy="1.394" rx="1.392" ry="1.394" transform="translate(147.597 303.567)" fill="#fff"/>
    <path id="Path_2099" data-name="Path 2099" d="M1966.786,434.737a1.743,1.743,0,1,1,1.74-1.743A1.743,1.743,0,0,1,1966.786,434.737Zm0-2.789a1.046,1.046,0,1,0,1.044,1.046A1.046,1.046,0,0,0,1966.786,431.948Z" transform="translate(-1817.797 -128.033)"/>
    <ellipse id="Ellipse_373" data-name="Ellipse 373" cx="1.392" cy="1.394" rx="1.392" ry="1.394" transform="translate(189.346 247.797)" fill="#fff"/>
    <path id="Path_2100" data-name="Path 2100" d="M2052.226,320.6a1.743,1.743,0,1,1,1.74-1.742A1.743,1.743,0,0,1,2052.226,320.6Zm0-2.788a1.046,1.046,0,1,0,1.044,1.046A1.046,1.046,0,0,0,2052.226,317.815Z" transform="translate(-1861.487 -69.67)"/>
    <ellipse id="Ellipse_374" data-name="Ellipse 374" cx="1.392" cy="1.394" rx="1.392" ry="1.394" transform="translate(218.572 379.554)" fill="#fff"/>
    <path id="Path_2101" data-name="Path 2101" d="M2112.033,590.243a1.743,1.743,0,1,1,1.74-1.742A1.743,1.743,0,0,1,2112.033,590.243Zm0-2.788a1.046,1.046,0,1,0,1.044,1.046A1.046,1.046,0,0,0,2112.033,587.455Z" transform="translate(-1892.071 -207.553)"/>
    <ellipse id="Ellipse_375" data-name="Ellipse 375" cx="2.798" cy="2.803" rx="2.798" ry="2.803" transform="translate(90.044 398.716)" fill="#fff"/>
    <path id="Path_2102" data-name="Path 2102" d="M1850.411,696.735a3.152,3.152,0,1,1,3.146-3.152A3.152,3.152,0,0,1,1850.411,696.735Zm0-5.606a2.455,2.455,0,1,0,2.45,2.454A2.456,2.456,0,0,0,1850.411,691.129Z" transform="translate(-1757.568 -288)"/>
    <ellipse id="Ellipse_376" data-name="Ellipse 376" cx="2.087" cy="2.091" rx="2.087" ry="2.091" transform="translate(349.387 361.429)" fill="#fff"/>
    <path id="Path_2103" data-name="Path 2103" d="M2380.442,554.545a2.44,2.44,0,1,1,2.435-2.44A2.441,2.441,0,0,1,2380.442,554.545Zm0-4.183a1.743,1.743,0,1,0,1.74,1.743A1.743,1.743,0,0,0,2380.442,550.362Z" transform="translate(-2059.449 -188.585)"/>
    <ellipse id="Ellipse_377" data-name="Ellipse 377" cx="2.087" cy="2.091" rx="2.087" ry="2.091" transform="translate(137.855 348.183)" fill="#fff"/>
    <path id="Path_2104" data-name="Path 2104" d="M1947.546,527.438a2.44,2.44,0,1,1,2.435-2.44A2.44,2.44,0,0,1,1947.546,527.438Zm0-4.183a1.743,1.743,0,1,0,1.74,1.743A1.743,1.743,0,0,0,1947.546,523.255Z" transform="translate(-1807.603 -174.724)"/>
    <ellipse id="Ellipse_379" data-name="Ellipse 379" cx="2.087" cy="2.091" rx="2.087" ry="2.091" transform="translate(213.701 281.259)" fill="#fff"/>
    <path id="Path_2106" data-name="Path 2106" d="M2102.761,390.478a2.44,2.44,0,1,1,2.435-2.44A2.441,2.441,0,0,1,2102.761,390.478Zm0-4.183a1.743,1.743,0,1,0,1.74,1.742A1.743,1.743,0,0,0,2102.761,386.3Z" transform="translate(-1886.973 -104.688)"/>
    <ellipse id="Ellipse_381" data-name="Ellipse 381" cx="2.087" cy="2.091" rx="2.087" ry="2.091" transform="translate(112.805 327.966)" fill="#fff"/>
    <path id="Path_2108" data-name="Path 2108" d="M1896.281,486.065a2.44,2.44,0,1,1,2.436-2.44A2.441,2.441,0,0,1,1896.281,486.065Zm0-4.183a1.743,1.743,0,1,0,1.74,1.743A1.744,1.744,0,0,0,1896.281,481.882Z" transform="translate(-1781.388 -153.567)" fill="#1d2445"/>
    <path id="Path_2109" data-name="Path 2109" d="M2406.391,571.722a1.743,1.743,0,1,1,1.74-1.743A1.743,1.743,0,0,1,2406.391,571.722Zm0-2.789a1.046,1.046,0,1,0,1.044,1.046A1.046,1.046,0,0,0,2406.391,568.933Z" transform="translate(-2073.074 -198.081)"/>
    <path id="Path_2110" data-name="Path 2110" d="M2420.184,533.145a2.44,2.44,0,1,1,2.436-2.44A2.44,2.44,0,0,1,2420.184,533.145Zm0-4.183a1.743,1.743,0,1,0,1.74,1.743A1.743,1.743,0,0,0,2420.184,528.962Z" transform="translate(-2079.772 -177.642)"/>
    <path id="Path_2111" data-name="Path 2111" d="M2212.409,726.22a2.44,2.44,0,1,1,2.435-2.44A2.44,2.44,0,0,1,2212.409,726.22Zm0-4.183a1.743,1.743,0,1,0,1.74,1.743A1.744,1.744,0,0,0,2212.409,722.037Z" transform="translate(-1959.3 -323.11)"/>
    <ellipse id="Ellipse_385" data-name="Ellipse 385" cx="1.392" cy="1.394" rx="1.392" ry="1.394" transform="translate(304.158 396.285)" fill="#fff"/>
    <path id="Path_2112" data-name="Path 2112" d="M2287.187,624.484a1.743,1.743,0,1,1,1.74-1.743A1.742,1.742,0,0,1,2287.187,624.484Zm0-2.788a1.046,1.046,0,1,0,1.044,1.046A1.046,1.046,0,0,0,2287.187,621.7Z" transform="translate(-1981.637 -225.062)"/>
    <ellipse id="Ellipse_386" data-name="Ellipse 386" cx="1.127" cy="1.129" rx="1.127" ry="1.129" transform="translate(202.934 382.506)" fill="#fff"/>
    <path id="Path_2113" data-name="Path 2113" d="M2079.767,595.753a1.477,1.477,0,1,1,1.474-1.477A1.478,1.478,0,0,1,2079.767,595.753Zm0-2.257a.78.78,0,1,0,.778.78A.78.78,0,0,0,2079.767,593.5Z" transform="translate(-1875.707 -210.642)"/>
    <ellipse id="Ellipse_387" data-name="Ellipse 387" cx="1.392" cy="1.394" rx="1.392" ry="1.394" transform="translate(62.706 315.418)" fill="#fff"/>
    <path id="Path_2114" data-name="Path 2114" d="M1793.057,458.99a1.743,1.743,0,1,1,1.74-1.743A1.743,1.743,0,0,1,1793.057,458.99Zm0-2.789a1.046,1.046,0,1,0,1.044,1.046A1.046,1.046,0,0,0,1793.057,456.2Z" transform="translate(-1728.959 -140.435)"/>
    <ellipse id="Ellipse_388" data-name="Ellipse 388" cx="2.087" cy="2.091" rx="2.087" ry="2.091" transform="translate(22.348 327.966)" fill="#fff"/>
    <path id="Path_2115" data-name="Path 2115" d="M1711.16,486.065a2.44,2.44,0,1,1,2.436-2.44A2.44,2.44,0,0,1,1711.16,486.065Zm0-4.183a1.743,1.743,0,1,0,1.74,1.743A1.744,1.744,0,0,0,1711.16,481.882Z" transform="translate(-1686.725 -153.567)"/>
    <path id="Path_2116" data-name="Path 2116" d="M2117.183,533.258l.409,2.824a.61.61,0,0,0,.514.515l2.817.409-2.819.41a.611.611,0,0,0-.514.515l-.407,2.823-.409-2.824a.609.609,0,0,0-.514-.515l-2.817-.409,2.819-.41a.6.6,0,0,0,.342-.172.606.606,0,0,0,.172-.342Z" transform="translate(-1893.681 -180.195)" fill="#fff"/>
    <path id="Path_2117" data-name="Path 2117" d="M2114.645,540.639l-.755-5.2a.251.251,0,0,0-.074-.147.255.255,0,0,0-.142-.073l-5.2-.753,5.195-.756a.261.261,0,0,0,.219-.218l.752-5.2.754,5.2a.259.259,0,0,0,.217.219l5.2.753-5.2.756a.256.256,0,0,0-.146.074.265.265,0,0,0-.073.145Zm-1.315-6.178.442.064a.951.951,0,0,1,.536.268.967.967,0,0,1,.273.54l.064.446.064-.442a.958.958,0,0,1,.806-.809l.446-.065-.442-.064a.947.947,0,0,1-.536-.268.961.961,0,0,1-.272-.54l-.064-.445-.064.442a.959.959,0,0,1-.807.81Z" transform="translate(-1891.142 -177.651)"/>
    <path id="Path_2233" data-name="Path 2233" d="M1976.754,729.105a1.743,1.743,0,1,1,1.74-1.743A1.743,1.743,0,0,1,1976.754,729.105Zm0-2.789a1.046,1.046,0,1,0,1.044,1.046A1.046,1.046,0,0,0,1976.754,726.317Z" transform="translate(-1709.098 -269.417)"/>
  </g>
</svg>
