<svg xmlns="http://www.w3.org/2000/svg" width="336.559" height="315.104" viewBox="0 0 336.559 315.104">
  <g id="Group_2809" data-name="Group 2809" transform="translate(-19.221 -246.875)">
    <g id="Group_2739" data-name="Group 2739" transform="translate(-652.654 -136)">
      <path id="Path_2234" data-name="Path 2234" d="M672.435,383.435H777.1V579.14H672.435Z" transform="translate(2.828 -0.435)" fill="#fff"/>
      <path id="Path_2235" data-name="Path 2235" d="M777.193,579.23H672V383H777.193Zm-104.668-.525H776.668V383.525H672.525Z" fill="#b3b3b3"/>
      <path id="Path_2236" data-name="Path 2236" d="M864.041,383.435H968.446V579.14H864.041Z" transform="translate(-76.089 -0.172)" fill="#fff"/>
      <path id="Path_2237" data-name="Path 2237" d="M968.537,579.23H863.606V383H968.537Zm-104.406-.525H968.012V383.525H864.131Z" transform="translate(-75.917)" fill="#b3b3b3"/>
      <path id="Path_2238" data-name="Path 2238" d="M1055.212,383.435H1159.88V579.14H1055.212Z" transform="translate(-151.834 -0.172)" fill="#fff"/>
      <path id="Path_2239" data-name="Path 2239" d="M1159.971,579.23H1054.778V383h105.193Zm-104.668-.525h104.143V383.525H1055.3Z" transform="translate(-151.662)" fill="#b3b3b3"/>
      <path id="Path_2240" data-name="Path 2240" d="M770.507,549.252v-11.3H737.964V640.359h48.362V549.252Z" transform="translate(-26.136 -61.394)" fill="#fff"/>
      <path id="Path_2242" data-name="Path 2242" d="M922.541,587.644v17.319h-58.5V540.95h4.985v-29.38h5.768V490.583h7.347l5.773-41.975,5.243,41.975h7.872v20.988H906.8v29.38h8.392v46.693Z" transform="translate(-76.089 -25.995)" fill="#fff"/>
      <path id="Path_2243" data-name="Path 2243" d="M922.632,603.9H863.606V539.364h4.986V509.985h5.767V489h7.381l6.015-43.73L893.216,489h7.9v20.988h5.773v29.379h8.391v46.694h7.347Zm-58.5-.525h57.976V586.583h-7.347V539.89h-8.391V510.51h-5.773V489.522h-7.841L887.73,449.3,882.2,489.522h-7.314V510.51h-5.767v29.38h-4.986Z" transform="translate(-75.917 -24.671)" fill="#b3b3b3"/>
      <path id="Path_2244" data-name="Path 2244" d="M1099.018,574.476v67.686h-43.806V574.476h.263V549.819l17.9-7.326,18.3,7.326v24.656Z" transform="translate(-151.834 -63.193)" fill="#fff"/>
      <path id="Path_2245" data-name="Path 2245" d="M1099.108,642.238h-44.331V574.027h.263v-24.57l18.158-7.434,18.569,7.432v24.571h7.341Zm-43.805-.525h43.281V574.551h-7.342V549.811L1073.2,542.59l-17.635,7.219v24.742h-.263v67.161Z" transform="translate(-151.662 -63.007)" fill="#b3b3b3"/>
      <path id="Path_2246" data-name="Path 2246" d="M996.941,424.608l-61.646-40.832.517-.776h46.76l.066.043,14.3,9.472ZM936.023,383.63l60.393,40V392.8l-14-9.273H936.092Z" transform="translate(-104.321)" fill="#b3b3b3" stroke="#ccc" stroke-miterlimit="10" stroke-width="0.25"/>
      <path id="Path_2247" data-name="Path 2247" d="M971.207,449.487l-.4-.267L871.67,383.869h19.866l.065.043,79.606,52.476Z" transform="translate(-79.112 -0.344)" fill="none" stroke="#ccc" stroke-miterlimit="10" stroke-width="1"/>
      <path id="Path_2248" data-name="Path 2248" d="M1159.971,564.907l-.407-.269-104.786-69.264v-13.2l.406.269L1159.971,551.7ZM1055.3,495.091l104.143,68.84V551.985L1055.3,483.145Z" transform="translate(-151.662 -39.292)" fill="#b3b3b3" stroke="#ccc" stroke-miterlimit="10" stroke-width="0.25"/>
      <path id="Path_2249" data-name="Path 2249" d="M760.361,554.992,777.1,566.065v18.878l-16.742-11.079-48.361-32-39.565-26.178V496.815L712,522.993Z" transform="translate(-0.172 -45.095)" fill="#fff"/>
      <path id="Path_2250" data-name="Path 2250" d="M672.869,515.867l104.143,68.909V566.527l-104.143-68.9Z" transform="translate(-0.344 -45.416)" fill="none" stroke="#b3b3b3" stroke-miterlimit="10" stroke-width="0.75"/>
      <path id="Path_2251" data-name="Path 2251" d="M940.673,674.293H912.145l-48.1-31.83V623.59l58.5,38.706Z" transform="translate(-76.089 -95.325)" fill="#fff" stroke="#b3b3b3" stroke-miterlimit="10" stroke-width="1"/>
      <path id="Path_2252" data-name="Path 2252" d="M760.361,605.676,777.1,616.724V629.3l-16.742-11.052L712,586.337l-39.565-26.115V547.647L712,573.762Z" transform="translate(-0.172 -65.235)" fill="#fff" stroke="#b3b3b3" stroke-miterlimit="10" stroke-width="0.75"/>
      <path id="Path_2253" data-name="Path 2253" d="M777.193,629.471,672,560.043v-13.2l105.193,69.423Z" transform="translate(0 -64.915)" fill="none" stroke="#b3b3b3" stroke-miterlimit="10" stroke-width="0.25"/>
      <path id="Path_2254" data-name="Path 2254" d="M894.653,694.306H875.6l-11.557-7.625V674.1Z" transform="translate(-76.089 -115.338)" fill="#fff"/>
      <path id="Path_2255" data-name="Path 2255" d="M895.7,693.984H876.021l-11.546-7.649V673.293Z" transform="translate(-76.261 -115.018)" fill="#fff" stroke="#b3b3b3" stroke-miterlimit="10" stroke-width="0.75"/>
      <path id="Path_2256" data-name="Path 2256" d="M1159.971,512.044l-105.193-69.676V410.275l105.193,69.671ZM1055.3,442.085l104.143,68.981V480.228L1055.3,411.253Z" transform="translate(-151.662 -10.807)" fill="#b3b3b3" stroke="#ccc" stroke-miterlimit="10" stroke-width="0.25"/>
    </g>
    <g id="Group_2744" data-name="Group 2744" transform="translate(-51.998 -325.8)">
      <g id="Group_2741" data-name="Group 2741" transform="translate(132.679 667.185)">
        <path id="Path_2257" data-name="Path 2257" d="M260.641,674.755s0,0-.007,0v0l-6.47.317.424,7.98,6.47-.316v0l.007,0c.507-.025.822-1.831.705-4.035S261.148,674.73,260.641,674.755Z" transform="translate(-224.215 -674.414)" fill="#fff"/>
        <g id="Group_2740" data-name="Group 2740" transform="translate(28.857)">
          <path id="Path_2258" data-name="Path 2258" d="M254.193,683.016a.365.365,0,0,1-.239-.088.336.336,0,0,1-.117-.236l-.424-7.98a.335.335,0,0,1,.092-.247.364.364,0,0,1,.246-.112l6.471-.316h.025c1.2,0,1.448,3.557,1.485,4.269a13.565,13.565,0,0,1-.123,2.909c-.173.991-.465,1.463-.92,1.485h-.007l-6.47.316Zm-.05-8,.388,7.3,6.068-.3h.01c.2-.214.528-1.482.411-3.678s-.572-3.424-.8-3.618h-.011Z" transform="translate(-252.677 -674.036)"/>
          <ellipse id="Ellipse_390" data-name="Ellipse 390" cx="0.926" cy="3.996" rx="0.926" ry="3.996" transform="translate(0.167 0.708) rotate(-3.055)"/>
          <path id="Path_2259" data-name="Path 2259" d="M253.367,683.367c-1.195,0-1.443-3.557-1.481-4.27s-.168-4.335,1.05-4.394c1.223,0,1.472,3.556,1.51,4.269a13.411,13.411,0,0,1-.125,2.909c-.176.991-.469,1.463-.925,1.485Zm-.392-7.932a7.968,7.968,0,0,0-.378,3.627,7.647,7.647,0,0,0,.783,3.6,8.451,8.451,0,0,0,.355-3.653A8.042,8.042,0,0,0,252.975,675.435Z" transform="translate(-251.862 -674.387)"/>
        </g>
        <path id="Path_2260" data-name="Path 2260" d="M237.217,680.373a7.406,7.406,0,0,0-.551-3.042c-.037-.039-.062-.039-.062-.039l-15.939.779.33,6.207,15.94-.779s.023,0,.057-.045A7.386,7.386,0,0,0,237.217,680.373Z" transform="translate(-206.609 -675.747)" fill="#fff"/>
        <path id="Path_2261" data-name="Path 2261" d="M220.6,684.239a.365.365,0,0,1-.239-.088.336.336,0,0,1-.117-.236l-.329-6.207a.348.348,0,0,1,.338-.359l15.94-.779a.424.424,0,0,1,.342.148c.457.384.61,2.591.645,3.258s.117,2.88-.321,3.331a.413.413,0,0,1-.276.151l-15.964.781Zm.045-6.225.293,5.524,15.411-.752a10.122,10.122,0,0,0,.12-2.775,10.329,10.329,0,0,0-.409-2.749Z" transform="translate(-206.214 -675.367)"/>
        <ellipse id="Ellipse_391" data-name="Ellipse 391" cx="0.664" cy="3.108" rx="0.664" ry="3.108" transform="translate(13.392 2.359) rotate(-3.053)"/>
        <path id="Path_2262" data-name="Path 2262" d="M220.017,685.1c-.9,0-1.123-2.375-1.177-3.4s-.083-3.45.837-3.494h0c.924,0,1.147,2.374,1.2,3.4a11.408,11.408,0,0,1-.081,2.273c-.088.556-.254,1.2-.755,1.222Zm-.3-6.017a10.929,10.929,0,0,0,.273,5.144,10.93,10.93,0,0,0-.273-5.144Z" transform="translate(-205.638 -676.231)"/>
        <path id="Path_2263" data-name="Path 2263" d="M205.42,680.814l-13.631.666.235,4.434,13.631-.666c.231-.012.366-1.013.3-2.237S205.651,680.8,205.42,680.814Z" transform="translate(-191.433 -677.598)" fill="#fff"/>
        <path id="Path_2264" data-name="Path 2264" d="M191.629,685.877a.366.366,0,0,1-.239-.088.335.335,0,0,1-.117-.237l-.235-4.434a.347.347,0,0,1,.337-.358l13.631-.666h0c.521,0,.82.848.909,2.52a9.218,9.218,0,0,1-.041,1.634c-.063.464-.183.941-.6.961l-13.63.666Zm.139-4.451.2,3.751,13.127-.641a8.415,8.415,0,0,0-.2-3.751Z" transform="translate(-191.038 -677.22)"/>
      </g>
      <g id="Group_2743" data-name="Group 2743" transform="translate(79.998 661)">
        <path id="Path_2265" data-name="Path 2265" d="M93.167,1102.969l7.445,2.587,2.584-7.446a2.582,2.582,0,0,0-1.591-3.285l-2.57-.893a2.58,2.58,0,0,0-3.284,1.592Z" transform="translate(-86.919 -888.459)" fill="#fff"/>
        <path id="Path_2266" data-name="Path 2266" d="M100.357,1105.607l-8.051-2.8,2.69-7.75a2.9,2.9,0,0,1,3.692-1.79l2.57.893a2.9,2.9,0,0,1,1.788,3.694Zm-7.235-3.192,6.839,2.377,2.479-7.144a2.26,2.26,0,0,0-1.393-2.877l-2.57-.893a2.256,2.256,0,0,0-2.876,1.394Z" transform="translate(-86.467 -888.102)"/>
        <path id="Path_2267" data-name="Path 2267" d="M120.255,819l-7.079-6.339-.006.011a6.2,6.2,0,0,0-1.259-.9l-5.793-28.958-.148-.005,8.684-22.809,1.3-8.372-11.915,1.774-8.07,30.009a1.375,1.375,0,0,0-.072.819l2.592,11.544,5.994,14.835-.151-.02,1.161,3.838-.024-.018-.6,12.083a.332.332,0,0,0,.288.37h.009a1.284,1.284,0,0,0,1.183-1.023l.468-2.609,1.818,6.408a.331.331,0,0,0,.391.258l.009,0a1.266,1.266,0,0,0,.793-1.247l.946,2.925a.331.331,0,0,0,.4.242l.008,0a1.286,1.286,0,0,0,.739-1.379l-1.395-7.265a7.02,7.02,0,0,1,.422.9l.333.885,1.15,7.257a.33.33,0,0,0,.351.31h.009a1.285,1.285,0,0,0,.973-1.225l-.057-6.067.179-6.561a.977.977,0,0,1,.943-1,1.02,1.02,0,0,1,.5.117l3.795,2.088a.872.872,0,0,0,1.208-.253.445.445,0,0,0,.035-.061.454.454,0,0,0-.117-.555Zm-12.618-.29,0-.023c.008.011.018.021.024.032Z" transform="translate(-88.34 -708.634)" fill="#fff"/>
        <path id="Path_2268" data-name="Path 2268" d="M112.415,832.424a.654.654,0,0,1-.65-.61l-.113-.709a1.4,1.4,0,0,1-.706.594.7.7,0,0,1-.2.032.649.649,0,0,1-.632-.5l-.635-1.964a1.4,1.4,0,0,1-.693.514.746.746,0,0,1-.174.024.655.655,0,0,1-.638-.521l-1.433-5.05-.223,1.244a1.61,1.61,0,0,1-1.489,1.287.675.675,0,0,1-.492-.25.651.651,0,0,1-.132-.481l.594-12.057-1.268-4.194.1.014-5.787-14.321-2.607-11.595a1.717,1.717,0,0,1,.087-1.009l8.113-30.176,12.554-1.869L114.6,759.7l-8.555,22.47.033.167,5.764,28.812a6.693,6.693,0,0,1,.876.6l0-.007.312.264,7.078,6.339a.76.76,0,0,1,.19.937.886.886,0,0,1-.061.1,1.192,1.192,0,0,1-1.644.334l-3.774-2.076a.7.7,0,0,0-.318-.077.661.661,0,0,0-.649.677l-.179,6.578.057,6.055a1.6,1.6,0,0,1-1.237,1.544ZM109.478,820.8l.982,1.8a7.312,7.312,0,0,1,.442.939l.349.948,1.164,7.3v0a.975.975,0,0,0,.682-.928l-.058-6.041.179-6.574a1.3,1.3,0,0,1,1.253-1.317,1.328,1.328,0,0,1,.658.153l3.8,2.091a.545.545,0,0,0,.786-.148.141.141,0,0,0-.017-.19l-6.781-6.073,0,.006-.314-.275a5.927,5.927,0,0,0-1.194-.85l-.132-.072L105.5,782.71l-.343-.011,8.832-23.2,1.232-7.907-11.278,1.679-8.015,29.806a1.107,1.107,0,0,0-.068.666l2.591,11.545,6.186,15.3-.2-.028,1.293,4.276-.317-.232-.568,11.489a.9.9,0,0,0,.849-.75l.708-3.95,2.2,7.742a.873.873,0,0,0,.564-.9l-.009-2.061,1.58,4.887a.9.9,0,0,0,.524-1.006Zm-1.371-1.946-1.192-.345.19-1.015Z" transform="translate(-87.986 -708.212)"/>
        <path id="Path_2269" data-name="Path 2269" d="M108.588,779.4l7.382-19.39,1.3-8.372-11.916,1.774L98.37,779.4Z" transform="translate(-89.654 -708.635)"/>
        <path id="Path_2270" data-name="Path 2270" d="M141.4,731.939l10.167,2.952-.031-26.951-5.255.006-4.61.005s0,4.091-.215,14.37Z" transform="translate(-112.267 -685.67)" fill="#fff"/>
        <path id="Path_2271" data-name="Path 2271" d="M151.208,734.857a.339.339,0,0,1-.09-.013l-10.167-2.952a.321.321,0,0,1-.231-.31l.056-9.618c.217-10.163.215-14.327.215-14.367a.321.321,0,0,1,.32-.321l9.864-.011h0a.32.32,0,0,1,.32.321l.031,26.951a.319.319,0,0,1-.321.321Zm-9.844-3.514,9.524,2.766-.03-26.2-9.224.011c0,1.15-.031,5.459-.214,14.056Z" transform="translate(-111.912 -685.315)"/>
        <path id="Path_2272" data-name="Path 2272" d="M91.16,853.553H128.6v28.094H91.16Z" transform="translate(-85.864 -762.2)" fill="#fff"/>
        <path id="Path_2273" data-name="Path 2273" d="M128.245,881.613H90.805a.32.32,0,0,1-.32-.321V853.2a.321.321,0,0,1,.32-.321h37.439a.321.321,0,0,1,.32.321v28.094A.319.319,0,0,1,128.245,881.613Zm-37.119-.641h36.8V853.518h-36.8Z" transform="translate(-85.51 -761.844)"/>
        <path id="Path_2274" data-name="Path 2274" d="M127.822,777.987h29.512l-1.445-14.468,3.365-7.014a4.8,4.8,0,0,0,.068-4.008L152.2,736.253l-30.734,11.4Z" transform="translate(-101.79 -700.551)"/>
        <path id="Path_2275" data-name="Path 2275" d="M137.758,727.649l-23.7,6.374a7.2,7.2,0,0,0-5.14,5.313L104.5,758.19l40.9-3.656-1.611-22.589A4.8,4.8,0,0,0,137.758,727.649Z" transform="translate(-92.878 -695.941)"/>
        <path id="Path_2276" data-name="Path 2276" d="M103.633,758.193l4.518-19.287a7.509,7.509,0,0,1,5.368-5.549l23.7-6.374a5.111,5.111,0,0,1,6.436,4.583l1.634,22.9Zm34.92-30.746a4.5,4.5,0,0,0-1.17.156l-23.7,6.374a6.868,6.868,0,0,0-4.911,5.075l-4.316,18.423,40.143-3.59-1.589-22.275A4.493,4.493,0,0,0,138.553,727.446Z" transform="translate(-92.42 -695.585)"/>
        <path id="Path_2277" data-name="Path 2277" d="M113.465,921.441l19.41-52.266-4.51-14.576-17,.694-7.351,56.479L94.162,931.86a11.576,11.576,0,0,0-1.067,3.463l-6.139,43.031s8.493,1.843,8.163,1.733l16.069-42.8Z" transform="translate(-83.655 -762.749)" fill="#fff"/>
        <path id="Path_2278" data-name="Path 2278" d="M94.771,980.056c-.129,0-2.9-.588-8.238-1.745a.32.32,0,0,1-.25-.358l6.139-43.031a11.892,11.892,0,0,1,1.1-3.559l9.833-20.041,7.344-56.427a.32.32,0,0,1,.305-.279l17-.694a.328.328,0,0,1,.319.226l4.509,14.576a.327.327,0,0,1-.006.206l-19.4,52.234-2.271,15.816a.326.326,0,0,1-.017.067L95.092,979.769c0,.006,0,.011,0,.018A.323.323,0,0,1,94.771,980.056Zm-7.81-2.309c2.764.6,6.583,1.421,7.6,1.623l15.965-42.517,2.271-15.815a.347.347,0,0,1,.017-.066l19.372-52.163-4.4-14.237-16.481.673-7.316,56.211a.325.325,0,0,1-.03.1l-9.856,20.087a11.26,11.26,0,0,0-1.038,3.367Z" transform="translate(-83.3 -762.393)"/>
        <path id="Path_2279" data-name="Path 2279" d="M162.246,853.4l-3.451-13.5-17.034.694-1.227,29.943-1.871,34.811L132.327,920.7a11.916,11.916,0,0,0-.888,3.894l-2.515,45.771c.3-.015,9.723.01,9.723.01l10.471-43.731a11.824,11.824,0,0,0,.307-2.114l.96-17.863,11.877-51.094a4.6,4.6,0,0,0-.017-2.182Z" transform="translate(-105.712 -755.021)" fill="#fff"/>
        <path id="Path_2280" data-name="Path 2280" d="M138.293,970.344s-9.39-.026-9.708-.01a.325.325,0,0,1-.243-.094.321.321,0,0,1-.093-.244l2.514-45.771a12.207,12.207,0,0,1,.913-4l6.315-15.313,1.869-34.756,1.225-29.939a.321.321,0,0,1,.307-.307l17.034-.694a.328.328,0,0,1,.324.241l3.452,13.5a4.936,4.936,0,0,1,.018,2.335l-11.877,51.094-.952,17.807a12.248,12.248,0,0,1-.316,2.17L138.6,970.1A.32.32,0,0,1,138.293,970.344Zm-8.237-.656c2.379,0,6.873.011,7.984.014l10.411-43.485a11.493,11.493,0,0,0,.3-2.055l.96-17.863,11.885-51.15a4.3,4.3,0,0,0-.015-2.031l-3.386-13.25-16.48.672L140.5,870.188,138.628,905a.321.321,0,0,1-.024.105l-6.336,15.364a11.586,11.586,0,0,0-.865,3.789l-2.5,45.43,1.149,0Z" transform="translate(-105.357 -754.665)"/>
        <path id="Path_2281" data-name="Path 2281" d="M148.666,1109.9h-2.819l.918-5.193a2.011,2.011,0,0,1,1.979-1.661h1.133Z" transform="translate(-114.606 -893.325)" fill="#fff"/>
        <path id="Path_2282" data-name="Path 2282" d="M148.31,1109.865h-2.819a.321.321,0,0,1-.315-.377l.919-5.193a2.327,2.327,0,0,1,2.295-1.926h1.132a.32.32,0,0,1,.246.115.316.316,0,0,1,.07.261l-1.212,6.855a.321.321,0,0,1-.316.265Zm-2.436-.641h2.168l1.1-6.213h-.751a1.688,1.688,0,0,0-1.664,1.4Z" transform="translate(-114.251 -892.97)"/>
        <path id="Path_2283" data-name="Path 2283" d="M129.328,1114.445h9.63v3.5h-9.63Z" transform="translate(-105.924 -899.316)" fill="#99644c"/>
        <path id="Path_2284" data-name="Path 2284" d="M123.524,916.016h26.693l9.507-42.44H123.158Z" transform="translate(-102.682 -772.723)"/>
        <path id="Path_2285" data-name="Path 2285" d="M128.677,823.449h29.585l1.462,23.782H123.158Z" transform="translate(-102.682 -746.378)"/>
        <path id="Path_2286" data-name="Path 2286" d="M155.619,942.081h.844a4.021,4.021,0,0,0,4.006-3.68l1.294-15.163V938.32a3.759,3.759,0,0,0,3.758,3.76V943.8h-9.9Z" transform="translate(-119.742 -798.823)" fill="#fff"/>
        <path id="Path_2287" data-name="Path 2287" d="M144.28,728.033l-20,5.356-7.435,6.4,8.089,9.386a4.8,4.8,0,0,0,7.81-.768Z" transform="translate(-99.364 -696.23)" fill="#fff"/>
        <path id="Path_2288" data-name="Path 2288" d="M128.207,750.8h0a5.106,5.106,0,0,1-3.871-1.778l-8.089-9.385a.321.321,0,0,1-.077-.233.324.324,0,0,1,.111-.22l7.435-6.4a.321.321,0,0,1,.127-.067l20-5.356a.32.32,0,0,1,.361.468l-11.536,20.371a5.066,5.066,0,0,1-4.461,2.6Zm-11.264-11.339,7.879,9.142a4.409,4.409,0,0,0,3.385,1.555h0a4.432,4.432,0,0,0,3.9-2.272l11.159-19.705-19.191,5.14Z" transform="translate(-99.008 -695.874)"/>
        <path id="Path_2289" data-name="Path 2289" d="M144.354,727.719l-20,5.43-7.51,6.472Z" transform="translate(-99.364 -696.065)" fill="#fff"/>
        <path id="Path_2290" data-name="Path 2290" d="M116.49,739.586a.321.321,0,0,1-.209-.564l7.509-6.472a.318.318,0,0,1,.125-.067l20-5.43a.321.321,0,0,1,.212.6l-27.51,11.9a.317.317,0,0,1-.127.026Zm7.664-6.5-5.863,5.054,21.479-9.294Z" transform="translate(-99.008 -695.709)"/>
        <path id="Path_2291" data-name="Path 2291" d="M159.919,677.182h6.109v7.77h-6.109Z" transform="translate(-122.002 -669.505)" fill="#99644c"/>
        <path id="Path_2292" data-name="Path 2292" d="M152.062,665.411H156.2V680.95h-4.142Z" transform="translate(-117.873 -663.318)"/>
        <path id="Path_2293" data-name="Path 2293" d="M141.961,682.589l4.677,2.079V664.855a2.105,2.105,0,0,0-2.1-2.106h-.946a7.368,7.368,0,0,0-7.282,8.479l.752,4.933A8.422,8.422,0,0,0,141.961,682.589Z" transform="translate(-109.546 -661.919)"/>
        <path id="Path_2294" data-name="Path 2294" d="M150.769,691.446h3.059v4.659h-3.059Z" transform="translate(-117.193 -677.001)" fill="#99644c"/>
        <path id="Path_2295" data-name="Path 2295" d="M148.895,688.258h4.789v-4.766h-4.789a1.916,1.916,0,0,0-1.916,1.917v.933A1.916,1.916,0,0,0,148.895,688.258Z" transform="translate(-115.201 -672.821)" fill="#99644c"/>
        <path id="Path_2296" data-name="Path 2296" d="M159.666,674.588h-6.255V677.8a14.916,14.916,0,0,1-2.1.092,49.943,49.943,0,0,0,3.458,3.982.631.631,0,0,0,1.1-.426v-2.053a.632.632,0,0,1,.631-.632h3.166Z" transform="translate(-117.471 -668.141)"/>
        <path id="Path_2297" data-name="Path 2297" d="M161.214,663.636h-.275a2.105,2.105,0,0,0-2.1,2.106v7.312h9.745v-2.049A7.368,7.368,0,0,0,161.214,663.636Z" transform="translate(-121.432 -662.385)" fill="#99644c"/>
        <path id="Path_2298" data-name="Path 2298" d="M145.173,669.215h7.365v14.212a4.21,4.21,0,0,1-4.209,4.212h-3.156Z" transform="translate(-114.252 -665.318)"/>
        <path id="Path_2299" data-name="Path 2299" d="M155.359,664.112h8.672v4.947a4.21,4.21,0,0,1-4.209,4.212h-4.463Z" transform="translate(-119.605 -662.636)"/>
        <path id="Path_2300" data-name="Path 2300" d="M162.438,686.262a1.916,1.916,0,0,0-.868-1.6,1.048,1.048,0,0,1-.224-1.117l.491-1.222a1.062,1.062,0,0,0,.075-.392v-3.706l-15.351,11.45-.054,4.53,8.328.034v.114h3.928a3.666,3.666,0,0,0,.818-.095h.219a2.1,2.1,0,0,0,2.034-1.567,3.654,3.654,0,0,0,.6-2.016Z" transform="translate(-114.953 -670.051)" fill="#fff"/>
        <path id="Path_2301" data-name="Path 2301" d="M158.407,694.314h-3.928a.321.321,0,0,1-.246-.115l-8.083-.034a.321.321,0,0,1-.319-.325l.055-4.53a.321.321,0,0,1,.129-.253l15.351-11.45a.32.32,0,0,1,.511.257v3.707a1.375,1.375,0,0,1-.1.512l-.492,1.222a.73.73,0,0,0,.137.752,2.233,2.233,0,0,1,.978,1.849v4.41a3.987,3.987,0,0,1-.628,2.15,2.422,2.422,0,0,1-2.321,1.755h-.193a4.06,4.06,0,0,1-.853.094Zm-3.682-.641h3.682a3.358,3.358,0,0,0,.747-.087.37.37,0,0,1,.073-.008h.219a1.781,1.781,0,0,0,1.723-1.328.338.338,0,0,1,.042-.094,3.337,3.337,0,0,0,.551-1.84v-4.41a1.6,1.6,0,0,0-.723-1.336.3.3,0,0,1-.055-.046,1.372,1.372,0,0,1-.291-1.458l.492-1.222a.715.715,0,0,0,.053-.273V678.5l-14.712,10.974-.049,4.048,8.005.033a.321.321,0,0,1,.245.114Z" transform="translate(-114.598 -669.695)"/>
        <path id="Path_2302" data-name="Path 2302" d="M150.914,691.312l-20.593-2.61a2.4,2.4,0,0,1-2.1-2.382V669.045a8.042,8.042,0,0,1,8.04-8.045h8.217a6.435,6.435,0,0,1,6.433,6.436v23.875Z" transform="translate(-105.344 -661)"/>
        <path id="Path_2303" data-name="Path 2303" d="M164.377,671.672h-14.71V661h7a8.521,8.521,0,0,1,8.518,8.523v1.344a.805.805,0,0,1-.8.805Z" transform="translate(-116.614 -661)"/>
        <path id="Path_2304" data-name="Path 2304" d="M214.527,704.693l-1.34-4.774a2.4,2.4,0,0,0-.837-1.246l-15.708-12.22-.435-3.152a2.831,2.831,0,0,0-.386-1.083L194,676.543c-.2-.536-1.127-.327-1.7-.13l-.008,0a.289.289,0,0,0-.177.208l-.065-.242c-.184-.545-1.211-.366-1.853-.188h-.008c-.189.032-.293.35-.265.511l.025.174-.128-.474c-.184-.545-1.211-.366-1.853-.188h-.009c-.176.029-.274.3-.263.473l-.176-.651c-.184-.545-1.211-.366-1.853-.188h-.009c-.187.032-.292.35-.265.511l.929,6.476a5.016,5.016,0,0,0,.042.638,4.88,4.88,0,0,0,.657,1.859l1.067,2.961a4.8,4.8,0,0,0,1.647,2.222l.562.419,8.836,9.316L177.7,700.3l-2.537,11.34,8.427.831,26.3-2.989.039-.04a4.2,4.2,0,0,0,2.637-1.135l1.3-1.219a2.4,2.4,0,0,0,.667-2.4Z" transform="translate(-130.013 -668.713)" fill="#fff"/>
        <g id="Group_2742" data-name="Group 2742" transform="translate(0.246 6.643)">
          <path id="Path_2305" data-name="Path 2305" d="M183.157,712.444l-8.821-.87,2.672-11.944,20.954-.047-8.324-8.776-.522-.383a5.111,5.111,0,0,1-1.757-2.371l-1.067-2.961a5.005,5.005,0,0,1-.673-1.923,5.179,5.179,0,0,1-.045-.678l-.926-6.433a.922.922,0,0,1,.158-.627.57.57,0,0,1,.371-.246,4.589,4.589,0,0,1,1.153-.183c.706,0,.967.307,1.061.57a.553.553,0,0,1,.087-.022,4.61,4.61,0,0,1,1.154-.183,1.232,1.232,0,0,1,.851.256.513.513,0,0,1,.226-.1,4.588,4.588,0,0,1,1.153-.183,1.083,1.083,0,0,1,.973.394,3.608,3.608,0,0,1,1.079-.207.914.914,0,0,1,.96.547l1.81,5.656a3.138,3.138,0,0,1,.409,1.173l.418,3.022,15.6,12.14a2.732,2.732,0,0,1,.949,1.413l1.34,4.774a2.715,2.715,0,0,1-.756,2.719l-1.3,1.22a4.535,4.535,0,0,1-2.725,1.213l-.135.047Zm-8.037-1.437,8.032.792,26.158-2.979.164-.047a3.9,3.9,0,0,0,2.436-1.049l1.3-1.22a2.073,2.073,0,0,0,.578-2.078l-1.339-4.775a2.1,2.1,0,0,0-.726-1.08l-15.811-12.3-.453-3.281a2.491,2.491,0,0,0-.343-.961l-.031-.069-1.815-5.674c-.061-.155-.606-.157-1.265.067l-.332.968-.358-1.211c-.04-.114-.33-.129-.453-.129a4.055,4.055,0,0,0-1,.166.309.309,0,0,0-.043.152l.027.18-.627.13-.128-.475c-.04-.113-.33-.128-.453-.128a4.035,4.035,0,0,0-1,.166.311.311,0,0,0-.039.146l.186,3.12-.991-3.669c-.039-.113-.33-.128-.452-.128a4.058,4.058,0,0,0-1.005.166.307.307,0,0,0-.043.152l.93,6.482a5.546,5.546,0,0,0,.042.64,4.556,4.556,0,0,0,.614,1.737l1.1,3.018a4.465,4.465,0,0,0,1.537,2.074l.563.419,9.389,9.892-21.929.049Z" transform="translate(-129.825 -675.001)"/>
          <path id="Path_2306" data-name="Path 2306" d="M199.16,727.483l-24.1.05L173.81,740.8l9.068-1.094,16.282-1.819Z" transform="translate(-129.549 -702.584)"/>
          <path id="Path_2307" data-name="Path 2307" d="M201.829,681.278a.32.32,0,0,1-.315-.268l-.781-4.729a.32.32,0,1,1,.632-.1l.781,4.729a.321.321,0,0,1-.263.369A.341.341,0,0,1,201.829,681.278Z" transform="translate(-143.696 -675.478)"/>
          <path id="Path_2308" data-name="Path 2308" d="M206.43,681.319a.32.32,0,0,1-.315-.268l-.655-3.97a.32.32,0,1,1,.632-.1l.655,3.97a.321.321,0,0,1-.264.369A.4.4,0,0,1,206.43,681.319Z" transform="translate(-146.181 -675.898)"/>
          <path id="Path_2309" data-name="Path 2309" d="M211.083,680.955a.32.32,0,0,1-.315-.268l-.655-3.969a.32.32,0,1,1,.632-.1l.655,3.97a.322.322,0,0,1-.264.369A.333.333,0,0,1,211.083,680.955Z" transform="translate(-148.627 -675.707)"/>
          <path id="Path_2310" data-name="Path 2310" d="M102.915,1113.512l-1.642-.444s-2.316-1.992-3.093-2.645c-.4-.34-1.109-2.488-1.58-4.047l.045-.057-1.253-4.573A2.013,2.013,0,0,0,93.8,1100.3l-8.862-1.554-.269,1.588L83.26,1102.8A15.4,15.4,0,0,0,81.432,1108l-.239,1.876,9.858,1.269-.217.275,9.546,5.576,2.672.3Z" transform="translate(-80.873 -897.706)"/>
          <path id="Path_2311" data-name="Path 2311" d="M102.7,1117.253l-.035,0-2.673-.3a.332.332,0,0,1-.126-.042l-9.546-5.576a.32.32,0,0,1-.153-.218.305.305,0,0,1-.005-.08l-9.361-1.2a.321.321,0,0,1-.278-.359l.239-1.877a15.687,15.687,0,0,1,1.868-5.312l1.38-2.422.26-1.532a.321.321,0,0,1,.131-.208.317.317,0,0,1,.24-.054l8.862,1.554a2.341,2.341,0,0,1,1.845,1.68l1.253,4.572a.329.329,0,0,1-.005.185c.99,3.257,1.371,3.7,1.438,3.758.708.594,2.685,2.294,3.041,2.6l1.571.426a.321.321,0,0,1,.236.3l.138,3.776a.323.323,0,0,1-.1.247A.316.316,0,0,1,102.7,1117.253Zm-2.57-.928,2.236.248-.116-3.169-1.413-.383a.315.315,0,0,1-.125-.066s-2.313-1.99-3.09-2.643c-.151-.127-.553-.464-1.68-4.2a.323.323,0,0,1,0-.2l-1.215-4.437a1.7,1.7,0,0,0-1.337-1.219l-8.545-1.5-.215,1.27a.321.321,0,0,1-.037.105l-1.409,2.472a15.039,15.039,0,0,0-1.791,5.086l-.2,1.549,9.54,1.227a.32.32,0,0,1,.221.5Z" transform="translate(-80.518 -897.35)"/>
        </g>
        <ellipse id="Ellipse_392" data-name="Ellipse 392" cx="2.468" cy="1.145" rx="2.468" ry="1.145" transform="translate(10.934 217.574) rotate(-80.383)" fill="#fff"/>
        <path id="Path_2312" data-name="Path 2312" d="M104.273,1114.563a.833.833,0,0,1-.145-.012c-.432-.073-.763-.456-.934-1.08a4.586,4.586,0,0,1-.046-1.915c.263-1.549,1.1-2.642,1.911-2.5.431.073.763.457.933,1.08a4.583,4.583,0,0,1,.046,1.915C105.792,1113.5,105.049,1114.563,104.273,1114.563Zm.677-4.879c-.364,0-.954.705-1.17,1.979a3.989,3.989,0,0,0,.032,1.639c.1.353.258.589.423.616l.038,0c.326,0,.918-.706,1.135-1.982a3.989,3.989,0,0,0-.032-1.639c-.1-.353-.258-.589-.423-.617Z" transform="translate(-92.124 -896.475)"/>
        <path id="Path_2313" data-name="Path 2313" d="M94.009,1126.508l8.443,4.709H89.58l-8.568-5.319a.481.481,0,0,1,.309-.886Z" transform="translate(-80.411 -904.868)"/>
        <path id="Path_2314" data-name="Path 2314" d="M103.331,1131.183h-14.2l-8.645-5.367a.8.8,0,0,1,.415-1.483l.1.006,12.806,1.535Zm-14.015-.641h11.549l-7.311-4.077-12.624-1.489h0a.162.162,0,0,0-.17.117.148.148,0,0,0,.07.179Z" transform="translate(-80.056 -904.513)"/>
        <path id="Path_2315" data-name="Path 2315" d="M80.676,1123.3l.345-2.037.084-.049a2.01,2.01,0,0,1,1.253-.262l5.2.614a12.36,12.36,0,0,1,4.7,1.556l6.6,3.788,4.563.166-.345,2.037-4.563-.167-6.884-3.874a12.355,12.355,0,0,0-4.627-1.5l-4.951-.577a2.012,2.012,0,0,0-1.074.171Z" transform="translate(-80.354 -902.728)" fill="#fff"/>
        <path id="Path_2316" data-name="Path 2316" d="M102.719,1129.079h-.012l-4.563-.167a.322.322,0,0,1-.146-.041L91.114,1125a11.96,11.96,0,0,0-4.506-1.465l-4.951-.578a1.682,1.682,0,0,0-.9.144l-.3.138a.321.321,0,0,1-.45-.345l.345-2.037a.322.322,0,0,1,.154-.223l.084-.049a2.339,2.339,0,0,1,1.452-.3l5.2.615a12.6,12.6,0,0,1,4.825,1.6l6.527,3.748,4.485.164a.321.321,0,0,1,.3.374l-.345,2.037A.321.321,0,0,1,102.719,1129.079Zm-4.474-.8,4.205.153.237-1.4-4.2-.154a.322.322,0,0,1-.148-.042l-6.6-3.788a11.956,11.956,0,0,0-4.581-1.515l-5.2-.614a1.686,1.686,0,0,0-1.008.195l-.223,1.308a2.336,2.336,0,0,1,1-.1l4.952.577a12.6,12.6,0,0,1,4.747,1.543Z" transform="translate(-79.998 -902.373)"/>
        <path id="Path_2317" data-name="Path 2317" d="M152.044,1120.7a2.313,2.313,0,0,0-1.641-1.489l-8.3-2.007a6.921,6.921,0,0,1-3.928-2.6l-1.908-2.568a2.312,2.312,0,0,0-1.856-.933h-7.549v1.611l-.975,2.672a15.415,15.415,0,0,0-.935,5.427l.012,1.355h27.589Z" transform="translate(-103.625 -897.56)"/>
        <path id="Path_2318" data-name="Path 2318" d="M152.2,1122.135H124.61a.321.321,0,0,1-.32-.318l-.013-1.354a15.681,15.681,0,0,1,.954-5.54l.956-2.619v-1.554a.321.321,0,0,1,.321-.321h7.549a2.641,2.641,0,0,1,2.113,1.063l1.909,2.568a6.612,6.612,0,0,0,3.747,2.479l8.3,2.007a2.621,2.621,0,0,1,1.868,1.7l.511,1.469a.321.321,0,0,1-.3.426Zm-27.272-.641h26.821l-.363-1.042a1.984,1.984,0,0,0-1.413-1.283l-8.3-2.007a7.257,7.257,0,0,1-4.111-2.72l-1.908-2.568a2,2,0,0,0-1.6-.8h-7.229v1.29a.338.338,0,0,1-.019.111l-.975,2.672a15.025,15.025,0,0,0-.916,5.314Z" transform="translate(-103.269 -897.205)"/>
        <path id="Path_2319" data-name="Path 2319" d="M125.172,1133.97h27.491v2.066H125.172Z" transform="translate(-103.74 -909.578)" fill="#fff"/>
        <path id="Path_2320" data-name="Path 2320" d="M152.308,1136H124.817a.32.32,0,0,1-.32-.321v-2.066a.321.321,0,0,1,.32-.321h27.491a.321.321,0,0,1,.32.321v2.066A.32.32,0,0,1,152.308,1136Zm-27.17-.641h26.85v-1.424h-26.85Z" transform="translate(-103.385 -909.222)"/>
        <circle id="Ellipse_393" data-name="Ellipse 393" cx="2.467" cy="2.467" r="2.467" transform="translate(24.099 217.657)" fill="#fff"/>
        <path id="Path_2321" data-name="Path 2321" d="M132.906,1124.671a2.789,2.789,0,1,1,2.788-2.789A2.791,2.791,0,0,1,132.906,1124.671Zm0-4.937a2.148,2.148,0,1,0,2.147,2.148A2.149,2.149,0,0,0,132.906,1119.735Z" transform="translate(-106.34 -901.759)"/>
        <path id="Path_2322" data-name="Path 2322" d="M122.2,873.192h37.1v.641H122.2Z" transform="translate(-102.177 -772.521)" fill="#fff"/>
      </g>
    </g>
    <g id="Group_2797" data-name="Group 2797" transform="translate(6 -12)">
      <g id="Group_2751" data-name="Group 2751" transform="translate(-163.25 -276.973)">
        <g id="Group_2746" data-name="Group 2746" transform="translate(371.842 598.741)">
          <path id="Path_2323" data-name="Path 2323" d="M405.676,637.675h98.292V781.526H405.676Z" transform="translate(-405.345 -637.344)"/>
          <path id="Path_2324" data-name="Path 2324" d="M503.623,781.513H405.331a.331.331,0,0,1-.331-.331V637.331a.33.33,0,0,1,.331-.331h98.292a.331.331,0,0,1,.331.331V781.182A.331.331,0,0,1,503.623,781.513Zm-97.961-.661h97.631V637.661H405.662Z" transform="translate(-405 -637)"/>
          <ellipse id="Ellipse_394" data-name="Ellipse 394" cx="13.957" cy="13.946" rx="13.957" ry="13.946" transform="translate(35.52 16.242)"/>
          <path id="Path_2325" data-name="Path 2325" d="M491.122,698.035a14.277,14.277,0,1,1,14.287-14.277A14.3,14.3,0,0,1,491.122,698.035Zm0-27.892a13.615,13.615,0,1,0,13.625,13.615A13.635,13.635,0,0,0,491.122,670.143Z" transform="translate(-441.644 -653.569)"/>
          <ellipse id="Ellipse_395" data-name="Ellipse 395" cx="4.224" cy="4.221" rx="4.224" ry="4.221" transform="translate(45.253 21.195)"/>
          <path id="Path_2326" data-name="Path 2326" d="M501.257,688.695a4.551,4.551,0,1,1,4.555-4.551,4.559,4.559,0,0,1-4.555,4.551Zm0-8.441a3.89,3.89,0,1,0,3.893,3.89,3.9,3.9,0,0,0-3.893-3.89Z" transform="translate(-451.779 -658.727)"/>
          <path id="Path_2327" data-name="Path 2327" d="M499.4,699.343a6.334,6.334,0,0,0-6.336,6.331v3.666h12.672v-3.666A6.334,6.334,0,0,0,499.4,699.343Z" transform="translate(-449.924 -668.803)"/>
          <g id="Group_2745" data-name="Group 2745" transform="translate(13.546 30.21)">
            <path id="Path_2328" data-name="Path 2328" d="M505.393,709.326H492.721a.331.331,0,0,1-.331-.331V705.33a6.667,6.667,0,0,1,13.333,0V709A.33.33,0,0,1,505.393,709.326Zm-12.341-.661h12.01V705.33a6,6,0,0,0-12.01,0v3.335Z" transform="translate(-463.126 -698.668)"/>
            <path id="Path_2329" data-name="Path 2329" d="M432.652,760.291h71.862v4.929H432.652Z" transform="translate(-432.652 -730.104)"/>
            <path id="Path_2330" data-name="Path 2330" d="M432.652,796.559h71.862v4.929H432.652Z" transform="translate(-432.652 -748.605)"/>
            <path id="Path_2331" data-name="Path 2331" d="M432.652,832.829h71.862v4.929H432.652Z" transform="translate(-432.652 -767.107)"/>
            <path id="Path_2332" data-name="Path 2332" d="M432.652,869.1h44.437v4.929H432.652Z" transform="translate(-432.652 -785.609)"/>
          </g>
        </g>
        <g id="Group_2748" data-name="Group 2748" transform="translate(340 636.461)">
          <path id="Path_2333" data-name="Path 2333" d="M340.676,714.675h98.292V858.526H340.676Z" transform="translate(-340.345 -714.344)" fill="#fff"/>
          <path id="Path_2334" data-name="Path 2334" d="M438.623,858.513H340.331a.331.331,0,0,1-.331-.331V714.331a.33.33,0,0,1,.331-.331h98.292a.331.331,0,0,1,.331.331V858.182A.331.331,0,0,1,438.623,858.513Zm-97.961-.661h97.631V714.661H340.662Z" transform="translate(-340 -714)"/>
          <ellipse id="Ellipse_396" data-name="Ellipse 396" cx="13.957" cy="13.946" rx="13.957" ry="13.946" transform="translate(35.52 16.242)"/>
          <path id="Path_2335" data-name="Path 2335" d="M426.122,775.035a14.277,14.277,0,1,1,14.287-14.277A14.3,14.3,0,0,1,426.122,775.035Zm0-27.892a13.615,13.615,0,1,0,13.625,13.615A13.635,13.635,0,0,0,426.122,747.143Z" transform="translate(-376.645 -730.569)"/>
          <ellipse id="Ellipse_397" data-name="Ellipse 397" cx="4.224" cy="4.221" rx="4.224" ry="4.221" transform="translate(45.253 21.195)" fill="#fff"/>
          <path id="Path_2336" data-name="Path 2336" d="M436.257,765.695a4.551,4.551,0,1,1,4.555-4.551,4.559,4.559,0,0,1-4.555,4.551Zm0-8.441a3.89,3.89,0,1,0,3.893,3.89,3.9,3.9,0,0,0-3.893-3.89Z" transform="translate(-386.779 -735.727)"/>
          <path id="Path_2337" data-name="Path 2337" d="M434.4,776.343a6.334,6.334,0,0,0-6.336,6.331v3.666h12.672v-3.666A6.334,6.334,0,0,0,434.4,776.343Z" transform="translate(-384.924 -745.803)" fill="#fff"/>
          <g id="Group_2747" data-name="Group 2747" transform="translate(13.546 30.21)">
            <path id="Path_2338" data-name="Path 2338" d="M440.393,786.326H427.721a.331.331,0,0,1-.331-.331V782.33a6.667,6.667,0,0,1,13.333,0V786A.33.33,0,0,1,440.393,786.326Zm-12.341-.661h12.01V782.33a6,6,0,0,0-12.01,0v3.335Z" transform="translate(-398.126 -775.668)"/>
            <path id="Path_2339" data-name="Path 2339" d="M367.652,837.291h71.862v4.929H367.652Z" transform="translate(-367.652 -807.104)"/>
            <path id="Path_2340" data-name="Path 2340" d="M367.652,873.559h71.862v4.929H367.652Z" transform="translate(-367.652 -825.605)"/>
            <path id="Path_2341" data-name="Path 2341" d="M367.652,909.829h71.862v4.929H367.652Z" transform="translate(-367.652 -844.107)"/>
            <path id="Path_2342" data-name="Path 2342" d="M367.652,946.1h44.437v4.929H367.652Z" transform="translate(-367.652 -862.609)"/>
          </g>
        </g>
        <g id="Group_2750" data-name="Group 2750" transform="translate(388.987 562)">
          <path id="Path_2343" data-name="Path 2343" d="M440.676,562.675h98.292V706.526H440.676Z" transform="translate(-440.345 -562.344)" fill="#fff"/>
          <path id="Path_2344" data-name="Path 2344" d="M538.623,706.513H440.331a.331.331,0,0,1-.331-.331V562.331a.33.33,0,0,1,.331-.331h98.292a.331.331,0,0,1,.331.331V706.182A.331.331,0,0,1,538.623,706.513Zm-97.962-.661h97.631V562.661H440.662Z" transform="translate(-440 -562)"/>
        </g>
      </g>
      <g id="Group_2753" data-name="Group 2753" transform="translate(242.046 299.395)">
        <path id="Path_2345" data-name="Path 2345" d="M1304.96,83.334h65.622v62.377H1304.96Z" transform="translate(-1304.686 -80.957)" fill="#fff"/>
        <path id="Path_2346" data-name="Path 2346" d="M1369.9,145.3h-65.622a.274.274,0,0,1-.274-.275V82.647a.274.274,0,0,1,.274-.275H1369.9a.275.275,0,0,1,.274.275v62.377A.274.274,0,0,1,1369.9,145.3Zm-65.348-.55h65.074V82.922h-65.074Z" transform="translate(-1304 -80.269)"/>
        <path id="Path_2347" data-name="Path 2347" d="M1331.544,130.232h17.792v3.018h-17.792Z" transform="translate(-1323.688 -114.479)"/>
        <path id="Path_2348" data-name="Path 2348" d="M1407.986,130.232h3.007v3.018h-3.007Z" transform="translate(-1378.328 -114.479)"/>
        <path id="Path_2349" data-name="Path 2349" d="M1427.226,130.232h3.007v3.018h-3.007Z" transform="translate(-1392.08 -114.479)"/>
        <path id="Path_2350" data-name="Path 2350" d="M1344.479,75.963h2.556v7.694h-2.556Z" transform="translate(-1332.934 -75.688)" fill="#fff"/>
        <path id="Path_2351" data-name="Path 2351" d="M1346.349,83.244h-2.556a.274.274,0,0,1-.274-.275V75.275a.275.275,0,0,1,.274-.275h2.556a.274.274,0,0,1,.274.275v7.694A.274.274,0,0,1,1346.349,83.244Zm-2.282-.55h2.008V75.55h-2.008Z" transform="translate(-1332.248 -75)"/>
        <path id="Path_2352" data-name="Path 2352" d="M1415.52,75.963h2.555v7.694h-2.555Z" transform="translate(-1383.713 -75.688)" fill="#fff"/>
        <path id="Path_2353" data-name="Path 2353" d="M1417.389,83.244h-2.555a.274.274,0,0,1-.274-.275V75.275a.274.274,0,0,1,.274-.275h2.555a.274.274,0,0,1,.274.275v7.694A.274.274,0,0,1,1417.389,83.244Zm-2.282-.55h2.008V75.55h-2.008Z" transform="translate(-1383.027 -75)"/>
        <path id="Path_2354" data-name="Path 2354" d="M1486.56,75.963h2.556v7.694h-2.556Z" transform="translate(-1434.491 -75.688)" fill="#fff"/>
        <path id="Path_2355" data-name="Path 2355" d="M1488.43,83.244h-2.556a.274.274,0,0,1-.274-.275V75.275a.274.274,0,0,1,.274-.275h2.556a.275.275,0,0,1,.274.275v7.694A.274.274,0,0,1,1488.43,83.244Zm-2.282-.55h2.008V75.55h-2.008Z" transform="translate(-1433.805 -75)"/>
        <path id="Path_2356" data-name="Path 2356" d="M1359.45,160.214h4.683v4.7h-4.683Z" transform="translate(-1343.635 -135.91)" fill="#fff"/>
        <path id="Path_2357" data-name="Path 2357" d="M1363.448,164.5h-4.684a.274.274,0,0,1-.274-.275v-4.7a.274.274,0,0,1,.274-.275h4.683a.274.274,0,0,1,.274.275v4.7A.273.273,0,0,1,1363.448,164.5Zm-4.41-.549h4.136V159.8h-4.136Z" transform="translate(-1342.949 -135.221)"/>
        <path id="Path_2358" data-name="Path 2358" d="M1385.619,160.214h4.683v4.7h-4.683Z" transform="translate(-1362.34 -135.91)" fill="#fff"/>
        <path id="Path_2359" data-name="Path 2359" d="M1389.616,164.5h-4.683a.274.274,0,0,1-.274-.275v-4.7a.275.275,0,0,1,.274-.275h4.683a.274.274,0,0,1,.274.275v4.7A.274.274,0,0,1,1389.616,164.5Zm-4.409-.549h4.136V159.8h-4.136Z" transform="translate(-1361.654 -135.221)"/>
        <path id="Path_2360" data-name="Path 2360" d="M1411.789,160.214h4.683v4.7h-4.683Z" transform="translate(-1381.046 -135.91)" fill="#fff"/>
        <path id="Path_2361" data-name="Path 2361" d="M1415.788,164.5H1411.1a.274.274,0,0,1-.274-.275v-4.7a.274.274,0,0,1,.274-.275h4.683a.274.274,0,0,1,.274.275v4.7A.274.274,0,0,1,1415.788,164.5Zm-4.41-.549h4.136V159.8h-4.136Z" transform="translate(-1380.361 -135.221)"/>
        <path id="Path_2362" data-name="Path 2362" d="M1437.961,160.214h4.683v4.7h-4.683Z" transform="translate(-1399.753 -135.91)" fill="#fff"/>
        <g id="Group_2752" data-name="Group 2752" transform="translate(37.933 24.03)">
          <path id="Path_2363" data-name="Path 2363" d="M1441.957,164.5h-4.684a.274.274,0,0,1-.274-.275v-4.7a.274.274,0,0,1,.274-.275h4.683a.274.274,0,0,1,.274.275v4.7A.273.273,0,0,1,1441.957,164.5Zm-4.41-.549h4.136V159.8h-4.136Z" transform="translate(-1436.999 -159.251)"/>
          <path id="Path_2364" data-name="Path 2364" d="M1464.13,160.214h4.683v4.7h-4.683Z" transform="translate(-1456.392 -159.939)"/>
          <path id="Path_2365" data-name="Path 2365" d="M1468.127,164.5h-4.683a.274.274,0,0,1-.274-.275v-4.7a.274.274,0,0,1,.274-.275h4.683a.275.275,0,0,1,.274.275v4.7A.274.274,0,0,1,1468.127,164.5Zm-4.409-.549h4.135V159.8h-4.135Z" transform="translate(-1455.706 -159.251)"/>
          <path id="Path_2366" data-name="Path 2366" d="M1490.3,160.214h4.683v4.7H1490.3Z" transform="translate(-1475.098 -159.939)"/>
          <path id="Path_2367" data-name="Path 2367" d="M1494.3,164.5h-4.683a.274.274,0,0,1-.274-.275v-4.7a.275.275,0,0,1,.274-.275h4.683a.275.275,0,0,1,.274.275v4.7A.274.274,0,0,1,1494.3,164.5Zm-4.409-.549h4.136V159.8h-4.136Z" transform="translate(-1474.411 -159.251)"/>
        </g>
        <path id="Path_2368" data-name="Path 2368" d="M1333.28,192.439h4.683v4.7h-4.683Z" transform="translate(-1324.929 -158.944)" fill="#fff"/>
        <path id="Path_2369" data-name="Path 2369" d="M1337.277,196.726h-4.683a.275.275,0,0,1-.274-.275v-4.7a.274.274,0,0,1,.274-.275h4.683a.274.274,0,0,1,.274.275v4.7A.274.274,0,0,1,1337.277,196.726Zm-4.409-.55H1337v-4.15h-4.136Z" transform="translate(-1324.243 -158.255)"/>
        <path id="Path_2370" data-name="Path 2370" d="M1359.45,192.439h4.683v4.7h-4.683Z" transform="translate(-1343.635 -158.944)" fill="#fff"/>
        <path id="Path_2371" data-name="Path 2371" d="M1363.448,196.726h-4.684a.275.275,0,0,1-.274-.275v-4.7a.274.274,0,0,1,.274-.275h4.683a.274.274,0,0,1,.274.275v4.7A.274.274,0,0,1,1363.448,196.726Zm-4.41-.55h4.136v-4.15h-4.136Z" transform="translate(-1342.949 -158.255)"/>
        <path id="Path_2372" data-name="Path 2372" d="M1385.619,192.439h4.683v4.7h-4.683Z" transform="translate(-1362.34 -158.944)" fill="#fff"/>
        <path id="Path_2373" data-name="Path 2373" d="M1389.616,196.726h-4.683a.275.275,0,0,1-.274-.275v-4.7a.275.275,0,0,1,.274-.275h4.683a.274.274,0,0,1,.274.275v4.7A.274.274,0,0,1,1389.616,196.726Zm-4.409-.55h4.136v-4.15h-4.136Z" transform="translate(-1361.654 -158.255)"/>
        <path id="Path_2374" data-name="Path 2374" d="M1411.789,192.439h4.683v4.7h-4.683Z" transform="translate(-1381.046 -158.944)" fill="#fff"/>
        <path id="Path_2375" data-name="Path 2375" d="M1415.788,196.726H1411.1a.275.275,0,0,1-.274-.275v-4.7a.274.274,0,0,1,.274-.275h4.683a.274.274,0,0,1,.274.275v4.7A.274.274,0,0,1,1415.788,196.726Zm-4.41-.55h4.136v-4.15h-4.136Z" transform="translate(-1380.361 -158.255)"/>
        <path id="Path_2376" data-name="Path 2376" d="M1437.961,192.439h4.683v4.7h-4.683Z" transform="translate(-1399.753 -158.944)" fill="#fff"/>
        <path id="Path_2377" data-name="Path 2377" d="M1441.957,196.726h-4.684a.275.275,0,0,1-.274-.275v-4.7a.274.274,0,0,1,.274-.275h4.683a.274.274,0,0,1,.274.275v4.7A.274.274,0,0,1,1441.957,196.726Zm-4.41-.55h4.136v-4.15h-4.136Z" transform="translate(-1399.066 -158.255)"/>
        <path id="Path_2378" data-name="Path 2378" d="M1464.13,192.439h4.683v4.7h-4.683Z" transform="translate(-1418.459 -158.944)"/>
        <path id="Path_2379" data-name="Path 2379" d="M1468.127,196.726h-4.683a.274.274,0,0,1-.274-.275v-4.7a.274.274,0,0,1,.274-.275h4.683a.275.275,0,0,1,.274.275v4.7A.275.275,0,0,1,1468.127,196.726Zm-4.409-.55h4.135v-4.15h-4.135Z" transform="translate(-1417.772 -158.255)"/>
        <path id="Path_2380" data-name="Path 2380" d="M1490.3,192.439h4.683v4.7H1490.3Z" transform="translate(-1437.164 -158.944)"/>
        <path id="Path_2381" data-name="Path 2381" d="M1494.3,196.726h-4.683a.275.275,0,0,1-.274-.275v-4.7a.275.275,0,0,1,.274-.275h4.683a.275.275,0,0,1,.274.275v4.7A.274.274,0,0,1,1494.3,196.726Zm-4.409-.55h4.136v-4.15h-4.136Z" transform="translate(-1436.478 -158.255)"/>
        <path id="Path_2382" data-name="Path 2382" d="M1333.28,224.665h4.683v4.7h-4.683Z" transform="translate(-1324.929 -181.978)" fill="#fff"/>
        <path id="Path_2383" data-name="Path 2383" d="M1337.277,228.951h-4.683a.275.275,0,0,1-.274-.275v-4.7a.275.275,0,0,1,.274-.275h4.683a.274.274,0,0,1,.274.275v4.7A.274.274,0,0,1,1337.277,228.951Zm-4.409-.55H1337v-4.15h-4.136Z" transform="translate(-1324.243 -181.289)"/>
        <path id="Path_2384" data-name="Path 2384" d="M1359.45,224.665h4.683v4.7h-4.683Z" transform="translate(-1343.635 -181.978)" fill="#fff"/>
        <path id="Path_2385" data-name="Path 2385" d="M1363.448,228.951h-4.684a.275.275,0,0,1-.274-.275v-4.7a.275.275,0,0,1,.274-.275h4.683a.274.274,0,0,1,.274.275v4.7A.274.274,0,0,1,1363.448,228.951Zm-4.41-.55h4.136v-4.15h-4.136Z" transform="translate(-1342.949 -181.289)"/>
        <path id="Path_2386" data-name="Path 2386" d="M1385.619,224.665h4.683v4.7h-4.683Z" transform="translate(-1362.34 -181.978)" fill="#fff"/>
        <path id="Path_2387" data-name="Path 2387" d="M1389.616,228.951h-4.683a.275.275,0,0,1-.274-.275v-4.7a.275.275,0,0,1,.274-.275h4.683a.275.275,0,0,1,.274.275v4.7A.274.274,0,0,1,1389.616,228.951Zm-4.409-.55h4.136v-4.15h-4.136Z" transform="translate(-1361.654 -181.289)"/>
        <path id="Path_2388" data-name="Path 2388" d="M1411.789,224.665h4.683v4.7h-4.683Z" transform="translate(-1381.046 -181.978)" fill="#fff"/>
        <path id="Path_2389" data-name="Path 2389" d="M1415.788,228.951H1411.1a.275.275,0,0,1-.274-.275v-4.7a.275.275,0,0,1,.274-.275h4.683a.274.274,0,0,1,.274.275v4.7A.275.275,0,0,1,1415.788,228.951Zm-4.41-.55h4.136v-4.15h-4.136Z" transform="translate(-1380.361 -181.289)"/>
        <path id="Path_2390" data-name="Path 2390" d="M1437.961,224.665h4.683v4.7h-4.683Z" transform="translate(-1399.753 -181.978)" fill="#fff"/>
        <path id="Path_2391" data-name="Path 2391" d="M1441.957,228.951h-4.684a.275.275,0,0,1-.274-.275v-4.7a.275.275,0,0,1,.274-.275h4.683a.275.275,0,0,1,.274.275v4.7A.274.274,0,0,1,1441.957,228.951Zm-4.41-.55h4.136v-4.15h-4.136Z" transform="translate(-1399.066 -181.289)"/>
        <path id="Path_2392" data-name="Path 2392" d="M1464.13,224.665h4.683v4.7h-4.683Z" transform="translate(-1418.459 -181.978)"/>
        <path id="Path_2393" data-name="Path 2393" d="M1468.127,228.951h-4.683a.274.274,0,0,1-.274-.275v-4.7a.274.274,0,0,1,.274-.275h4.683a.275.275,0,0,1,.274.275v4.7A.275.275,0,0,1,1468.127,228.951Zm-4.409-.55h4.135v-4.15h-4.135Z" transform="translate(-1417.772 -181.289)"/>
        <path id="Path_2394" data-name="Path 2394" d="M1490.3,224.665h4.683v4.7H1490.3Z" transform="translate(-1437.164 -181.978)"/>
        <path id="Path_2395" data-name="Path 2395" d="M1494.3,228.951h-4.683a.275.275,0,0,1-.274-.275v-4.7a.275.275,0,0,1,.274-.275h4.683a.275.275,0,0,1,.274.275v4.7A.274.274,0,0,1,1494.3,228.951Zm-4.409-.55h4.136v-4.15h-4.136Z" transform="translate(-1436.478 -181.289)"/>
        <path id="Path_2396" data-name="Path 2396" d="M1333.28,256.888h4.683v4.7h-4.683Z" transform="translate(-1324.929 -205.011)" fill="#fff"/>
        <path id="Path_2397" data-name="Path 2397" d="M1337.277,261.176h-4.683a.274.274,0,0,1-.274-.275v-4.7a.275.275,0,0,1,.274-.275h4.683a.274.274,0,0,1,.274.275v4.7A.274.274,0,0,1,1337.277,261.176Zm-4.409-.55H1337v-4.15h-4.136Z" transform="translate(-1324.243 -204.323)"/>
        <path id="Path_2398" data-name="Path 2398" d="M1359.45,256.888h4.683v4.7h-4.683Z" transform="translate(-1343.635 -205.011)" fill="#fff"/>
        <path id="Path_2399" data-name="Path 2399" d="M1363.448,261.176h-4.684a.274.274,0,0,1-.274-.275v-4.7a.275.275,0,0,1,.274-.275h4.683a.274.274,0,0,1,.274.275v4.7A.274.274,0,0,1,1363.448,261.176Zm-4.41-.55h4.136v-4.15h-4.136Z" transform="translate(-1342.949 -204.323)"/>
        <path id="Path_2400" data-name="Path 2400" d="M1385.619,256.888h4.683v4.7h-4.683Z" transform="translate(-1362.34 -205.011)" fill="#fff"/>
        <path id="Path_2401" data-name="Path 2401" d="M1389.616,261.176h-4.683a.275.275,0,0,1-.274-.275v-4.7a.275.275,0,0,1,.274-.275h4.683a.275.275,0,0,1,.274.275v4.7A.274.274,0,0,1,1389.616,261.176Zm-4.409-.55h4.136v-4.15h-4.136Z" transform="translate(-1361.654 -204.323)"/>
        <path id="Path_2402" data-name="Path 2402" d="M1411.789,256.888h4.683v4.7h-4.683Z" transform="translate(-1381.046 -205.011)" fill="#fff"/>
        <path id="Path_2403" data-name="Path 2403" d="M1415.788,261.176H1411.1a.275.275,0,0,1-.274-.275v-4.7a.275.275,0,0,1,.274-.275h4.683a.275.275,0,0,1,.274.275v4.7A.274.274,0,0,1,1415.788,261.176Zm-4.41-.55h4.136v-4.15h-4.136Z" transform="translate(-1380.361 -204.323)"/>
      </g>
      <g id="Group_2794" data-name="Group 2794" transform="translate(-321.425 308.556)">
        <g id="Group_2758" data-name="Group 2758" transform="translate(483.964 198.449)">
          <g id="Group_2754" data-name="Group 2754" transform="translate(0 4.152)">
            <rect id="Rectangle_1535" data-name="Rectangle 1535" width="0.8" height="2.041" transform="translate(0.381 0.379)" fill="#fff"/>
            <path id="Path_2404" data-name="Path 2404" d="M487.5,244.165h-.8a.381.381,0,0,1-.382-.379v-2.041a.381.381,0,0,1,.382-.379h.8a.381.381,0,0,1,.382.379v2.041A.381.381,0,0,1,487.5,244.165Zm-.419-.758h.037l-.037-1.283Z" transform="translate(-486.316 -241.365)"/>
          </g>
          <g id="Group_2755" data-name="Group 2755" transform="translate(26.087 4.01)">
            <rect id="Rectangle_1536" data-name="Rectangle 1536" width="0.8" height="1.958" transform="translate(0.381 0.379)" fill="#fff"/>
            <path id="Path_2405" data-name="Path 2405" d="M553.809,243.72h-.8a.38.38,0,0,1-.381-.379v-1.958a.38.38,0,0,1,.381-.379h.8a.38.38,0,0,1,.381.379v1.958A.38.38,0,0,1,553.809,243.72Zm-.419-.758h.037l-.037-1.2Z" transform="translate(-552.628 -241.003)"/>
          </g>
          <g id="Group_2756" data-name="Group 2756" transform="translate(0 1.421)">
            <path id="Path_2406" data-name="Path 2406" d="M498.264,244.428c-7.288-.372-12.11-2.691-10.748-5.17s8.4-4.193,15.687-3.821,12.11,2.691,10.748,5.17S505.553,244.8,498.264,244.428Z" transform="translate(-486.904 -235.008)"/>
            <path id="Path_2407" data-name="Path 2407" d="M499.673,244.273c-.672,0-1.351-.017-2.017-.051-5.619-.287-9.961-1.735-11.061-3.692a2.009,2.009,0,0,1,0-2.038c1.3-2.357,7.192-4.069,14.022-4.069.673,0,1.352.017,2.019.052,5.619.287,9.961,1.735,11.061,3.692a2.008,2.008,0,0,1,0,2.038C512.4,242.563,506.5,244.273,499.673,244.273Zm.943-9.091c-6.462,0-12.2,1.58-13.353,3.675a1.256,1.256,0,0,0,0,1.3c.8,1.421,4.335,2.994,10.434,3.3.653.033,1.318.049,1.978.049,6.463,0,12.205-1.579,13.355-3.673a1.256,1.256,0,0,0,0-1.305c-.8-1.421-4.335-2.993-10.434-3.3C501.941,235.2,501.276,235.181,500.615,235.181Z" transform="translate(-486.316 -234.423)"/>
          </g>
          <g id="Group_2757" data-name="Group 2757" transform="translate(0.382)">
            <path id="Path_2408" data-name="Path 2408" d="M498.264,239.852c-7.288-.372-12.11-2.691-10.748-5.17s8.4-4.193,15.687-3.821,12.11,2.691,10.748,5.17S505.553,240.224,498.264,239.852Z" transform="translate(-487.286 -230.81)" fill="#fff"/>
          </g>
        </g>
        <g id="Group_2763" data-name="Group 2763" transform="translate(483.964 195.506)">
          <g id="Group_2759" data-name="Group 2759" transform="translate(0 4.152)">
            <rect id="Rectangle_1537" data-name="Rectangle 1537" width="0.8" height="2.041" transform="translate(0.381 0.379)" fill="#fff"/>
            <path id="Path_2409" data-name="Path 2409" d="M487.5,236.682h-.8a.381.381,0,0,1-.382-.379v-2.041a.381.381,0,0,1,.382-.379h.8a.381.381,0,0,1,.382.379V236.3A.38.38,0,0,1,487.5,236.682Zm-.419-.758h.037l-.037-1.282Z" transform="translate(-486.316 -233.883)"/>
          </g>
          <g id="Group_2760" data-name="Group 2760" transform="translate(26.087 4.01)">
            <rect id="Rectangle_1538" data-name="Rectangle 1538" width="0.8" height="1.958" transform="translate(0.381 0.379)" fill="#fff"/>
            <path id="Path_2410" data-name="Path 2410" d="M553.809,236.238h-.8a.38.38,0,0,1-.381-.379V233.9a.38.38,0,0,1,.381-.379h.8a.38.38,0,0,1,.381.379v1.958A.38.38,0,0,1,553.809,236.238Zm-.419-.758h.037l-.037-1.2Z" transform="translate(-552.628 -233.521)"/>
          </g>
          <g id="Group_2761" data-name="Group 2761" transform="translate(0 1.422)">
            <path id="Path_2411" data-name="Path 2411" d="M498.264,236.947c-7.288-.372-12.11-2.691-10.748-5.17s8.4-4.193,15.687-3.821,12.11,2.691,10.748,5.17S505.553,237.318,498.264,236.947Z" transform="translate(-486.904 -227.526)"/>
            <path id="Path_2412" data-name="Path 2412" d="M499.673,236.792c-.672,0-1.351-.017-2.017-.051-5.619-.287-9.961-1.736-11.061-3.692a2.008,2.008,0,0,1,0-2.039c1.3-2.357,7.193-4.068,14.025-4.068.672,0,1.351.017,2.016.051,5.619.286,9.961,1.735,11.061,3.692a2.007,2.007,0,0,1,0,2.038C512.4,235.081,506.5,236.792,499.673,236.792Zm.946-9.093c-6.463,0-12.205,1.579-13.356,3.674a1.256,1.256,0,0,0,0,1.3c.8,1.421,4.335,2.994,10.434,3.305.653.033,1.318.049,1.978.049,6.464,0,12.205-1.579,13.355-3.674a1.256,1.256,0,0,0,0-1.305c-.8-1.421-4.335-2.994-10.434-3.3C501.942,227.717,501.277,227.7,500.619,227.7Z" transform="translate(-486.316 -226.942)"/>
          </g>
          <g id="Group_2762" data-name="Group 2762" transform="translate(0.382)">
            <path id="Path_2413" data-name="Path 2413" d="M498.264,232.369c-7.288-.372-12.11-2.691-10.748-5.17s8.4-4.193,15.687-3.821,12.11,2.691,10.748,5.17S505.553,232.741,498.264,232.369Z" transform="translate(-487.286 -223.328)" fill="#fff"/>
          </g>
        </g>
        <g id="Group_2768" data-name="Group 2768" transform="translate(483.964 192.183)">
          <g id="Group_2764" data-name="Group 2764" transform="translate(0 4.531)">
            <rect id="Rectangle_1539" data-name="Rectangle 1539" width="0.8" height="2.041" transform="translate(0.381 0.379)" fill="#fff"/>
            <path id="Path_2414" data-name="Path 2414" d="M487.5,229.2h-.8a.381.381,0,0,1-.382-.379v-2.041a.381.381,0,0,1,.382-.379h.8a.381.381,0,0,1,.382.379v2.041A.38.38,0,0,1,487.5,229.2Zm-.419-.758h.037l-.037-1.282Z" transform="translate(-486.316 -226.399)"/>
          </g>
          <g id="Group_2765" data-name="Group 2765" transform="translate(26.087 4.389)">
            <rect id="Rectangle_1540" data-name="Rectangle 1540" width="0.8" height="1.958" transform="translate(0.381 0.379)" fill="#fff"/>
            <path id="Path_2415" data-name="Path 2415" d="M553.809,228.755h-.8a.38.38,0,0,1-.381-.379v-1.958a.38.38,0,0,1,.381-.379h.8a.38.38,0,0,1,.381.379v1.958A.38.38,0,0,1,553.809,228.755ZM553.39,228h.037l-.037-1.2Z" transform="translate(-552.628 -226.038)"/>
          </g>
          <g id="Group_2766" data-name="Group 2766" transform="translate(0 1.801)">
            <path id="Path_2416" data-name="Path 2416" d="M498.264,229.462c-7.288-.371-12.11-2.691-10.748-5.17s8.4-4.192,15.687-3.821,12.11,2.691,10.748,5.17S505.553,229.834,498.264,229.462Z" transform="translate(-486.904 -220.042)"/>
            <path id="Path_2417" data-name="Path 2417" d="M499.673,229.308c-.672,0-1.351-.017-2.017-.051-5.619-.286-9.961-1.735-11.061-3.692a2.008,2.008,0,0,1,0-2.038c1.3-2.358,7.193-4.069,14.025-4.069.672,0,1.351.017,2.017.051,5.62.288,9.962,1.737,11.061,3.693a2.006,2.006,0,0,1,0,2.038C512.4,227.6,506.5,229.308,499.673,229.308Zm.946-9.093c-6.463,0-12.205,1.579-13.356,3.674a1.257,1.257,0,0,0,0,1.305c.8,1.421,4.335,2.994,10.434,3.3.653.033,1.318.05,1.978.05,6.464,0,12.205-1.579,13.355-3.674a1.255,1.255,0,0,0,0-1.3c-.8-1.421-4.335-2.993-10.434-3.305C501.942,220.233,501.277,220.216,500.618,220.216Z" transform="translate(-486.316 -219.458)"/>
          </g>
          <g id="Group_2767" data-name="Group 2767" transform="translate(0)">
            <path id="Path_2418" data-name="Path 2418" d="M498.264,224.885c-7.288-.371-12.11-2.691-10.748-5.17s8.4-4.192,15.687-3.821,12.11,2.691,10.748,5.17S505.553,225.257,498.264,224.885Z" transform="translate(-486.904 -215.465)" fill="#fff"/>
            <path id="Path_2419" data-name="Path 2419" d="M499.673,224.731c-.672,0-1.351-.017-2.017-.051-5.619-.286-9.961-1.735-11.061-3.692a2.008,2.008,0,0,1,0-2.038c1.3-2.358,7.193-4.069,14.025-4.069.672,0,1.351.017,2.017.051,5.619.287,9.961,1.736,11.061,3.692a2.007,2.007,0,0,1,0,2.039C512.4,223.02,506.5,224.731,499.673,224.731Zm.946-9.093c-6.463,0-12.205,1.579-13.356,3.674a1.257,1.257,0,0,0,0,1.305c.8,1.421,4.335,2.994,10.434,3.3.653.033,1.318.05,1.978.05,6.464,0,12.205-1.579,13.355-3.674a1.254,1.254,0,0,0,0-1.3c-.8-1.421-4.335-2.995-10.434-3.306C501.942,215.656,501.277,215.639,500.618,215.639Z" transform="translate(-486.316 -214.881)"/>
          </g>
        </g>
        <g id="Group_2773" data-name="Group 2773" transform="translate(482.439 189.239)">
          <g id="Group_2769" data-name="Group 2769" transform="translate(0 4.531)">
            <rect id="Rectangle_1541" data-name="Rectangle 1541" width="0.8" height="2.041" transform="translate(0.381 0.38)" fill="#fff"/>
            <path id="Path_2420" data-name="Path 2420" d="M483.62,221.714h-.8a.38.38,0,0,1-.381-.379v-2.042a.38.38,0,0,1,.381-.379h.8a.38.38,0,0,1,.381.379v2.041A.38.38,0,0,1,483.62,221.714Zm-.419-.758h.037l-.037-1.283Z" transform="translate(-482.439 -218.914)"/>
          </g>
          <g id="Group_2770" data-name="Group 2770" transform="translate(26.086 4.389)">
            <rect id="Rectangle_1542" data-name="Rectangle 1542" width="0.8" height="1.958" transform="translate(0.381 0.379)" fill="#fff"/>
            <path id="Path_2421" data-name="Path 2421" d="M549.931,221.271h-.8a.381.381,0,0,1-.382-.379v-1.958a.381.381,0,0,1,.382-.379h.8a.381.381,0,0,1,.382.379v1.958A.381.381,0,0,1,549.931,221.271Zm-.419-.758h.037l-.037-1.2Z" transform="translate(-548.75 -218.554)"/>
          </g>
          <g id="Group_2771" data-name="Group 2771" transform="translate(0 1.801)">
            <path id="Path_2422" data-name="Path 2422" d="M494.387,221.979c-7.288-.372-12.11-2.691-10.748-5.17s8.4-4.193,15.687-3.821,12.11,2.691,10.748,5.17S501.676,222.351,494.387,221.979Z" transform="translate(-483.027 -212.56)"/>
            <path id="Path_2423" data-name="Path 2423" d="M495.8,221.826c-.672,0-1.351-.017-2.017-.051-5.619-.288-9.961-1.737-11.061-3.693a2.008,2.008,0,0,1,0-2.038c1.3-2.357,7.193-4.068,14.025-4.068.672,0,1.351.017,2.017.051,5.619.287,9.961,1.735,11.061,3.692a2.009,2.009,0,0,1,0,2.038C508.525,220.115,502.627,221.826,495.8,221.826Zm.945-9.091c-6.463,0-12.205,1.579-13.355,3.674a1.256,1.256,0,0,0,0,1.3c.8,1.421,4.335,2.993,10.434,3.305.653.033,1.318.049,1.977.049,6.463,0,12.205-1.579,13.356-3.674a1.257,1.257,0,0,0,0-1.305c-.8-1.421-4.335-2.994-10.434-3.3C498.065,212.75,497.4,212.734,496.741,212.734Z" transform="translate(-482.439 -211.976)"/>
          </g>
          <g id="Group_2772" data-name="Group 2772" transform="translate(0.001 0)">
            <path id="Path_2424" data-name="Path 2424" d="M494.387,217.4c-7.288-.372-12.11-2.691-10.748-5.17s8.4-4.193,15.687-3.821,12.11,2.691,10.748,5.17S501.676,217.774,494.387,217.4Z" transform="translate(-483.028 -207.982)" fill="#fff"/>
            <path id="Path_2425" data-name="Path 2425" d="M495.8,217.248c-.673,0-1.352-.017-2.018-.052-5.619-.287-9.961-1.735-11.061-3.692a2.007,2.007,0,0,1,0-2.038c1.3-2.357,7.192-4.069,14.022-4.069.673,0,1.352.017,2.018.052,5.619.287,9.961,1.735,11.061,3.692a2.009,2.009,0,0,1,0,2.038C508.526,215.536,502.629,217.248,495.8,217.248Zm.94-9.092c-6.462,0-12.2,1.58-13.353,3.675a1.256,1.256,0,0,0,0,1.3c.8,1.421,4.335,2.993,10.434,3.3.653.033,1.319.05,1.98.05,6.462,0,12.2-1.58,13.353-3.675a1.256,1.256,0,0,0,0-1.3c-.8-1.421-4.335-2.994-10.434-3.3C498.065,208.172,497.4,208.155,496.739,208.155Z" transform="translate(-482.44 -207.397)"/>
          </g>
        </g>
        <g id="Group_2778" data-name="Group 2778" transform="translate(483.964 186.674)">
          <g id="Group_2774" data-name="Group 2774" transform="translate(0 4.153)">
            <rect id="Rectangle_1543" data-name="Rectangle 1543" width="0.8" height="2.041" transform="translate(0.381 0.378)" fill="#fff"/>
            <path id="Path_2426" data-name="Path 2426" d="M487.5,214.233h-.8a.381.381,0,0,1-.382-.379v-2.041a.381.381,0,0,1,.382-.379h.8a.381.381,0,0,1,.382.379v2.041A.381.381,0,0,1,487.5,214.233Zm-.419-.758h.037l-.037-1.283Z" transform="translate(-486.316 -211.434)"/>
          </g>
          <g id="Group_2775" data-name="Group 2775" transform="translate(26.087 4.01)">
            <rect id="Rectangle_1544" data-name="Rectangle 1544" width="0.8" height="1.958" transform="translate(0.381 0.379)" fill="#fff"/>
            <path id="Path_2427" data-name="Path 2427" d="M553.809,213.788h-.8a.38.38,0,0,1-.381-.379V211.45a.38.38,0,0,1,.381-.379h.8a.38.38,0,0,1,.381.379v1.958A.38.38,0,0,1,553.809,213.788Zm-.419-.758h.037l-.037-1.2Z" transform="translate(-552.628 -211.071)"/>
          </g>
          <g id="Group_2776" data-name="Group 2776" transform="translate(0.001 1.421)">
            <path id="Path_2428" data-name="Path 2428" d="M498.264,214.5c-7.288-.372-12.11-2.691-10.748-5.17s8.4-4.193,15.687-3.821,12.11,2.691,10.748,5.17S505.553,214.868,498.264,214.5Z" transform="translate(-486.905 -205.075)"/>
            <path id="Path_2429" data-name="Path 2429" d="M499.674,214.34c-.672,0-1.351-.017-2.017-.051-5.619-.287-9.96-1.736-11.06-3.693a2.008,2.008,0,0,1,0-2.038c1.3-2.358,7.193-4.069,14.025-4.069.672,0,1.351.017,2.016.051,5.619.286,9.961,1.736,11.061,3.692a2.007,2.007,0,0,1,0,2.039C512.4,212.629,506.506,214.34,499.674,214.34Zm.946-9.092c-6.463,0-12.205,1.579-13.356,3.674a1.257,1.257,0,0,0,0,1.305c.8,1.421,4.335,2.994,10.434,3.3.653.033,1.318.05,1.978.05,6.463,0,12.205-1.579,13.355-3.674a1.254,1.254,0,0,0,0-1.3c-.8-1.421-4.335-2.995-10.434-3.305C501.943,205.264,501.279,205.248,500.62,205.248Z" transform="translate(-486.318 -204.489)"/>
          </g>
          <g id="Group_2777" data-name="Group 2777" transform="translate(0.382 0)">
            <path id="Path_2430" data-name="Path 2430" d="M498.264,209.919c-7.288-.372-12.11-2.691-10.748-5.17s8.4-4.193,15.687-3.821,12.11,2.691,10.748,5.17S505.553,210.291,498.264,209.919Z" transform="translate(-487.286 -200.877)" fill="#fff"/>
          </g>
        </g>
        <g id="Group_2783" data-name="Group 2783" transform="translate(483.964 183.73)">
          <g id="Group_2779" data-name="Group 2779" transform="translate(0 4.153)">
            <rect id="Rectangle_1545" data-name="Rectangle 1545" width="0.8" height="2.041" transform="translate(0.381 0.379)" fill="#fff"/>
            <path id="Path_2431" data-name="Path 2431" d="M487.5,206.749h-.8a.381.381,0,0,1-.382-.379v-2.041a.38.38,0,0,1,.382-.379h.8a.38.38,0,0,1,.382.379v2.041A.381.381,0,0,1,487.5,206.749Zm-.419-.758h.037l-.037-1.283Z" transform="translate(-486.316 -203.95)"/>
          </g>
          <g id="Group_2780" data-name="Group 2780" transform="translate(26.087 4.01)">
            <rect id="Rectangle_1546" data-name="Rectangle 1546" width="0.8" height="1.958" transform="translate(0.381 0.379)" fill="#fff"/>
            <path id="Path_2432" data-name="Path 2432" d="M553.809,206.3h-.8a.38.38,0,0,1-.381-.379v-1.958a.38.38,0,0,1,.381-.379h.8a.38.38,0,0,1,.381.379v1.958A.38.38,0,0,1,553.809,206.3Zm-.419-.758h.037l-.037-1.2Z" transform="translate(-552.628 -203.587)"/>
          </g>
          <g id="Group_2781" data-name="Group 2781" transform="translate(0.001 1.421)">
            <path id="Path_2433" data-name="Path 2433" d="M498.264,207.013c-7.288-.372-12.11-2.691-10.748-5.17s8.4-4.193,15.687-3.821,12.11,2.691,10.748,5.17S505.553,207.385,498.264,207.013Z" transform="translate(-486.905 -197.592)"/>
            <path id="Path_2434" data-name="Path 2434" d="M499.677,206.858c-.673,0-1.352-.017-2.019-.052-5.619-.287-9.961-1.735-11.061-3.692a2.009,2.009,0,0,1,0-2.038c1.3-2.357,7.192-4.069,14.022-4.069.673,0,1.352.017,2.019.052,5.619.287,9.961,1.735,11.061,3.692a2.008,2.008,0,0,1,0,2.038C512.4,205.146,506.506,206.858,499.677,206.858Zm.939-9.092c-6.462,0-12.2,1.58-13.353,3.675a1.256,1.256,0,0,0,0,1.3c.8,1.421,4.335,2.994,10.434,3.3.653.033,1.319.05,1.98.05,6.462,0,12.2-1.58,13.353-3.675a1.254,1.254,0,0,0,0-1.3c-.8-1.421-4.335-2.993-10.434-3.3C501.943,197.782,501.277,197.765,500.616,197.765Z" transform="translate(-486.318 -197.007)"/>
          </g>
          <g id="Group_2782" data-name="Group 2782" transform="translate(0.382)">
            <path id="Path_2435" data-name="Path 2435" d="M498.264,202.435c-7.288-.371-12.11-2.691-10.748-5.17s8.4-4.193,15.687-3.821,12.11,2.691,10.748,5.17S505.553,202.807,498.264,202.435Z" transform="translate(-487.286 -193.394)" fill="#fff"/>
          </g>
        </g>
        <g id="Group_2788" data-name="Group 2788" transform="translate(483.964 180.408)">
          <g id="Group_2784" data-name="Group 2784" transform="translate(0 4.532)">
            <rect id="Rectangle_1547" data-name="Rectangle 1547" width="0.8" height="2.041" transform="translate(0.381 0.379)" fill="#fff"/>
            <path id="Path_2436" data-name="Path 2436" d="M487.5,199.266h-.8a.381.381,0,0,1-.382-.379v-2.041a.381.381,0,0,1,.382-.379h.8a.381.381,0,0,1,.382.379v2.041A.381.381,0,0,1,487.5,199.266Zm-.419-.758h.037l-.037-1.282Z" transform="translate(-486.316 -196.467)"/>
          </g>
          <g id="Group_2785" data-name="Group 2785" transform="translate(26.087 4.389)">
            <rect id="Rectangle_1548" data-name="Rectangle 1548" width="0.8" height="1.958" transform="translate(0.381 0.379)" fill="#fff"/>
            <path id="Path_2437" data-name="Path 2437" d="M553.809,198.822h-.8a.38.38,0,0,1-.381-.379v-1.958a.38.38,0,0,1,.381-.379h.8a.38.38,0,0,1,.381.379v1.958A.38.38,0,0,1,553.809,198.822Zm-.419-.758h.037l-.037-1.2Z" transform="translate(-552.628 -196.105)"/>
          </g>
          <g id="Group_2786" data-name="Group 2786" transform="translate(0 1.801)">
            <path id="Path_2438" data-name="Path 2438" d="M498.264,199.53c-7.288-.372-12.11-2.691-10.748-5.17s8.4-4.193,15.687-3.821,12.11,2.691,10.748,5.17S505.553,199.9,498.264,199.53Z" transform="translate(-486.904 -190.11)"/>
            <path id="Path_2439" data-name="Path 2439" d="M499.673,199.375c-.672,0-1.351-.017-2.017-.051-5.619-.287-9.961-1.736-11.061-3.692a2.009,2.009,0,0,1,0-2.039c1.3-2.357,7.193-4.068,14.025-4.068.672,0,1.351.017,2.016.051,5.619.287,9.961,1.735,11.061,3.692a2.008,2.008,0,0,1,0,2.038C512.4,197.664,506.5,199.375,499.673,199.375Zm.946-9.091c-6.463,0-12.205,1.579-13.356,3.674a1.256,1.256,0,0,0,0,1.3c.8,1.421,4.335,2.994,10.434,3.305.653.033,1.318.049,1.978.049,6.464,0,12.205-1.579,13.355-3.674a1.256,1.256,0,0,0,0-1.305c-.8-1.421-4.335-2.994-10.434-3.3C501.942,190.3,501.277,190.283,500.619,190.283Z" transform="translate(-486.316 -189.525)"/>
          </g>
          <g id="Group_2787" data-name="Group 2787" transform="translate(0)">
            <path id="Path_2440" data-name="Path 2440" d="M498.264,194.953c-7.288-.372-12.11-2.691-10.748-5.17s8.4-4.193,15.687-3.821,12.11,2.691,10.748,5.17S505.553,195.325,498.264,194.953Z" transform="translate(-486.904 -185.533)" fill="#fff"/>
            <path id="Path_2441" data-name="Path 2441" d="M499.673,194.8c-.672,0-1.351-.017-2.017-.051-5.62-.288-9.962-1.737-11.061-3.693a2.007,2.007,0,0,1,0-2.038c1.3-2.357,7.193-4.068,14.025-4.068.672,0,1.351.017,2.016.051,5.619.287,9.96,1.735,11.061,3.693a2.008,2.008,0,0,1,0,2.038C512.4,193.087,506.5,194.8,499.673,194.8Zm.946-9.091c-6.463,0-12.205,1.579-13.356,3.674a1.256,1.256,0,0,0,0,1.3c.8,1.421,4.335,2.993,10.435,3.305.653.033,1.318.049,1.978.049,6.463,0,12.205-1.579,13.355-3.674a1.256,1.256,0,0,0,0-1.305c-.8-1.421-4.335-2.994-10.434-3.3C501.942,185.722,501.277,185.706,500.619,185.706Z" transform="translate(-486.316 -184.948)"/>
          </g>
        </g>
        <g id="Group_2793" data-name="Group 2793" transform="translate(486.252 177.463)">
          <g id="Group_2789" data-name="Group 2789" transform="translate(0 4.532)">
            <rect id="Rectangle_1549" data-name="Rectangle 1549" width="0.8" height="2.041" transform="translate(0.381 0.379)" fill="#fff"/>
            <path id="Path_2442" data-name="Path 2442" d="M493.313,191.782h-.8a.381.381,0,0,1-.382-.379v-2.041a.381.381,0,0,1,.382-.379h.8a.381.381,0,0,1,.382.379V191.4A.38.38,0,0,1,493.313,191.782Zm-.419-.758h.037l-.037-1.282Z" transform="translate(-492.132 -188.983)"/>
          </g>
          <g id="Group_2790" data-name="Group 2790" transform="translate(26.087 4.389)">
            <rect id="Rectangle_1550" data-name="Rectangle 1550" width="0.8" height="1.958" transform="translate(0.381 0.379)" fill="#fff"/>
            <path id="Path_2443" data-name="Path 2443" d="M559.625,191.337h-.8a.38.38,0,0,1-.381-.379V189a.38.38,0,0,1,.381-.379h.8a.38.38,0,0,1,.382.379v1.958A.38.38,0,0,1,559.625,191.337Zm-.419-.758h.037l-.037-1.2Z" transform="translate(-558.444 -188.62)"/>
          </g>
          <g id="Group_2791" data-name="Group 2791" transform="translate(0 1.801)">
            <path id="Path_2444" data-name="Path 2444" d="M504.08,192.046c-7.288-.371-12.11-2.691-10.748-5.17s8.4-4.192,15.687-3.821,12.11,2.691,10.748,5.17S511.369,192.418,504.08,192.046Z" transform="translate(-492.72 -182.625)"/>
            <path id="Path_2445" data-name="Path 2445" d="M505.489,191.89c-.672,0-1.351-.017-2.017-.051-5.619-.286-9.961-1.735-11.061-3.692a2.008,2.008,0,0,1,0-2.038c1.3-2.358,7.193-4.069,14.025-4.069.672,0,1.35.017,2.016.051,5.619.287,9.961,1.737,11.061,3.693a2.007,2.007,0,0,1,0,2.038C518.219,190.18,512.32,191.89,505.489,191.89Zm.946-9.092c-6.463,0-12.205,1.579-13.356,3.674a1.256,1.256,0,0,0,0,1.305c.8,1.421,4.335,2.994,10.434,3.3.653.033,1.318.05,1.978.05,6.463,0,12.205-1.579,13.355-3.673a1.256,1.256,0,0,0,0-1.305c-.8-1.42-4.334-2.993-10.434-3.3C507.758,182.815,507.093,182.8,506.434,182.8Z" transform="translate(-492.132 -182.04)"/>
          </g>
          <g id="Group_2792" data-name="Group 2792" transform="translate(0)">
            <path id="Path_2446" data-name="Path 2446" d="M504.08,187.469c-7.288-.371-12.11-2.691-10.748-5.17s8.4-4.192,15.687-3.821,12.11,2.691,10.748,5.17S511.369,187.841,504.08,187.469Z" transform="translate(-492.72 -178.048)" fill="#fff"/>
            <path id="Path_2447" data-name="Path 2447" d="M505.489,187.313c-.672,0-1.351-.017-2.017-.051-5.619-.287-9.961-1.736-11.061-3.692a2.008,2.008,0,0,1,0-2.038c1.3-2.358,7.194-4.069,14.026-4.069.672,0,1.35.017,2.016.051,5.62.288,9.962,1.737,11.061,3.693a2.005,2.005,0,0,1,0,2.038C518.219,185.6,512.32,187.313,505.489,187.313Zm.946-9.092c-6.463,0-12.205,1.579-13.357,3.674a1.257,1.257,0,0,0,0,1.305c.8,1.421,4.335,2.994,10.434,3.3.653.033,1.318.05,1.978.05,6.463,0,12.205-1.579,13.355-3.674a1.254,1.254,0,0,0,0-1.3c-.8-1.421-4.335-2.994-10.434-3.305C507.758,178.238,507.093,178.221,506.434,178.221Z" transform="translate(-492.132 -177.463)"/>
          </g>
        </g>
      </g>
      <g id="Group_2796" data-name="Group 2796" transform="translate(242.046 375.512)">
        <path id="Path_2448" data-name="Path 2448" d="M504.55,294.017h62.89v34.5H504.55Z" transform="translate(-501.504 -290.208)" fill="#fff"/>
        <path id="Path_2449" data-name="Path 2449" d="M567.175,328.482h-62.89a.235.235,0,0,1-.234-.234v-34.5a.235.235,0,0,1,.234-.235h62.89a.234.234,0,0,1,.234.235v34.5A.234.234,0,0,1,567.175,328.482Zm-62.655-.469H566.94V293.986H504.52Z" transform="translate(-501.239 -289.943)"/>
        <path id="Path_2450" data-name="Path 2450" d="M501.554,291.019h62.89v34.5h-62.89Z" transform="translate(-499.914 -288.617)" fill="#fff"/>
        <path id="Path_2451" data-name="Path 2451" d="M564.179,325.484H501.289a.235.235,0,0,1-.234-.235v-34.5a.235.235,0,0,1,.234-.235h62.889a.234.234,0,0,1,.234.235v34.5A.234.234,0,0,1,564.179,325.484Zm-62.655-.469h62.421V290.988H501.524Z" transform="translate(-499.649 -288.352)"/>
        <path id="Path_2452" data-name="Path 2452" d="M498.559,288.02h62.889v34.5H498.559Z" transform="translate(-498.324 -287.026)" fill="#fff"/>
        <g id="Group_2795" data-name="Group 2795" transform="translate(0 0)">
          <path id="Path_2453" data-name="Path 2453" d="M561.183,322.486H498.294a.235.235,0,0,1-.235-.235v-34.5a.235.235,0,0,1,.235-.234h62.889a.234.234,0,0,1,.234.234v34.5A.234.234,0,0,1,561.183,322.486Zm-62.655-.469h62.421V287.99H498.528Z" transform="translate(-498.059 -286.761)"/>
          <path id="Path_2454" data-name="Path 2454" d="M553.462,293.7c5.125,0,9.295,6.207,9.295,13.835s-4.17,13.836-9.295,13.836-9.294-6.207-9.294-13.836,4.169-13.835,9.294-13.835m0-1.407c-5.91,0-10.7,6.824-10.7,15.242s4.791,15.243,10.7,15.243,10.7-6.824,10.7-15.243S559.372,292.3,553.462,292.3Z" transform="translate(-521.783 -289.294)"/>
          <path id="Path_2455" data-name="Path 2455" d="M606.981,324.441a2.547,2.547,0,1,1,2.545-2.547A2.549,2.549,0,0,1,606.981,324.441Zm0-3.686a1.14,1.14,0,1,0,1.139,1.139A1.14,1.14,0,0,0,606.981,320.754Z" transform="translate(-554.515 -303.651)"/>
          <path id="Path_2456" data-name="Path 2456" d="M518.389,324.441a2.547,2.547,0,1,1,2.545-2.547A2.549,2.549,0,0,1,518.389,324.441Zm0-3.686a1.14,1.14,0,1,0,1.139,1.139A1.14,1.14,0,0,0,518.389,320.754Z" transform="translate(-507.498 -303.651)"/>
          <path id="Path_2457" data-name="Path 2457" d="M560.352,293.7v27.671H505.01V293.7Zm1.406-1.407H503.6V322.78h58.153Z" transform="translate(-501.002 -289.294)"/>
          <ellipse id="Ellipse_398" data-name="Ellipse 398" cx="1.842" cy="1.842" rx="1.842" ry="1.842" transform="translate(2.603 3.002)"/>
          <ellipse id="Ellipse_399" data-name="Ellipse 399" cx="1.842" cy="1.842" rx="1.842" ry="1.842" transform="translate(2.603 29.721)"/>
          <ellipse id="Ellipse_400" data-name="Ellipse 400" cx="1.842" cy="1.842" rx="1.842" ry="1.842" transform="translate(56.966 3.002)"/>
          <ellipse id="Ellipse_401" data-name="Ellipse 401" cx="1.842" cy="1.842" rx="1.842" ry="1.842" transform="translate(56.966 29.721)"/>
          <path id="Path_2458" data-name="Path 2458" d="M556.735,301.558c3.469,0,6.4,4.648,6.4,10.148s-2.931,10.149-6.4,10.149-6.4-4.647-6.4-10.149,2.931-10.148,6.4-10.148m0-1.407c-4.311,0-7.806,5.173-7.806,11.555s3.5,11.556,7.806,11.556,7.806-5.173,7.806-11.556S561.047,300.151,556.735,300.151Z" transform="translate(-525.056 -293.464)"/>
          <path id="Path_2459" data-name="Path 2459" d="M556.07,285.9h8.982V322.17H556.07Z" transform="translate(-528.846 -285.901)"/>
        </g>
        <path id="Path_2460" data-name="Path 2460" d="M557.152,285.9h.469V322.17h-.469Z" transform="translate(-529.42 -285.901)" fill="#fff"/>
        <path id="Path_2461" data-name="Path 2461" d="M573.046,285.9h.469V322.17h-.469Z" transform="translate(-537.855 -285.901)" fill="#fff"/>
        <path id="Path_2462" data-name="Path 2462" d="M565.052,363.185H556.07l1.875,2.682h8.982Z" transform="translate(-528.846 -326.916)"/>
        <path id="Path_2463" data-name="Path 2463" d="M557.621,363.185h-.469l1.874,2.682h.469Z" transform="translate(-529.42 -326.916)" fill="#fff"/>
        <path id="Path_2464" data-name="Path 2464" d="M573.515,363.185h-.469l1.875,2.682h.468Z" transform="translate(-537.855 -326.916)" fill="#fff"/>
      </g>
    </g>
  </g>
</svg>
