<svg xmlns="http://www.w3.org/2000/svg" width="1885.967" height="1158.762" viewBox="0 0 1885.967 1158.762">
  <g id="Group_2812" data-name="Group 2812" transform="translate(-1374.591 -1376.285)">
    <g id="Group_2816" data-name="Group 2816" transform="translate(1374.591 1376.285)">
      <g id="Group_2814" data-name="Group 2814">
        <g id="Group_2812-2" data-name="Group 2812">
          <path id="Path_2466" data-name="Path 2466" d="M1653.809,1626.774q30.555-12.934,48.036-42.978a195.382,195.382,0,0,0,23.56-62.064q6.083-32.018.711-59.087t-21.38-34.015q-27.608-12.387-58.449,3.167-30.862,15.574-61.082,50.633-30.247,35.074-58.419,83.922a842.04,842.04,0,0,0-50.4,103.459,962.985,962.985,0,0,0-37.1,108.821q-14.875,54.21-19.358,99.609-4.5,45.408,3.327,77.539,7.8,32.14,31.715,40.4,21.246,7.524,45.365-4.189t47.927-36.892q23.825-25.164,47.013-62.03a765.464,765.464,0,0,0,43.447-79.64q4.09-4.561,12.155-8.038a57.193,57.193,0,0,1,16.7-4.38,62.068,62.068,0,0,1,16.52.41,21.262,21.262,0,0,1,12.5,6.27,728.973,728.973,0,0,1-50.319,89.126q-29.3,44.578-62.662,77.644t-68.948,49.751q-35.568,16.685-69.171,5.484-35.391-11.989-52.574-48.824-17.2-36.836-18.251-88.456-1.06-51.6,11.681-113.083a792.053,792.053,0,0,1,35.933-122.219,806.8,806.8,0,0,1,55.356-116.318q32.166-55.574,70.411-94.992,38.245-39.4,80.644-58.205,42.406-18.78,85.633-6.372,26.432,7.252,41.895,28.126t20.878,48.8q5.426,27.938,1.525,60.27a250.051,250.051,0,0,1-16.127,62.963,253.613,253.613,0,0,1-32.066,57.308,162.67,162.67,0,0,1-46.744,42.911q-5.34-2.313-10.447-8.55a82.963,82.963,0,0,1-9.477-14.683,106.161,106.161,0,0,1-6.974-16.558A59.35,59.35,0,0,1,1653.809,1626.774Z" transform="translate(-1374.591 -1376.285)" fill="#fff"/>
          <path id="Path_2467" data-name="Path 2467" d="M1746.946,1716.513q6.31-11.618,16.026-8.683,9.7,2.953,5.226,16.212-5.375,13.319-15.471,35.141t-22.259,45.927q-12.166,24.11-26.042,48.3a491.128,491.128,0,0,1-27.626,43.176q-13.745,18.988-26.114,30.938-12.377,11.967-21.988,10.748-22.72-2.229-29-22.313-6.3-20.055-3.086-48.9a390.385,390.385,0,0,1,12.3-61.449q9.1-32.614,17.527-61.306,8.421-28.662,13.026-48.032,4.6-19.334-2.466-21.576-14.094-3.571-38.6,16.853-24.513,20.442-48.519,58.207t-42.521,88.7a351.8,351.8,0,0,0-20.665,107.5l-21.649,1.168q-10.122-10.731-10.378-39.384t7.478-70.311q7.742-41.657,22.764-92.844,15.019-51.167,35.864-107.452,20.824-56.257,46.749-114.984,25.9-58.717,55.041-114.134a36.657,36.657,0,0,1,14.4-14.675,47.6,47.6,0,0,1,17.923-5.744,43.813,43.813,0,0,1,17.464,1.663,36.74,36.74,0,0,1,13.865,7.491q-40.039,78.6-73.668,155.089-33.639,76.513-59.653,141.305,26.567-38.764,57.445-61.729,30.878-22.941,59.79-18.433,14.033,2.723,21.959,12.7t9.614,25.1q1.672,15.116-1.638,33.96a181.513,181.513,0,0,1-11,37.5q-9.167,23.085-18.858,52.685-9.693,29.632-17.773,56.544-8.117,26.935-11.849,45.794-3.77,18.882-1.157,18.73,6.915-.375,20.615-20.216a520.268,520.268,0,0,0,29.069-48.468q15.381-28.61,31.107-59Q1735.94,1737.959,1746.946,1716.513Z" transform="translate(-1113.568 -1340.172)" fill="#fff"/>
          <path id="Path_2468" data-name="Path 2468" d="M1788.349,1539.459q6.275-12.486,15.584-9.089,9.283,3.4,5.67,16.62a262.329,262.329,0,0,1-18.629,40.959,198.585,198.585,0,0,1-25,35.217,123.647,123.647,0,0,1-29.505,24.606q-15.583,9.113-31.16,9.938a283.706,283.706,0,0,1-27.436,46.642,207.834,207.834,0,0,1-33.189,36.533q-17.422,14.843-36.605,21.517a58.075,58.075,0,0,1-37.741.741q-28.219-8.011-41.137-38.151-12.909-30.116-12.02-69.685.9-39.552,13.769-82.374t34.985-75.707q22.089-32.886,52.884-49.755,30.776-16.845,67.031-4.931,22.979,7.444,34.863,26.334t14.989,44.349q3.11,25.458-1.787,55.233a332.333,332.333,0,0,1-15.473,59.023q12.844-3.306,24.329-15.648a187.5,187.5,0,0,0,20.705-26.733q9.193-14.385,15.883-27.348Q1786.03,1544.814,1788.349,1539.459Zm-209.773,183.294a32.568,32.568,0,0,0,23.379-1.26q11.88-4.981,23.438-16.035a155.886,155.886,0,0,0,22-26.8,254.47,254.47,0,0,0,18.973-34.463A64.335,64.335,0,0,1,1646,1612.729a106.514,106.514,0,0,1-4.292-39.279,114.265,114.265,0,0,1,9.644-38.3q8.126-18.226,21.465-28.519a23.356,23.356,0,0,0-6.293-4q-18.706-8.53-36.723,3.293-18.053,11.842-32.881,34.344a244.5,244.5,0,0,0-25.42,51.737,274.577,274.577,0,0,0-14.292,56.785q-3.725,27.553.867,48.147T1578.576,1722.753Zm110.3-176.17a54.475,54.475,0,0,0-10.664,27.5,71.668,71.668,0,0,0,2.456,29.39Q1690.162,1570.843,1688.873,1546.583Z" transform="translate(-909.949 -1176.386)" fill="#fff"/>
          <path id="Path_2469" data-name="Path 2469" d="M1845.871,1536.345q6.262-12.486,15.569-9.093,9.3,3.408,5.676,16.626a261.975,261.975,0,0,1-18.621,40.957,198.342,198.342,0,0,1-25.014,35.217,123.683,123.683,0,0,1-29.494,24.609q-15.593,9.113-31.162,9.934a283.042,283.042,0,0,1-27.429,46.642,208.518,208.518,0,0,1-33.189,36.535q-17.438,14.843-36.605,21.519a58.1,58.1,0,0,1-37.744.739q-28.239-8.014-41.143-38.151-12.9-30.116-12.018-69.683.913-39.556,13.778-82.378,12.854-42.8,34.974-75.7,22.095-32.89,52.877-49.755,30.788-16.848,67.039-4.935,22.979,7.447,34.861,26.336t14.991,44.346q3.114,25.459-1.789,55.239a331.462,331.462,0,0,1-15.473,59.019q12.844-3.306,24.333-15.646a187.672,187.672,0,0,0,20.705-26.738q9.193-14.379,15.883-27.344Q1843.534,1541.7,1845.871,1536.345Zm-209.775,183.3a32.566,32.566,0,0,0,23.372-1.266q11.887-4.978,23.451-16.035a156.549,156.549,0,0,0,21.991-26.8,253.4,253.4,0,0,0,18.977-34.459,64.373,64.373,0,0,1-20.376-31.463,106.7,106.7,0,0,1-4.3-39.281,114.562,114.562,0,0,1,9.654-38.29q8.133-18.235,21.463-28.523a23.552,23.552,0,0,0-6.291-4q-18.706-8.53-36.729,3.295-18.043,11.842-32.873,34.342a244.231,244.231,0,0,0-25.418,51.741,274.776,274.776,0,0,0-14.3,56.787q-3.719,27.553.873,48.145Q1620.164,1714.43,1636.1,1719.644Zm110.294-176.177a54.636,54.636,0,0,0-10.667,27.5,71.612,71.612,0,0,0,2.46,29.394Q1747.687,1567.729,1746.39,1543.467Z" transform="translate(-722.445 -1186.538)" fill="#fff"/>
          <path id="Path_2470" data-name="Path 2470" d="M1920.728,1707.1q6.3-11.611,16.024-8.68,9.709,2.956,5.225,16.216-5.378,13.315-15.469,35.141-10.115,21.836-22.266,45.926-12.168,24.1-26.039,48.3a489.878,489.878,0,0,1-27.622,43.18q-13.748,18.969-26.108,30.934-12.383,11.964-22,10.745-22.72-2.233-29-22.309-6.294-20.052-3.073-48.9a389.488,389.488,0,0,1,12.3-61.453q9.087-32.611,17.523-61.3,8.421-28.655,13.035-48.028,4.581-19.341-2.475-21.576-14.094-3.575-38.6,16.851t-48.512,58.2q-24.007,37.771-42.531,88.708a351.6,351.6,0,0,0-20.66,107.491l-21.647,1.177q-10.125-10.73-10.391-39.39-.231-28.636,7.487-70.3,7.748-41.663,22.766-92.848,15.016-51.167,35.864-107.454,20.827-56.257,46.745-114.982t55.045-114.13a36.632,36.632,0,0,1,14.4-14.677,47.672,47.672,0,0,1,17.921-5.749,43.826,43.826,0,0,1,17.464,1.663,36.589,36.589,0,0,1,13.865,7.5q-40.033,78.6-73.665,155.089-33.633,76.513-59.655,141.3,26.563-38.767,57.451-61.726,30.868-22.941,59.787-18.433,14.03,2.719,21.961,12.7,7.915,10,9.607,25.1,1.672,15.106-1.631,33.957a181.79,181.79,0,0,1-11,37.5q-9.17,23.088-18.856,52.687-9.693,29.632-17.775,56.544-8.11,26.932-11.852,45.788-3.757,18.892-1.157,18.732,6.919-.368,20.615-20.212a517.734,517.734,0,0,0,29.072-48.465q15.381-28.617,31.107-59T1920.728,1707.1Z" transform="translate(-547.07 -1370.841)" fill="#fff"/>
          <path id="Path_2471" data-name="Path 2471" d="M1962.125,1530.055q6.269-12.5,15.582-9.09,9.292,3.4,5.674,16.622a262,262,0,0,1-18.629,40.955,198.345,198.345,0,0,1-25.01,35.219,123.44,123.44,0,0,1-29.5,24.606q-15.583,9.1-31.156,9.943a283.6,283.6,0,0,1-27.434,46.637,208.737,208.737,0,0,1-33.184,36.533q-17.448,14.846-36.616,21.519a58.094,58.094,0,0,1-37.733.741q-28.239-8.011-41.149-38.154-12.9-30.116-12.02-69.687.913-39.552,13.782-82.37t34.976-75.709q22.1-32.886,52.879-49.755,30.782-16.852,67.037-4.935,22.976,7.454,34.854,26.336t14.995,44.346q3.11,25.455-1.787,55.239a331.561,331.561,0,0,1-15.475,59.021q12.848-3.3,24.333-15.646a187.2,187.2,0,0,0,20.7-26.735q9.186-14.385,15.885-27.348Q1959.8,1535.408,1962.125,1530.055Zm-209.771,183.292a32.516,32.516,0,0,0,23.374-1.264q11.887-4.971,23.451-16.028a156.527,156.527,0,0,0,21.988-26.806,253.517,253.517,0,0,0,18.975-34.464,64.32,64.32,0,0,1-20.365-31.463,106.457,106.457,0,0,1-4.3-39.279,114.687,114.687,0,0,1,9.652-38.295q8.126-18.226,21.465-28.516a23.487,23.487,0,0,0-6.289-4q-18.71-8.527-36.731,3.288-18.05,11.852-32.881,34.35a244.754,244.754,0,0,0-25.416,51.737,274.857,274.857,0,0,0-14.295,56.787q-3.725,27.55.869,48.143Q1736.424,1708.132,1752.354,1713.346Zm110.3-176.17a54.545,54.545,0,0,0-10.673,27.5,71.563,71.563,0,0,0,2.466,29.39Q1863.944,1561.437,1862.653,1537.176Z" transform="translate(-343.451 -1207.054)" fill="#fff"/>
          <path id="Path_2472" data-name="Path 2472" d="M2019.653,1526.935q6.259-12.486,15.567-9.088t5.676,16.622a262.079,262.079,0,0,1-18.621,40.957,198.328,198.328,0,0,1-25.014,35.217,123.636,123.636,0,0,1-29.5,24.611q-15.58,9.107-31.156,9.938a283.392,283.392,0,0,1-27.432,46.64,208.491,208.491,0,0,1-33.189,36.533q-17.438,14.843-36.61,21.517a58.084,58.084,0,0,1-37.739.741q-28.239-8.011-41.143-38.151-12.9-30.119-12.022-69.685.916-39.552,13.78-82.374t34.978-75.7q22.092-32.89,52.875-49.755t67.039-4.933q22.979,7.441,34.859,26.334t14.993,44.349q3.114,25.446-1.79,55.233a331.794,331.794,0,0,1-15.471,59.023q12.842-3.306,24.333-15.648a187.638,187.638,0,0,0,20.7-26.735q9.2-14.376,15.885-27.348Q2017.314,1532.294,2019.653,1526.935Zm-209.784,183.294a32.581,32.581,0,0,0,23.379-1.258q11.88-4.981,23.451-16.037a156.506,156.506,0,0,0,21.988-26.8,253.193,253.193,0,0,0,18.977-34.461,64.39,64.39,0,0,1-20.372-31.463,106.61,106.61,0,0,1-4.3-39.279,114.658,114.658,0,0,1,9.654-38.3q8.136-18.223,21.465-28.516a23.552,23.552,0,0,0-6.291-4q-18.709-8.527-36.729,3.293-18.04,11.845-32.875,34.346a244.109,244.109,0,0,0-25.422,51.737,275.084,275.084,0,0,0-14.3,56.785q-3.722,27.56.873,48.147Q1793.946,1705.017,1809.869,1710.229Zm110.3-176.17a54.659,54.659,0,0,0-10.666,27.5,71.634,71.634,0,0,0,2.462,29.39Q1921.464,1558.319,1920.168,1534.059Z" transform="translate(-155.945 -1217.201)" fill="#fff"/>
        </g>
        <g id="Group_2813" data-name="Group 2813" transform="translate(224.262 714.01)">
          <path id="Path_2473" data-name="Path 2473" d="M1427.239,1635.692c-1.523-22.5,410.584-55.7,615.106-69.583,289.74-19.669,734.343-28.136,735.048-17.747.058.856.179,2.59-6.639,3.056-586.3,39.808-1142.572,118.424-1207.341,122.821C1485.008,1679.562,1428.42,1652.991,1427.239,1635.692Z" transform="translate(-1427.234 -1543.894)" fill="#fff"/>
        </g>
        <ellipse id="Ellipse_402" data-name="Ellipse 402" cx="26.39" cy="50.896" rx="26.39" ry="50.896" transform="translate(749.208 342.457)" fill="#fff"/>
        <ellipse id="Ellipse_403" data-name="Ellipse 403" cx="26.39" cy="50.896" rx="26.39" ry="50.896" transform="translate(995.203 333.787)" fill="#fff"/>
        <ellipse id="Ellipse_404" data-name="Ellipse 404" cx="26.39" cy="50.896" rx="26.39" ry="50.896" transform="translate(1489.034 305.768)" fill="#fff"/>
        <path id="Path_2474" data-name="Path 2474" d="M1834.461,1495.62c0,28.113-11.815,50.9-26.39,50.9s-26.389-22.787-26.389-50.9,11.817-50.894,26.389-50.894S1834.461,1467.511,1834.461,1495.62Z" transform="translate(-47.488 -1153.165)" fill="#fff"/>
      </g>
      <g id="Group_2815" data-name="Group 2815" transform="translate(1522.474 94.07)">
        <path id="Path_2475" data-name="Path 2475" d="M1810.275,1398.367a78.291,78.291,0,0,0-78.293,78.291h156.582A78.292,78.292,0,0,0,1810.275,1398.367Z" transform="translate(-1731.982 -1398.367)" fill="#fff"/>
      </g>
    </g>
    <g id="Group_2817" data-name="Group 2817" transform="translate(1624.409 2316.775)">
      <path id="Path_2476" data-name="Path 2476" d="M1446.109,1615.76h-12.874v-18.168h12.874Zm0,150.564h-12.874v-117.03h12.874Z" transform="translate(-1433.234 -1595.321)" fill="#fff"/>
      <path id="Path_2477" data-name="Path 2477" d="M1474.93,1602.7v29.962h25.742v10.6H1474.93v76.252q0,11.464,4.162,16.278a13.937,13.937,0,0,0,11.089,4.813q3.133,0,6.109-.267t6.872-.922l1.943,9.629a33.477,33.477,0,0,1-7.9,2.165,58.117,58.117,0,0,1-9.3.752q-12.323,0-19.2-7.786t-6.87-24.662v-76.252h-20.227v-10.6h20.227V1602.7Z" transform="translate(-1405.919 -1578.687)" fill="#fff"/>
      <path id="Path_2478" data-name="Path 2478" d="M1479.909,1616.954l-12.01,33.208h-7.675l6.81-32.883v-19.686h12.874Z" transform="translate(-1345.243 -1595.321)" fill="#fff"/>
      <path id="Path_2479" data-name="Path 2479" d="M1543.224,1698.609q0-8.194-6.761-14.35t-24.393-10.037q-20.984-4.539-30.987-12.005t-10.007-21.092q0-13.411,11.307-22.657t29.9-9.248q19.8,0,31.369,9.791t11.034,24.5l-.22.645h-12.005q0-9.625-8.164-16.765t-22.014-7.137q-14.171,0-21.252,6.082t-7.085,14.258a16.865,16.865,0,0,0,6.109,13.346q6.112,5.272,24.4,9.255,20.875,4.667,31.258,12.751t10.382,21.974q0,14.651-11.845,23.707t-31.314,9.061q-21.3,0-33.475-10.165t-11.516-24.231l.216-.649h11.9q.756,12.6,10.333,18.307t22.546,5.708q14.065,0,22.178-6.15T1543.224,1698.609Z" transform="translate(-1320.192 -1557.412)" fill="#fff"/>
      <path id="Path_2480" data-name="Path 2480" d="M1525.287,1768.063V1661.63h-19.36v-10.6h19.36v-17.09q0-17.63,8.813-27.261t24.715-9.622a49.159,49.159,0,0,1,7.248.543,72.911,72.911,0,0,1,7.463,1.51l-1.621,10.711a50.474,50.474,0,0,0-5.356-1.033,48.424,48.424,0,0,0-6.438-.374q-10.6,0-16.221,6.705t-5.623,18.822v17.09h27.9v10.6h-27.9v106.433Z" transform="translate(-1196.254 -1597.058)" fill="#fff"/>
      <path id="Path_2481" data-name="Path 2481" d="M1523.65,1668.171q0-25.856,14.171-42.405t37.53-16.545q23.476,0,37.643,16.545t14.168,42.405v3.564q0,25.958-14.115,42.456t-37.477,16.494q-23.585,0-37.75-16.494t-14.171-42.456Zm12.979,3.513q0,20.314,10.276,34.141t28.666,13.831q18.056,0,28.392-13.831t10.329-34.141v-3.568q0-19.984-10.385-33.927t-28.557-13.936q-18.171,0-28.446,13.936t-10.276,33.927Z" transform="translate(-1138.482 -1557.412)" fill="#fff"/>
      <path id="Path_2482" data-name="Path 2482" d="M1608.161,1622.524l-9.624-.651q-12.226,0-20.064,6.872t-11.2,18.871v80.8H1554.3V1611.386h11.356l1.623,19.467v1.3a41.986,41.986,0,0,1,13.628-16.872q8.543-6.067,20.333-6.058a29.81,29.81,0,0,1,4.815.378,35.068,35.068,0,0,1,3.842.812Z" transform="translate(-1038.572 -1557.412)" fill="#fff"/>
      <path id="Path_2483" data-name="Path 2483" d="M1628.025,1695.068l4.108,13.953h.651l35.369-99.293h14.5l-50.84,135.742a66.863,66.863,0,0,1-11.787,20.229q-7.252,8.331-21.2,8.326a38.129,38.129,0,0,1-5.518-.485,27.794,27.794,0,0,1-4.758-1.029l1.512-10.818c.869.149,2.253.312,4.166.491s3.3.267,4.166.267a16.834,16.834,0,0,0,13.517-6,52.648,52.648,0,0,0,8.657-15.416l6.163-15.789-45.211-115.518H1595.9Z" transform="translate(-949.841 -1555.754)" fill="#fff"/>
      <path id="Path_2484" data-name="Path 2484" d="M1608,1668.171q0-25.856,14.169-42.405t37.536-16.545q23.469,0,37.641,16.545t14.169,42.405v3.564q0,25.958-14.117,42.456t-37.477,16.494q-23.585,0-37.752-16.494T1608,1671.735Zm12.981,3.513q0,20.314,10.276,34.141t28.664,13.831q18.059,0,28.393-13.831t10.327-34.141v-3.568q0-19.984-10.382-33.927t-28.553-13.936q-18.174,0-28.448,13.936t-10.276,33.927Z" transform="translate(-863.508 -1557.412)" fill="#fff"/>
      <path id="Path_2485" data-name="Path 2485" d="M1636.943,1668.171q0-25.856,14.173-42.405t37.53-16.545q23.472,0,37.641,16.545t14.171,42.405v3.564q0,25.958-14.115,42.456t-37.477,16.494q-23.591,0-37.75-16.494t-14.173-42.456Zm12.981,3.513q0,20.314,10.274,34.141t28.668,13.831q18.062,0,28.391-13.831t10.329-34.141v-3.568q0-19.984-10.387-33.927t-28.553-13.936q-18.171,0-28.448,13.936t-10.274,33.927Z" transform="translate(-769.151 -1557.412)" fill="#fff"/>
      <path id="Path_2486" data-name="Path 2486" d="M1693.214,1669.3a42.982,42.982,0,0,1,15.58-16.332q9.731-5.839,22.712-5.84,18.492,0,28.395,11.463t9.9,35.589v72.141h-12.981v-72.5q0-19.081-7.519-27.368t-20.709-8.288q-13.309,0-22.23,6.991a40.639,40.639,0,0,0-13.144,18.58v82.587h-12.979V1597.592h12.979Z" transform="translate(-628.023 -1595.321)" fill="#fff"/>
      <path id="Path_2487" data-name="Path 2487" d="M1707.478,1668.171q0-25.856,14.171-42.405t37.53-16.545q23.466,0,37.639,16.545t14.169,42.405v3.564q0,25.958-14.113,42.456t-37.479,16.494q-23.581,0-37.746-16.494t-14.171-42.456Zm12.977,3.513q0,20.314,10.278,34.141t28.662,13.831q18.066,0,28.392-13.831t10.331-34.141v-3.568q0-19.984-10.389-33.927t-28.551-13.936q-18.178,0-28.446,13.936t-10.278,33.927Z" transform="translate(-539.206 -1557.412)" fill="#fff"/>
      <path id="Path_2488" data-name="Path 2488" d="M1736.424,1668.171q0-25.856,14.166-42.405t37.534-16.545q23.466,0,37.637,16.545t14.173,42.405v3.564q0,25.958-14.115,42.456t-37.479,16.494q-23.582,0-37.75-16.494t-14.166-42.456Zm12.979,3.513q0,20.314,10.276,34.141t28.662,13.831q18.062,0,28.39-13.831t10.331-34.141v-3.568q0-19.984-10.382-33.927t-28.555-13.936q-18.171,0-28.446,13.936t-10.276,33.927Z" transform="translate(-444.845 -1557.412)" fill="#fff"/>
    </g>
  </g>
</svg>
